<svg xmlns="http://www.w3.org/2000/svg" xml:space="preserve" viewBox="0 0 36 36"><path d="M4 5a4 4 0 0 0-4 4v18a4 4 0 0 0 4 4h28a4 4 0 0 0 4-4V9a4 4 0 0 0-4-4H4" style="fill:#eee;fill-opacity:1"/><path d="m-64.046 6.71 38.998 25.998m-38.998 0L-25.048 6.71" style="color:#000;fill:#000;stroke-width:4.41969;-inkscape-stroke:none"/><path d="M3.695 5.016a4 4 0 0 0-3.51 2.777L14.323 18 .186 28.207a4 4 0 0 0 3.51 2.777l14.302-10.328 14.305 10.328a4 4 0 0 0 3.51-2.775L21.678 18 35.813 7.791a4 4 0 0 0-3.51-2.775L17.998 15.344z" style="color:#000;fill:#b10021;stroke-width:1.10625;-inkscape-stroke:none"/></svg>