<svg xmlns="http://www.w3.org/2000/svg" xmlns:xlink="http://www.w3.org/1999/xlink" xml:space="preserve" viewBox="0 0 36 36"><defs><g id="b"><path id="a" d="M0 0v1h.5z" transform="rotate(18 3.157 -.5)"/><use xlink:href="#a" transform="scale(-1 1)"/></g></defs><path d="M4 5a4 4 0 0 0-4 4v18a4 4 0 0 0 4 4h28a4 4 0 0 0 4-4V9a4 4 0 0 0-4-4H4" style="fill:#bf0a30;fill-opacity:1"/><path d="m-64.046 6.71 38.998 25.998m-38.998 0L-25.048 6.71" style="color:#000;fill:#000;stroke-width:4.41969;-inkscape-stroke:none"/><path d="M3 17.907 17.938 28 33 17.888 17.938 8Z" style="fill:#002868;stroke-width:.08"/><path d="m6.72 17.93 11.233 7.59 11.327-7.605-11.327-7.435Z" style="fill:#fff;stroke-width:.08"/><path d="M11.854 17.601h.627l.109.35h.385l-.598-1.698h-.41l-.605 1.698h.374zm.312-.965h.005l.21.672h-.432Zm1.038 1.315h.347v-.664h.367q.189-.002.237.073t.04.248q0 .129.01.207a1 1 0 0 0 .028.136h.392v-.045q-.054-.016-.066-.086a2 2 0 0 1-.01-.252q0-.229-.055-.311a.3.3 0 0 0-.16-.12.37.37 0 0 0 .195-.153.47.47 0 0 0 .068-.25.5.5 0 0 0-.038-.19.44.44 0 0 0-.157-.2q-.116-.086-.34-.091h-.858zm.347-.95v-.455h.443q.152.006.202.078a.23.23 0 0 1 .046.145q0 .124-.068.178-.068.055-.206.053zm1.743.375.165-.17.525.745h.457l-.733-1.003.693-.695h-.46l-.647.69v-.69h-.355v1.698h.355zm1.688.225h.627l.108.35h.386l-.598-1.698h-.41l-.605 1.698h.374zm.312-.965h.005l.21.672h-.433Zm2.074.8h-.005l-.674-1.183h-.374v1.698h.331v-1.21h.005l.693 1.21h.355v-1.698h-.331zm.585-.008a.6.6 0 0 0 .05.241.5.5 0 0 0 .213.227q.158.096.463.1a1 1 0 0 0 .24-.03.63.63 0 0 0 .29-.155q.13-.12.14-.37-.007-.225-.136-.322a.8.8 0 0 0-.309-.135l-.414-.102a.3.3 0 0 1-.116-.045q-.059-.036-.064-.132.006-.114.098-.16a.4.4 0 0 1 .198-.044q.224.01.287.1t.06.156h.341a.55.55 0 0 0-.057-.235.5.5 0 0 0-.202-.218.8.8 0 0 0-.403-.096q-.272.005-.414.093a.46.46 0 0 0-.192.21.5.5 0 0 0-.047.22q.008.27.167.365.159.096.373.134l.182.042q.137.03.22.072a.15.15 0 0 1 .087.139q-.006.132-.114.177a.6.6 0 0 1-.24.043q-.227-.009-.296-.102t-.064-.173zm2.027.173h.627l.109.35h.385l-.598-1.698h-.41l-.605 1.698h.374zm.312-.965h.005l.21.672h-.432zm.95.792a.6.6 0 0 0 .051.241.5.5 0 0 0 .212.227q.158.096.464.1a1 1 0 0 0 .24-.03.63.63 0 0 0 .289-.155q.131-.12.14-.37-.007-.225-.135-.322a.76.76 0 0 0-.31-.135l-.414-.102a.3.3 0 0 1-.116-.045q-.06-.036-.063-.132.006-.114.097-.16a.4.4 0 0 1 .198-.044q.225.01.287.1t.06.156h.342a.55.55 0 0 0-.058-.235.5.5 0 0 0-.202-.218.8.8 0 0 0-.403-.096q-.272.004-.414.093a.46.46 0 0 0-.192.21.5.5 0 0 0-.047.22q.009.27.167.365.159.096.373.134l.182.042q.137.03.221.072a.15.15 0 0 1 .086.139q-.006.132-.114.177a.6.6 0 0 1-.24.043q-.226-.009-.296-.102t-.064-.173z" style="font-style:normal;font-variant:normal;font-weight:700;font-stretch:normal;font-size:28px;line-height:125%;font-family:&quot;Helvetica LT Std&quot;;-inkscape-font-specification:&quot;Helvetica LT Std Bold&quot;;text-align:start;writing-mode:lr-tb;text-anchor:start;fill:#002868;fill-opacity:1;stroke:none;stroke-width:.08px;stroke-linecap:butt;stroke-linejoin:miter;stroke-opacity:1"/><path d="m18.359 9.998-.442-.32-.44.322.167-.52-.442-.32h.545l.168-.52.17.519.545-.001-.44.321z" style="fill:#fff;stroke-width:.08"/><path d="m18.797 21.2-.797.566-.798-.565.305.916-.798.567h.986L18 23.6l.305-.916.986-.001-.798-.566z" style="fill:#002868;stroke-width:.08"/><path id="c" d="m16.216 21.2-.797-.566-.798.565.305-.916-.798-.567h.986l.305-.916.304.916.986.001-.797.566z" style="fill:#002868;stroke-width:.08"/><path id="e" d="m17.278 25.483-.32.442.322.44-.52-.167-.32.442v-.545l-.52-.168.519-.17-.001-.545.321.44z" style="fill:#fff;stroke-width:.08"/><path id="o" d="m18.642 25.483.32.442-.322.44.52-.167.32.442v-.545l.52-.168-.519-.17.001-.545-.322.44z" style="fill:#fff;stroke-width:.08"/><use xlink:href="#c" id="d" width="450" height="300" x="0" y="0" transform="translate(5.162)"/><use xlink:href="#d" width="450" height="300" transform="translate(-2.581 -6.8)"/><use xlink:href="#e" id="f" width="450" height="300" x="0" y="0" transform="translate(12.118 -9.52)"/><use xlink:href="#f" id="g" width="450" height="300" x="0" y="0" transform="translate(-2.16 -1.44)"/><use xlink:href="#g" id="h" width="450" height="300" x="0" y="0" transform="translate(-2.16 -1.44)"/><use xlink:href="#h" id="i" width="450" height="300" x="0" y="0" transform="translate(-2.16 -1.36)"/><use xlink:href="#i" id="j" width="450" height="300" x="0" y="0" transform="translate(-2.16 -1.44)"/><use xlink:href="#j" id="k" width="450" height="300" x="0" y="0" transform="translate(-13.078 8.64)"/><use xlink:href="#k" id="l" width="450" height="300" x="0" y="0" transform="translate(1.92 1.28)"/><use xlink:href="#l" id="m" width="450" height="300" x="0" y="0" transform="translate(1.92 1.28)"/><use xlink:href="#m" id="n" width="450" height="300" x="0" y="0" transform="translate(1.92 1.36)"/><use xlink:href="#n" width="450" height="300" transform="translate(1.92 1.28)"/><use xlink:href="#e" width="450" height="300" transform="translate(-11.52 -7.926)"/><use xlink:href="#o" id="p" width="450" height="300" x="0" y="0" transform="translate(-12.08 -9.52)"/><use xlink:href="#p" id="q" width="450" height="300" x="0" y="0" transform="translate(2.16 -1.44)"/><use xlink:href="#q" id="r" width="450" height="300" x="0" y="0" transform="translate(2.16 -1.44)"/><use xlink:href="#r" id="s" width="450" height="300" x="0" y="0" transform="translate(2.16 -1.36)"/><use xlink:href="#s" id="t" width="450" height="300" x="0" y="0" transform="translate(2.16 -1.44)"/><use xlink:href="#t" id="u" width="450" height="300" x="0" y="0" transform="translate(14.96 7.274)"/><use xlink:href="#u" id="v" width="450" height="300" x="0" y="0" transform="translate(-1.92 1.366)"/><use xlink:href="#v" id="w" width="450" height="300" x="0" y="0" transform="translate(-1.92 1.28)"/><use xlink:href="#w" id="x" width="450" height="300" x="0" y="0" transform="translate(-1.92 1.28)"/><use xlink:href="#x" id="y" width="450" height="300" x="0" y="0" transform="translate(-1.92 1.36)"/><use xlink:href="#y" width="450" height="300" transform="translate(-1.92 1.28)"/></svg>