<svg xmlns="http://www.w3.org/2000/svg" xmlns:xlink="http://www.w3.org/1999/xlink" xml:space="preserve" viewBox="0 0 36 36"><defs><g id="b"><path id="a" d="M0 0v1h.5z" transform="rotate(18 3.157 -.5)"/><use xlink:href="#a" transform="scale(-1 1)"/></g></defs><path d="M4 5a4 4 0 0 0-4 4v18a4 4 0 0 0 4 4h28a4 4 0 0 0 4-4V9a4 4 0 0 0-4-4H12Z" style="fill:#eee;fill-opacity:1"/><path d="M4 5a4 4 0 0 0-4 4v4.666h36V9a4 4 0 0 0-4-4z" style="stroke-width:.00601852;fill:#b50027;fill-opacity:1"/><path d="M4 5a4 4 0 0 0-4 4v13.334h17.334V5z" style="stroke-width:.00601852;fill-opacity:1;fill:#002d56"/><path fill="#fff" fill-rule="evenodd" d="m9.055 7.37.617-.435-.756-.011-.223-.722-.244.715-.755-.01.605.452-.243.716.617-.436.605.453ZM6.085 7.901l.345-.672-.675.341-.533-.535.117.747-.674.341.746.12.117.746.344-.672.747.12ZM3.694 9.766l-.008-.755-.438.616-.721-.226.45.606-.438.616.716-.24.45.606-.007-.756.717-.24zM2.461 12.524l-.357-.666-.102.75-.744.134.68.328-.101.749.522-.546.681.327-.358-.665.523-.546ZM2.635 15.53l-.625-.422.257.71-.596.465.755-.026.258.71.21-.726.754-.026-.626-.423.21-.726zM4.194 18.13l-.75-.084.557.51-.311.688.656-.374.558.51-.152-.741.656-.374-.75-.083-.153-.74ZM6.786 19.69l-.703.275.73.192.045.754.407-.636.731.191-.479-.584.408-.636-.704.274-.479-.584ZM9.79 19.876l-.495.57.737-.17.39.648.065-.753.736-.17-.696-.295.065-.753-.495.57-.696-.295zM12.555 18.647l-.174.735.573-.493.646.393-.292-.697.573-.493-.753.062-.292-.696-.174.735-.753.062zM14.42 16.26l.189.732.278-.703.754.048-.582-.482.278-.702-.638.405-.582-.481.188.731-.638.405zM14.08 10.41l.709.262-.42-.628.467-.594-.727.206-.42-.628-.029.755-.726.205.708.261-.03.755zM11.938 8.266l.749-.098-.664-.361.138-.743-.548.52-.663-.36.324.681-.547.52.748-.098.325.682ZM14.963 13.298l.507.56-.08-.751.69-.309-.74-.155-.08-.752-.377.655-.739-.155.507.56-.377.655z" style="stroke-width:.00601852"/><path fill="#eed000" fill-rule="evenodd" stroke="#eed000" stroke-miterlimit="3.864" stroke-width=".01" d="M5.53 17.579h-.22v-.025q.009 0 .027-.002l.025-.004a.04.04 0 0 0 .016-.012.04.04 0 0 0 .005-.021v-.353a.1.1 0 0 0-.004-.02q-.003-.008-.017-.013l-.026-.008-.026-.004v-.025h.22v.025a.2.2 0 0 0-.052.008q-.013.004-.017.013a.1.1 0 0 0-.005.02v.353q0 .01.005.02.006.009.017.014a.2.2 0 0 0 .051.01zM6.129 17.117l-.03.005a.1.1 0 0 0-.028.01q-.012.009-.017.034a.4.4 0 0 0-.004.061v.357h-.03l-.294-.398v.25q0 .043.005.065a.06.06 0 0 0 .016.033.1.1 0 0 0 .033.014l.032.007v.024h-.2v-.024a.2.2 0 0 0 .06-.018.05.05 0 0 0 .016-.03.4.4 0 0 0 .004-.067v-.24a.1.1 0 0 0-.005-.03.1.1 0 0 0-.015-.025.1.1 0 0 0-.033-.02.1.1 0 0 0-.034-.008v-.025h.138l.274.371v-.231a.3.3 0 0 0-.006-.065q-.006-.024-.016-.03a.1.1 0 0 0-.031-.013l-.033-.007v-.025h.198v.025zM6.845 17.384l-.044.01a.03.03 0 0 0-.015.015.1.1 0 0 0-.004.022v.037l.002.08a.5.5 0 0 1-.091.031.4.4 0 0 1-.089.011.24.24 0 0 1-.165-.067.2.2 0 0 1-.052-.08.3.3 0 0 1-.019-.103q0-.057.018-.103a.3.3 0 0 1 .052-.083.245.245 0 0 1 .246-.062q.03.009.054.024l.014-.024h.027l.003.17h-.028l-.018-.055a.2.2 0 0 0-.027-.049.119.119 0 0 0-.099-.047.14.14 0 0 0-.115.06.2.2 0 0 0-.032.07.4.4 0 0 0 0 .182q.01.041.032.071t.053.048a.15.15 0 0 0 .072.018q.03 0 .055-.01a.1.1 0 0 0 .035-.02l.003-.035v-.057999999999999996a.1.1 0 0 0-.004-.025.03.03 0 0 0-.016-.017.388.388 0 0 0-.061-.01v-.026h.213v.025zM7.323 17.15q.032.034.05.081a.3.3 0 0 1 .019.105.3.3 0 0 1-.019.105.23.23 0 0 1-.125.132.232.232 0 0 1-.184-.001.2.2 0 0 1-.073-.054.24.24 0 0 1-.05-.08.3.3 0 0 1-.017-.102q0-.06.019-.106a.3.3 0 0 1 .051-.08.22.22 0 0 1 .164-.07.23.23 0 0 1 .165.07zm-.05.345a.2.2 0 0 0 .027-.07.4.4 0 0 0-.03-.252.128.128 0 0 0-.112-.062.13.13 0 0 0-.07.019.15.15 0 0 0-.047.05.3.3 0 0 0-.025.071.4.4 0 0 0 0 .174q.01.04.028.07a.14.14 0 0 0 .047.048.13.13 0 0 0 .067.017.13.13 0 0 0 .114-.065zM7.93 17.338a.22.22 0 0 1-.084.182.3.3 0 0 1-.085.044.3.3 0 0 1-.097.015h-.2v-.025a.2.2 0 0 0 .046-.006.03.03 0 0 0 .015-.013.04.04 0 0 0 .005-.021v-.351a.1.1 0 0 0-.005-.021.03.03 0 0 0-.015-.015l-.023-.007-.021-.003v-.025h.212a.3.3 0 0 1 .16.05.2.2 0 0 1 .068.08.3.3 0 0 1 .024.116zm-.084 0a.3.3 0 0 0-.013-.088.2.2 0 0 0-.038-.07.177.177 0 0 0-.135-.06l-.058.001v.374q0 .032.019.044.018.012.055.012a.2.2 0 0 0 .076-.016.14.14 0 0 0 .053-.043.2.2 0 0 0 .031-.066.4.4 0 0 0 .01-.088zM8.858 17.117l-.02.004-.02.009a.1.1 0 0 0-.02.018.1.1 0 0 0-.013.027l-.126.41h-.032l-.122-.374-.128.374h-.03l-.07-.249-.049-.173a.06.06 0 0 0-.025-.034l-.02-.009-.021-.003v-.025h.198v.025l-.044.005q-.018.003-.018.012v.01a1 1 0 0 0 .03.108l.06.208.12-.36h.034l.123.368.082-.301.002-.02q0-.012-.016-.02a.2.2 0 0 0-.052-.01v-.025h.177ZM9.33 17.435l-.01.144h-.403v-.025l.05-.007a.03.03 0 0 0 .015-.013.04.04 0 0 0 .004-.021v-.35a.1.1 0 0 0-.004-.02.03.03 0 0 0-.015-.014l-.025-.008-.025-.004v-.025h.376v.118h-.026a.2.2 0 0 0-.03-.056q-.022-.03-.043-.032a.3.3 0 0 0-.059-.003H9.06v.194h.055q.026 0 .038-.005a.1.1 0 0 0 .022-.017.1.1 0 0 0 .013-.026l.007-.032h.025v.19h-.025a.2.2 0 0 0-.02-.06.05.05 0 0 0-.024-.018.1.1 0 0 0-.036-.004h-.055v.146q0 .021.003.034a.03.03 0 0 0 .012.02.1.1 0 0 0 .024.008l.044.002h.03a.3.3 0 0 0 .058-.006.04.04 0 0 0 .02-.01.333.333 0 0 0 .055-.1h.025zM10.044 17.224h-.023l-.012-.029-.017-.032a.2.2 0 0 0-.023-.027.04.04 0 0 0-.023-.014.3.3 0 0 0-.057-.003h-.02v.39q0 .01.005.02a.03.03 0 0 0 .017.014l.026.007.03.004v.025h-.229v-.025l.057-.007a.03.03 0 0 0 .016-.013.04.04 0 0 0 .005-.023v-.392h-.02l-.056.003q-.01 0-.024.014l-.022.027a.2.2 0 0 0-.029.061h-.024v-.132h.423v.132zM10.597 17.579h-.131a3 3 0 0 0-.155-.22h-.05v.154q0 .012.004.02.004.01.016.015l.022.004.026.003v.024h-.206v-.024l.046-.007a.03.03 0 0 0 .015-.013.1.1 0 0 0 .005-.022v-.352l-.004-.021q-.003-.01-.016-.014l-.022-.006-.024-.003v-.025h.225q.03 0 .058.007.027.006.049.02.02.014.034.036a.134.134 0 0 1 .004.103.1.1 0 0 1-.026.037.2.2 0 0 1-.037.026.3.3 0 0 1-.047.018l.118.16q.015.02.027.03l.024.016.022.007.023.002v.025zm-.18-.363a.1.1 0 0 0-.026-.07.1.1 0 0 0-.071-.026h-.059v.209h.045a.1.1 0 0 0 .079-.03.11.11 0 0 0 .032-.083zM11.105 17.117l-.028.004a.1.1 0 0 0-.03.011q-.013.007-.016.033a.3.3 0 0 0-.005.06v.212a.14.14 0 0 1-.06.119.214.214 0 0 1-.114.035.2.2 0 0 1-.08-.012.2.2 0 0 1-.057-.031.125.125 0 0 1-.046-.097v-.288a.04.04 0 0 0-.004-.02.04.04 0 0 0-.016-.015l-.022-.008-.022-.003v-.025h.203v.025a.2.2 0 0 0-.046.008.03.03 0 0 0-.016.014l-.004.02v.27q0 .019.005.04a.1.1 0 0 0 .053.07.14.14 0 0 0 .063.013.2.2 0 0 0 .063-.012.1.1 0 0 0 .04-.032.1.1 0 0 0 .02-.038.2.2 0 0 0 .006-.041v-.2a.3.3 0 0 0-.005-.062q-.006-.024-.017-.032a.1.1 0 0 0-.032-.013l-.032-.005v-.025h.199v.025zM11.465 17.356a.1.1 0 0 1 .023.037q.007.021.007.048a.14.14 0 0 1-.047.106.17.17 0 0 1-.118.042.258.258 0 0 1-.121-.035l-.015.025h-.028l-.005-.166h.028q.008.03.02.055a.2.2 0 0 0 .03.047.122.122 0 0 0 .097.044q.024 0 .042-.006a.07.07 0 0 0 .045-.044.1.1 0 0 0 .005-.035.1.1 0 0 0-.017-.055.1.1 0 0 0-.049-.038l-.05-.02-.05-.02a.2.2 0 0 1-.064-.048.13.13 0 0 1-.023-.079.1.1 0 0 1 .011-.052.143.143 0 0 1 .08-.07.163.163 0 0 1 .116 0 .3.3 0 0 1 .049.024l.014-.024h.027l.003.162h-.028l-.017-.053a.2.2 0 0 0-.024-.046.105.105 0 0 0-.088-.044.08.08 0 0 0-.056.021.07.07 0 0 0-.023.051q0 .032.015.053t.043.034l.049.02a1 1 0 0 1 .086.04.2.2 0 0 1 .033.026zM11.991 17.224h-.023l-.012-.029-.018-.032-.022-.027a.04.04 0 0 0-.023-.014.3.3 0 0 0-.057-.003h-.02v.39q0 .01.005.02a.03.03 0 0 0 .017.014l.025.007.031.004v.025h-.23v-.025l.057-.007a.03.03 0 0 0 .017-.013.04.04 0 0 0 .005-.023v-.392h-.02l-.056.003a.04.04 0 0 0-.024.014l-.022.027a.2.2 0 0 0-.03.061h-.023v-.132h.423z"/><path fill="#eed000" d="M8.684 11.417h.002s.06.02.06.115q.08-.015.065.084s-.063-.017-.073.019q-.024.062.035.102s.066.052.107-.047l.056-.132c.011-.036.08-.121.142-.133a.1.1 0 0 1 .071-.002s.055.012.056.057c.002.046-.017.065-.047.079-.034.014-.076-.017-.076-.017-.015-.003-.02.002-.028.008a.2.2 0 0 0-.032.043s-.03.064-.044.113c-.011.038-.036.154-.154.171h-.277c-.117-.017-.142-.133-.153-.171-.015-.049-.045-.113-.045-.113a.14.14 0 0 0-.031-.043c-.01-.006-.014-.01-.028-.008 0 0-.042.031-.076.017-.03-.014-.05-.033-.048-.079.002-.045.056-.057.056-.057a.1.1 0 0 1 .072.002c.062.012.13.097.142.133l.056.132c.041.099.107.047.107.047q.058-.04.035-.102c-.01-.036-.073-.019-.073-.019q-.016-.099.064-.084c0-.094.06-.116.061-.116h.002z" style="stroke-width:.00601852"/><path fill="#eed000" fill-rule="evenodd" stroke="#002d56" stroke-miterlimit="3.864" stroke-width=".051" d="M9.029 14.581h-.67l.078-2.616h.516ZM9.026 16.036h-.712v-1.188h.712z"/><path fill="#eed000" stroke="#002d56" stroke-miterlimit="3.864" stroke-width=".051" d="M8.302 14.713h.722c.05 0 .091.03.091.068s-.04.068-.091.068h-.722c-.05 0-.09-.03-.09-.068s.04-.068.09-.068z"/><path fill="#eed000" fill-rule="evenodd" stroke="#002d56" stroke-miterlimit="3.864" stroke-width=".051" d="M8.356 14.584h.63c.045 0 .08.029.08.064s-.035.065-.08.065h-.63c-.045 0-.081-.03-.081-.065s.036-.064.08-.064z"/><path fill="none" stroke="#002d56" stroke-miterlimit="3.864" stroke-width=".051" d="M8.475 15.07h.38v.784h-.38Z"/><path fill="#eed000" stroke="#002d56" stroke-miterlimit="3.864" stroke-width=".029" d="M8.467 11.874h.437c.035 0 .065.021.065.047s-.03.047-.065.047h-.437c-.036 0-.065-.02-.065-.047 0-.026.029-.047.065-.047z"/><path fill="#eed000" fill-rule="evenodd" stroke="#002d56" stroke-miterlimit="3.864" stroke-width=".06" d="M5.102 16.178h7.257v.245H5.102Z"/><path fill="#eed000" stroke="#002d56" stroke-miterlimit="3.864" stroke-width=".036" d="M4.792 16.42h7.881v.26h-7.88Z"/><path fill="#eed000" fill-rule="evenodd" stroke="#002d56" stroke-miterlimit="3.864" stroke-width=".057" d="M5.317 10.865h6.775v.15H5.317Z"/><path d="M10.816 10.86A2.3 2.3 0 0 0 8.7 9.432a2.3 2.3 0 0 0-2.114 1.428h-.842c.39-1.292 1.567-2.24 2.956-2.24s2.569.946 2.958 2.24z" style="fill:#eed000;fill-rule:evenodd;stroke:#002d56;stroke-width:.0294901;stroke-linejoin:round;stroke-miterlimit:3.8637"/><path fill="#eed000" fill-rule="evenodd" stroke="#002d56" stroke-miterlimit="3.864" stroke-width=".036" d="M5.499 11.017s.117.07.214.278h6.028s.1-.233.236-.279z"/><path d="M6.994 11.35s.558.958 1.694.945c1.122-.013 1.694-.913 1.694-.913l.299.443s.11.15-.104.34c-.758.667-1.359.798-1.889.794q-1.175-.064-1.895-.795c-.087-.072-.105-.166-.079-.244z" style="fill:#eed000;fill-rule:evenodd;stroke:#002d56;stroke-width:.0294901;stroke-linejoin:round;stroke-miterlimit:3.8637"/><path fill="none" stroke="#002d56" stroke-miterlimit="3.864" stroke-width=".038" d="M6.703 12.02s-.034-.195.272-.038l.022-.63M10.702 11.887c-.097-.21-.276.047-.276.047l-.045-.549"/><path fill="#eed000" stroke="#002d56" stroke-miterlimit="3.864" stroke-width=".03" d="M5.68 11.307h6.061a.04.04 0 0 1 .039.04v.014a.04.04 0 0 1-.039.04h-6.06a.04.04 0 0 1-.04-.04v-.014a.04.04 0 0 1 .04-.04z"/><path fill="#eed000" d="m6.216 11.41.002-.001s.06.021.06.115q.08-.015.065.085s-.063-.018-.073.018q-.024.063.035.102s.066.052.107-.046l.056-.133c.012-.036.08-.12.142-.133a.1.1 0 0 1 .072-.001s.054.011.056.057c.001.045-.017.065-.048.078-.034.015-.076-.017-.076-.017-.014-.002-.019.003-.028.009a.2.2 0 0 0-.031.043s-.03.064-.045.112c-.011.039-.036.154-.153.172H6.08c-.118-.018-.143-.133-.154-.172-.014-.048-.045-.112-.045-.112a.14.14 0 0 0-.03-.043c-.01-.006-.014-.011-.029-.009 0 0-.042.032-.076.017-.03-.013-.049-.033-.047-.078.001-.046.056-.057.056-.057a.1.1 0 0 1 .071.001c.062.012.13.097.142.133l.056.133c.041.098.107.046.107.046q.059-.039.035-.102c-.01-.036-.073-.018-.073-.018q-.015-.1.064-.085c0-.094.06-.115.061-.115h.002z" style="stroke-width:.00601852"/><path fill="#eed000" fill-rule="evenodd" stroke="#002d56" stroke-miterlimit="3.864" stroke-width=".051" d="M6.553 14.581h-.67l.09-2.616h.494zM6.574 16.036h-.712v-1.188h.712z"/><path fill="#eed000" fill-rule="evenodd" stroke="#002d56" stroke-miterlimit="3.864" stroke-width=".051" d="M5.857 14.713h.722c.05 0 .091.03.091.068s-.04.068-.091.068h-.722c-.05 0-.09-.03-.09-.068s.04-.068.09-.068zM5.903 14.584h.63c.045 0 .081.029.081.064s-.036.065-.08.065h-.63c-.046 0-.082-.03-.082-.065s.036-.064.081-.064z"/><path fill="none" stroke="#002d56" stroke-miterlimit="3.864" stroke-width=".051" d="M6.028 15.07h.38v.784h-.38Z"/><path fill="#eed000" stroke="#002d56" stroke-miterlimit="3.864" stroke-width=".029" d="M6 11.884h.437c.036 0 .065.021.065.047s-.03.047-.065.047H6c-.036 0-.065-.02-.065-.047 0-.026.029-.047.065-.047z"/><path fill="#eed000" fill-rule="evenodd" stroke="#002d56" stroke-miterlimit="3.864" stroke-width=".025" d="M5.71 16.039h1.015v.137H5.711Z"/><path fill="#eed000" d="M11.188 11.417h.002s.06.02.06.115q.081-.015.065.084s-.063-.017-.073.019q-.024.062.035.102s.066.052.107-.047l.056-.132c.012-.036.08-.121.142-.133a.1.1 0 0 1 .072-.002s.054.012.056.057c.001.046-.017.065-.048.079-.034.014-.076-.017-.076-.017-.014-.003-.019.002-.028.008a.2.2 0 0 0-.031.043s-.03.064-.045.113c-.011.038-.036.154-.153.171h-.277c-.118-.017-.143-.133-.154-.171-.014-.049-.045-.113-.045-.113a.2.2 0 0 0-.03-.043c-.01-.006-.014-.01-.029-.008 0 0-.042.031-.076.017-.03-.014-.049-.033-.047-.079.001-.045.056-.057.056-.057a.1.1 0 0 1 .071.002c.062.012.13.097.142.133l.056.132c.041.099.107.047.107.047q.059-.04.035-.102c-.01-.036-.073-.019-.073-.019q-.015-.099.064-.084c0-.094.06-.116.061-.116h.002z" style="stroke-width:.00601852"/><path fill="#eed000" fill-rule="evenodd" stroke="#002d56" stroke-miterlimit="3.864" stroke-width=".051" d="M11.538 14.581h-.67l.089-2.616h.495zM11.575 16.036h-.712l-.007-1.188h.72z"/><path fill="#eed000" stroke="#002d56" stroke-miterlimit="3.864" stroke-width=".051" d="M10.857 14.713h.721c.05 0 .091.03.091.068s-.04.068-.09.068h-.722c-.05 0-.091-.03-.091-.068s.04-.068.09-.068z"/><path fill="#eed000" fill-rule="evenodd" stroke="#002d56" stroke-miterlimit="3.864" stroke-width=".051" d="M10.893 14.584h.63c.045 0 .081.029.081.064s-.036.065-.08.065h-.63c-.046 0-.082-.03-.082-.065s.036-.064.081-.064z"/><path fill="none" stroke="#002d56" stroke-miterlimit="3.864" stroke-width=".051" d="M11.022 15.07h.38v.784h-.38Z"/><path fill="#eed000" stroke="#002d56" stroke-miterlimit="3.864" stroke-width=".029" d="M10.981 11.874h.437c.036 0 .065.021.065.047s-.03.047-.065.047h-.437c-.036 0-.065-.02-.065-.047 0-.026.03-.047.065-.047z"/><path fill="#eed000" fill-rule="evenodd" stroke="#002d56" stroke-miterlimit="3.864" stroke-width=".025" d="M8.146 16.039H9.16v.137H8.146Z"/><path fill="#eed000" fill-rule="evenodd" stroke="#002d56" stroke-miterlimit="3.864" stroke-width=".045" d="M4.38 14.184c-.172-.124-.354-.091-.354-.091s.131-.175.341-.088c.134.055.247.26.585.045.339-.215.47-.323.768-.423.306-.103.546-.124.617-.15.072-.026.184-.067.241-.41.013-.079.325.651.325.651s-.045.241-.344.378c-.3.137-.818.219-1.106.45-.097.078-.285.213-.398.38-.267.39-.545.435-.545.435s.252-.221.322-.519c.013-.055-.008-.304.091-.404-.105.106-.372-.102-.338-.075 0 0-.032-.055-.205-.179zM10.834 13.072s.052.297.634.447.673.339.767.385.34.22.602.133c.103-.034.392-.114.415-.096.009.015-.082.168-.093.18-.194.23-.267.265-.339.3-.156.08-.168.089-.28.095 0 0 .105.13.121.342s.3.427.3.427-.378-.097-.544-.322a1.8 1.8 0 0 0-.54-.466c-.1-.05-.614-.225-.721-.268-.107-.042-.442-.218-.488-.501s.166-.656.166-.656z"/><path fill="#eed000" stroke="#002d56" stroke-miterlimit="3.864" stroke-width=".045" d="M5.316 13.3c-.395-.154-.273-.259-.273-.259.097-.174.225-.392.706-.577.644-.248 1.3-.137 1.125.15-.107.174-.291.479-.291.479s-.076-.205-.428-.075c-.35.13-.46.186-.48.255-.032.107-.02.176.234.136-.166.056-.35-.002-.558-.094z"/><path fill="#eed000" stroke="#002d56" stroke-linejoin="round" stroke-miterlimit="3.864" stroke-width=".038" d="M11.336 13.008c.073.02.198.08.271.132.358.257.292.482.193.487-.11.007.702-.016.8-.068.097-.052.13-.11.07-.235-.058-.123-.5-.88-1.222-1.023-.721-.143-1.007.161-.946.264.059.098.325.424.335.557q.11-.212.5-.114z"/><g fill-rule="evenodd"><path fill="#002d56" d="m10.99 12.868-.139-.2.036.218-.056.009-.063-.379.06-.01.181.253.091-.299.053-.009.063.38-.074.012-.036-.218-.074.236zM11.565 12.723q-.018.09-.067.128a.14.14 0 0 1-.116.025.14.14 0 0 1-.096-.068q-.03-.056-.013-.143l.004-.022a.23.23 0 0 1 .065-.126.13.13 0 0 1 .12-.029q.072.015.098.075.025.06.01.14zm-.08-.021.003-.01a.4.4 0 0 0 .01-.106q-.006-.037-.048-.045-.04-.008-.059.02a.3.3 0 0 0-.034.104l-.002.009a.3.3 0 0 0-.01.109q.006.03.048.04a.05.05 0 0 0 .056-.021.3.3 0 0 0 .037-.1M11.873 12.89q-.045.081-.097.104-.051.023-.112-.01l-.118-.063.183-.338.105.057q.072.04.08.1a.23.23 0 0 1-.033.136zm-.07-.042.004-.01a.2.2 0 0 0 .028-.094.06.06 0 0 0-.034-.057l-.027-.014-.128.237.033.018q.03.015.059.001.028-.015.064-.081M12.082 12.905l-.072.074.077.076-.04.041-.078-.076-.075.077.106.105-.04.041-.165-.162.269-.274.158.155-.04.041zM12.12 13.513l-.04-.07a.4.4 0 0 0 .105-.082q.025-.034.009-.064l-.01-.017-.148.088-.042-.07.33-.196.073.124q.026.045.017.076a.08.08 0 0 1-.04.049l-.017.01a.07.07 0 0 1-.055.01.1.1 0 0 1-.05-.037q.01.045-.018.086a.4.4 0 0 1-.114.093m.189-.217.009-.006q.021-.013.024-.028.003-.017-.01-.038l-.013-.023-.088.051.012.02q.015.025.03.03.016.005.036-.006M11.084 13.987l-.068-.05.032-.09-.097-.07-.076.057-.054-.039.324-.239.062.046zm-.017-.195.046-.141-.117.09zM11.51 13.827l-.07-.035-.144.294-.073-.036.142-.294-.072-.035.025-.052.217.107zM11.686 13.835l-.15.353-.075-.032.15-.354zM11.977 14.186q-.037.083-.094.11a.14.14 0 0 1-.118 0 .14.14 0 0 1-.08-.088.2.2 0 0 1 .019-.143l.008-.02a.23.23 0 0 1 .09-.109.13.13 0 0 1 .125-.002q.066.03.079.094a.23.23 0 0 1-.02.139zm-.074-.039.005-.009a.4.4 0 0 0 .032-.101q.003-.036-.037-.054-.036-.016-.061.006a.3.3 0 0 0-.056.095l-.004.008a.3.3 0 0 0-.033.104q-.001.032.038.05.03.014.06-.009a.3.3 0 0 0 .056-.09M12.233 14.348l.113-.197.05.029-.19.333-.031-.018-.038-.3-.12.209-.05-.03.19-.332.039.022zM5.687 13.075l-.051.03-.284-.277.071-.042.18.176-.064-.246.05-.03.188.17-.075-.238.057-.035.111.382-.05.03-.195-.175zM5.97 12.531l.113.368-.079.024-.112-.368zM6.411 12.727q.009.06-.025.095a.18.18 0 0 1-.103.044.4.4 0 0 1-.066.004.2.2 0 0 1-.046-.005l-.01-.066q.016.007.046.01t.058 0q.04-.005.053-.02.014-.012.01-.038a.05.05 0 0 0-.015-.028.2.2 0 0 0-.066-.026.2.2 0 0 1-.068-.034.1.1 0 0 1-.032-.07.1.1 0 0 1 .025-.079.15.15 0 0 1 .094-.044.3.3 0 0 1 .09.002l.008.058-.042-.004q-.02 0-.043.002-.033.005-.046.017a.03.03 0 0 0-.01.029q.001.02.015.029.012.009.067.022.051.011.076.037a.1.1 0 0 1 .03.065M7.597 12.466a.1.1 0 0 1-.052.048q-.033.012-.078-.01a.2.2 0 0 1-.04-.025.1.1 0 0 1-.02-.023l.026-.053a.2.2 0 0 0 .045.036.04.04 0 0 0 .027.004q.013-.003.022-.02l.13-.257.074.037zM8.014 12.62a.11.11 0 0 1-.06.068q-.04.017-.103-.007-.066-.026-.083-.067t.005-.103l.093-.24.076.029-.096.25q-.011.03-.004.05.006.019.038.03.029.012.047.004.019-.008.032-.042l.096-.25.056.023zM8.419 12.703q-.007.06-.05.085a.18.18 0 0 1-.11.015.4.4 0 0 1-.065-.013.2.2 0 0 1-.042-.017l.008-.066a.237.237 0 0 0 .097.036q.04.005.056-.004.015-.01.02-.035a.05.05 0 0 0-.008-.031.2.2 0 0 0-.057-.042.2.2 0 0 1-.057-.051.1.1 0 0 1-.013-.076.1.1 0 0 1 .045-.07.15.15 0 0 1 .102-.018.3.3 0 0 1 .087.025l-.007.059-.04-.015a.2.2 0 0 0-.043-.01q-.032-.003-.048.006a.03.03 0 0 0-.018.024q-.002.021.007.032t.06.039a.15.15 0 0 1 .063.056q.018.03.013.07M8.797 12.512l-.08-.002-.005.327-.082-.001.006-.327-.081-.002v-.057l.243.004zM9.02 12.433l.047.381-.081.01-.047-.38zM9.48 12.7a.1.1 0 0 1-.027.02.2.2 0 0 1-.047.02.16.16 0 0 1-.13-.01q-.058-.032-.085-.122l-.004-.015a.2.2 0 0 1 .004-.146.15.15 0 0 1 .098-.085.3.3 0 0 1 .05-.011.1.1 0 0 1 .034 0l.017.058-.03-.002a.2.2 0 0 0-.04.008.08.08 0 0 0-.057.055.2.2 0 0 0 .006.104l.002.005q.02.066.051.09.033.024.07.013a.2.2 0 0 0 .07-.039zM9.593 12.293l.046.092.097-.05.026.052-.096.05.049.096.133-.068.026.051-.206.106-.174-.343.197-.1.026.05zM5.552 14.122q.046.082.037.139t-.069.09l-.117.065-.186-.336.105-.059q.072-.039.127-.013.054.025.096.1zm-.073.038-.005-.009a.2.2 0 0 0-.065-.074q-.034-.02-.065-.002l-.027.015.13.236.033-.019a.06.06 0 0 0 .033-.049q.002-.032-.034-.098M5.898 13.978q.036.084.017.144a.14.14 0 0 1-.082.086.14.14 0 0 1-.117-.002q-.057-.027-.092-.11l-.008-.02a.23.23 0 0 1-.018-.14.13.13 0 0 1 .083-.093.13.13 0 0 1 .122.006.23.23 0 0 1 .087.11zm-.078.027-.004-.01a.4.4 0 0 0-.051-.092q-.024-.027-.065-.01-.036.015-.037.05 0 .033.03.105l.004.009q.03.072.053.095t.062.006a.05.05 0 0 0 .035-.05.3.3 0 0 0-.027-.103M6.2 14.075l-.173-.171.075.207-.053.02-.131-.362.057-.02.224.216.035-.311.05-.019.132.362-.07.025-.076-.207-.03.246zM6.706 10.273a.1.1 0 0 1-.01.036.3.3 0 0 1-.03.053.2.2 0 0 1-.125.085q-.075.014-.159-.045l-.014-.01a.22.22 0 0 1-.095-.134.18.18 0 0 1 .032-.147.4.4 0 0 1 .038-.047.1.1 0 0 1 .03-.024l.056.039a.205.205 0 0 0-.06.057.1.1 0 0 0-.014.09q.015.046.074.088l.005.003q.063.045.108.043a.09.09 0 0 0 .073-.04.2.2 0 0 0 .037-.085zM6.914 9.76q.072.07.077.141a.16.16 0 0 1-.05.128.16.16 0 0 1-.126.054q-.072-.002-.143-.07l-.018-.018a.24.24 0 0 1-.077-.137q-.01-.073.05-.136.058-.06.132-.051.072.009.138.073zm-.072.065-.008-.008a.4.4 0 0 0-.094-.071q-.036-.017-.072.02-.032.033-.02.068a.3.3 0 0 0 .077.096l.008.007q.063.06.096.074.034.012.069-.024a.06.06 0 0 0 .016-.067.3.3 0 0 0-.072-.095M7.294 9.498l-.149-.204.056-.04.25.344-.033.025-.33-.092.157.217-.055.04-.25-.345.04-.03zM7.825 9.282q.029.06.001.11a.2.2 0 0 1-.1.082 1 1 0 0 1-.073.028.3.3 0 0 1-.053.01l-.031-.067q.018.003.053-.005a.3.3 0 0 0 .065-.02q.043-.02.053-.04.011-.018 0-.044a.05.05 0 0 0-.026-.025.2.2 0 0 0-.082-.004.2.2 0 0 1-.087-.013.12.12 0 0 1-.058-.063.1.1 0 0 1 .003-.093.18.18 0 0 1 .09-.08.3.3 0 0 1 .102-.03l.028.06-.048.01a.3.3 0 0 0-.049.018q-.034.015-.045.034t-.003.034q.01.02.026.026.017.005.082 0 .061-.006.097.013a.12.12 0 0 1 .055.059M8.193 8.928l-.09.024.095.35-.093.026-.094-.35-.092.024-.016-.062.274-.073zM8.442 8.834l.096-.007.03.425-.096.007zM9.052 8.908l-.093-.006-.025.362-.096-.007.026-.362-.095-.006.004-.064.283.02zM9.518 9.273a.12.12 0 0 1-.063.08q-.045.021-.12-.001-.079-.025-.103-.07t-.003-.114l.083-.275.092.028-.087.286q-.01.033 0 .054t.047.033q.034.01.055 0 .021-.009.033-.048l.087-.283.068.02zM10.054 9.247l-.083-.043-.164.324-.086-.044.165-.323-.085-.043.029-.057.253.129zM10.29 9.323l.077.056-.25.345-.078-.057zM10.663 9.946q-.07.072-.143.075a.16.16 0 0 1-.127-.052.16.16 0 0 1-.052-.127q.004-.072.074-.142l.017-.017a.24.24 0 0 1 .139-.075q.073-.01.135.052.06.06.049.133a.25.25 0 0 1-.076.137zm-.064-.072.008-.008a.4.4 0 0 0 .073-.093q.018-.036-.019-.072-.033-.035-.068-.02a.3.3 0 0 0-.096.074l-.008.008a.4.4 0 0 0-.075.095q-.015.033.022.068.03.03.067.017a.3.3 0 0 0 .096-.07M10.928 10.317l.204-.148.04.056-.345.25-.024-.033.091-.33-.216.157-.04-.055.344-.25.03.04z"/><path fill="#eed000" stroke="#eed000" stroke-miterlimit="3.864" stroke-width=".00983066" d="M10.07 13.42s.023-.026.03-.007c.008.018.01.035.003.042-.006.007-.005.011-.015.023s-.005.019-.014.024-.013.003-.022.003l-.004.03-.007.024.004.023.017.038-.013-.028.018.03c.013.036.142.072.189.093.097.043.082.25.092.27s.05.294.05.34-.05.294-.055.345l-.016.148c0 .012-.018-.004-.024.007a.2.2 0 0 0-.004.07c-.004.03-.012.054-.013.07-.006.055-.057.06-.057.06s-.002.193-.012.239-.018.055-.002.182c.015.128-.02.287-.02.287s-.053.232-.064.268c-.01.036.007.069.012.094a.4.4 0 0 1 .005.067H9.7c-.011 0 .008-.04.023-.07a.09.09 0 0 1 .059-.038c.03-.005.033-.038.05-.079.019-.04.011-.127-.004-.181a1.3 1.3 0 0 1-.036-.23 1 1 0 0 0-.05-.222 1.2 1.2 0 0 1-.04-.243.1.1 0 0 0-.008-.029c-.007-.017-.008-.043-.022-.083-.026-.072-.023-.159-.026-.233a.4.4 0 0 0-.043-.174l-.008-.032-.08.025-.075.06c-.017.014-.035.017-.066.02-.06.005-.12-.065-.133-.166-.016-.112.006-.16.13-.16h.056l.048.002h.023s.014.028-.008.037l-.027.011.027.032s.015-.01.062-.036l.017-.04c.001-.025.003-.031-.002-.06a3 3 0 0 1-.015-.227q0-.06.005-.128c.004-.04.003-.13.023-.168.024-.047.155-.068.155-.068s.057-.006.064-.021l.024-.04c-.037-.013-.049-.058-.054-.069-.006-.011-.016-.064-.017-.069-.002-.007-.013-.055-.02-.074-.006-.019 0-.053 0-.053l-.042-.004-.05-.004s-.028-.004-.036-.007-.031-.008-.031-.008-.04-.034 0-.061c.039-.028.086-.053.093-.058.008-.004.01-.012.01-.012v-.01a.3.3 0 0 1-.03-.074c-.01-.041.098-.058.098-.058.03-.003.136.01.125.008.022.005.036.004.078.004s.096.015.127.022a.13.13 0 0 1 .077.063c.016.03.08.066.098.085.028.027.062.085.075.106.023.037-.002.028-.01.033-.035.02-.232-.024-.215-.022q.019.002-.004-.011v.014l-.012.043z"/></g><path fill="none" stroke="#002d56" stroke-miterlimit="3.864" stroke-width=".025" d="M9.86 13.972q.008-.156.03-.258c.006-.021 0-.032 0-.032-.027 0-.045-.002-.073-.035"/><path fill="none" stroke="#002d56" stroke-miterlimit="3.864" stroke-width=".029" d="m9.687 15.113.006-.043s.014-.025.009-.073c-.005-.049 0-.184.013-.253.012-.065.114-.268.124-.322.01-.046.01-.202.01-.215 0-.004-.004-.019-.002-.076"/><path fill="none" d="M9.602 14.58c.013.018.04.1.043.174s-.01.161.016.233q.021.059.032.083c.006.014.029.022.029.029 0 .015.013.171.038.243s.041.176.041.222.02.176.036.23.023.14.005.181-.023.066-.051.08c-.022.01-.032.014-.05.035-.02.025-.043.072-.032.072h.43s0-.041-.006-.067c-.005-.025-.036-.061-.025-.097l.076-.265s.036-.159.02-.287-.02-.127-.01-.173.022-.23.022-.23.08-.021.085-.077c.005-.057.037-.245.042-.296s.056-.3.056-.345c0-.046-.041-.32-.051-.34s0-.179-.097-.222c-.047-.021-.17-.105-.184-.14l-.018-.031" style="stroke-width:.00601852"/><path fill="none" stroke="#002d56" stroke-linejoin="round" stroke-miterlimit="3.864" stroke-width=".033" d="m9.822 13.62-.024.04s-.195.043-.22.09c-.019.038-.027.257-.027.296s.01.2.015.228.003.034.002.06"/><path fill="none" stroke="#002d56" stroke-miterlimit="3.864" stroke-width=".029" d="M9.934 14.261c.002.02-.003.151.051.235.023.036.123.23.146.256.013.014.047.02.055.04.045.105-.002.209.06.224l.018.06"/><path fill="none" stroke="#002d56" stroke-miterlimit="3.864" stroke-width=".025" d="M10.074 13.619a.24.24 0 0 1-.125.058c-.015 0-.006.03-.013.068s-.007.26-.002.289c.002.011-.002.017-.003.053"/><path d="m10.14 13.893.026.102.036.19.013.114.003.102-.003.087-.01.062-.013.056-.023.184c.074-.018.123 0 .158.028" style="fill:none;stroke:#002d56;stroke-width:.0294901;stroke-linecap:round;stroke-linejoin:round;stroke-miterlimit:3.8637"/><path fill="none" stroke="#002d56" stroke-miterlimit="3.864" stroke-width=".029" d="m9.651 13.705.005.017c-.007-.038.117.508.538.764l.02.013"/><path fill="none" stroke="#002d56" stroke-miterlimit="3.864" stroke-width=".029" d="M9.734 13.682c.044.14.177.493.48.676l.003.026M9.798 14.52a.4.4 0 0 0 .198-.003M9.92 14.917c.015.106.034.233.04.253.01.036.02.215.02.215l.005.174.005.22v.255a.16.16 0 0 0-.066.131"/><path fill="none" stroke="#002d56" stroke-linejoin="round" stroke-miterlimit="3.864" stroke-width=".027" d="M9.5 14.37c-.027.04-.156-.035-.162.076-.005.086.011.182.094.193l.06-.04.017-.017"/><path fill="#eed000" fill-rule="evenodd" d="M9.423 14.325c-.036-.555-.02-1.04.073-1.408-.248.36-.146 1.408-.146 1.408z" style="stroke-width:.00601852"/><path fill="none" stroke="#002d56" stroke-linejoin="round" stroke-miterlimit="3.864" stroke-width=".033" d="m9.569 14.325-.018.048c-.047.026-.06.027-.06.027"/><path fill="none" stroke="#002d56" stroke-linejoin="round" stroke-miterlimit="3.864" stroke-width=".027" d="M9.484 14.388s.046.12.009.21"/><path fill="none" stroke="#002d56" stroke-linejoin="round" stroke-miterlimit="3.864" stroke-width=".021" d="m9.424 14.328.05.001h.023s.014.028-.008.037c-.021.01-.036.01-.036.01"/><path fill="none" stroke="#002d56" stroke-miterlimit="3.864" stroke-width=".021" d="M9.439 14.632c-.017.015-.035.018-.066.02-.06.006-.12-.064-.133-.165-.016-.112-.001-.158.11-.162"/><path fill="none" stroke="#002d56" stroke-miterlimit="3.864" stroke-width=".021" d="M9.458 14.375h-.08s-.042.01-.044.045c-.003.055-.004.132.02.163l.023.024"/><path fill="none" stroke="#002d56" stroke-miterlimit="3.864" stroke-width=".025" d="m9.73 13.307.008.041-.01.018-.043-.003-.05-.002s-.029-.002-.036-.005l-.032-.006s-.036-.049.002-.078.078-.05.085-.054q.011-.006.011-.004"/><path fill="none" stroke="#002d56" stroke-miterlimit="3.864" stroke-width=".01" d="M9.73 13.316v.046" clip-rule="evenodd"/><path fill="none" stroke="#002d56" stroke-miterlimit="3.864" stroke-width=".02" d="M9.737 13.35s-.012.04-.006.06c.007.018.018.066.02.073.002.005.011.058.017.069.005.011.018.06.058.07s.085.003.11-.014"/><path fill="none" stroke="#002d56" stroke-miterlimit="3.864" stroke-width=".015" d="M9.815 13.529s.02-.007.026-.005l.025.005s.024-.004.032-.002c.008.003.02.003.024.002M9.832 13.554s.046.01.066 0M9.896 13.354s.042-.017.079.01"/><path fill="none" stroke="#002d56" stroke-miterlimit="3.864" stroke-width=".012" d="M9.843 13.352c.003.009-.003.034-.009.044s-.007.029-.01.037a.1.1 0 0 0-.008.028c0 .007 0 .007.012.013.011.006.02 0 .028-.002q.013-.005.024-.003c.008.003.02-.004.02-.012s-.003-.02-.009-.024c-.005-.005-.016-.012-.016-.012"/><path fill="none" stroke="#002d56" stroke-miterlimit="3.864" stroke-width=".015" d="M9.764 13.357c.007-.001.047-.024.08 0"/><ellipse cx="-10.032" cy="-13.211" fill="#002d56" stroke="#002d56" stroke-miterlimit="3.864" stroke-width=".01" rx=".028" ry=".007" transform="rotate(-178.997)"/><path fill="none" stroke="#002d56" stroke-miterlimit="3.864" stroke-width=".02" d="m9.822 13.62.004.002c.04.01.085.003.11-.014M9.723 13.06s-.105.03-.091.071.022.06.032.073c.01.014.029.067.035.082s.002.041.027.03c.138-.069.437.05.372.044-.017-.001.194.042.228.02.007-.005.022-.015-.002-.05a1 1 0 0 0-.085-.101c-.02-.018-.077-.055-.094-.083a.14.14 0 0 0-.088-.058c-.03-.005-.086-.017-.128-.015-.041.002-.054-.002-.076-.006.011.002-.099-.011-.13-.007z"/><path fill="none" stroke="#002d56" stroke-miterlimit="3.864" stroke-width=".029" d="M9.976 15.266s.11.068.24-.002c.122-.065.023-.013.023-.013M9.715 15.281s.122.058.248-.007"/><ellipse cx="-11.279" cy="-12.275" fill="#002d56" stroke="#002d56" stroke-miterlimit="3.864" stroke-width=".01" rx=".029" ry=".007" transform="rotate(-173.996)"/><path fill="none" stroke="#002d56" stroke-miterlimit="3.864" stroke-width=".029" d="M9.773 14.59c.074.027.188.02.26-.003"/><path fill="#eed000" fill-rule="evenodd" stroke="#002d56" stroke-miterlimit="3.864" stroke-width=".004" d="M10.712 16.039h1.014v.137h-1.014z"/><path d="M0 22.334V27a4 4 0 0 0 4 4h28a4 4 0 0 0 4-4v-4.666z" style="stroke-width:.00601852;fill:#b50027;fill-opacity:1"/></svg>