<svg xmlns="http://www.w3.org/2000/svg" xmlns:xlink="http://www.w3.org/1999/xlink" xml:space="preserve" viewBox="0 0 36 36"><defs><g id="b"><path id="a" d="M0 0v1h.5z" transform="rotate(18 3.157 -.5)"/><use xlink:href="#a" transform="scale(-1 1)"/></g></defs><path d="M4 5a4 4 0 0 0-4 4v18a4 4 0 0 0 4 4h28a4 4 0 0 0 4-4V9a4 4 0 0 0-4-4H4" style="fill:#002868;fill-opacity:1"/><path d="m-64.046 6.71 38.998 25.998m-38.998 0L-25.048 6.71" style="color:#000;fill:#000;stroke-width:4.41969;-inkscape-stroke:none"/><path d="M4 5a4 4 0 0 0-4 4v9h36V9a4 4 0 0 0-4-4z" style="stroke-width:.0416333;fill:#bb133e;fill-opacity:1"/><path id="c" d="M.105 8.105A4 4 0 0 0 0 9v4.465L18 18z" style="stroke-width:.0416333;fill:#fed700;fill-opacity:1"/><path id="d" fill="#fed700" d="M4.126 5 18 18 9.313 5Z" style="stroke-width:.0416333"/><path id="e" fill="#fed700" d="M13.313 5 18 18 16.312 5Z" style="stroke-width:.0416333"/><use xlink:href="#c" transform="matrix(-1 0 0 1 36 0)"/><use xlink:href="#d" transform="matrix(-1 0 0 1 36 0)"/><use xlink:href="#e" transform="matrix(-1 0 0 1 36 0)"/><path fill="#ce5c17" d="m18 11.823 3.902 12.007-10.214-7.42h12.625l-10.214 7.42z" style="stroke-width:.04"/></svg>