<svg xmlns="http://www.w3.org/2000/svg" xmlns:xlink="http://www.w3.org/1999/xlink" xml:space="preserve" viewBox="0 0 36 36"><defs><g id="b"><path id="a" d="M0 0v1h.5z" transform="rotate(18 3.157 -.5)"/><use xlink:href="#a" transform="scale(-1 1)"/></g></defs><path d="M4 5a4 4 0 0 0-4 4v18a4 4 0 0 0 4 4h28a4 4 0 0 0 4-4V9a4 4 0 0 0-4-4H4" style="fill:#eee;fill-opacity:1"/><path d="m-64.046 6.71 38.998 25.998m-38.998 0L-25.048 6.71" style="color:#000;fill:#000;stroke-width:4.41969;-inkscape-stroke:none"/><path d="M4 5a4 4 0 0 0-4 4v4.666h36V9a4 4 0 0 0-4-4zM0 22.334V27a4 4 0 0 0 4 4h28a4 4 0 0 0 4-4v-4.666z" style="stroke-width:.0216667;fill:#002868;fill-opacity:1"/><path fill="#bf0a30" d="M24.644 15.12a8.667 8.667 0 1 0 0 5.759L16.467 18Z"/><circle cx="16.467" cy="18" r="4.333" fill="gold" style="stroke-width:.0216667"/></svg>