<svg xmlns="http://www.w3.org/2000/svg" xmlns:xlink="http://www.w3.org/1999/xlink" xml:space="preserve" viewBox="0 0 36 36"><defs><g id="c" fill="#ffb612"><g id="b"><path id="a" d="M0 0v1h.5z" transform="rotate(18 3.157 -.5)"/><use xlink:href="#a" transform="scale(-1 1)"/></g><use xlink:href="#b" transform="rotate(72)"/><use xlink:href="#b" transform="rotate(-72)"/><use xlink:href="#b" transform="rotate(144)"/><use xlink:href="#b" transform="rotate(-144)"/></g></defs><path d="M4 5a4 4 0 0 0-4 4v18a4 4 0 0 0 4 4h28a4 4 0 0 0 4-4V9a4 4 0 0 0-4-4H4" style="fill:#0f204b;fill-opacity:1"/><path d="m-64.046 6.71 38.998 25.998m-38.998 0L-25.048 6.71" style="color:#000;fill:#000;stroke-width:4.41969;-inkscape-stroke:none"/><use xlink:href="#c" transform="matrix(1.32203 0 0 1.32203 29.44 9.915)"/><use xlink:href="#c" id="d" transform="matrix(.78814 0 0 .78814 5.822 15.356)"/><use xlink:href="#d" transform="translate(4.246 1.576)"/><use xlink:href="#d" transform="translate(6.356 3.839)"/><use xlink:href="#d" transform="translate(8.492 6.203)"/><use xlink:href="#d" transform="translate(14.847 8.466)"/><use xlink:href="#d" transform="translate(8.212 9.534)"/><use xlink:href="#d" transform="translate(12.992 11.11)"/></svg>