<svg xmlns="http://www.w3.org/2000/svg" xmlns:xlink="http://www.w3.org/1999/xlink" xml:space="preserve" viewBox="0 0 36 36"><defs><g id="b"><path id="a" d="M0 0v1h.5z" transform="rotate(18 3.157 -.5)"/><use xlink:href="#a" transform="scale(-1 1)"/></g></defs><path d="M4 5a4 4 0 0 0-4 4v18a4 4 0 0 0 4 4h28a4 4 0 0 0 4-4V9a4 4 0 0 0-4-4H4" style="fill:#76a1a0;fill-opacity:1"/><path d="m-64.046 6.71 38.998 25.998m-38.998 0L-25.048 6.71" style="color:#000;fill:#000;stroke-width:4.41969;-inkscape-stroke:none"/><path d="M30.841 18 18 9.933 5.159 18l12.84 8.067z" style="fill:#f0dc82;fill-opacity:1;stroke:none;stroke-width:.06"/><path d="M16.099 19.43H20.2s-.952.713-1.983.693c-1.03-.019-1.788-.365-2.118-.692M21.023 19.321s-.032-.166-.045-.288.02-.167-.007-.282c-.026-.116-.084-.314-.104-.423-.019-.11-.019-.199-.019-.199s-.142-.019-.168-.103-.013-.09.058-.307c.071-.218.175-.45.149-.687 0 0 .058-.044.104-.211 0 0 .265.109.388-.032s.195-.212.24-.488.013-.166-.084-.057c-.097.108-.344.185-.46.077 0 0-.026-.283-.104-.45-.077-.166-.09-.23-.09-.23s-.04.064-.124.134-.136.084-.025.206c.11.121.233.314.233.314s-.09.013-.136.186c-.045.173.02.404.02.404s-.428-.122-.623-.494c0 0 .11-.173.062-.51-.049-.337-.088-.413-.088-.413l.321-.386c.175-.211.117-.308.175-.356a.3.3 0 0 0 .068-.067s-.185-.135.02-.163c.203-.029.35 0 .466-.01s.194-.087.282-.096.116-.048.116-.048.088.221.214.327c0 0 .233-.202.389-.298 0 0 .145.144.456.26.311.115.38.153.34.23-.038.077-.009.03-.009.03s.136.297.068.692-.087.587-.087.587.106.067.136.279c.029.212.388.76.388.76s-.204-.115-.36 0c-.155.115-.097.308-.097.308s-.087-.145-.194-.366a2.6 2.6 0 0 0-.204-.356s-.145.087-.039.414c.107.327.37.818.273.875-.098.058-.253.077-.253.077s.087.269.087.674v-.048l-.356.737s-.1-.003-.204-.016-.195-.112-.195-.112l.007-.022s.048-.067.01-.29c-.04-.22-.185-.586-.185-.586s-.01.164-.088.376c-.077.21-.087.297-.058.452 0 0-.21.343-.69.086l.026-.09" style="fill:#3f863f;stroke:none;stroke-width:.06"/><path d="M19.79 19.685a.5.5 0 0 0 .157-.043.6.6 0 0 0 .136-.13c-.07.045-.17.106-.293.173M16.373 19.643q.083.076.172.153h.114a2.4 2.4 0 0 1-.286-.153M20.02 17.713c-.717.233-.82.158-1.297.082-.486-.077-.895-.115-1.322-.019-.418.094-.52.133-1.268.045a1.9 1.9 0 0 0-.365.59c-.131.318.045.658.388 1.02h3.983c.148-.233.261-.592.275-.963.012-.316-.215-.59-.393-.755M14.13 14.038s-.024-.004-.048-.163c-.025-.16.092 0 .092 0l.102-.13s-.01.029-.058-.082c-.049-.11.126-.298.248-.313 0 0-.433.087-.59.166-.159.08-.268.219-.205.308.063.09.165.219.228.346M21.904 13.504s-.039.07.007.084c.045.012.13.031.09.128-.039.096-.07.18-.045.21l.039.053s.026-.084.058-.135c.033-.051.02-.026.065-.032s.078-.02.045.07c-.032.09-.045.174-.084.16-.039-.012-.078-.012-.078-.012s-.012.051.065.058c.078.006.227.109.227.109s.155-.058.175-.134c.02-.078.084-.238.039-.34-.046-.104-.098-.135-.253-.193-.156-.058-.35-.026-.35-.026M18.218 13.356l-.522-.002M17.696 13.354l-.548-.004c.007-.301.065-.378.065-.378h.02c.007-.29.056-.366.056-.366l-.005-.019c.006-.302.057-.379.057-.379h-.005c.006-.3.057-.378.057-.378l.364.013c-.09.135-.05.365-.05.365l.063.013c-.073.108-.061.278-.054.34l.065.058h.02a1 1 0 0 1 .023-.343c.01-.249.041-.356.041-.356l.365.012c-.062.092-.057.252-.048.345l.074.001c-.068.101-.041.272-.024.353h.024l-.017.029.005.016h-.012l-.016.046.118.002-.065-.015c-.04-.219.037-.347.037-.347l.042.001-.04-.007c.005-.302.037-.34.037-.34l.364.012c-.062.093-.053.254-.042.345l.068.002c-.06.09-.068.255-.067.357l.093.002a.4.4 0 0 0-.067.218h.003l.278-.135c-.136.404.123.584.123.584l-.68-.02M21.831 21.697l.186-.136.146.045.602-.069.005.018c-.043.039-.004.116-.008.173.004.104-.011.216.078.289.023.042.038.112.07.161.015.055.054.132.019.2.016.109-.082.189-.125.29-.034-.012-.027-.066-.05-.097a.66.66 0 0 0-.389-.323l-.05-.035-.027.035.007.004c-.128.22-.447.242-.567.48-.14-.222-.055-.488.089-.688.043-.089.07-.23.008-.323M17.535 11.679l-.247-.107.108-.007.146.038zM18.036 11.687l-.247-.107.108-.008.147.038zM18.507 11.893l-.247-.107.108-.008.146.039z" style="fill:#fff;stroke:none;stroke-width:.06"/><path d="m17.303 12.42-.701.817.447.214.092-.123s.038-.32.07-.358c.03-.038.007-.1.023-.177.015-.075.061-.19.061-.19s.008-.175.016-.229" style="fill:#fff;stroke:none;stroke-width:.06"/><path d="M16.08 17.814c.796.097.893.058 1.32-.038s.837-.058 1.323.02c.486.076.583.153 1.34-.097-.232-.134-.174-.134-.349-.404s.136-.577.136-.577c-.389.115-.622.115-1.205 0-.583-.116-.855-.077-1.264.019-.408.096-.524.115-1.108.077.098.327.195.673-.194 1M16.818 14.028s-.02-.052.058-.057.35-.005.398-.005c.05 0 .064.01.107.072.044.063.2.265.2.265s.019.053-.117.053h-.34c-.073 0-.078-.01-.107-.043-.03-.034-.2-.284-.2-.284M17.955 14.028s-.02-.052.058-.057.306-.005.355-.005.063.01.107.072c.043.063.199.265.199.265s.02.053-.117.053h-.296c-.073 0-.078-.01-.107-.043a10 10 0 0 1-.2-.284M18.995 14.028s-.02-.052.058-.057.277-.005.326-.005.14.005.184.068c.044.062.131.226.131.226s.04.096-.096.096H19.3c-.073 0-.078-.01-.107-.043-.03-.034-.2-.285-.2-.285" style="fill:#006fff;stroke:none;stroke-width:.06"/><path d="M19.85 16.718c-.389.115-.622.115-1.205 0-.583-.116-.855-.077-1.264.019-.408.096-.524.115-1.108.077 0 0-.505-.847-.35-1.135s.292-.693.74-.693c.446 0 2.215-.04 2.624.019.408.058.719.5.777.904.058.405-.039.539-.214.809" style="fill:#ffb93c;stroke:none;stroke-width:.06"/><path d="m13.539 20.65-.065-.04s.026-.242-.077-.653c-.104-.41-.299-.937-.182-1.27.117-.334.22-.898.26-1.155.038-.256.025-.513.025-.602 0-.09.065-.206.065-.206s.272-.013.44-.077c.169-.063.247-.102.247-.102s.026.05.271.064c.247.013.48-.038.48-.038l.065.14s-.078.219.039.282a.7.7 0 0 1 .181.142s.09.102.052.513c-.039.41-.033.268-.065.487-.039.27-.013.27-.065.475-.051.205-.103.244-.025.628.077.385.142.437.142.796s.04.615-.013.732c-.051.115-.09.102-.09.102l.02-.026c-.17.092-.565.039-.565.039s-.116-.051-.103-.193c.012-.141.09-.244 0-.539s-.104-.372-.09-.603c.012-.23-.014-.269-.079-.475s-.051-.526-.078-.628c-.025-.102-.064-.167-.064-.167s-.026.219-.091.295c-.065.077-.039.116-.104.231-.064.116-.064.205-.052.244.014.038 0 .154 0 .154s.078.115.104.36c.026.243.026.128.065.474s.155.744.09.744c-.064 0-.064.026-.064.026-.316-.054-.512-.124-.674-.155" style="fill:#4f3636;stroke:none;stroke-width:.06"/><path d="M13.591 16.698c-.156-.051-.22-.205-.246-.36 0 0 0 .065-.234.04-.233-.026-.285.012-.375-.231s-.273-.783-.286-.847-.038-.102 0-.18c.04-.076 0-.127.078-.14s.117-.04.117-.04.013.065-.026.142-.026.09.039.167c.064.077.103.128.103.128s.04-.077.091-.141c.052-.064.156-.141.156-.141l.065.346s.077-.154.116-.333.078-.41.065-.488c-.013-.077.013-.128.116-.153.104-.026.13 0 .156-.065.026-.063.09-.038.168-.09.078-.05.208-.14.208-.14s0 .05.103.179c.104.128.13.154.182.192s.13.039.155-.025c.026-.064.078-.128.091-.205.012-.078.025-.116.025-.116s.13.09.26.116c.13.025.155.012.207.064.052.05.065.102.143.077.077-.026.155-.013.233.14s.078.167.13.219c.051.05.064.038.103.18.039.14.207.397.234.513.025.115.015.266.015.266l-.007.374.223.374s.028-.052-.076.063-.155.23-.324.333-.246.154-.246.154-.065-.077-.13-.166-.09-.129-.155-.18l-.04-.141.208-.18c.169-.038.26.013.143-.166s-.169-.205-.195-.308-.026-.115-.026-.115-.116.128-.038.218c.077.089.077.14.09.218.013.076.013.14.013.14l-.168.193s-.609.056-.804-.051c-.116-.064.066.118-.66.166" style="fill:#a8393a;stroke:none;stroke-width:.06"/><path d="M19.14 19.428c.012-.05.045-.1.041-.159.02-.077.055-.17.04-.23-.13-.166-.11-.366-.07-.547a.25.25 0 0 1 .042.13c.027.2.008.424.182.555.051-.012.098.019.148.027-.015-.142-.206-.158-.21-.316-.054-.223.008-.497-.155-.7-.1-.042-.252-.008-.361-.008-.23.008-.517.077-.75-.007-.129-.104-.355-.024-.506-.097-.148-.027-.024-.165-.132-.227-.07.02-.031.088-.082.123a.3.3 0 0 1-.311-.035l-.004-.007c-.038.023-.027.077-.03.103.015.07.15.058.057.14-.043.045-.112.086-.173.122-.031.037.001.052.005.075q.009.084.05.107c.102.017.25-.033.348.034.077.019.144.104.167.173.07.127.09.296.253.361 0 .127-.004.274-.133.331-.019.024-.026.053-.05.061l.206-.003c.074-.073.023-.18.09-.265.034.003.05.05.062.077.042.07-.047.12-.047.188l.16-.002c0-.05.05-.105.018-.171-.019-.077-.061-.166-.038-.242.12-.039.225-.02.35-.015l.027.034c.066-.058.143-.084.221-.112.031.05.004.12.024.174a.45.45 0 0 1-.19.273l-.021.062.206-.003-.003-.024c.062-.15.237-.17.245-.347.007-.038.054-.03.078-.023.035.034.097.02.112.07a.31.31 0 0 1-.077.31l-.019.01zM15.224 20.868l.181.077s-.104.166-.324.205-.389.013-.389.013-.077-.026-.051-.128q.038-.154.039-.154c.23.038.44.014.54-.031M14.205 20.819l.091.231-.44-.206s-.014 0-.13.077c-.117.078-.272.052-.376.09s-.181.064-.195.128l-.168-.102c-.013-.077-.09-.051.065-.116.155-.064.181-.077.285-.128s.194-.128.194-.128c.209.061.68.124.68.124" style="fill:#863f3f;stroke:none;stroke-width:.06"/><path d="m14.163 20.985-1.282-6.619.42-.074-.06-.333a.266.266 0 0 0-.265-.238.27.27 0 0 0-.253.182l-.044.007a.267.267 0 0 0-.465.175q0 .042.013.082l.055.304.465-.081 1.244 6.505zM22.118 20.87s.152-.455.227-.602c.074-.147.045-.07.117-.064.07.006.022-.055.022-.055s-.074-.083-.12-.106c0 0-.07-.086-.155.016-.084.103-.117.116-.182.168-.065.05-.065.031-.065.031l-.369.674-.071.147-.084.084s.285-.174.395-.238a.6.6 0 0 1 .292-.07M14.816 13.222q-.054.002-.16.016a.4.4 0 0 1-.132-.202c-.02-.077-.026-.102-.195-.084-.167.02-.692.18-.777.232-.084.05-.052.07-.045.121.005.044.039.097.044.171a1 1 0 0 0-.09.035c-.259.115-.336.172-.252.269.084.096.155.07.246.064a1.3 1.3 0 0 0 .194-.032s-.012-.135.072-.193.175-.147.317-.173.343-.09.389-.096.13-.025.175.064c.045.09.064.167.064.167.247-.09.098.007.26-.083s.09-.283-.11-.276M21.561 13.53c-.234-.026-.292-.032-.383-.116-.09-.083-.039-.23.104-.243l.337-.033s0-.057.11-.045.35.039.493.084c.142.045.265.058.265.058l-.505.185s.078.013.298.02c.22.006.252-.038.42.058.17.096.435.359.202.448-.234.09-.311.097-.363.097s-.032-.11-.026-.205a.3.3 0 0 0-.291-.321c-.253-.026-.344-.051-.44-.026-.098.026-.221.039-.221.039M17.038 13.466s.143.096.24.153c.097.058.136.07.136.07s0-.006.071-.044.084-.038.162 0 .078.064.155.026c.078-.039.052-.09.13-.039s.097.09.175.039c.078-.052.078-.071.149-.032s.026.096.15.038c.122-.058.116-.09.193-.032.078.058.084.058.162.02.078-.04.09-.065.136-.013.046.05.046.038.046.038s.103-.025.077-.205z" style="fill:#3c2e2e;stroke:none;stroke-width:.06"/><path d="M12.638 14.938s.059-.25.117-.318c.058-.067.039-.057.097-.086.058-.03.078-.02.166.009.087.029.201-.017.152.156.005.039-.002.133-.033.157.007.062.002.1-.042.156-.007.065-.075.113-.075.113l-.012-.029s-.149.12-.185.183l-.058.1s-.075-.08-.124-.143c-.048-.063-.065-.072-.036-.125a.3.3 0 0 0 .043-.125c0-.024-.01-.048-.01-.048M14.006 14.35c.103.13.13.155.181.193.052.039.13.039.155-.025.026-.064.078-.128.091-.205.013-.078.026-.116.026-.116l.001-.034s.044.02.103.029.15.01.14-.067-.01-.14-.058-.15c.039-.018.068-.047.073-.095.005-.049-.01-.058.02-.068.028-.01.058-.005.009-.076a.5.5 0 0 1-.082-.194c-.01-.057-.078-.206-.2-.192-.121.015-.296.202-.247.313s.058.082.058.082l-.102.13s-.117-.16-.093 0c.025.159.049.163.049.163s-.14.058-.156.077c-.014.019-.019.048.005.096.025.049.025.126.025.126zM23.654 17.35s.087.105.055.208c-.033.102-.046.15-.1.208 0 0 .01.07-.043.087-.051.016-.159.06-.207.016-.049-.045-.071-.07-.046-.103.027-.032.033-.055.033-.055h-.058l-.013-.077h-.026s-.055-.102-.08-.153c-.027-.052-.082-.129-.082-.129s.068-.173.152-.179c.085-.007.155-.035.324.058l-.039.083.075.125zM20.887 17.032s-.084-.263-.078-.404.02-.18.065-.25.084-.077.084-.077-.058.025-.058.135c0 .109.026.237-.006.288-.033.051-.007.051-.007.051l.11.045s-.013.115-.11.211M21.665 14.338l.006-.07s-.09.012-.136-.02c-.045-.032-.02-.038-.007-.083l.007-.09.039-.025s-.04.013-.052-.013c-.013-.026-.02-.116-.02-.116s-.084-.006-.07-.051c.012-.045.038-.07.07-.103.033-.031.046-.025.033-.07s-.007-.07 0-.096a1 1 0 0 1 .032-.084l.337-.013s-.039.071.007.084c.045.013.13.032.09.128-.039.096-.07.18-.045.212l.039.051s.026-.083.058-.135c.032-.05.02-.025.065-.032s.078-.019.045.071c-.032.09-.045.173-.084.16s-.078-.013-.078-.013-.013.052.065.058.227.11.227.11l-.04.166-.388.308-.149-.187zM15.339 17.078l-.288-.408-.02.204s.02.081.102.122.185.143.185.143z" style="fill:#ffe2d1;stroke:none;stroke-width:.06"/><path d="M13.176 21.073c.194-.077.337-.038.518-.141.182-.102.104-.115.415.026.311.14 2.151 1.424 3.927 1.32 1.775-.102 3.486-1.141 3.719-1.295s.453-.205.83.18c-.804.564-2.437 1.873-4.601 1.834s-4.108-1.424-4.562-1.783l-.272-.103z" style="fill:#46b3b3;stroke:none;stroke-width:.06"/><path d="M21.798 21.047c-.018.012-1.834 1.197-3.758 1.309-1.519.087-3.058-.808-3.715-1.19-.113-.066-.203-.118-.248-.138l-.09-.042c-.133-.061-.133-.061-.183-.03l-.07.043a.8.8 0 0 1-.31.094l-.073.011.1.038.01.004.01.008c.223.176 2.243 1.725 4.514 1.766 1.967.035 3.515-1.076 4.347-1.672l.132-.095c-.315-.295-.483-.226-.666-.106" style="fill:#fff;stroke:#b12f39;stroke-width:.113;stroke-opacity:1;stroke-dasharray:none"/><path d="M14.201 21.747c-.01.041-.003.068.004.12.023.065.082.127.09.192.07.104.042.216.023.331-.07.1-.187.139-.245.239-.05-.123-.027-.285-.171-.354-.062-.008-.09-.077-.132-.12-.012.027-.059.027-.062.058-.129.073-.25.124-.366.235-.113.054-.268.077-.385.008l-.07-.077c.33-.062.136-.528.498-.535.027-.024.062-.058.07-.097.004-.069-.028-.119-.055-.173l-.013-.002" style="fill:#fff;stroke:none;stroke-width:.06"/><path d="M13.387 21.572c-.22-.047-.423-.13-.644-.163-.02-.007-.035.008-.035.02l.02.022-.008.004c.058.07.093.173.062.25-.027.058-.046.143-.124.154a.35.35 0 0 1-.33-.027.52.52 0 0 1-.168-.446.43.43 0 0 1 .226-.296l.14-.054a.62.62 0 0 1-.269-.62c.04-.077.047-.161.14-.207a.54.54 0 0 1 .381-.035c.11.05.21.165.245.285-.004.096-.05.219-.163.257-.05 0-.117-.007-.152.008.035.093.14.2.237.235l.199.15.277.107.784.516-.004.015M22.533 21.163s.213.015.447-.1c.12-.07.26-.173.323-.3.042-.008.054-.054.061-.089-.05-.015-.104.02-.16-.015-.08.007-.143-.054-.182-.116-.062-.096 0-.224.054-.26.196-.104.326-.193.549-.04.09.12.175.258.14.412.004.142-.105.243-.19.331.03.027.077.034.12.05.175.065.365.192.37.393.05.11-.051.211-.106.303-.081.112-.244.135-.369.12a.3.3 0 0 1-.19-.154c-.039-.096.007-.192.054-.277-.14-.004-.264.07-.412.07-.093.01-.171.064-.272.064 0 0-.315.05-.51.089-.194.039-.233-.058-.233-.058M20.95 21.436c-.217-.008-.482-.065-.649.104-.047.042-.03.092-.043.138-.14.024-.244-.08-.307-.188-.023-.089.008-.17.07-.212-.031-.015-.066.02-.085.027-.128.066-.156.208-.156.346a.14.14 0 0 1-.089.02c-.039-.004-.042-.046-.07-.07-.015 0-.031.004-.035.024-.035-.008-.05.011-.078-.016-.05-.1-.089-.265.008-.366-.05-.003-.097.047-.112.081-.07.104-.117.243-.035.354.03.031.12-.004.104.054-.054.085-.151.12-.256.112-.081-.027-.132-.108-.175-.174.016.085-.047.174-.105.216l.004.008c-.02.012-.039.038-.07.034-.012-.108-.054-.203-.097-.3-.023-.088-.047-.196-.008-.277-.101-.011-.221-.023-.319-.07-.093-.026-.151-.123-.155-.207.182.011.334-.123.517-.096.023.007.03.03.027.058h.016c-.004-.08-.105-.135-.121-.216-.027-.058.02-.116.043-.165.02-.028-.016-.05.015-.07.05.062.117.097.175.143.055.011.027-.116.113-.139.062-.039.058-.123.097-.177.152.065.16.262.237.393.113.107.237.115.4.096.04.007.082.02.117.015-.081-.111-.09-.258-.113-.396-.007-.073-.062-.131-.097-.2.067-.035.164-.02.237-.012.102.024.222.054.269.142.011-.018.011-.05.019-.073.043-.053.109-.122.182-.103l-.007-.008c.02-.02.058.008.07-.023.066.008.14-.054.167-.108.016-.007.02.004.031.012-.008.05.016.103.027.153-.007.043-.027.089 0 .139.035-.011.028-.054.07-.05.078.1.031.193.035.304l.043-.004c.058-.004.055-.084.074-.104l.023.02c.023.123-.02.28.035.38.031.03.043.123.113.096l.26.091-.004.021" style="fill:#ffd93c;stroke:none;stroke-width:.06"/><path d="M18.256 21.359c.004.042-.008.065.02.096a.5.5 0 0 1 .244-.08.57.57 0 0 0-.034.338c.034.035.061-.03.1-.027.051 0 .105.016.125.07.03.046.004.103-.008.15-.039.046-.09.092-.151.092a.37.37 0 0 1-.253-.104c-.07 0-.097.107-.163.116-.043-.043-.09-.093-.144-.108-.093.034-.202.192-.33.103-.067.005-.082-.064-.113-.1-.004-.053-.023-.08.007-.13.024-.027.059-.065.106-.043.011.02.034.024.05.043.05-.046.074-.147.062-.216-.004-.092-.167-.092-.105-.185a.54.54 0 0 1 .272.055c.02-.027.02-.062.027-.097.059-.042.093-.107.148-.13a.5.5 0 0 1 .14.157" style="fill:#ffd93c;stroke:none;stroke-width:.06"/><path d="m15.058 21.47-.524-.288s-.136.015.043-.01c.18-.024.38 0 .588-.072.21-.071.243-.245.268-.356.024-.11.039-.11.004-.115a1 1 0 0 1-.12-.044l.02-.103c.05-.015.093-.046.14-.065.058-.024.112.019.163.015-.04-.058-.02-.147-.016-.216.023-.042-.03-.126.035-.138.055.05.132.046.202.057a.3.3 0 0 1 .12.143c.121-.066.257-.131.401-.104-.074.154-.031.274-.031.423l.006-.003-.018.08a1.3 1.3 0 0 0-.105.2h.105c.14-.042.292-.05.397-.173.074-.089.101-.193.058-.304.031-.057.066.023.113.007a.33.33 0 0 1 .16.236.38.38 0 0 0 .26-.158c.011-.008.019.004.027.011-.066.127.097.293-.027.408.19.042.334.193.525.243.019.019.07-.012.07.034a.49.49 0 0 1-.444.204c.109.208-.1.346-.09.539-.147.004-.24-.158-.287-.277-.089.003-.14.111-.23.111a.24.24 0 0 1-.174-.042c-.039-.12.1-.234.039-.346-.05-.05-.117-.111-.187-.077.004.054.02.123.012.189-.02.01-.004.046-.035.046l.008.007c-.035.043-.063.062-.105.093-.059.007-.117.015-.16-.008a.6.6 0 0 0-.023-.2c-.039-.127-.198-.092-.292-.1.012.05.032.116.035.17a.27.27 0 0 1-.163.211c-.038.004-.108.03-.14-.02l.016-.042c-.136-.185-.428-.192-.638-.18l.008.007M19.116 14.874c-.156.189-.203-.138-.35-.13-.152.034-.14-.147-.273-.159-.19.031-.287-.169-.482-.127-.1-.007-.159.066-.23.1-.163-.061-.31.04-.419.159-.136-.016-.221.072-.314.146" style="fill:#ffd93c;stroke:none;stroke-width:.06"/><path d="m19.084 14.917.017-.019.01-.037z" style="fill:#ffd93c;stroke:none;stroke-width:.06"/><path d="m19.084 14.917.017-.019.01-.037z" style="fill:none;stroke:#000;stroke-width:.06984"/><path d="M18.765 14.743c-.151.035-.14-.146-.272-.158-.19.031-.287-.169-.482-.127-.1-.007-.159.066-.23.1-.163-.061-.31.04-.419.159-.136-.016-.221.072-.314.146q-.06-.004-.126-.013s.222.16.3.295c.075.13.337.409.53.465a.28.28 0 0 0 .213.097c.087 0 .205.05.256-.012.085.016.181-.024.332-.19a1.4 1.4 0 0 1 .383-.288l.148-.3c-.141.144-.176-.181-.319-.174" style="fill:#ffd93c;stroke:none;stroke-width:.06"/><path d="M18.765 14.743c-.151.035-.14-.146-.272-.158-.19.031-.287-.169-.482-.127-.1-.007-.159.066-.23.1-.163-.061-.31.04-.419.159-.136-.016-.221.072-.314.146q-.06-.004-.126-.013s.222.16.3.295c.075.13.337.409.53.465a.28.28 0 0 0 .213.097c.087 0 .205.05.256-.012.085.016.181-.024.332-.19a1.4 1.4 0 0 1 .383-.288l.148-.3c-.141.144-.176-.181-.319-.174Z" style="fill:none;stroke:#000;stroke-width:.06984"/><path d="M16.15 16.275c-.024-.139-.075-.254-.063-.389.02-.073.012-.166.062-.219a.6.6 0 0 1 .163-.274l.004.009c.012-.012.012-.04.031-.043l.004.007c.039-.057.093-.08.156-.11l.008.007.01-.019.009.007c.007-.007.015-.019.027-.014.015.01.015-.012.035-.016.1-.023.23-.012.31-.012l-.03.035c-.039-.05-.07-.03-.125-.026-.058.019-.143.038-.194.06-.062.04-.078.062-.14.105-.058.053-.124.15-.175.2.012.023-.058.072-.042.103-.078.154-.05.374-.028.52" style="fill:#ffd93c;stroke:none;stroke-width:.06"/><path d="M17.323 19.88c-1.36-.257-1.36-1.335-1.36-1.54 0-.06-.001-.126.002-.189.034.101.13.174.244.174a.255.255 0 0 0 .256-.254.255.255 0 0 0-.23-.252c.173-.066.314-.246.336-.582.024-.355-.306-.602-.356-.636a.219.219 0 0 0 .278-.21.22.22 0 0 0-.322-.192c-.023-.147-.048-.361.028-.513-.015-.03.055-.08.043-.103.05-.05.117-.146.175-.2.062-.043.078-.066.14-.104.05-.023.136-.043.194-.062.055-.004.086-.023.125.027l.027-.03-.002.022c0 .11.09.2.201.2a.2.2 0 0 0 .202-.2.2.2 0 0 0-.08-.159c-.121-.249-.377-.23-.605-.23-.412.05-.7.424-.805.79 0 0-.098.382-.007.587.09.205.26.382.26.382l-.008.008.008.008c-.058.03-.155.069-.182.158a.25.25 0 0 0 .046.23c.055.05.125.09.206.062.031-.015.062-.046.09-.062.019.17 0 .324-.07.485-.047-.038-.12-.127-.21-.084-.078.027-.12.096-.14.165-.004.073 0 .147.05.196.027.012.035.031.054.047a.6.6 0 0 0-.334.412c-.054-.066-.136-.063-.19-.128h-.05c.034.22-.145.462.03.647v.019c-.07-.011-.12.02-.175.027l-.007.035c.245.096.167.446.455.512v.015c-.07-.035-.207-.03-.261.019-.015.012-.012.027-.012.042.036.05.098.047.14.085.144.084.226.277.405.32 0 .072.023.138.07.184.097.034.206.115.307.061.011-.034.081-.057.078-.107.015-.027-.032-.05.015-.07.342.024.595.305.956.297l.114.012.052-.295z" style="fill:#ffd93c;stroke:none;stroke-width:.06"/><path d="M17.323 19.88c-1.36-.257-1.36-1.335-1.36-1.54 0-.06-.001-.126.002-.189.034.101.13.174.244.174a.255.255 0 0 0 .256-.254.255.255 0 0 0-.23-.252c.173-.066.314-.246.336-.582.024-.355-.306-.602-.356-.636a.219.219 0 0 0 .278-.21.22.22 0 0 0-.322-.192c-.023-.147-.048-.361.028-.513-.015-.03.055-.08.043-.103.05-.05.117-.146.175-.2.062-.043.078-.066.14-.104.05-.023.136-.043.194-.062.055-.004.086-.023.125.027l.027-.03-.002.022c0 .11.09.2.201.2a.2.2 0 0 0 .202-.2.2.2 0 0 0-.08-.159c-.121-.249-.377-.23-.605-.23-.412.05-.7.424-.805.79 0 0-.098.382-.007.587.09.205.26.382.26.382l-.008.008.008.008c-.058.03-.155.069-.182.158a.25.25 0 0 0 .046.23c.055.05.125.09.206.062.031-.015.062-.046.09-.062.019.17 0 .324-.07.485-.047-.038-.12-.127-.21-.084-.078.027-.12.096-.14.165-.004.073 0 .147.05.196.027.012.035.031.054.047a.6.6 0 0 0-.334.412c-.054-.066-.136-.063-.19-.128h-.05c.034.22-.145.462.03.647v.019c-.07-.011-.12.02-.175.027l-.007.035c.245.096.167.446.455.512v.015c-.07-.035-.207-.03-.261.019-.015.012-.012.027-.012.042.036.05.098.047.14.085.144.084.226.277.405.32 0 .072.023.138.07.184.097.034.206.115.307.061.011-.034.081-.057.078-.107.015-.027-.032-.05.015-.07.342.024.595.305.956.297l.114.012.052-.295z" style="fill:none;stroke:#000;stroke-width:.06984"/><path d="M15.876 18.132s-.146.48.047.93c.192.452.84.803 1.419.94m-1.257-2.069s-.108.091-.124.237m.17.038s.251-.023.177-.206m-.88.26s.016.114.094.198m-.132.298s.14.068.178.115m-.2-.016s.084.1.169.145m0 .42s.093-.015.216.054m.162.328s.131-.214.432-.13m-.278.107s.116-.1.27-.023m-.177.153s.1.038.139.13m-.047-.214s.1.03.108.069" style="fill:none;stroke:#000;stroke-width:.06984"/><path d="M18.913 19.92c.012 0 .027-.008.035.007l-.008.004c.067-.011.028.058.035.07h-.003c-.004.022.011.06-.008.069l.005.002-.023.004-.01.063c-.015.035.051.05.074.069.008.073.14.154.043.208a.6.6 0 0 0-.44.23c-.186.135-.326.394-.594.382a.6.6 0 0 1-.385-.189c-.039-.077-.097-.169-.043-.254.024-.069.098-.084.16-.084.074-.004.116.057.17.096.024-.023.009-.062.013-.096a.25.25 0 0 0-.148-.146c-.062-.023-.125.007-.179.026-.047.027-.05.062-.1.07-.063-.085-.153-.15-.168-.262l.024-.062c.037-.021.055-.104.124-.084.019-.02-.016-.096-.008-.096-.008 0-.008-.012 0-.016-.008-.011-.012-.04-.013-.043l-.016-.056s.08-.045.133-.048c.051-.003.035 0 .1.038.065.04.11.032.133.04.023.005.013 0 .023-.062.009-.06.012-.119.051-.138l.068-.035s0 .01.036.045.097.038.123.096c.026.057.052.08.052.08s.003-.058.029-.11c.026-.05.039-.07.075-.083s.045-.019.045-.019.019.02.029.11.029.153.051.131c.023-.023.04-.006.052.006.013.013.023.03.046-.048.022-.077.032-.134.074-.103.042.033.081.058.081.122s-.013.1.016.11c.03.01.065 0 .094-.01.03-.01.058-.003.08-.013.024-.009.072-.02.072-.02" style="fill:#ffd93c;stroke:none;stroke-width:.06"/><path d="M18.913 19.92c.012 0 .027-.008.035.007l-.008.004c.067-.011.028.058.035.07h-.003c-.004.022.011.06-.008.069l.005.002-.023.004-.01.063c-.015.035.051.05.074.069.008.073.14.154.043.208a.6.6 0 0 0-.44.23c-.186.135-.326.394-.594.382a.6.6 0 0 1-.385-.189c-.039-.077-.097-.169-.043-.254.024-.069.098-.084.16-.084.074-.004.116.057.17.096.024-.023.009-.062.013-.096a.25.25 0 0 0-.148-.146c-.062-.023-.125.007-.179.026-.047.027-.05.062-.1.07-.063-.085-.153-.15-.168-.262l.024-.062c.037-.021.055-.104.124-.084.019-.02-.016-.096-.008-.096-.008 0-.008-.012 0-.016-.008-.011-.012-.04-.013-.043l-.016-.056s.08-.045.133-.048c.051-.003.035 0 .1.038.065.04.11.032.133.04.023.005.013 0 .023-.062.009-.06.012-.119.051-.138l.068-.035s0 .01.036.045.097.038.123.096c.026.057.052.08.052.08s.003-.058.029-.11c.026-.05.039-.07.075-.083s.045-.019.045-.019.019.02.029.11.029.153.051.131c.023-.023.04-.006.052.006.013.013.023.03.046-.048.022-.077.032-.134.074-.103.042.033.081.058.081.122s-.013.1.016.11c.03.01.065 0 .094-.01.03-.01.058-.003.08-.013.024-.009.072-.02.072-.02zM15.977 16.895s.13.167.216-.023m-.263.657s.185-.115.17.144m0 .061s.255-.007.34-.244m-.17-.718s.293.222.2.573m.533-2.032s.231.169.146-.183m-.246.084s.03-.06.092-.09m-.116-.016s-.941-.016-.833 1.153m.162.252s.355-.008.085-.245m-.17.13s-.03-.198.085-.214m1.566-.649s.208.176.563.054m-.625.007s-.046-.404.216-.427.309.222.3.267c-.007.046-.107.068-.107.068m.108-.068s.162-.03.208-.054c.047-.022.247-.182.401-.145m-.756.046s.1.07.04.153" style="fill:none;stroke:#000;stroke-width:.06984"/><path d="M20.88 18.673c-.042-.004-.07.057-.112.07.054-.162.015-.316.007-.486-.015-.054-.02-.166-.112-.111-.016.027-.047.027-.07.042-.02-.13-.055-.266-.168-.347-.054-.019-.112-.034-.147-.077.015-.057.07-.118.05-.173a.3.3 0 0 0-.054-.097.22.22 0 0 0-.177-.09c-.038 0-.062.077-.094.094l-.053-.153a.8.8 0 0 1 0-.298c.07-.01.141.064.183.01l.005-.005.004-.008a.27.27 0 0 0-.095-.391l-.006-.012a.6.6 0 0 0 .19-.22c.104-.179.126-.65-.042-.996a2.2 2.2 0 0 0-.323-.431c-.214-.142-.49-.223-.75-.119 0 0-.134-.036-.238.195l-.001.005a.198.198 0 0 0 .157.322.2.2 0 0 0 .202-.199q0-.055-.028-.1l.007-.003c.273.051.428.167.648.552.171.298.085.528.037.615a.219.219 0 0 0-.322.193c0 .106.077.195.18.213a.3.3 0 0 0-.097.12c-.067.094-.099.243-.07.488.039.324.235.45.333.493a.29.29 0 0 0-.276.29c0 .16.131.29.293.29a.3.3 0 0 0 .218-.096c.273.708-.296 1.4-1.306 1.691l.084.195c.05-.015.14.004.21-.011.21-.046.431-.177.649-.085.042.019.023.066.05.092.125-.007.315.027.389-.111.05-.073.035-.154-.011-.231l-.035-.027c.046-.027.116-.03.175-.046.151-.043.178-.19.28-.277-.051-.046-.105.01-.168-.008-.03-.023-.077-.027-.085-.061.206-.062.466-.173.51-.39.014-.107.088-.218-.02-.31" style="fill:#ffd93c;stroke:none;stroke-width:.06"/><path d="M20.88 18.673c-.042-.004-.07.057-.112.07.054-.162.015-.316.007-.486-.015-.054-.02-.166-.112-.111-.016.027-.047.027-.07.042-.02-.13-.055-.266-.168-.347-.054-.019-.112-.034-.147-.077.015-.057.07-.118.05-.173a.3.3 0 0 0-.054-.097.22.22 0 0 0-.177-.09c-.038 0-.062.077-.094.094l-.053-.153a.8.8 0 0 1 0-.298c.07-.01.141.064.183.01l.005-.005.004-.008a.27.27 0 0 0-.095-.391l-.006-.012a.6.6 0 0 0 .19-.22c.104-.179.126-.65-.042-.996a2.2 2.2 0 0 0-.323-.431c-.214-.142-.49-.223-.75-.119 0 0-.134-.036-.238.195l-.001.005a.198.198 0 0 0 .157.322.2.2 0 0 0 .202-.199q0-.055-.028-.1l.007-.003c.273.051.428.167.648.552.171.298.085.528.037.615a.219.219 0 0 0-.322.193c0 .106.077.195.18.213a.3.3 0 0 0-.097.12c-.067.094-.099.243-.07.488.039.324.235.45.333.493a.29.29 0 0 0-.276.29c0 .16.131.29.293.29a.3.3 0 0 0 .218-.096c.273.708-.296 1.4-1.306 1.691l.084.195c.05-.015.14.004.21-.011.21-.046.431-.177.649-.085.042.019.023.066.05.092.125-.007.315.027.389-.111.05-.073.035-.154-.011-.231l-.035-.027c.046-.027.116-.03.175-.046.151-.043.178-.19.28-.277-.051-.046-.105.01-.168-.008-.03-.023-.077-.027-.085-.061.206-.062.466-.173.51-.39.014-.107.088-.218-.02-.31z" style="fill:none;stroke:#000;stroke-width:.06984"/><path d="M19.533 14.962s.262-.075.601.65c0 0 .178.45-.07.87m-.164-.22s.057.114-.005.19m-.13-.115s.084.015.045.107m-.679-1.267s.047.053-.077.152m.031-.267s.107.006.123.037m.657 1.94s-.04.298.069.512m.177-.695s.054.168-.13.115m.2.558s.077.106.015.205m-.07.428s-.1.138-.285.077m.448-.344s.138-.068.2.306m.2.068s-.022.038-.015.13c.008.091.047.068.016.175m.078.168s-.17.1-.217.214m-.262.367s.061-.077.162-.115c.1-.038.223-.038.254-.084.03-.045.13-.22.147-.29m-.98.885s.116-.098.3.024m.032-.084s.177-.077.239-.137m-.301.297s.077.138-.039.19M19 20.034s.255-.016.347-.045c.093-.031.209-.085.31-.07.1.016.177.031.215.07m-2.23.213s.279-.175.417.367c0 0-.023.13-.077.16s-.177.053-.231.015m0-.153s.131.023.046.138m.139-.58s.27.229.208.389a.38.38 0 0 1-.254.229m.177-.68s.108.192.108.26a.5.5 0 0 1-.039.222m.116-.42s.108.396-.162.58m.34-.52s-.147.42-.37.512m.408-.282s-.24.244-.501.32m-.14.092s.155.061.232.046a.5.5 0 0 0 .193-.084c.054-.038.1-.107.17-.168m-.44-.871s.023.046.062.107m-.44.016s.077-.009.131.022m.548-.13s.03.061.03.115m.27-.03s.016.084 0 .122m.24.069-.016.09" style="fill:none;stroke:#000;stroke-width:.06984"/><path d="M21.666 19.654c-.082.246.07.5-.023.75a1.7 1.7 0 0 0-.047.532.6.6 0 0 1-.14.215.8.8 0 0 1-.33-.046c.054-.2.05-.415.05-.612-.015-.135-.094-.266-.113-.408-.004-.165.047-.338-.078-.47v-.195c.18.103.44.11.615-.008.05-.016.05-.054.1-.07.06.108-.022.22-.034.312M21.96 20.255c-.01-.183.022-.279.006-.404s-.049-.279-.016-.35q.05-.105.051-.105s.091.099.195.111c.103.013.204.017.204.017s-.084.157-.136.23c-.052.075-.049.158-.117.18-.068.023-.136.052-.11.083.026.033.13.02.094.09-.036.071-.172.148-.172.148M22.977 21.082s-.16-.082-.289-.166c-.13-.084-.142-.282-.116-.395.026-.112.045-.484.058-.632.013-.147.003-.093.042-.24.04-.148-.03-.237-.03-.237s-.132.278-.2.404c-.068.124-.123.205-.078.227.046.023.12.106.12.106s.049.061-.022.055-.042-.083-.117.064c-.074.147-.227.603-.227.603.143.041.275.099.46.292 0 0 .301-.042.399-.08M20.667 17.964s.223.105.388.124c.166.02.375.044.399.04.024-.006.029-.006.029-.006s.024-.149.044-.303.078-.48.116-.64c.039-.158.131-.461.131-.461l.112.014s.044.13.083.476c.039.347.063.654.082.79.02.134.005.201.078.187s.364-.058.506-.092c.14-.033.306-.081.306-.081s.019.057-.068.091-.2.053-.2.053-.37.077-.466.091-.2.067-.224-.163-.102-.986-.111-1.092a1 1 0 0 0-.044-.212s-.102.289-.165.712-.117.679-.117.679-.039.052-.175.023-.37-.014-.52-.072c0 0-.102-.019-.136-.043s-.048-.115-.048-.115M21.818 16.357l-.004.158s-.02.058-.059.03c-.039-.03-.09-.068-.06-.097.028-.029.138-.115.138-.115l-.049-.039-.175.106s-.055.18-.109.248l-.017.002s.39.087.506.087l-.04-.154-.077-.058-.017-.187" style="fill:#e2c89a;stroke:none;stroke-width:.06"/><path d="M21.206 14.485s.044.458.107.703.325.866.408.977.166.26.19.326c.024.067.068.202.087.274.02.072.112.352.146.453s.301-.005.461-.034.088-.039.093-.135c.004-.096-.025-.178-.025-.178.03-.033.025-.067-.01-.182-.033-.116-.009-.092-.092-.284l-.539.101s-.325-.486-.408-.664-.272-.712-.311-1.015-.039-.346-.039-.346" style="fill:#e2c89a;stroke:none;stroke-width:.06"/><path d="M21.881 16.299c.336-.341.637-.861.69-1.722l-.063-.043c-.077.986-.32 1.332-.646 1.708" style="fill:#e2c89a;stroke:none;stroke-width:.06"/><path d="M21.896 16.203c.005-.02.049-.486.044-.717s-.034-.851-.034-.851l-.063.029v.076c0 .063.004.265.019.52s-.044.919-.044.919M21.323 15.256l-.16.043s-.132-.241-.234-.434c-.102-.192-.165-.211-.165-.211s-.097-.101-.078-.12c.02-.02.063-.03.063-.03s-.005.059.059.107c.063.048.107.115.199.274l.184.318.103-.03" style="fill:#e2c89a;stroke:none;stroke-width:.06"/><path d="M21.843 14.87c-.044.005-.059.02-.146.13-.088.11-.19.159-.297.212l-.01-.072c.088-.043.127-.053.215-.16.087-.105.15-.167.233-.182M22.416 15.414s.15.019.253-.111c.102-.13.214-.288.267-.332.053-.043.083-.081.083-.081s.087-.053-.005-.125c0 0-.044.058-.097.115-.054.058-.098.125-.273.323-.174.197-.199.13-.199.13M21.92 14.765l.452.562.005-.014-.02.072-.004.014-.433-.53" style="fill:#e2c89a;stroke:none;stroke-width:.06"/><path d="M22.125 20.13s.064-.032.13-.115c.064-.084.096.006.096.006l.298-.635.732-1.488-.077-.11-.914 1.72s-.045.109-.09.186c-.046.077-.05.035-.091.115-.04.077.013.116-.084.129-.098.013-.098.108-.052.134.045.026.052.058.052.058M23.524 17.324l.282-.481.058.057-.272.548s-.01-.057-.068-.124M20.988 16.814l-.108-.026s.02-.067.01-.202a.5.5 0 0 1 .065-.288c.035-.074.123.019.123.019s.092.097.256.038c.197-.07.298-.227.298-.227s.013.243-.068.394c-.081.15-.191.34-.33.337-.14-.003-.246-.045-.246-.045M22.494 13.466s.252.01.486.01.01-.27-.175-.319c-.185-.047-.282.058-.418.097l-.428.176s.166.02.227.023zM17.386 14.028s-.02-.052.059-.057c.077-.005.35-.005.398-.005s.063.01.107.072c.044.063.2.265.2.265s.018.053-.117.053h-.34c-.074 0-.078-.01-.107-.043-.03-.034-.2-.284-.2-.284M18.47 14.028s-.02-.052.058-.057.321-.005.37-.005.063.01.107.072c.043.063.199.265.199.265s.019.053-.117.053h-.31c-.074 0-.079-.01-.108-.043a10 10 0 0 1-.199-.284M16.293 14.067s-.015-.091.063-.096.311-.005.36-.005.063.01.107.072c.043.063.199.265.199.265s.02.053-.117.053h-.301a.34.34 0 0 1-.204-.077 2 2 0 0 1-.107-.212" style="fill:#b8c5b8;stroke:none;stroke-width:.06"/><path d="M18.047 16.28c.165-.15.263-.25.34-.404s.38-.284.365-.03c-.015.256-.117.588.18.39.296-.197.47-.326.495-.1.024.226.005.216-.058.283-.063.068-.112.106-.112.106s.005-.144.005-.24-.02-.13-.19.029c-.17.158-.267.235-.373.216-.108-.02-.102-.01-.102-.01l-.078.092-.073-.044.082-.125s-.077-.062-.034-.269c.044-.207.112-.418-.024-.23s-.146.235-.423.336" style="fill:#3f863f;stroke:none;stroke-width:.06"/><path d="M18.932 16.236c.1-.066.186-.124.257-.164.084-.133.135-.281.238-.461.121-.211-.13-.207-.257-.115-.112.08-.259.2-.42.37-.017.252-.107.563.182.37M17.267 15.742l-.006-.002zM17.19 15.644h-.016q.01.002.017 0M17.263 15.714h.014zM17.25 15.74l-.024.001c.007.004.017 0 .023 0M17.19 15.742l.002-.001h-.001zM17.18 15.756l.01-.014c-.007.003-.008.002-.01.014M17.205 15.77q-.007 0 0 0" style="fill:#ffd93c;stroke:none;stroke-width:.06"/><path d="M17.226 15.958a2 2 0 0 0-.073-.229c.016-.003.035-.001.046.007l-.007.005c.007.014.019.015.03.022-.002.006-.011.007-.017.007l.01.001c.003.035.019.004.019.038l.023-.011c-.008 0-.02 0-.023-.008-.012-.023.054-.012.042-.034-.027 0-.054.003-.078-.009q.011-.008.028-.006l-.004-.005.004-.007c.015 0 .039-.009.05.007q-.003.005-.009.006c.022.003.048-.01.044-.013l-.054-.009q0-.003.006-.006-.013.005-.022-.008c.008 0 .008-.012.008-.02-.031-.011-.039.02-.062.008.015-.008-.012-.023.011-.023-.007 0-.015.004-.019-.004l.008-.007c-.015-.004-.039.003-.05-.008.01-.009.024-.007.037-.007a.02.02 0 0 1-.01-.008l.007-.005h-.027l.008.005c-.039.023-.02-.012-.043-.02-.03.004-.062-.003-.077-.026-.024.003-.055-.012-.07.01 0-.022-.043-.007-.051-.01q.001-.011.008-.016c-.035.02-.055-.034-.082-.008l-.008-.004c0 .004 0 .016-.007.02l-.016-.016c.004.012-.008.016-.012.023l-.015-.015-.008.008c-.011.011-.085.058-.097.054l.008.007a.5.5 0 0 0-.12.127l.007.004c-.039.004-.027.023-.043.035.008.023-.023.034 0 .065l-.027.012.016.015-.008.008c.008 0 .023-.008.027.004l-.012.015.004.008-.039.042h.02l-.02.019c.004 0 .016 0 .02.008.012-.004-.04.042.008.046 0 .046-.004.03.007.07h.012c.011.015.058.004.07.033.027-.003.046.047.07.008v-.022c.14.04.222.081.29.173.077.105.116.067.126.182.01.116.01.164.01.164s.087.028.223-.048a.55.55 0 0 0 .263-.25c-.195-.135-.321-.25-.36-.404" style="fill:#ffd93c;stroke:none;stroke-width:.06"/><path d="M13.4 21.575c-.225-.047-.431-.131-.657-.166-.02-.007-.035.008-.035.02l.02.022-.008.004c.058.07.093.173.062.25-.027.058-.046.143-.124.154a.35.35 0 0 1-.33-.027.6.6 0 0 1-.08-.092l.016-.017.008.01a.26.26 0 0 0 .14.076c.106.008.226 0 .288-.096 0-.03.024-.07.035-.104-.015-.039 0-.092-.058-.131.004-.016-.02-.023-.039-.027l.004-.007c-.023-.004-.023-.02-.046-.027-.055.012-.121.019-.156.07-.043-.082.078-.082.105-.128.062-.019.148-.05.218-.027l.124.015-.004.005c.024.007.062.022.082 0-.008-.012-.024-.005-.035-.012.015 0-.031-.008-.043-.023-.058-.012-.136-.031-.187-.027a.8.8 0 0 0-.217.062c.007-.07.109-.082.167-.108.09-.019.152.004.237.004v.008c.043.014.101 0 .129.022-.004.012.007.015.019.012h.023c.031.015.07.05.105.057.144.077.272.081.431.124.035-.023.086-.016.129 0q0 .016-.023.034-.008-.009-.02-.007l-.015.022c.065.043.155.031.198.081-.125.008-.25-.03-.381-.027l-.039.02M12.895 20.993c.023.012.039.031.07.036q-.006.006-.012.007c.035-.016.047.023.074.02l-.004.006a.4.4 0 0 1 .105.043l-.183-.146a.45.45 0 0 1-.237-.235c.035-.015.101-.008.152-.008.113-.038.16-.161.163-.258l-.014-.039-.056.02c-.03.011-.05.004-.07.035l.004.007c-.027.04-.078.07-.124.054-.02.012-.043.02-.027.043.035.011.077-.008.112-.023.035-.012.047-.07.09-.047l-.008.008c-.02.089-.113.1-.183.115-.027-.03-.085-.042-.082-.096-.007 0-.019 0-.023-.007l.008-.008c-.027 0 .008-.015-.02-.019.005-.02-.011-.05-.023-.062l-.027.011c-.012.02-.027.066.008.078q-.005.006-.016.007h.016c.008.015 0 .039.015.05-.015.023.031.039.028.054l-.008.008.02.02-.005.007.082.111c.019.012.023.058.027.046.058.043.09.12.155.154zM12.623 20.77c.027.027.039.077.085.093.004.046.094.065.082.115a.6.6 0 0 1-.245-.277c.012-.046-.05-.093 0-.131.047.058.02.146.078.2M22.011 21.58s.055.103.25.064c.194-.038.509-.09.509-.09.101 0 .179-.052.272-.064.148 0 .272-.073.412-.07-.047.085-.093.182-.054.278.038.08.108.127.19.154.124.015.288-.008.37-.12.054-.092.155-.192.104-.303-.004-.2-.194-.328-.37-.393-.042-.016-.088-.023-.12-.05.086-.088.195-.189.19-.33.036-.155-.05-.294-.14-.413-.19-.13-.365-.077-.555.024-.03.084-.108.18-.047.276.04.062.101.123.183.116.054.034.109 0 .16.015-.008.035-.02.08-.062.088-.063.127-.203.231-.323.3-.234.116-.408.1-.408.1l-.175.155c.248-.05.509-.15.715-.277l-.008-.004a.8.8 0 0 0 .218-.204c.042-.015.078-.12.112-.177.012-.089.016-.165-.05-.223-.023 0-.015.03-.027.042.011.004.023.03.007.046-.007.016-.007.035-.019.05a.17.17 0 0 1-.093.042l-.012-.015a.22.22 0 0 0 .09-.165c-.02-.008-.016-.039-.043-.035-.027.035 0 .053-.012.089-.031.038-.05.088-.113.069v-.004c-.019-.015-.042-.004-.058.012-.011 0-.058-.047-.074-.077a.27.27 0 0 1 .14-.243.41.41 0 0 1 .412.077c.035.042.097.112.113.181.02.093.027.192-.035.261l.004.008-.074.096c0-.015.024-.058.035-.08q.006-.001.012-.008c-.02-.02.023-.107.007-.146h.008a.7.7 0 0 0-.058-.235c-.012-.004-.02.007-.027.015.027.177.027.354-.097.489-.004.035-.036.058-.02.085.008-.016-.05.03-.066.05.027.061.12-.008.171.019 0 .027.04.003.055.019.147.046.334.139.357.312l-.007.008.019.015c.03.115-.031.208-.105.288-.054 0-.07.046-.117.066-.074.003-.186.019-.244-.035-.055-.08-.078-.177-.035-.238l.019-.02-.008-.008c.027-.023.078-.026.113-.042.042.016.058.054.077.085.004.038.004.07.008.112.047.007.016-.043.036-.07a.2.2 0 0 0-.063-.146c-.155-.077-.31-.023-.478-.007-.07 0-.124.03-.194.026q-.001-.006-.008-.01c-.02.026-.09.022-.132.033-.086.02-.183.043-.268.047-.066.038-.164.015-.222.05-.082.011-.211-.003-.285.001z" style="fill:#000;stroke:none;stroke-width:.06"/><path d="m23.933 21.52-.024.02.008.008h-.008c-.023.053-.055.134-.109.173-.015-.016-.05-.027-.03-.05.084-.12.166-.235.1-.354l.004-.035c.05.07.066.154.058.239M23.31 21.324c-.039.032-.105.015-.14.027-.202.008-.435.097-.645.111-.054.012-.109.035-.183.035-.015-.007-.046.016-.054-.01a1 1 0 0 0 .23-.043c.256-.054.536-.127.785-.127zM21.362 21.193c-.07-.026-.151-.015-.217-.053-.05-.008-.125-.016-.167-.05a.44.44 0 0 1-.055-.408H20.9l.008.008a.3.3 0 0 0-.105.061c.007.011-.016.042-.008.054-.008.015-.031.027-.054.023-.11-.104.03-.22-.016-.342h-.027c-.039.019-.082.042-.082.092-.015.023-.042.061-.066.027-.015-.081.024-.135.07-.2.058-.077.008-.127.023-.196h.008c-.011.018-.085.015-.093.057-.047-.008-.097.047-.14 0 .02-.02.058.008.07-.023.066.008.14-.054.167-.108.016-.007.02.004.031.012-.008.05.016.104.027.154-.007.042-.027.088 0 .138.036-.011.028-.054.07-.05.078.1.031.193.036.304l.042-.003c.058-.005.054-.085.074-.105l.023.02c.023.123-.02.28.035.38.031.032.043.124.113.097l.26.09z" style="fill:#000;stroke:none;stroke-width:.06"/><path d="M20.95 21.436c-.217-.008-.482-.065-.649.104-.047.042-.03.092-.043.138-.14.024-.244-.08-.307-.188-.023-.089.008-.17.07-.212-.031-.015-.066.02-.085.027-.128.066-.156.208-.156.346a.14.14 0 0 1-.089.02c-.039-.004-.042-.046-.07-.07-.015 0-.031.004-.035.024-.035-.008-.05.011-.078-.016-.05-.1-.089-.265.008-.366-.05-.003-.097.047-.112.081-.07.104-.117.243-.035.354.03.031.12-.004.104.054-.054.085-.151.12-.256.112-.081-.027-.132-.108-.175-.174.016.085-.047.174-.105.216l.004.008c-.02.012-.039.038-.07.034-.012-.108-.054-.203-.097-.3-.023-.088-.047-.196-.008-.277-.101-.011-.221-.023-.319-.07-.093-.026-.151-.123-.155-.207.182.011.334-.123.517-.096.023.007.03.03.027.058h.016c-.004-.08-.105-.135-.121-.216-.027-.058.02-.116.043-.165.02-.028-.016-.05.015-.07.05.062.117.097.175.143.055.011.027-.116.113-.139.062-.039.058-.123.097-.177.152.065.16.262.237.393.113.107.237.115.4.096.04.007.082.02.117.015-.081-.111-.09-.258-.113-.396-.007-.073-.062-.131-.097-.2.067-.035.164-.02.237-.012.102.024.222.054.269.142.011-.018.011-.05.019-.073.043-.053.109-.122.182-.103-.05.019-.07.038-.112.053l.008.008c-.05.031-.05.104-.054.15q.047.051.054.12c-.004.034-.043.069-.062.069-.125.039-.043-.112-.105-.154l.007-.004h-.015c-.097-.115-.214-.208-.377-.18a.54.54 0 0 1 .097.31c.008.036.008.07.027.105.02.057.066.123.097.185.051.046.09.08.129.134-.055.027-.078-.061-.129-.07l.008-.007h-.027q-.007-.005-.008-.015c-.008 0-.023.007-.027-.008l.008-.004a.1.1 0 0 1-.062-.015c-.11-.015-.214 0-.315-.015v-.004c-.082-.011-.144-.062-.21-.104-.101-.088-.085-.246-.175-.335a.28.28 0 0 1-.128.154c-.02.02-.012.062-.012.08h-.008c-.003.032.016.05-.007.085-.031.043-.086.016-.12.008l.007.008c-.066.027-.035-.054-.097-.066l.007-.003-.027-.031s.004-.008.012-.004q-.013.002-.02-.008l.008-.007c.004-.005.02-.016 0-.02l-.031.047a.15.15 0 0 0 .024.127c.038.053.15.123.097.21-.035.036-.059 0-.09-.018l.004-.008c-.043-.05-.128-.023-.202-.019-.062.027-.136.054-.186.08-.004-.018-.047-.007-.035-.01l.003.007-.003.004c.003 0 .015 0 .019.007 0 .008-.024.008-.008.008l.008.008-.008.007a.15.15 0 0 0 .097.055c-.027 0 .012-.016-.019-.02.035-.03.05.035.09.02.054.058.15.034.209.05-.004.011.016.026-.011.038.042.016.097.004.132.035-.016.014-.02.053-.05.03-.172.124.015.32.05.462.039-.007.042-.042.07-.07-.004-.053.035-.099.035-.146.003-.026.05-.069.077-.034-.004.015.008.027-.007.042.02.062.062.127.105.165.077.032.144.016.21-.026-.008-.023-.04-.038-.063-.046-.081-.054-.109-.166-.085-.266h.008c.007-.12.109-.192.217-.227.12-.007.16-.077.272-.092.024.011.008.035 0 .035-.077.03-.128.08-.182.126l.007.008c-.042.012-.03.053-.054.073-.015.081-.015.185.054.231.004-.019.024-.027.035-.042.07-.058.051.069.105.061.047-.092-.015-.15.062-.242.086-.131.257-.15.385-.123.082.142-.124.057-.148.15-.007.027-.015.077.008.092.024.065.082.146.163.166.024-.054 0-.077.035-.131.148-.239.46-.173.685-.146l.148.024-.095.05M14.952 21.386c.062.015.062-.02.104-.046.086.011.156.046.234.011q.007.006.008.016c.081-.02.163.004.264.019.054.042.167.08.155.154-.019 0-.042.003-.058-.008l.007-.008c-.023-.019-.058-.015-.054-.053-.007.015-.019 0-.03-.009l.007-.007h-.011c-.005 0-.012-.004-.008-.012h-.024q-.007-.004-.004-.015c-.05.015-.077-.027-.128-.011.086.042.175.054.245.115-.008.004-.008.016-.008.023h.016c.003.027.066.05.034.081-.135-.185-.427-.193-.637-.18l.008.006" style="fill:#000;stroke:none;stroke-width:.06"/><path d="M20.048 20.585c.086.146.21.324.362.42a.08.08 0 0 1-.074-.019c-.004-.023-.054-.035-.078-.062-.05-.065-.112-.13-.128-.188-.074-.065-.124-.173-.179-.228.02-.046.063.05.097.077M20.496 20.89c.054.05.085.123.147.157 0-.046-.015-.061-.027-.11-.016-.043-.031-.12-.016-.167.035.112.043.32.21.37 0-.058-.03-.12-.027-.181h.027c-.019.061.028.108.043.173a.44.44 0 0 0 .175.089c-.035.053-.085-.008-.132-.008-.02-.035-.066-.008-.093-.027-.125-.03-.21 0-.335.027l-.027-.012a.7.7 0 0 1 .292-.061c-.008-.023-.035-.046-.07-.05.008.015-.035 0-.047-.015-.023-.04-.082-.07-.1-.124l.007-.008c-.031-.015-.047-.077-.07-.104a.6.6 0 0 1-.008-.226c.008.104.012.184.05.277M19.2 20.866l.09.093.008-.008c.081.12.31.123.427.096q.001.01.008.015c-.077.04-.151.012-.217.02l-.016.015-.011-.015c-.028.02-.125.015-.164.069-.027.027-.073.027-.097.058l.008.004c-.039.003-.055.07-.09.077l.004.008a.26.26 0 0 0-.054.118c-.008.047.015.104.008.15-.047-.011-.027-.08-.043-.11-.012-.055.046-.09.027-.132l.008.007.027-.033-.008-.008c.028-.004.024-.016.031-.035.024-.046.09-.058.09-.111-.07.019-.136.05-.21.057-.043-.027-.055-.004-.097-.023q-.001-.005-.008-.012c.031-.019.136.012.194-.027.031-.026.098-.004.101-.049 0 .007-.003.019.004.019.008-.004.02-.008.016-.019-.027-.008-.055-.039-.086-.027-.004-.023-.035-.008-.046-.027-.055-.031-.078-.054-.14-.07-.008-.015-.043-.03-.063-.042-.015-.015 0-.023.004-.034.031.02.078.053.105.069.105.054.245.135.366.089-.059-.012-.074-.074-.12-.09-.005-.015-.013-.034-.028-.026l.008-.008c-.04-.011-.059-.058-.07-.085l.008-.007.035.03zM20.118 21.27c.012.031-.023.02-.035.028l-.027-.035c.016-.008.051-.015.062.007M17.969 21.332c-.008.035-.008.069-.028.096a.54.54 0 0 0-.272-.053c-.062.092.101.092.105.184.012.07-.012.169-.062.216-.016-.02-.039-.024-.05-.043-.047-.022-.082.016-.105.043-.031.05-.012.076-.008.13.03.035.047.104.113.1.128.089.237-.069.33-.103.054.015.1.065.144.107.066-.008.093-.115.163-.115a.37.37 0 0 0 .253.104c.062 0 .112-.046.151-.092.012-.047.04-.104.008-.15-.02-.054-.074-.07-.124-.07-.04-.004-.066.061-.101.027a.57.57 0 0 1 .035-.338.5.5 0 0 0-.245.08c-.028-.03-.016-.054-.02-.096a.5.5 0 0 0-.14-.158c-.054.023-.089.089-.147.13l.027.016.093-.092c.047-.004.058.042.078.07-.004.06.035.126.02.215.015.046.038-.008.07 0a.33.33 0 0 1 .217-.139c.004.104-.078.25 0 .327v.046c-.097-.042-.05-.146-.078-.207-.074.019-.007.122-.015.165-.004.03.038.07.07.092.011-.004.023.005.03-.007v-.008c.005.011.024.015.04.015.039-.02-.016-.073.042-.077l-.008-.007c0-.008.051-.043.078-.012.02-.007.02.02.028.027-.032 0-.067-.058-.098-.008.039.027.043.089.07.104-.062.027-.124.089-.194.054-.027-.011-.086 0-.113-.035.004-.069-.093-.107-.097-.2-.02-.015-.027-.004-.043-.007.008.046-.007.07.035.1l-.007.003c.073.07-.063.104-.09.162-.042.008-.058-.034-.097-.05-.023-.077.066-.15.039-.215-.066-.03-.081.08-.132.042-.031-.008-.031.027-.047.042a.3.3 0 0 1-.171.174l.024.026c-.043.012-.067.008-.113.008-.035-.011-.05-.058-.063-.088-.007-.035.016-.066.028-.1.031-.016.09-.004.085.05.008.023.035.015.047.007.008-.01.008-.034.027-.034l-.004-.008c.023-.016.043-.081.055-.123.015-.085-.008-.17-.09-.223l-.015-.016c.043-.034.136.004.194.024.05.011.066.11.128.061a.22.22 0 0 1-.023-.158z" style="fill:#000;stroke:none;stroke-width:.06"/><path d="M14.602 21.209c.214-.031.388.034.59-.058a.44.44 0 0 0 .284-.423c.027.012.062-.02.093 0 .016.042.04.054.07.077v.027h.043c.02-.03-.023-.089-.007-.116-.028-.019-.035-.034-.051-.06a.37.37 0 0 0-.245-.105c0-.058.054-.069.094-.092.023-.004.03-.02.061-.012-.003.012.008.015.02.012h.027l-.004.008c.004.01.02.003.027.007l-.007.008c.004.011.02.004.027.004.035.007.066.057.097.084.02.008.031-.012.043-.019-.124-.112-.113-.28-.09-.416.07.05.183-.023.222.074.05.042.016.111.086.134L16 20.32l.007.008c.028-.02.059-.077.113-.062.02-.011.055-.035.097-.042.02 0 .051-.027.078-.008-.007-.004-.02.008-.015.015.011.024-.016.024-.02.035l.008-.008c-.027-.019-.054.004-.062.028l.004.007c.007.02-.039.015-.035.035.004.007.015.007.023.007-.062.081-.023.15-.035.235.016.046.004.134-.023.158.008.019-.016.015-.02.03 0 .012-.011.035.016.039.039.015.02-.038.055-.035v.024c-.04-.012-.008.019-.028.026-.039.046-.113.07-.132.139.05.062.093-.027.144-.027.218-.023.517-.046.638-.277.043-.061.035-.13.043-.189.05.016.12.077.14.14.015.022 0 .037-.009.057l.008.003c-.015.035-.144.074-.105.135.035-.011.039-.054.078-.058.035-.038.117-.045.167-.08.031 0 .07-.016.097-.035.023.004.047-.046.05-.008-.007.047 0 .066-.007.112-.027-.02.02-.097-.05-.07l-.004.004c.007.005 0 .062-.008.093-.011.015-.011.023 0 .042l.012.012c.03-.008.042-.046.042-.07.035.012-.015.043.008.058-.027.004 0 .02-.02.035l.005.004c-.059.065-.218.088-.18.188.028.03.071.108.117.05.043-.023.039-.07.035-.1l-.011-.011a.44.44 0 0 1 .284.054l.007-.009c.04.043.101.062.14.093l-.008.008.218.08c-.085.023-.132.097-.23.097-.019.027-.05.011-.077.015l-.008-.008c-.05.031-.128.02-.183-.01-.019 0-.03.018-.046.026-.004.042.054.05.07.08l-.008-.003c-.054.035-.007.084-.027.138-.039.104-.097.135-.097.243.004.015.015.034.035.038.054-.023.011-.096.035-.139.02-.007.02-.042.039-.06.003-.012.023-.048.035-.07-.004-.027.007-.046.015-.07.035.116-.039.208-.097.293.023.011.004.023.008.042-.016.016-.008.062-.008.08a.37.37 0 0 1-.183-.33c-.046-.038-.085.031-.124.046l.004.008c-.024-.004-.02.02-.04.023l-.007-.007c.015 0 .012-.02.02-.027-.016-.031-.043-.004-.063 0a.24.24 0 0 1-.175.038c.004-.035.04-.065.055-.089l-.004-.007c.039-.062.023-.112-.008-.192-.042-.1-.198-.105-.295-.154.011-.02-.016-.027-.02-.042l.008-.005c-.008-.007-.02-.01-.016-.022l.008-.009c-.003-.007-.015-.003-.023-.003l.008-.008c-.02-.016-.047-.02-.055-.042-.02-.012-.046-.004-.07-.008-.011.03-.05.023-.07.015.004-.01-.008-.015-.015-.022-.012 0-.016.015-.027.007-.016.011.004.011-.016.023.012.047.062.05.093.074.016-.009.047-.04.07-.027.031.041.097.092.07.138-.03.038-.015.107-.027.139-.015.053-.082.088-.035.13-.019 0-.015.023-.035.016-.003-.09-.046-.15-.07-.223-.035-.008-.07-.047-.104-.062-.125-.062-.265.004-.409-.027-.015.02-.004.027-.007.042h.015l-.008.008c.101.019.144.1.156.173-.008.02-.016.069-.043.096.027-.034.012-.073-.008-.096-.02.054-.07.092-.105.131-.015.015-.015.023-.011.042l.011.012c.008.014-.093-.035-.078.042.032.05.102.023.14.02a.27.27 0 0 0 .164-.212c-.004-.054-.023-.12-.035-.17.093.007.253-.027.292.1a.6.6 0 0 1 .023.2c.043.023.1.016.16.008.042-.03.07-.05.104-.092l-.008-.008c.031 0 .016-.035.035-.047.008-.065-.007-.134-.012-.188.07-.035.137.027.187.077.062.111-.078.227-.039.347q.07.052.175.042c.09 0 .14-.108.23-.112.046.12.14.28.287.277-.011-.193.198-.331.09-.539a.49.49 0 0 0 .443-.204c0-.046-.05-.015-.07-.034-.19-.05-.335-.2-.525-.243.124-.115-.039-.28.027-.408-.008-.007-.015-.019-.027-.011a.37.37 0 0 1-.26.157.33.33 0 0 0-.16-.234c-.047.015-.081-.065-.113-.008a.29.29 0 0 1-.058.304c-.105.123-.256.131-.396.173h-.105c.023-.057.062-.134.104-.2l.019-.08q-.004 0-.007.003c0-.15-.043-.269.031-.423-.144-.027-.28.039-.4.104a.3.3 0 0 0-.12-.142c-.07-.012-.148-.008-.203-.058-.065.011-.011.096-.035.139-.003.069-.023.157.016.215-.05.004-.105-.038-.164-.016-.046.02-.089.05-.14.066l-.02.104s.088.038.121.043c.035.005.02.005-.004.116-.024.11-.058.284-.267.355-.21.073-.408.049-.588.073s-.044.01-.044.01z" style="fill:#000;stroke:none;stroke-width:.06"/><path d="m15.92 20.728.007.008c-.027.004-.003.065-.042.084q.006.01.02.008c-.005-.054.065 0 .05-.058.015-.004.023-.023.019-.042l-.008-.004c.035-.015.016-.042.031-.069.02-.031.031-.088.062-.135l-.008-.004c.032.004.02-.034.043-.034.027.015 0 .042 0 .07-.043.003-.004.042-.043.053.032 0-.015.023 0 .035.02.007-.034.007-.007.026-.004.024-.047.062-.035.096-.035.089-.12.108-.16.189-.073.042-.124.1-.198.123.032.043.113.015.191.023.078 0 .194-.007.272.035-.004.065-.02-.023-.062.027l.008-.008c-.012-.012-.043-.004-.05-.007l-.012-.012c-.016.03-.035 0-.051 0-.062-.004-.148.003-.183-.008l-.02.02c-.019-.02-.026.015-.042.007 0-.012-.012-.016-.02-.012-.01 0-.023-.007-.03.005.007.015.019.007.03.007-.1-.012-.097.027-.182.023-.02.027-.05-.003-.062.027l-.016-.015c0 .027-.03.004-.042.023.105.038.221.07.295.123.027.043.105.065.07.12-.039-.066-.124-.1-.163-.128-.11-.038-.249-.096-.37-.054-.062.012-.124.005-.194.008-.015-.026.024-.035.039-.042.09-.008.155-.043.233-.05a.4.4 0 0 0 .148-.081c0-.034.074-.042.062-.092.043-.062-.043-.089.012-.15h.023c.02.05.015.065.008.138-.012.004-.024.05-.024.07-.011.034-.034 0-.034.038-.012 0-.012.011-.02.015.04.015.062 0 .097-.015q.001.01.008.015c.008-.004.008-.015.008-.02-.024-.003-.016-.022-.008-.033.097-.047.202-.124.202-.232.008.005.011-.003.016-.007-.004-.008-.016-.004-.024-.004.027 0 .008-.03.024-.034-.012-.008-.012-.031-.032-.024.008.004.012-.004.016-.007l-.008-.004c-.015 0 .008 0 .008-.008-.012-.011-.02-.023-.035-.034l.008-.008c-.012-.027-.035-.035-.05-.05.026-.008.003-.008.022-.027a.1.1 0 0 1 .074.057c.016.062.027.066.035.124.035-.008.028-.039.035-.07.024-.027.02-.06.031-.088a.4.4 0 0 0-.007-.139h-.016c.039-.034-.047-.072.008-.092.078.058.058.227.042.304M16.802 20.762c0 .043-.043.05-.058.085l.008.008c-.032.023-.032.046-.02.07-.015.018-.015.03-.031.06.035.02.058-.019.093-.019a.36.36 0 0 1 .175-.103c-.027.05-.105.053-.14.115-.05.03-.1.05-.148.092.051.054.102.065.156.116l-.008.008c.043.042.117.107.097.18-.073.004-.035-.057-.085-.084-.024-.066-.109-.062-.14-.139-.012.008-.02-.007-.027-.012l-.008.005c-.039-.04-.078-.07-.132-.047l-.035-.015c.004-.027.008-.019.027-.042.051.011.078-.016.113-.035.058-.062.05-.107.086-.173l-.008-.004c.023-.03.046-.073.085-.065M17.187 20.993c0 .012 0 .027-.015.027-.016 0-.028 0-.036-.015 0-.023.036-.007.051-.011" style="fill:#000;stroke:none;stroke-width:.06"/><path d="m15.647 21.097-.007-.007q-.007.005-.008.015l-.008-.015h.023zM17.564 21.186c-.046.038-.132-.012-.167-.008q-.001-.006-.008-.011l-.035.011c.008.004.008 0 .012-.004-.07-.034-.179-.015-.257.012l-.015-.012c-.012.062.077.108.12.15.023.05.066.097.07.154l-.015.012c-.016-.031-.047-.108-.055-.116l-.042-.035.007-.007c-.019 0-.023-.027-.042-.019l.008-.008c-.035-.02-.063-.05-.121-.077l.008-.007c-.035.007-.039-.039-.078-.035-.004-.02-.012-.008-.012-.027.047-.062.136.015.195-.02.14-.05.295.02.427.047M19.306 15.436c-.035.004-.105.027-.132.062.023-.024.054-.066.089-.07.02 0 .035-.007.058-.004zM19.273 15.51c-.023 0-.039.053-.07.015.031-.008.047-.055.07-.016M19.172 15.506c-.016.015-.031.038-.055.03.04.008.016-.054.055-.03M19.3 15.592c-.008.015-.023.015-.039.015l.016-.07c.023-.014.054.024.023.055M19.384 15.565l.015.008h-.03v-.024h.03zM18.935 15.83l-.055.024v-.04c.016 0 .047-.007.055.016M19.22 15.854c0 .023-.03.038-.046.053-.008-.03.03-.03.046-.053M19.098 15.915l.023-.053v.053z" style="fill:#000;stroke:none;stroke-width:.06"/><path d="M18.943 15.919v-.024" style="fill:none;stroke:#000;stroke-width:.0262793"/><path d="M18.833 16.004q-.022.002-.031.015c-.032-.031.007-.061.03-.085zM19.024 16.018c-.016.069-.086.107-.14.137-.031 0-.015-.015-.054-.038v-.038l.015.008-.015.015.046.046c.024-.015.008-.038.008-.061-.008.053.031.03.047.046-.032-.054.039-.115.093-.115M19.135 16.102l-.008-.015c-.008.03-.047.068-.07.053-.031-.023 0-.061.023-.077.024.008.078-.03.055.039" style="fill:#000;stroke:none;stroke-width:.06"/><path d="m18.83 16.11.015-.008c.016-.039.016.069.055.008l-.04.06.016.009c-.03-.008-.077-.039-.062-.092 0 .015.008.022.016.022M18.75 16.202l.062-.062-.047.062zM18.818 16.227l.023-.054v.054zM19.238 15.64h.015v-.03h.008zM19.174 15.661l.015.016-.03.03v-.053h.03zM17.139 15.771c.017.022.087.004.096.052v.03c-.03-.056-.113-.034-.149-.03-.065.017-.134.034-.204.095-.022.013-.074.021-.087.06l.008.026c-.03.008-.004.008-.026.03-.052-.013-.008.04-.06.052v.065l-.04-.005c.026-.042-.026-.15.048-.142.013-.008.004-.026.009-.039a.23.23 0 0 1 .109-.095v-.03a.04.04 0 0 0 .03.013c0-.009.009-.056.04-.043.039-.035.065-.017.1-.056.043.052.078 0 .126.017M17.39 16.24c-.044-.008-.055.031-.079.054q0-.006-.007-.01a.27.27 0 0 1-.183.103c-.004.038-.105.03-.047.08v.015c0-.072-.112-.05-.105-.138h.035c.028.023.067.015.105.008.016-.023.059-.02.063-.05l.007.008c.062-.055.125-.108.175-.174.027.012.047.035.047.062-.012.008-.004.02-.004.027M19.252 15.817v-.02l.011.012zM17.257 16.025c-.008.008-.039-.077-.035-.123zM17.296 16.102c-.016.004-.031-.015-.035-.027v-.023c.02.008.023.035.035.05M19.78 16.345l.031.034zM17.207 18.165c.053-.009.13.015.063.034-.069.02-.107.024-.093 0a.1.1 0 0 1 .03-.034M14.441 13.6c.059-.067.097-.087.127-.105.029-.02.034-.01.034-.01l.01.048s-.04 0-.083.02a1 1 0 0 0-.088.047M14.534 13.61c.053-.033.107.034.058.034a.5.5 0 0 0-.092.009zM14.636 13.846c-.027-.044.014-.063.024-.034s-.01.058-.024.034M14.007 13.496c-.027.008-.054.043-.082.043.012-.035.047-.05.082-.043M14.085 13.52l.023-.024v.024zM14.073 13.554h-.043l-.008-.042c.004.027.035.019.05.042M13.91 13.524l-.02.022c-.007.016-.004-.05.02-.022M13.945 13.677q-.006.007-.012.008l-.008-.008.012-.015c.004.004.011.008.007.015M13.867 13.731l-.02-.026c.004-.009.028.003.028-.02.02.015-.004.03-.008.046M14.147 13.754c.011 0-.028.011-.035.008l.015-.015.016.015zM14.042 13.866l-.004.004v-.062c.023.004.012.043.004.058M13.968 13.85c0 .008-.008.023.004.028-.02.007-.02-.012-.02-.027zM14.077 13.92l-.004.007-.023-.042-.02.008.02-.015c.007.015.011.03.027.041M13.898 13.97c-.02.02-.027.02-.031.038q-.006.001-.012.008v.023c.004-.054-.066-.062-.05-.12.027.024.05.066.093.051M14.038 13.97l.035-.024.012.024c-.02.004-.031.027-.047.038l-.035-.053-.008.007-.015-.043c.027.031.035.028.058.051M14.217 13.416c.03.03-.02.046-.02.072q-.001-.005-.007-.01c-.027-.009-.02.03-.043.034l-.004-.062c-.023.004-.047.02-.066.012l-.011-.012c.042-.05.105.038.124-.034z" style="fill:#000;stroke:none;stroke-width:.06"/><path d="M14.182 13.589c-.004-.004-.008.003-.012.003.039.04-.02.097 0 .135-.035-.015-.015-.104-.085-.104l-.008.005c-.012-.005-.016-.027-.035-.02-.011.008-.004.023-.004.034.027.024.07.024.09.07l-.02.02c-.015-.008-.03-.04-.058-.028-.047.03-.027.1-.043.154-.027-.043-.027-.13-.011-.181.019-.016.05-.05.027-.085.058-.027.09.035.147 0 .004-.015-.007-.019-.015-.034h-.02l.008-.027c.024.015.05.015.04.058M13.917 13.565q.001.011.008.016c-.07.023.023.089-.058.08-.016.035-.04-.01-.055.031-.003.047.074.05.035.104.012.004.016.027.035.02 0-.039.024-.073.027-.112.008.019.055.061.051.104-.027.02-.066.027-.085.057-.028-.053-.05-.103-.097-.138-.012.02-.005.046-.008.07q-.012 0-.012-.009l-.015.012c.035.008-.016.015 0 .03-.024 0-.012-.037-.016-.042v-.007c.004 0 .004.023.023.015.035-.023-.038-.034-.015-.069.031-.088.167-.05.167-.162zM13.972 13.623c-.008.005-.016.02-.027.012-.008-.012.027-.039.015-.054.012.003.016.023.012.042" style="fill:#000;stroke:none;stroke-width:.06"/><path d="m14.05 13.789.015-.027.027.039zM13.972 14.005c-.016-.005-.035.003-.047-.008l-.023.034-.012-.015c.004-.042.086-.023.055-.088.011.015.035.046.027.076M13.855 13.623c-.035.005-.043-.015-.05-.034.02.039.035-.02.058 0l.004-.016c-.004.02.012.04-.012.05M13.77 13.642c-.027 0-.02.047-.043.054a.2.2 0 0 1 .03-.061q0 .006.013.007M13.785 13.893l-.015-.05.015.027zM14.197 13.765c.008.028-.027.024-.027.036-.012-.008-.012-.036.008-.04 0 .009.012.004.02.004M13.812 13.83q0 .008-.007.012l-.02-.034c.02-.004.02.007.027.023M13.867 13.939h-.012l-.008-.046c.004.011.047.026.02.046M21.716 13.639s-.058-.032-.103-.026a.2.2 0 0 0-.065.02l.02.019.064-.02zM21.597 13.708c.026-.014.044-.007.063-.002s.04.021.04.021-.013-.004-.042.003-.053.022-.065.012-.008-.026.004-.034M22.28 13.573c-.011.02-.016.05-.008.062-.085-.031-.011.092-.081.092.008-.057.035-.092.062-.135-.02 0-.055-.019-.078 0v.05c-.008-.041-.043-.019-.078-.034-.011-.046-.116-.046-.07-.104.094.023.183.004.253.07M22.4 13.67c.005.019-.023.019-.034.026v-.035c.011.005.027-.003.034.009" style="fill:#000;stroke:none;stroke-width:.06"/><path d="M22.156 13.712h-.024c-.011-.012-.004-.039.016-.042.012.011.004.026.008.042M22.385 13.955c-.004.022-.015.003-.027 0 .023-.047-.043-.032-.027-.062zM22.428 14.039a.1.1 0 0 1-.07 0c0-.007-.004-.019.008-.023.007.015.034.031.046 0 .008-.016-.007-.023-.012-.035l.02-.01c.012.018.004.045.008.068M22.435 14.093c-.019.003-.019.019-.042.015.02.008.02-.027.042-.015M22.062 13.712l.008-.016h.016z" style="fill:#000;stroke:none;stroke-width:.06"/><path d="m22.482 14.039-.043.038c.028-.038.067-.088.051-.13l-.027.034a.8.8 0 0 1-.078-.139l.027-.027q-.042-.002-.062-.05c.016-.026.105.009.097-.06v-.035c.008 0 .02.004.024-.008-.036-.054-.101-.058-.148-.089l-.027.035c.003.034.054 0 .046.042a.14.14 0 0 1-.07.046c0-.019.027-.034.008-.054-.035-.003-.023.035-.035.05l.008.004c-.031.02-.043.058-.027.086.015.014.015.053.046.041l.05-.05c-.026.05-.073.093-.084.154 0 .066.097.02.085.081h-.024c-.003-.023-.034-.008-.054-.011-.011.008-.004.022-.007.034.023-.012.023.023.023.043l-.008.003c-.015-.003.004-.054-.035-.038-.062.054.05.057.062.104.008 0 .016 0 .02-.008l-.012-.042.011.015-.003.004c.03.023.062 0 .09.008a.13.13 0 0 0-.082.076M22.053 13.723q.016-.051.046-.014c.02.026.039.02.058.039s-.013.006-.058.006-.059.007-.046-.031M22.053 13.639c-.02-.032-.013-.058.013-.038.026.018.11.05.052.064-.058.012-.065-.026-.065-.026" style="fill:#000;stroke:none;stroke-width:.06"/><path d="M22.43 13.787c.038-.033.044-.046.038.013-.006.057-.013.095-.026.07-.013-.026 0-.032-.007-.052q-.008-.029-.006-.031M17.002 13.63c-.06-.072.12.044.146.022s.033-.022.088 0l.061.025s-.029-.003-.123.016-.136-.022-.172-.064M17.06 13.723c-.06-.072.12.044.147.022.025-.022.031-.022.087 0l.061.025s-.029-.003-.123.016-.136-.022-.171-.064M17.323 13.683c-.061-.07.12.046.146.023s.032-.023.087 0l.062.026s-.03-.003-.123.016c-.094.019-.136-.023-.172-.065" style="fill:#000;stroke:none;stroke-width:.06"/><path d="M17.46 13.79c-.062-.072.119.045.145.022s.032-.023.087 0l.062.026s-.03-.004-.123.016c-.094.019-.136-.023-.172-.065M17.628 13.694c-.061-.072.12.044.145.022.026-.022.033-.022.088 0l.061.025s-.029-.003-.123.016-.136-.022-.171-.064M17.803 13.8c-.062-.072.12.044.146.022s.032-.022.087 0l.061.025s-.029-.003-.123.016-.136-.022-.171-.064M17.93 13.706c-.062-.071.119.045.145.023.026-.023.032-.023.087 0l.061.025s-.029-.003-.122.016c-.094.019-.137-.022-.172-.064M18.23 13.802c-.06-.07.12.045.146.023.026-.023.033-.023.087 0l.062.025s-.03-.003-.123.016c-.094.02-.136-.022-.172-.064M18.243 13.71c-.06-.072.12.044.146.022.026-.023.032-.023.087 0l.062.025s-.03-.003-.123.016c-.094.019-.136-.022-.172-.064M18.57 13.694c-.06-.072.12.044.146.022s.032-.022.088 0l.061.025s-.029-.003-.123.016-.136-.022-.172-.064" style="fill:#000;stroke:none;stroke-width:.06"/><path d="M18.554 13.787c-.06-.072.12.044.146.022s.032-.022.088 0l.06.026s-.028-.004-.122.015-.136-.022-.172-.064M18.878 13.712c-.06-.07.12.045.146.023.026-.023.033-.023.087 0l.062.026s-.03-.004-.123.015c-.094.02-.136-.022-.172-.064M16.502 15.402l.018.053h.057l-.045.034.016.054-.046-.032-.047.032.017-.054-.045-.033.056-.001zM16.351 15.611l.019.053.056.001-.045.034.017.054-.047-.032-.046.032.016-.054-.045-.034.056-.001zM16.301 15.844l.019.053.057.001-.046.034.017.054-.047-.032-.046.032.016-.054-.045-.034h.057zM16.695 16.295l.018.053.057.001-.045.034.016.053-.046-.032-.047.032.016-.053-.045-.034.057-.001zM16.564 16.508l.018.053.057.002-.045.034.016.054-.046-.033-.047.033.016-.054-.045-.034.057-.002zM16.88 16.54l.018.052.057.001-.045.034.017.054-.047-.032-.047.032.017-.054-.045-.034h.056zM16.733 16.63l.019.054h.057l-.046.035.017.054-.047-.032-.046.032.016-.054-.045-.034.056-.001zM17.559 15.676l.018.053.057.002-.045.033.016.054-.046-.032-.047.032.016-.054-.045-.033.057-.002zM17.411 15.876l.019.053.057.001-.045.034.016.054-.047-.033-.046.033.016-.054-.045-.034.056-.001zM17.744 15.837l.018.053h.057l-.045.035.016.053-.046-.032-.047.032.016-.053-.044-.035h.056zM18.113 15.876l.02.053.056.001-.045.034.016.054-.047-.033-.046.033.016-.054-.045-.034.056-.001zM17.906 16.027l.018.053.057.002-.045.033.016.054-.046-.031-.047.031.016-.054-.045-.033.057-.002zM17.543 16.096l.019.053.056.002-.045.033.017.054-.047-.032-.046.032.016-.054-.045-.033.057-.002zM17.78 16.276l.018.053h.056l-.045.035.017.053-.047-.032-.046.032.016-.053-.045-.034.056-.001.019-.053M17.936 16.418l.019.053.056.001-.045.035.017.053-.047-.032-.047.032.017-.053-.045-.035h.056zM18.207 16.333l.018.053.057.001-.045.034.016.054-.046-.033-.047.033.016-.054-.045-.034.057-.001zM18.785 15.464l.018.053.057.001-.046.034.017.053-.046-.031-.047.031.016-.053-.045-.034.057-.001zM19.556 15.532l.02.053h.056l-.045.034.016.054-.047-.032-.046.032.016-.054-.045-.033.057-.001zM19.688 15.737l.018.053.057.001-.045.034.016.054-.046-.032-.047.032.016-.054-.044-.034h.056zM19.526 15.936l.018.053h.057l-.045.035.016.054-.046-.032-.047.032.017-.054-.046-.034.057-.001zM19.74 15.998l.02.053.056.002-.045.034.016.053-.046-.032-.047.032.017-.053-.046-.034.057-.002zM19.402 16.562l.019.053.056.001-.044.034.015.054-.046-.032-.047.032.017-.054-.045-.034.056-.001zM19.086 16.592l.019.054h.056l-.045.035.016.053-.046-.031-.047.031.017-.053-.046-.035h.057zM18.785 16.54l.019.052.056.001-.045.034.016.054-.046-.032-.047.032.017-.054-.045-.034h.056zM16.748 15.296l.019.053h.056l-.045.035.017.053-.047-.032-.046.032.016-.053-.045-.034.056-.001z" style="fill:#000;stroke:none;stroke-width:.06"/><path d="M13.443 21.594a.21.21 0 0 1 .035.181c-.027 0-.007.027-.023.034a.15.15 0 0 1-.047.05l-.008-.008c-.058.085-.217.02-.233.154 0 .089-.054.096-.047.177-.042.07-.077.147-.14.181.07.039.156.096.238.043l-.008-.008a.2.2 0 0 0 .113-.042c.039.019.05-.024.085-.039-.004-.027.015-.038.039-.042.05-.085.202-.089.245-.173l-.004-.008a.2.2 0 0 0 .081-.104c.024-.004.024.008.028.02a.33.33 0 0 0 .03.18c.098.08.226.135.223.293q.016.024.05.019c.062-.07.19-.13.183-.242.007-.066-.02-.139-.024-.2-.05-.066-.035-.12-.081-.158l.004-.008c-.028-.008.011-.02-.02-.023.004-.004.016-.007.016-.019l-.008-.008c-.02 0 .008.004.008-.008-.032-.031-.003-.071-.012-.122l.039.018c-.016.05-.008.077 0 .135.023.066.081.127.09.192.07.104.042.216.023.331-.07.1-.187.139-.245.239-.05-.123-.027-.285-.171-.354-.062-.008-.09-.077-.133-.12-.011.028-.058.028-.062.058-.128.073-.249.124-.365.235-.113.054-.268.077-.385.008l-.07-.077c.33-.062.136-.528.498-.535.027-.024.062-.057.07-.096.003-.07-.028-.12-.055-.173M21.825 21.72c.063.093.035.235-.008.324-.144.2-.229.466-.089.689.12-.239.44-.261.568-.481l-.008-.004.027-.035.05.035a.66.66 0 0 1 .39.323c.023.031.015.085.05.097.043-.1.14-.18.124-.289.035-.07-.003-.146-.019-.2-.031-.05-.047-.12-.07-.162-.09-.073-.074-.185-.078-.288.004-.058-.035-.135.008-.174l-.097.047c.008.18-.024.323.117.5.054.123.081.296.007.389-.031-.023-.05.038-.062.003-.008-.123-.136-.119-.202-.207l-.008.007c-.035-.01-.046-.058-.097-.046l.008-.007c-.047 0-.055-.043-.093-.05-.012-.012.003-.024.008-.035l-.008-.008c-.016.004.015 0 .008-.012-.008-.007-.016-.019-.028-.015l.012-.011c-.023-.012-.012-.081-.07-.065a.14.14 0 0 0-.035.076c-.008.012-.02.024-.027.035.004.008.015.008.023.008q-.01.001-.016.008c0-.004.016.041-.007.053-.016.004-.023.027-.043.027l.008.008c-.051.046-.09.104-.175.13-.055.031-.09.058-.148.104-.047-.011-.039.035-.07.05l.008.008c-.05.008-.035.031-.062.07-.05-.14-.035-.197-.008-.312.027-.062.043-.12.093-.162l-.007-.004q.012.002.019-.008c-.015-.03.054-.11.062-.173.082-.15-.112-.292.12-.37zM14.117 21.47l.098.063-.02.031-.139-.09.178-.266.04.026zM14.305 21.634l-.041-.026.173-.269.04.026zM14.574 21.425l.04.024c.062.038.113.086.075.148a.07.07 0 0 1-.067.03c.035.03.043.078.023.11-.033.054-.103.041-.161.007l-.078-.047zm-.033.145.01.007c.04.023.075.036.1-.003.023-.038-.005-.064-.043-.087l-.012-.007zm-.075.122.032.019c.038.023.083.038.107-.001.024-.038-.018-.075-.055-.097l-.026-.016zM14.853 21.591l.181.1-.018.033-.139-.078-.044.078.135.075-.018.031-.135-.074-.06.104.14.078-.019.032-.18-.101zM15.195 22.135l-.052-.027-.04-.172-.017-.008-.062.12-.042-.022.146-.284.052.027c.03.015.063.032.084.059a.09.09 0 0 1 .01.09c-.02.041-.071.058-.124.038zm-.094-.237.014.008c.044.021.095.039.118-.007.023-.044-.024-.076-.067-.097l-.011-.006zM15.368 22.215l-.043-.02.12-.256-.083-.038.016-.034.21.098-.016.032-.083-.038zM15.628 21.983l.05.02.036.162.14-.09.051.02-.186.12-.053.128-.044-.017.053-.129zM16.145 22.432l-.066.064-.05-.015.276-.265.078.371-.05-.014-.018-.09zm.134-.133-.104.104.132.039zM16.549 22.285l.227.307.053-.23.047.011-.074.324-.228-.307-.052.231-.047-.01zM16.981 22.392l.08.01c.117.017.207.082.191.187-.015.108-.118.146-.24.129l-.077-.011zm.007.286.017.002c.097.014.186-.004.2-.096.013-.092-.067-.133-.164-.148l-.017-.002zM17.593 22.776l-.049-.002.017-.319.049.002zM17.722 22.449l.292.25-.002-.236h.048l.002.332-.292-.25.002.238h-.048zM18.171 22.456l.08-.004c.119-.006.22.041.225.147.005.11-.088.166-.21.172l-.079.004zm.063.28h.017c.098-.005.181-.04.177-.133s-.091-.118-.19-.114h-.017zM18.563 22.434l.207-.016.003.036-.16.013.008.089.155-.013.002.036-.154.013.01.12.159-.013.003.037-.207.017zM18.964 22.717l-.048.006-.042-.316.055-.008c.118-.015.159.014.166.071.01.068-.049.1-.122.11l-.027.004zm-.022-.168.015-.002c.049-.007.1-.02.094-.071s-.065-.048-.112-.042l-.013.002zM19.167 22.365l.203-.041.008.035-.156.032.017.087.152-.03.007.035-.151.03.024.12.156-.032.008.036-.204.04zM19.457 22.29l.353.151-.072-.224.046-.015.102.317-.354-.152.073.226-.046.015zM19.881 22.164l.074-.032c.108-.046.22-.038.262.06.044.1-.024.186-.136.234l-.072.03zm.157.24.016-.006c.09-.04.156-.1.119-.185-.037-.086-.127-.08-.217-.041l-.016.006zM20.238 22.006l.187-.09.016.032-.143.07.04.08.139-.069.016.033-.14.068.055.108.143-.07.016.032-.186.092zM20.51 21.855l.375.087-.112-.208.043-.022.157.293-.375-.087.112.21-.042.022zM21.197 21.575a.18.18 0 0 0-.105.02c-.076.042-.105.126-.07.187.033.062.12.083.195.042a.17.17 0 0 0 .075-.078l.023.041a.25.25 0 0 1-.079.068c-.097.052-.212.033-.256-.049-.046-.082-.001-.19.099-.245a.2.2 0 0 1 .096-.027zM21.262 21.47l.182-.1.018.032-.14.076.044.078.135-.074.018.032-.136.074.06.105.139-.076.018.032-.182.1-.156-.28" style="fill:#b12f39;stroke:none;stroke-width:.06;fill-opacity:1"/><path d="M17.68 13.356h.538s-.04-.23.051-.365l-.533-.013m-.011.02h.48s-.04-.232.051-.366l-.474-.013m-4.606 8.454c.194-.077.337-.038.518-.141.182-.102.104-.115.415.026.311.14 2.151 1.424 3.927 1.32 1.775-.102 3.486-1.141 3.719-1.295s.453-.205.83.18c-.804.564-2.437 1.873-4.601 1.834s-4.108-1.424-4.562-1.783l-.272-.103Zm-.23-.114a.45.45 0 0 1-.238-.235c.035-.015.101-.008.152-.008.113-.038.16-.161.163-.257a.49.49 0 0 0-.245-.285.54.54 0 0 0-.38.035c-.094.046-.102.13-.14.207a.62.62 0 0 0 .268.62m1.68.696c-.016.05-.009.077 0 .135.022.065.08.127.089.192.07.104.042.216.023.331-.07.1-.187.139-.245.239-.05-.123-.027-.285-.171-.354-.062-.008-.09-.077-.132-.12-.012.027-.059.027-.062.058-.129.073-.249.124-.366.235-.112.054-.268.077-.384.008l-.07-.077c.33-.062.135-.528.497-.535.027-.024.062-.058.07-.097.004-.069-.027-.119-.054-.173-.226-.046-.432-.13-.657-.165-.02-.008-.035.008-.035.02l.019.022-.008.004c.058.07.094.173.062.25-.027.058-.046.143-.124.154a.35.35 0 0 1-.33-.027.52.52 0 0 1-.167-.446.43.43 0 0 1 .225-.297m1.025.492.467.097m8.655-.515s.213.015.447-.1c.12-.07.26-.173.323-.3.042-.008.054-.054.062-.089-.05-.015-.105.02-.16-.015-.081.007-.143-.054-.183-.115-.061-.097 0-.225.054-.262.196-.103.326-.192.549-.039.09.12.175.258.14.412.004.142-.105.243-.19.331.03.027.077.034.12.05.175.065.365.193.37.393.05.11-.051.211-.106.303-.08.112-.244.135-.369.12a.3.3 0 0 1-.19-.154c-.039-.096.007-.192.054-.277-.14-.004-.264.07-.412.07-.093.01-.171.064-.272.064 0 0-.315.05-.51.089-.194.039-.233-.058-.233-.058m-.202.135c.063.092.035.234-.007.323-.144.2-.23.466-.09.689.12-.239.44-.261.568-.481l-.008-.004.027-.035.05.035a.66.66 0 0 1 .39.323c.023.031.015.085.05.097.043-.1.14-.18.124-.289.035-.07-.003-.146-.019-.2-.031-.05-.047-.12-.07-.162-.09-.073-.074-.185-.078-.288.004-.058-.035-.135.008-.173" style="fill:none;stroke:#000;stroke-width:.04392"/><path d="M13.523 21.676c.136.029.356.07.434.077m-.421-.006c.155.025.333.06.333.06m-.346-.006c.09.045.246.055.246.055m-.279.013c.072.022.146.05.182.044m-.237.02c.049.015.088.028.123.028m-.126.029.062.016m.512-.163.1.016m-.078.048.078.009m-.065.061.065.01m-.042.058.045.006m-.022.07.035.008m7.837-.37c.088 0 .2 0 .277-.01m-.264.094.235-.007m-.248.087.18-.01m-.197.063.168-.003m-.172.06.157-.002m-.184.08.082.005m.404-.42c.092-.004.245-.036.245-.036m-.228.12c.078-.002.216-.03.216-.03m-.182.108.192-.029m-.139.101c.076-.007.15-.026.15-.026m-.087.1c.034-.009.095-.02.095-.02m-.036.088.056-.02m-.005.082.039-.007m-5.526-7.196.13-.073m-.068.125.087-.058m-.035.119.064-.052m-.016.109.049-.041m.006.108.033-.035m.022.103.026-.026m.023.084.02-.03m.02-.549.154-.036m-.117.107.11-.038m-.085.113.086-.04m-.063.112.067-.037m-.042.12.05-.037m-.024.12.04-.03m-.017.101.035-.035m.225-.55.157.028m-.15.052.115.009m-.123.07.094-.002m-.102.076.077-.006m-.087.092.06-.013m-.07.1.049-.012m-.057.086.047-.018m.41-.337.137.078m-.16 0 .106.047m-.14.024.09.03m-.122.038.075.019m-.114.059.062.006m-.1.071.05.006m-.083.062.05-.001m.535-.165-.118-.105m.051.149-.078-.084m.02.139-.057-.075m.002.127-.042-.064m-.02.124-.027-.055m-.036.117-.02-.046m-.035.097-.014-.048" style="fill:none;stroke:#000;stroke-width:.04392;stroke-linecap:round"/><path d="M18.932 16.236c.1-.066.186-.124.257-.164.084-.133.135-.281.238-.461.121-.211-.13-.207-.257-.115-.112.08-.259.2-.42.37-.017.252-.107.563.182.37zm-.885.044c.165-.15.263-.25.34-.404s.38-.284.365-.03c-.015.256-.117.588.18.39.296-.197.47-.326.495-.1.024.226.005.216-.058.283-.063.068-.112.106-.112.106s.005-.144.005-.24-.02-.13-.19.029c-.17.158-.267.235-.373.216-.108-.02-.102-.01-.102-.01l-.078.092-.073-.044.082-.125s-.077-.062-.034-.269c.044-.207.112-.418-.024-.23s-.146.235-.423.336zm-1.348-.188c.058.026.235.132.306.205M16.774 16c.097.088.224.185.299.27m-.214-.354.238.29m-.136-.355c.044.098.146.284.192.34m-.095-.381a.9.9 0 0 0 .149.342m-.069-.347c.003.089.078.286.105.325m-.017-.173a2 2 0 0 0-.073-.229c.016-.003.035-.001.046.007l-.007.005c.007.014.019.015.03.022-.002.006-.011.007-.017.007l.01.001c.003.035.019.004.019.038l.023-.011c-.008 0-.02 0-.023-.008-.012-.023.054-.012.042-.034-.027 0-.054.003-.078-.009q.011-.007.028-.006l-.004-.005.004-.007c.015 0 .039-.009.05.007q-.003.005-.009.006c.022.003.048-.01.044-.013l-.054-.009q0-.003.006-.006-.013.005-.022-.008c.008 0 .008-.012.008-.02-.031-.011-.039.02-.062.008.015-.008-.012-.023.011-.023-.007 0-.015.004-.019-.004l.008-.007c-.016-.004-.039.003-.05-.008.01-.009.024-.007.037-.007a.02.02 0 0 1-.01-.008l.007-.005h-.027l.008.005c-.039.023-.02-.012-.043-.02-.03.004-.062-.003-.077-.026-.024.003-.055-.012-.07.01 0-.022-.043-.007-.051-.01q.001-.011.008-.016c-.035.02-.055-.034-.082-.008l-.008-.004c0 .004 0 .016-.007.02l-.016-.016c.004.012-.008.016-.012.023l-.015-.015-.008.008c-.011.011-.085.058-.097.054l.008.007a.5.5 0 0 0-.12.127l.007.004c-.039.004-.027.023-.043.035.008.023-.023.034 0 .065l-.027.012.016.015-.008.008c.008 0 .023-.008.027.004l-.012.015.004.008-.039.042h.02l-.02.019c.004 0 .016 0 .02.008.012-.004-.04.042.008.046 0 .046-.004.03.007.07h.012c.011.015.058.004.07.033.027-.003.046.047.07.008v-.022c.14.04.222.081.29.173.077.105.116.067.126.182.01.116.01.164.01.164s.087.028.223-.048a.55.55 0 0 0 .263-.25c-.195-.135-.321-.25-.36-.404zm-.124.435s.051.125.051.262m.01-.281s-.054-.094 0 0c.053.094.107.262.107.262m-.051-.303c.058.074.128.26.128.26m-.08-.292c.042.049.149.186.18.212m-.117-.252c.056.053.159.137.202.16m1.609 3.007c.011-.05.044-.1.04-.159.02-.077.055-.17.04-.23-.13-.166-.11-.366-.07-.547a.25.25 0 0 1 .042.13c.027.2.008.424.182.555.051-.012.098.019.148.027-.015-.142-.206-.158-.21-.316-.054-.223.008-.497-.155-.7-.1-.042-.252-.008-.361-.008-.23.008-.517.077-.75-.007-.129-.104-.355-.024-.506-.097-.148-.027-.024-.165-.132-.227-.07.02-.031.088-.082.123a.3.3 0 0 1-.311-.035l-.004-.007c-.038.023-.027.077-.03.103.015.07.15.058.057.14-.043.045-.112.086-.173.122-.031.037.001.052.005.075q.009.084.05.107c.102.017.25-.033.348.034.077.019.144.104.167.173.07.127.09.296.253.361 0 .127-.004.274-.133.331-.019.024-.026.053-.05.061l.206-.003c.074-.073.023-.18.09-.265.034.003.05.05.062.077.042.07-.047.12-.047.188l.16-.002c0-.05.05-.105.018-.171-.019-.077-.061-.166-.038-.242.12-.039.225-.02.35-.015l.027.034c.066-.058.143-.084.221-.112.031.05.004.12.024.174a.45.45 0 0 1-.19.273l-.021.062.206-.003-.003-.024c.062-.15.237-.17.245-.347.007-.038.054-.03.078-.023.035.034.097.02.112.07a.31.31 0 0 1-.077.31l-.019.01z" style="fill:none;stroke:#000;stroke-width:.04392"/><path d="M17.454 17.997a.1.1 0 0 1-.053.072m-.54.275s.01.023.044.023l.049-.019m.874.837-.102-.308m.827.044s.107-.063.155-.034c.049.03.054.02.092.082a.2.2 0 0 0 .117.077m-1.497-.89a.34.34 0 0 0 .151-.058m.384.92c.01-.073.01-.16.01-.16m1.195-.356-.039-.173m-5.958 2.795-.168-.102c-.013-.077-.09-.051.065-.116.155-.064.181-.076.285-.128s.194-.129.194-.129l-.065-.038s.026-.243-.077-.654c-.104-.41-.299-.937-.182-1.27.076-.217.146-.53.197-.795m.067-.396c.033-.243.021-.48.021-.567 0-.09.065-.205.065-.205s.272-.013.44-.077c.169-.064.246-.102.246-.102s.027.051.272.064c.247.013.48-.039.48-.039l.065.141s-.078.218.039.282a.7.7 0 0 1 .181.142s.09.102.052.513c-.039.41-.033.268-.065.487-.039.27-.013.27-.065.475-.051.205-.103.243-.025.628s.142.437.142.796.04.615-.013.73c-.052.117-.09.104-.09.104l.181.077m-.713.218s-.077-.026-.051-.128l.039-.154s-.117-.051-.104-.193c.013-.14.09-.244 0-.539s-.104-.372-.09-.603c.012-.23-.014-.269-.079-.474-.064-.206-.051-.526-.078-.629-.025-.102-.064-.167-.064-.167s-.026.219-.09.296c-.065.076-.04.115-.104.23-.065.116-.065.206-.052.244s0 .154 0 .154.078.115.104.36c.026.243.026.128.064.474s.156.744.09.744c-.064 0-.064.026-.064.026l.091.23m-.752-.385c.105.049.266.077.416.097m.146.019q.053.006.099.013m.467.09c.18.025.362.064.544-.013" style="fill:none;stroke:#000;stroke-width:.04392;stroke-linecap:round"/><path d="M14.252 14.569s.09.064.039.487c-.052.423-.026.565-.026.886 0 .32-.026.602-.026.602m.687-2.154c-.078.115-.169.384-.234.576-.064.193-.142.09-.207.026s-.156-.153-.181-.256c0 0-.04.09-.13.192s-.142.09-.272-.039c-.13-.128-.142-.205-.207-.294a.8.8 0 0 0-.181-.167m1.49 2.117c-.027-.052 0-.09.09-.103a.5.5 0 0 0 .143-.039c.168-.038.259.013.142-.166-.116-.18-.168-.205-.194-.308s-.026-.115-.026-.115-.117.128-.039.218c.078.089.078.14.09.218.014.077.014.14.014.14m-2.644-1.423s-.09.205-.039.282c.052.077.117.192.195.205.077.013.116-.003.181-.119m-.279-.397s.059-.25.117-.318c.058-.067.039-.057.097-.086.058-.03.078-.02.166.009.087.029.201-.017.152.156.005.039-.002.133-.033.157.007.062.002.1-.042.156-.007.065-.075.113-.075.113l-.012-.029m.159-.373-.11-.055s.025-.003.045 0c.019.004.032.004.061.029m-.026.17s-.032-.028-.074-.038a.3.3 0 0 1-.084-.035s.051-.04.051.012m.065.209-.139-.061m-.046-.437-.03-.15.421-.075-.06-.333a.266.266 0 0 0-.265-.238.27.27 0 0 0-.253.182l-.044.007a.267.267 0 0 0-.465.175q0 .043.013.082l.055.304.465-.081.037.193m1.38 6.411L13.02 15.09m-.122.093L14 20.905m-.41-4.207c-.156-.051-.22-.205-.246-.36 0 0 0 .031-.075.042m1.798.344c.065.051.091.09.156.18s.13.166.13.166.077-.05.246-.154c.168-.102.233-.207.324-.333.083-.116.075-.063.075-.063l-.223-.374v-.413s.018-.112-.008-.227c-.026-.116-.195-.372-.233-.513-.04-.142-.052-.13-.104-.18-.052-.052-.052-.065-.13-.218-.077-.154-.155-.167-.233-.141-.078.025-.09-.026-.142-.077s-.078-.038-.208-.064a.8.8 0 0 1-.259-.116s-.013.038-.026.116c-.012.077-.065.14-.09.205-.026.064-.104.064-.156.025a1 1 0 0 1-.181-.192c-.104-.129-.104-.18-.104-.18l-.207.142c-.078.05-.143.025-.169.09-.026.064-.051.038-.155.064-.104.025-.13.076-.117.153s-.025.308-.065.488c-.038.179-.116.333-.116.333l-.065-.346s-.103.077-.155.141a1 1 0 0 0-.091.141s-.039-.051-.104-.128c-.064-.077-.077-.09-.038-.167.038-.077.025-.141.025-.141s-.039.026-.116.039-.04.064-.078.14c-.039.078-.013.116 0 .18s.194.603.285.847c.091.243.143.205.376.23m1.018-2.34s-.014-.02-.048-.162c-.038-.157.092 0 .092 0l.1-.126s-.025-.016-.056-.086c-.05-.11.126-.298.248-.313 0 0-.433.087-.59.166-.159.08-.268.219-.205.308s.165.219.228.346c0 0 .051.12.066.135l.037.033s-.02-.103-.032-.146-.015-.075.029-.094zm.33.126s.045.02.103.029.15.01.14-.067-.01-.14-.058-.15c.04-.018.068-.047.073-.095.005-.049-.01-.058.02-.068.028-.01.058-.005.01-.077a.5.5 0 0 1-.083-.192c-.01-.058-.078-.207-.2-.193m-.33.678c.015.029.039.049.058.01.02-.038.04-.062.04-.062M21.666 19.654c-.082.246.07.5-.023.75a1.7 1.7 0 0 0-.047.532.6.6 0 0 1-.14.215.8.8 0 0 1-.33-.046c.054-.2.05-.415.05-.612-.015-.135-.094-.266-.113-.408-.004-.165.047-.338-.078-.47v-.195c.18.103.44.11.615-.008.05-.016.05-.054.1-.07.06.108-.022.22-.034.312zm.698.39c.046.022.12.105.12.105s.049.061-.022.055-.043-.083-.117.064-.227.603-.227.603m.282-1.347s-.1-.004-.204-.017c-.104-.012-.195-.111-.195-.111s-.02.035-.051.105c-.033.071 0 .225.016.35s-.016.221-.007.404m.68-3.076c.107.327.38.847.283.905-.098.057-.253.077-.253.077s.035.07.087.493c.004.033 0 .132 0 .132m-1.759.626.026-.09s-.032-.167-.045-.289.02-.167-.007-.282c-.026-.116-.084-.314-.104-.423-.02-.11-.02-.199-.02-.199s-.141-.019-.168-.103c-.025-.083-.012-.09.059-.307.071-.218.175-.45.149-.687 0 0 .058-.044.104-.211 0 0 .265.109.388-.032s.195-.212.24-.488.013-.166-.084-.057c-.097.108-.344.185-.46.077 0 0-.026-.283-.104-.45-.078-.166-.09-.23-.09-.23s-.04.064-.124.134-.136.084-.025.206c.11.121.233.314.233.314s-.09.013-.136.186c-.045.173.02.404.02.404s-.428-.122-.623-.494c0 0 .077-.14.078-.481.001-.345-.104-.442-.104-.442s.146-.174.32-.386c.176-.211.117-.308.176-.356s.068-.067.068-.067-.185-.135.02-.163c.203-.029.35 0 .466-.01s.194-.087.282-.096.116-.048.116-.048.087.221.214.327c0 0 .233-.202.389-.298 0 0 .145.144.456.26.311.115.38.153.34.23-.038.077-.01.03-.01.03s.137.297.069.692-.088.587-.088.587.107.067.136.279.405.782.405.782-.22-.137-.376-.022c-.155.115-.097.308-.097.308s-.087-.144-.194-.365c-.107-.222-.204-.356-.204-.356m-.68 2.577s.048-.067.01-.289c-.04-.22-.185-.586-.185-.586s-.01.163-.088.375c-.077.211-.087.298-.058.452m.677.718s-.07-.086-.155.016c-.084.103-.117.115-.182.168-.065.05-.065.031-.065.031l-.369.674m1.711-3.144-.914 1.72s-.045.109-.09.186c-.046.076-.05.035-.091.115-.04.077.013.116-.084.129-.098.013-.098.108-.052.134.045.026.052.058.052.058s.064-.032.13-.115c.064-.084.096.006.096.006l.298-.635.733-1.488m.21-.449.272-.549-.058-.057-.282.48s.052.023.068.126zm-1.195 2.491c-.072-.035.136-.018.136-.018s.019.095-.136.018zm.058.155c.078-.058.155-.125.136-.24a.6.6 0 0 1 .049-.29c.019-.048.003-.153.003-.153s.068.09.029.237-.03.093-.042.24c-.013.148-.033.52-.059.632-.025.113-.012.311.117.395.13.084.289.166.289.166m.677-3.733s.087.106.055.21c-.033.101-.046.15-.1.207 0 0 .01.07-.043.087-.051.016-.158.06-.207.016-.049-.045-.071-.07-.045-.103s.032-.055.032-.055h-.058l-.013-.077h-.026s-.055-.102-.08-.153c-.027-.052-.082-.129-.082-.129m.395-.067.039.032m.075.145s-.014.076-.014.137-.029.045-.064.035-.01-.035-.036-.096c-.025-.06-.087-.115-.087-.115s-.016.054-.049.09c-.032.035-.08.11-.08.11" style="fill:none;stroke:#000;stroke-width:.04392"/><path d="M23.372 17.708c.042.033.08.055.133.049a1 1 0 0 1 .12 0m-.114-.119s-.039.003-.087.003l-.068-.122m.019.173-.065-.108m-.636.572s-.37.077-.467.091-.2.067-.223-.163l-.112-1.092a1 1 0 0 0-.044-.212s-.102.289-.165.712-.116.678-.116.678-.04.053-.175.024c-.137-.029-.37-.014-.52-.072m-.185-.158s.223.105.388.124c.166.02.375.044.399.039l.029-.005s.024-.149.044-.303.078-.481.116-.64c.039-.158.131-.461.131-.461l.112.014s.044.13.083.476c.039.347.063.654.082.79.02.133.005.201.078.187s.364-.058.506-.092c.14-.033.306-.081.306-.081m-1.458-1.362s.389.087.505.087l-.038-.154-.078-.057-.007-.111m-.047-.058-.004.158s-.02.058-.059.03c-.039-.03-.09-.068-.06-.097.028-.029.138-.115.138-.115l-.049-.039-.175.106m-.403-1.915s.044.458.107.703.325.866.408.977.166.26.19.326c.024.067.068.202.087.274.02.072.112.352.146.453s.301-.005.461-.034.088-.039.093-.135c.004-.096-.025-.178-.025-.178.03-.033.025-.067-.01-.182-.033-.116-.009-.092-.092-.284l-.539.101s-.325-.486-.408-.664-.272-.712-.311-1.015-.039-.346-.039-.346m.588 1.76c.326-.375.569-.721.646-1.707m-.627 1.765c.336-.341.637-.861.69-1.722m-.753 1.602s.059-.664.044-.92c-.015-.254-.02-.456-.02-.518v-.077m.054 1.539c.005-.02.048-.486.044-.717s-.034-.851-.034-.851m-1.142.019s.063.019.165.211c.102.193.233.434.233.434l.16-.044m-.573-.75s-.005.058.058.106c.064.048.108.115.2.274l.184.317.102-.029m.098-.033c.087-.043.126-.053.214-.16.087-.105.15-.167.233-.182m-.438.414c.107-.053.21-.101.297-.212s.102-.125.146-.13m.077-.105.452.562m-.452-.457.433.53m.092-.068s.025.067.2-.13c.174-.197.218-.264.272-.322.053-.057.097-.115.097-.115m-.598.649s.15.019.253-.111c.102-.13.214-.288.267-.332.053-.043.083-.081.083-.081m-.35 1.975s-.272.032-.344.045c-.07.013-.13.083-.168-.025-.039-.11-.078-.276-.13-.386m.493-.09c.045-.07.142-.243.149-.377.006-.135 0-.398.032-.501s.052-.256.052-.256m-1.873.365s-.063-.155-.064-.41m1.017 3.296s.032-.32.039-.532m-.885-1.18-.107-.026s.02-.067.01-.202a.5.5 0 0 1 .065-.288c.035-.074.123.019.123.019m-.236.568.045.16m.778-2.707.006-.07s-.09.012-.136-.02c-.045-.032-.02-.039-.007-.083l.007-.09.049-.009s-.05-.003-.062-.03c-.013-.025-.02-.115-.02-.115s-.084-.006-.07-.051c.012-.045.038-.07.07-.103.033-.031.046-.025.033-.07s-.007-.07 0-.096a1 1 0 0 1 .032-.084l.337-.013s-.039.071.007.084c.045.013.13.031.09.128-.039.096-.07.18-.045.212l.039.051s.026-.084.058-.135c.032-.05.02-.025.065-.032s.078-.019.045.071c-.032.09-.038.187-.077.175s-.07-.013-.07-.013-.028.037.05.043.227.11.227.11l-.04.166" style="fill:none;stroke:#000;stroke-width:.04392"/><path d="M21.502 13.923h.069m.097.348.134-.014m.491-.06s.156-.057.175-.134c.02-.078.084-.238.039-.34-.045-.104-.097-.135-.253-.193-.155-.058-.35-.026-.35-.026m.483-.25c.136-.039.233-.145.418-.097.184.049.408.318.175.318-.234 0-.486-.01-.486-.01m-5.676.563s-.02-.053.058-.057.35-.005.398-.005c.05 0 .064.01.107.072.044.063.2.265.2.265s.019.053-.117.053h-.34c-.073 0-.078-.01-.107-.043-.03-.034-.2-.285-.2-.285zm1.137 0s-.02-.053.058-.057.306-.005.355-.005.063.01.107.072c.044.063.199.265.199.265s.02.053-.117.053h-.296c-.073 0-.078-.01-.107-.043a10 10 0 0 1-.2-.285zm1.04 0s-.02-.053.058-.057.277-.005.326-.005.14.005.184.068c.044.062.131.226.131.226s.04.096-.096.096H19.3c-.073 0-.078-.01-.107-.043-.03-.034-.2-.285-.2-.285zm-1.609 0s-.02-.053.059-.057c.077-.005.35-.005.398-.005s.063.01.107.072c.044.063.2.265.2.265s.018.053-.117.053h-.34c-.074 0-.078-.01-.107-.043-.03-.034-.2-.285-.2-.285zm1.084 0s-.02-.053.058-.057.321-.005.37-.005.063.01.107.072c.043.063.199.265.199.265s.019.053-.117.053h-.31c-.074 0-.079-.01-.108-.043a10 10 0 0 1-.199-.285zm-2.177.039s-.015-.092.063-.096.311-.005.36-.005.063.01.107.072c.043.063.199.265.199.265s.02.053-.117.053h-.301a.34.34 0 0 1-.204-.077 2 2 0 0 1-.107-.212zm.131-.096c.088.077.112.154.146.211.034.058.063.154.111.169m-.354-.38c.087.077.112.154.146.211.034.058.063.154.111.169m-.048-.38c.087.077.112.154.146.211.034.058.063.154.111.169m-.136-.38c.088.077.112.154.146.211.034.058.063.154.112.169m.053-.38c.088.077.112.154.146.211.034.058.063.154.112.169m-.355-.38c.088.077.112.154.146.211.034.058.063.154.112.169m-.049-.38c.088.077.112.154.146.211.034.058.063.154.111.169m-.136-.38c.088.077.112.154.146.211.034.058.063.154.112.169m.083-.38c.087.077.112.154.146.211.034.058.063.154.111.169m-.354-.38c.087.077.111.154.145.211.035.058.064.154.112.169m-.048-.38c.087.077.111.154.145.211.035.058.064.154.112.169m-.136-.38c.088.077.112.154.146.211.034.058.063.154.112.169m.053-.38c.087.077.112.154.146.211.034.058.063.154.111.169m-.354-.38c.087.077.112.154.146.211.034.058.063.154.111.169m-.048-.38c.087.077.112.154.146.211.034.058.063.154.111.169m-.136-.38c.088.077.112.154.146.211.034.058.063.154.111.169m.05-.38c.087.077.111.154.145.211.034.058.064.154.112.169m-.355-.38c.088.077.112.154.146.211.034.058.063.154.111.169m-.048-.38c.088.077.112.154.146.211.034.058.063.154.111.169" style="fill:none;stroke:#000;stroke-width:.04392"/><path d="M18.859 13.97c.087.078.112.155.146.212.034.058.063.154.111.169m.04-.38c.087.077.11.154.145.211.034.058.063.154.111.169m-.354-.38c.087.077.112.154.146.211.034.058.063.154.111.169m-.048-.38c.087.077.112.154.146.211.034.058.063.154.112.169m-.136-.38c.087.077.111.154.145.211.034.058.064.154.112.169m-2.491-.84-.603-.276m.596.115h.564s-.045-.23.058-.365l-.557-.013s-.058.077-.065.378zm1.07-.25h.485s-.045-.23.059-.365l-.558-.013m-.972.263h.494s-.04-.232.05-.366l-.487-.013s-.05.077-.057.379zm.052-.398h.435s-.04-.231.051-.366l-.429-.013s-.051.077-.057.38zm.506.025h.435s-.06-.198.031-.334l-.43-.012s-.076.129-.036.346zm.479.097h.435s-.059-.199.032-.334l-.43-.013s-.076.129-.037.347zm-.933-.5h.37s-.04-.232.051-.366l-.364-.013s-.051.077-.057.378zm.492.05h.37s-.058-.192.032-.326l-.364-.013s-.032.038-.038.34zm.48.097h.37s-.059-.193.032-.328l-.365-.013s-.031.04-.037.34zm.389.596.278-.135c-.136.405.124.585.124.585l-.68-.02m0 .09.044-.372m-.401.398-.013.032v-.174m-.506.122v-.115m.519-1.514-.013.064v-.353m-.506.27v-.27m.972.455v-.28m-.012.076s-.013.006-.091-.02c-.078-.025-.143 0-.143 0s.013.013.09.045c.079.032.098.045.156.058m-.48-.289s-.012.006-.09-.019-.142 0-.142 0 .013.013.09.045c.078.032.098.044.156.057m-.525-.083s-.013.006-.09-.019c-.078-.026-.143 0-.143 0s.013.013.09.045c.078.032.098.044.156.057m.687 1.655.123.16m-1.743-.262.687-.82m-.473.922.44-.628m1.264.385.168.417m-.116-.417.168.417m-.116-.417.168.417m-3.978-.295q-.054.002-.16.016a.4.4 0 0 1-.132-.202c-.02-.077-.026-.102-.195-.084-.167.02-.692.18-.777.232-.084.05-.052.07-.045.121.005.044.039.097.044.171a1 1 0 0 0-.09.035c-.259.115-.336.172-.252.269.084.096.155.07.246.064a1.3 1.3 0 0 0 .194-.032s-.012-.135.072-.193.175-.147.317-.173.343-.09.389-.096.13-.025.175.064c.045.09.064.167.064.167.247-.09.098.007.26-.083s.09-.283-.11-.276z" style="fill:none;stroke:#000;stroke-width:.04392"/><path d="M21.561 13.53c-.234-.026-.292-.032-.383-.116-.09-.083-.039-.23.104-.243l.337-.033s0-.057.11-.045.35.039.493.084c.142.045.265.058.265.058l-.505.185s.078.013.298.02c.22.006.252-.038.42.058.17.096.435.359.202.448-.234.09-.311.097-.363.097s-.032-.11-.026-.205a.3.3 0 0 0-.291-.321c-.253-.026-.344-.051-.44-.026-.098.026-.221.039-.221.039zm-4.523-.064s.143.096.24.153c.097.058.136.07.136.07s0-.006.071-.044.084-.038.162 0 .078.064.155.026c.078-.039.052-.09.13-.039s.097.09.175.039c.078-.052.078-.071.149-.032s.026.096.15.038c.122-.058.116-.09.193-.032.078.058.084.058.162.02.078-.04.09-.065.136-.013.046.05.046.038.046.038s.103-.025.077-.205z" style="fill:none;stroke:#000;stroke-width:.04392"/><path d="M0 26.172" style="fill:#000;stroke:none;stroke-width:.0110917"/></svg>