<?xml version="1.0" encoding="UTF-8"?>
<svg version="1.1" viewBox="0 0 36 36" xml:space="preserve" xmlns="http://www.w3.org/2000/svg" xmlns:xlink="http://www.w3.org/1999/xlink"><defs><g fill="#ffb612"/><style>.a{fill:#fff;}.b{fill:#b71234;}.c{fill:#584528;}.d{fill:#008542;}.e{fill:#bd8a5e;}</style><style type="text/css"/><g transform="translate(3.9443) scale(.625)" fill="#fff"/><style>.a{fill:#fff;}.b{fill:#b71234;}.c{fill:#584528;}.d{fill:#008542;}.e{fill:#bd8a5e;}</style><g id="b" transform="matrix(.625 0 0 .625 3.9443 0)" fill="#fff"><g id="j"><g id="d"><path id="h" transform="rotate(18,1,0)" d="m1 0h-1v0.5z"/><use transform="scale(1,-1)" xlink:href="#h"/></g><use transform="rotate(72)" xlink:href="#d"/></g><use transform="rotate(-72)" xlink:href="#d"/><use transform="rotate(144)" xlink:href="#j"/></g><clipPath id="p"><path d="m0 400v-400l553.85 75-127.81 125 127.81 125z" stroke-width="23.077"/></clipPath><clipPath id="o"><path d="m0 400v-400l553.85 75-127.81 125 127.81 125z" stroke-width="23.077"/></clipPath><clipPath id="m"><path d="m0 400v-400l553.85 75-127.81 125 127.81 125z" stroke-width="23.077"/></clipPath><style>.a{fill:#fff;}.b{fill:#b71234;}.c{fill:#584528;}.d{fill:#008542;}.e{fill:#bd8a5e;}</style><g id="a" transform="matrix(.625 0 0 .625 3.9443 0)" fill="#fff"><g id="i"><g id="c"><path id="g" transform="rotate(18,1,0)" d="m1 0h-1v0.5z"/><use transform="scale(1,-1)" xlink:href="#g"/></g><use transform="rotate(72)" xlink:href="#c"/></g><use transform="rotate(-72)" xlink:href="#c"/><use transform="rotate(144)" xlink:href="#i"/></g><clipPath id="n"><path d="m0 400v-400l553.85 75-127.81 125 127.81 125z" stroke-width="23.077"/></clipPath><clipPath id="l"><path d="m0 400v-400l553.85 75-127.81 125 127.81 125z" stroke-width="23.077"/></clipPath><clipPath id="k"><g transform="matrix(.065 0 0 .065 5.4055e-7 5)"><path d="m0 400v-400l553.85 75-127.81 125 127.81 125z" stroke-width="23.077"/></g></clipPath></defs><style><![CDATA[.Ac{fill:#645faa}.Ad{stroke:#443d64}.Ae{fill:#b0acd5}.Af{stroke:#9b95c9}.Ag{stroke:#000}.Ah{stroke-miterlimit:10}.Ai{stroke-linejoin:round}.Aj{fill:#9ba7b9}.Ak{stroke-linecap:round}.Al{fill:#5b95cf}.Am{stroke-width:.5}.An{fill:#81512b}.Ao{fill:#f4d19f}.Ap{stroke-width:.25}.Aq{stroke-width:.3}.Ar{stroke-width:.15}.As{fill:none}.At{stroke-width:.35}.Au{fill:#5c9243}.Av{fill:#5f2a2b}.Aw{fill:#c1ae31}.Ax{stroke-width:.4}.Ay{fill:#d0202e}.Az{stroke:#fff}.BA{stroke-width:.75}.BB{fill:#8d2353}.BC{fill:#2484c6}.BD{stroke-width:.2}.BE{stroke-width:.16}.BF{stroke-width:.6}.BG{stroke-width:.118}.BH{fill:#dc6026}.BI{stroke-width:.125}.BJ{stroke-width:.102}.BK{stroke:#5f2a2b}.BL{stroke-width:.375}.BM{fill:#b58c58}.BN{stroke-width:.395}.BO{fill-rule:evenodd}]]></style><style><![CDATA[.B{fill:#e6a300}.C{fill:none}.D{stroke:#000}.E{stroke-miterlimit:10}.F{stroke-width:.588}.G{fill:#1f2c5c}]]></style><polygon class="c" transform="matrix(.014422 0 0 .014422 6.4901 5.5853)" points=""/><polygon class="c" transform="matrix(.014422 0 0 .014422 6.4901 5.5853)" points=""/><polygon class="c" transform="matrix(.014422 0 0 .014422 6.4901 5.5853)" points=""/><polygon class="a" transform="matrix(.014422 0 0 .014422 6.4901 5.5853)" points=""/><polygon class="a" transform="matrix(.014422 0 0 .014422 6.4901 5.5853)" points=""/><polygon class="a" transform="matrix(.014422 0 0 .014422 6.4901 5.5853)" points=""/><polygon class="e" transform="matrix(.014422 0 0 .014422 6.4901 5.5853)" points=""/><polygon class="e" transform="matrix(.014422 0 0 .014422 6.4901 5.5853)" points=""/><style type="text/css">
	.st0{fill:#FFCA66;}
	.st1{fill:#8D2353;}
	.st2{fill:#DC6026;}
	.st3{fill:#2484C6;}
	.st4{fill:none;}
	.st5{fill:#9BA7B9;stroke:#9BA7B9;stroke-width:0.5;stroke-miterlimit:10;}
	.st6{fill:#9BA7B9;stroke:#9BA7B9;stroke-width:0.5;stroke-linejoin:round;stroke-miterlimit:10;}
	.st7{fill:#9BA7B9;stroke:#9BA7B9;stroke-width:0.4;stroke-miterlimit:10;}
	.st8{fill:none;stroke:#000000;stroke-width:0.4;stroke-miterlimit:10;}
	.st9{fill:#81512B;stroke:#000000;stroke-width:0.35;stroke-linecap:round;stroke-linejoin:round;stroke-miterlimit:10;}
	.st10{fill:#F4D19F;}
	.st11{fill:none;stroke:#000000;stroke-width:0.25;stroke-linecap:round;stroke-miterlimit:10;}
	.st12{fill:none;stroke:#000000;stroke-width:0.3;stroke-linecap:round;stroke-miterlimit:10;}
	.st13{fill:none;stroke:#000000;stroke-width:0.25;stroke-miterlimit:10;}
	.st14{fill:none;stroke:#000000;stroke-width:0.25;stroke-linecap:round;stroke-linejoin:round;stroke-miterlimit:10;}
	.st15{fill:none;stroke:#000000;stroke-width:0.2;stroke-linecap:round;stroke-linejoin:round;stroke-miterlimit:10;}
	.st16{fill:none;stroke:#000000;stroke-width:0.16;stroke-linecap:round;stroke-linejoin:round;stroke-miterlimit:10;}
	.st17{fill:none;stroke:#000000;stroke-width:0.15;stroke-linecap:round;stroke-linejoin:round;stroke-miterlimit:10;}
	.st18{stroke:#000000;stroke-width:0.15;stroke-linecap:round;stroke-linejoin:round;stroke-miterlimit:10;}
	.st19{fill:#9BA7B9;stroke:#000000;stroke-width:0.6;stroke-linecap:round;stroke-linejoin:round;stroke-miterlimit:10;}
	.st20{fill:#D0202E;stroke:#000000;stroke-width:0.6;stroke-linecap:round;stroke-linejoin:round;stroke-miterlimit:10;}
	.st21{fill:none;stroke:#000000;stroke-width:0.5;stroke-miterlimit:10;}
	.st22{fill:#5C9243;stroke:#FFFFFF;stroke-width:0.125;stroke-miterlimit:10;}
	.st23{fill:#D0202E;}
	.st24{fill:#5F2A2B;}
	.st25{fill:#E88290;}
	.st26{fill:#645FAA;stroke:#443D64;stroke-width:0.1181;stroke-miterlimit:10;}
	.st27{fill:#B0ACD5;stroke:#9B95C9;stroke-width:0.1181;stroke-miterlimit:10;}
	.st28{fill:#5C9243;}
	.st29{fill:#5C9243;stroke:#FFFFFF;stroke-width:0.102;stroke-miterlimit:10;}
	.st30{fill:#645FAA;stroke:#443D64;stroke-width:0.1159;stroke-miterlimit:10;}
	.st31{fill:#B0ACD5;stroke:#9B95C9;stroke-width:0.1159;stroke-miterlimit:10;}
	.st32{fill:#C1AE31;stroke:#5F2A2B;stroke-width:0.62;stroke-linecap:round;stroke-linejoin:round;}
	.st33{fill:#C1AE31;stroke:#5F2A2B;stroke-width:0.64;stroke-linecap:round;stroke-linejoin:round;}
	.st34{fill:#C1AE31;stroke:#5F2A2B;stroke-width:0.65;stroke-linecap:round;stroke-linejoin:round;}
	.st35{fill:#C1AE31;stroke:#5F2A2B;stroke-width:0.63;stroke-linecap:round;stroke-linejoin:round;}
	.st36{fill:#C1AE31;stroke:#5F2A2B;stroke-width:0.66;stroke-linecap:round;stroke-linejoin:round;}
	.st37{fill:#C1AE31;stroke:#5F2A2B;stroke-width:0.69;stroke-linecap:round;stroke-linejoin:round;}
	.st38{fill:#C1AE31;stroke:#5F2A2B;stroke-width:0.68;stroke-linecap:round;stroke-linejoin:round;}
	.st39{fill:#C1AE31;stroke:#5F2A2B;stroke-width:0.67;stroke-linecap:round;stroke-linejoin:round;}
	.st40{fill:#C1AE31;stroke:#5F2A2B;stroke-width:0.74;stroke-linecap:round;stroke-linejoin:round;}
	.st41{fill:#C1AE31;stroke:#5F2A2B;stroke-width:0.75;stroke-linecap:round;stroke-linejoin:round;}
	.st42{fill:#C1AE31;stroke:#5F2A2B;stroke-width:0.76;stroke-linecap:round;stroke-linejoin:round;}
	.st43{fill:#C1AE31;stroke:#5F2A2B;stroke-width:0.77;stroke-linecap:round;stroke-linejoin:round;}
	.st44{fill:#C1AE31;stroke:#5F2A2B;stroke-width:0.78;stroke-linecap:round;stroke-linejoin:round;}
	.st45{fill:#C1AE31;stroke:#5F2A2B;stroke-width:0.79;stroke-linecap:round;stroke-linejoin:round;}
	.st46{fill:#C1AE31;stroke:#5F2A2B;stroke-width:0.8;stroke-linecap:round;stroke-linejoin:round;}
	.st47{fill:#C1AE31;stroke:#5F2A2B;stroke-width:0.61;stroke-linecap:round;stroke-linejoin:round;stroke-miterlimit:10;}
	.st48{fill:#F4D19F;stroke:#000000;stroke-width:0.5;stroke-miterlimit:10;}
	.st49{fill:#C1AE31;}
	.st50{fill:#C1AE31;stroke:#5F2A2B;stroke-width:0.7;stroke-linecap:round;stroke-linejoin:round;}
	.st51{fill:#C1AE31;stroke:#5F2A2B;stroke-width:0.71;stroke-linecap:round;stroke-linejoin:round;}
	.st52{fill:#C1AE31;stroke:#5F2A2B;stroke-width:0.72;stroke-linecap:round;stroke-linejoin:round;}
	.st53{fill:#C1AE31;stroke:#5F2A2B;stroke-width:0.73;stroke-linecap:round;stroke-linejoin:round;}
	.st54{fill:#F4D19F;stroke:#000000;stroke-width:0.3;stroke-miterlimit:10;}
	.st55{fill:#81512B;stroke:#000000;stroke-width:0.35;stroke-miterlimit:10;}
	.st56{fill:#5C9243;stroke:#000000;stroke-width:0.375;stroke-linecap:square;stroke-linejoin:round;stroke-miterlimit:10;}
	.st57{fill:#5C9243;stroke:#000000;stroke-width:0.395;stroke-linecap:square;stroke-linejoin:round;stroke-miterlimit:10;}
	.st58{fill:#9BA7B9;stroke:#000000;stroke-width:0.75;stroke-linecap:round;stroke-linejoin:round;stroke-miterlimit:10;}
	.st59{fill:#5C9243;stroke:#000000;stroke-width:0.5;stroke-miterlimit:10;}
	.st60{fill:#DC6026;stroke:#000000;stroke-width:0.75;stroke-linecap:round;stroke-linejoin:round;stroke-miterlimit:10;}
	.st61{fill:#DC6026;stroke:#000000;stroke-width:0.5;stroke-linecap:round;stroke-linejoin:round;stroke-miterlimit:10;}
	.st62{fill:#81512B;stroke:#000000;stroke-width:0.5;stroke-miterlimit:10;}
	.st63{fill:#2484C6;stroke:#000000;stroke-width:0.75;stroke-miterlimit:10;}
	.st64{fill:#9BA7B9;}
	.st65{fill:#F4D19F;stroke:#000000;stroke-width:0.5;stroke-linecap:round;stroke-linejoin:round;stroke-miterlimit:10;}
	.st66{fill:#2178B5;stroke:#2178B5;stroke-miterlimit:10;}
	.st67{fill:#2484C6;stroke:#9BA7B9;stroke-miterlimit:10;}
	.st68{fill:#9BA7B9;stroke:#000000;stroke-width:0.3;stroke-miterlimit:10;}
	.st69{fill:#B58C58;stroke:#000000;stroke-width:0.3;stroke-miterlimit:10;}
	.st70{fill:#9BA7B9;stroke:#000000;stroke-width:0.4;stroke-miterlimit:10;}
	.st71{fill:#F4D19F;stroke:#000000;stroke-width:0.5;stroke-linecap:round;stroke-miterlimit:10;}
	.st72{fill:#C1AE31;stroke:#000000;stroke-width:0.5;}
	.st73{fill:#C1AE31;stroke:#000000;stroke-width:0.5;stroke-linecap:round;stroke-linejoin:round;}
	.st74{fill:#8D2353;stroke:#000000;stroke-width:0.5;stroke-linecap:round;stroke-linejoin:round;}
	.st75{fill:#81512B;}
	.st76{fill:#020405;}
	.st77{fill:#5B95CF;}
	.st78{fill:#5B95CF;stroke:#000000;stroke-width:0.75;stroke-miterlimit:10;}
	.st79{fill:#9BA7B9;stroke:#000000;stroke-width:0.75;stroke-miterlimit:10;}
</style><g transform="matrix(.24567 0 0 .24567 -345.78 -215.05)"><path transform="matrix(.26458 0 0 .26458 126.63 126.39)" d="m37.425 5.0684c-21.999 9.6547-37.426 32.014-37.426 57.439v276.92c0 25.224 15.195 46.342 36.916 55.568l516.93-70v-250z" clip-path="url(#m)" color="#000000" fill="#eee" stroke-width="92.308" style="-inkscape-stroke:none"/><path transform="matrix(.26458 0 0 .26458 126.63 126.4)" d="m61.539 0a61.538 61.538 0 0 0-61.539 61.539v276.92a61.538 61.538 0 0 0 61.539 61.539h282.4l199.27-26.984a61.538 61.538 0 0 0 10.643-34.555v-13.461l-6.1934-45.736-501.5 67.912v-294.35l501.5 67.912 6.1934-45.736v-13.461a61.538 61.538 0 0 0-10.643-34.555l-199.27-26.984z" clip-path="url(#o)" color="#000000" fill="#c1133d" style="-inkscape-stroke:none"/><path transform="matrix(.26458 0 0 .26458 126.63 126.4)" d="m0 200h553.85" clip-path="url(#p)" fill="#fff" stroke="#c1133d" stroke-width="46.154"/><path d="m133.05 129.91a16.282 16.282 0 0 0-6.4172 12.779v73.269a16.282 16.282 0 0 0 6.4172 12.779l90.503-49.413z" fill="#00165a" stroke-width="6.3299"/><g transform="matrix(6.6146 0 0 6.6146 159.33 179.32)"><circle r="3" fill="#fff"/><circle r="2" fill="#c1133d"/><use x="4" xlink:href="#b"/><g id="f"><use xlink:href="#b"/><use transform="rotate(-9.6502)" x="2" xlink:href="#b"/><use transform="rotate(9.6502)" x="2" xlink:href="#b"/></g><g id="e"><use transform="rotate(63.435)" xlink:href="#b"/><use transform="rotate(92.576)" xlink:href="#b"/><use transform="rotate(121.72)" xlink:href="#f"/><use transform="rotate(150.86)" xlink:href="#b"/></g><use transform="scale(-1)" xlink:href="#b"/><use transform="scale(1,-1)" xlink:href="#e"/></g><polygon class="c" transform="matrix(.17639 0 0 .17639 -87.746 133.43)" points=""/><polygon class="c" transform="matrix(.17639 0 0 .17639 -87.746 133.43)" points=""/><polygon class="c" transform="matrix(.17639 0 0 .17639 -87.746 133.43)" points=""/><polygon class="a" transform="matrix(.17639 0 0 .17639 -87.746 133.43)" points=""/><polygon class="a" transform="matrix(.17639 0 0 .17639 -87.746 133.43)" points=""/><polygon class="a" transform="matrix(.17639 0 0 .17639 -87.746 133.43)" points=""/><polygon class="e" transform="matrix(.17639 0 0 .17639 -87.746 133.43)" points=""/><polygon class="e" transform="matrix(.17639 0 0 .17639 -87.746 133.43)" points=""/></g><style><![CDATA[.Ac{fill:#645faa}.Ad{stroke:#443d64}.Ae{fill:#b0acd5}.Af{stroke:#9b95c9}.Ag{stroke:#000}.Ah{stroke-miterlimit:10}.Ai{stroke-linejoin:round}.Aj{fill:#9ba7b9}.Ak{stroke-linecap:round}.Al{fill:#5b95cf}.Am{stroke-width:.5}.An{fill:#81512b}.Ao{fill:#f4d19f}.Ap{stroke-width:.25}.Aq{stroke-width:.3}.Ar{stroke-width:.15}.As{fill:none}.At{stroke-width:.35}.Au{fill:#5c9243}.Av{fill:#5f2a2b}.Aw{fill:#c1ae31}.Ax{stroke-width:.4}.Ay{fill:#d0202e}.Az{stroke:#fff}.BA{stroke-width:.75}.BB{fill:#8d2353}.BC{fill:#2484c6}.BD{stroke-width:.2}.BE{stroke-width:.16}.BF{stroke-width:.6}.BG{stroke-width:.118}.BH{fill:#dc6026}.BI{stroke-width:.125}.BJ{stroke-width:.102}.BK{stroke:#5f2a2b}.BL{stroke-width:.375}.BM{fill:#b58c58}.BN{stroke-width:.395}.BO{fill-rule:evenodd}]]></style><style><![CDATA[.B{fill:#e6a300}.C{fill:none}.D{stroke:#000}.E{stroke-miterlimit:10}.F{stroke-width:.588}.G{fill:#1f2c5c}]]></style><path transform="matrix(.065 0 0 .065 1.5281e-5 4.9978)" d="m37.425 5.0684c-21.999 9.6547-37.426 32.014-37.426 57.439v276.92c0 25.224 15.195 46.342 36.916 55.568l516.93-70v-250z" clip-path="url(#l)" color="#000000" fill="#eee" style="-inkscape-stroke:none"/><path transform="matrix(.065 0 0 .065 5.4055e-7 5)" d="m61.539 0a61.538 61.538 0 0 0-61.539 61.539v276.92a61.538 61.538 0 0 0 61.539 61.539h282.4l199.27-26.984a61.538 61.538 0 0 0 10.643-34.555v-13.461l-6.1934-45.736-501.5 67.912v-294.35l501.5 67.912 6.1934-45.736v-13.461a61.538 61.538 0 0 0-10.643-34.555l-199.27-26.984z" clip-path="url(#n)" color="#000000" fill="#c1133d" style="-inkscape-stroke:none"/><path d="m5.4055e-7 16.5v2.9999h36v-2.9999z" clip-path="url(#k)" color="#000000" fill="#c1133d" style="-inkscape-stroke:none"/><path d="m1.5765 5.8607a4 4 0 0 0-1.5765 3.1393v18a4 4 0 0 0 1.5765 3.1393l22.234-12.139z" fill="#00165a"/><circle cx="8.0344" cy="18" r="4.875" fill="#fff" stroke-width="1.625"/><circle cx="8.0344" cy="18" r="3.25" fill="#c1133d" stroke-width="1.625"/><use transform="matrix(1.625 0 0 1.625 8.0344 18)" x="4" xlink:href="#a"/><use transform="matrix(1.625 0 0 1.625 8.0344 18)" xlink:href="#a"/><use transform="matrix(1.602 -.2724 .2724 1.602 8.0344 18)" x="2" xlink:href="#a"/><use transform="matrix(1.602 .2724 -.2724 1.602 8.0344 18)" x="2" xlink:href="#a"/><use transform="matrix(.72672 1.4534 -1.4534 .72672 8.0344 18)" xlink:href="#a"/><use transform="matrix(-.073041 1.6234 -1.6234 -.073041 8.0344 18)" xlink:href="#a"/><use transform="matrix(-.85431 1.3823 -1.3823 -.85431 8.0344 18)" xlink:href="#a"/><use transform="matrix(-.6105 1.506 -1.506 -.6105 8.0344 18)" x="2" xlink:href="#a"/><use transform="matrix(-1.0739 1.2195 -1.2195 -1.0739 8.0344 18)" x="2" xlink:href="#a"/><use transform="matrix(-1.4193 .79132 -.79132 -1.4193 8.0344 18)" xlink:href="#a"/><use transform="matrix(-1.625 0 0 -1.625 8.0344 18)" xlink:href="#a"/><use transform="matrix(.72672 -1.4534 -1.4534 -.72672 8.0344 18)" xlink:href="#a"/><use transform="matrix(-.073041 -1.6234 -1.6234 .073041 8.0344 18)" xlink:href="#a"/><use transform="matrix(-.85431 -1.3823 -1.3823 .85431 8.0344 18)" xlink:href="#a"/><use transform="matrix(-.6105 -1.506 -1.506 .6105 8.0344 18)" x="2" xlink:href="#a"/><use transform="matrix(-1.0739 -1.2195 -1.2195 1.0739 8.0344 18)" x="2" xlink:href="#a"/><use transform="matrix(-1.4193 -.79132 -.79132 1.4193 8.0344 18)" xlink:href="#a"/><polygon class="c" transform="matrix(.043333 0 0 .043333 -52.665 6.7265)" points=""/><polygon class="c" transform="matrix(.043333 0 0 .043333 -52.665 6.7265)" points=""/><polygon class="c" transform="matrix(.043333 0 0 .043333 -52.665 6.7265)" points=""/><polygon class="a" transform="matrix(.043333 0 0 .043333 -52.665 6.7265)" points=""/><polygon class="a" transform="matrix(.043333 0 0 .043333 -52.665 6.7265)" points=""/><polygon class="a" transform="matrix(.043333 0 0 .043333 -52.665 6.7265)" points=""/><polygon class="e" transform="matrix(.043333 0 0 .043333 -52.665 6.7265)" points=""/><polygon class="e" transform="matrix(.043333 0 0 .043333 -52.665 6.7265)" points=""/><style><![CDATA[.Ac{fill:#645faa}.Ad{stroke:#443d64}.Ae{fill:#b0acd5}.Af{stroke:#9b95c9}.Ag{stroke:#000}.Ah{stroke-miterlimit:10}.Ai{stroke-linejoin:round}.Aj{fill:#9ba7b9}.Ak{stroke-linecap:round}.Al{fill:#5b95cf}.Am{stroke-width:.5}.An{fill:#81512b}.Ao{fill:#f4d19f}.Ap{stroke-width:.25}.Aq{stroke-width:.3}.Ar{stroke-width:.15}.As{fill:none}.At{stroke-width:.35}.Au{fill:#5c9243}.Av{fill:#5f2a2b}.Aw{fill:#c1ae31}.Ax{stroke-width:.4}.Ay{fill:#d0202e}.Az{stroke:#fff}.BA{stroke-width:.75}.BB{fill:#8d2353}.BC{fill:#2484c6}.BD{stroke-width:.2}.BE{stroke-width:.16}.BF{stroke-width:.6}.BG{stroke-width:.118}.BH{fill:#dc6026}.BI{stroke-width:.125}.BJ{stroke-width:.102}.BK{stroke:#5f2a2b}.BL{stroke-width:.375}.BM{fill:#b58c58}.BN{stroke-width:.395}.BO{fill-rule:evenodd}]]></style><style><![CDATA[.B{fill:#e6a300}.C{fill:none}.D{stroke:#000}.E{stroke-miterlimit:10}.F{stroke-width:.588}.G{fill:#1f2c5c}]]></style></svg>
