<svg xmlns="http://www.w3.org/2000/svg" xmlns:xlink="http://www.w3.org/1999/xlink" xml:space="preserve" viewBox="0 0 36 36"><defs><g id="b"><path id="a" d="M0 0v1h.5z" transform="rotate(18 3.157 -.5)"/><use xlink:href="#a" transform="scale(-1 1)"/></g></defs><path d="M4 5a4 4 0 0 0-4 4v18a4 4 0 0 0 4 4h28a4 4 0 0 0 4-4V9a4 4 0 0 0-4-4H4" style="fill:#0c2d83;fill-opacity:1"/><path d="m-64.046 6.71 38.998 25.998m-38.998 0L-25.048 6.71" style="color:#000;fill:#000;stroke-width:4.41969;-inkscape-stroke:none"/><path d="M17.073 7.97h2.158v1.5h-2.158z" style="fill:#129612;fill-opacity:1;stroke:none;stroke-width:.0606061"/><path d="M16.047 9.06c0 .033.106.072.295.072.157 0 .37.018.472.032.148.023.189-.018.142-.064-.069-.079-.909-.114-.909-.04M19.82 9.06l-.19.085.432.024c.231 0 .453-.035.453-.058 0-.024-.082-.06-.174-.06a.7.7 0 0 1-.244-.045c-.05-.023-.162.004-.278.055" style="fill:#000;stroke:none;stroke-width:.0606061"/><path d="M18.118 7.314a2 2 0 0 1-.185.241.4.4 0 0 0-.088.185c0 .075-.013.065-.05-.041-.084-.227-.148-.264-.3-.186-.07.037-.204.084-.292.098a.44.44 0 0 0-.213.088c-.023.037-.157.074-.286.083-.273.023-.407.097-.758.412-.079.074-.171.13-.204.13-.088 0-.083.028.037.162.065.074.13.107.18.093.047-.014.093-.005.111.023.014.023.084.046.153.05.102.006.092.015-.065.057a.9.9 0 0 0-.379.259c-.212.227-.236.282-.11.282.045 0 .106.024.138.056.028.028.162.056.296.06.212.005.245.023.259.107.018.13.078.13.383-.01.324-.143.527-.3.698-.532.134-.185.139-.283.014-.283-.088 0-.143-.222-.083-.32.074-.12.286-.12.411 0 .102.098.12.098.3.042.167-.055.204-.055.338.019.153.083.157.083.273-.037.13-.13.3-.158.393-.065.078.079.07.31-.014.343-.088.037-.088.125.005.305.101.195.268.33.605.496.342.172.374.172.425.042.028-.084.074-.102.278-.107.13-.004.263-.032.29-.06a.22.22 0 0 1 .14-.056c.129 0 .101-.078-.107-.291-.12-.116-.268-.218-.383-.25-.158-.042-.167-.051-.065-.056.07-.005.139-.028.152-.051.019-.028.065-.037.111-.023.051.014.116-.019.18-.093.12-.134.125-.162.038-.162-.033 0-.125-.06-.204-.134-.31-.297-.518-.399-.869-.417-.032-.005-.065-.051-.078-.102-.024-.083-.051-.093-.18-.07a2 2 0 0 1-.246.037.7.7 0 0 0-.254.116c-.162.107-.226.084-.231-.078 0-.038-.074-.153-.162-.25-.088-.102-.162-.2-.162-.223 0-.093-.143-.023-.24.111m.296.208c.088.083.18.19.199.25.064.214.133.245.354.124.116-.06.232-.109.292-.109a.28.28 0 0 0 .167-.06c.092-.092.081-.036.007.205-.106.352.012.1-.266-.062-.009-.009-.11.227-.064.176.047-.05.076-.12.062-.135-.027-.027-.455.243-.533.35-.056.074-.042.078-.167.013-.13-.07-.128-.061-.128-.423 0-.217-.043-.372-.071-.372s-.048.172-.048.39c0 .356-.007.346-.122.388-.162.065-.221.067-.194-.003.023-.07-.353-.463-.404-.417-.014.018.01.116.065.177.056.06.076.106.076.12 0 .01-.058-.003-.164.006-.162.01-.192.019-.28-.083a.5.5 0 0 1-.099-.152c0-.07.174-.162.271-.162.056 0 .09-.023.09-.046s.036-.061.077-.075c.088-.032.183.103.183.223 0 .051.027.076.064.108.055.047.1.05.142-.056.023-.065.05-.136.05-.145 0-.014.05-.079.123-.158.079-.074.146-.166.146-.19 0-.07.01-.044.172.118m-1.452.443c0 .126-.138.207-.35.207-.158 0-.38.101-.38.166 0 .023.041.041.087.022.042-.018.134-.04.208-.054.111-.019.117-.02.117.082a.6.6 0 0 1-.031.179c-.032.078-.19.092-.19.018 0-.028-.062-.043-.14-.043-.075 0-.124-.023-.124-.05 0-.033-.056-.04-.12-.022-.163.042-.158-.03-.029-.159.236-.232.438-.355.646-.392.328-.056.306-.07.306.046m2.946.004c.23.037.718.375.658.472-.018.023-.037.028-.101.014-.065-.018-.115 0-.115.033 0 .027-.049.05-.127.05-.074 0-.16 0-.16.028 0 .093-.132.075-.16-.032-.033-.098.119-.167.212-.191.152.01.294-.028.294-.046 0-.056-.138-.088-.374-.088a.7.7 0 0 1-.347-.073c-.069-.042-.095-.056-.11-.072-.005 0-.016-.036.002-.092.019-.074.021-.093.095-.08.05.015.172.048.255.062zm-2.724.267c.148.139.112.21-.12.215l-.208.021.18.074c.101.028.25.06.324.12l.13.107-.148.08c-.18.087-.201.055-.405-.02-.092-.032-.148-.052-.134-.09.014-.032.001-.072-.017-.082-.079-.05-.017-.254.122-.379a1 1 0 0 1 .16-.126c.013 0 .06.024.116.08m2.428.06c.106.098.148.234.125.437-.01.084-.188.174-.35.174-.134 0-.317-.129-.27-.203.013-.028.143-.083.263-.162.14-.092.187-.189.132-.189a.3.3 0 0 0-.183.075c-.12.107-.082.034.042-.11.125-.143.097-.151.24-.022m-2.948.625c.027.042.174.1.326.113.25.028.26.003.185.082-.046.051-.21.13-.362.204-.255.13-.267.144-.286.07-.023-.12-.1-.153-.271-.125-.148.028-.446-.047-.446-.112 0-.06.244-.287.337-.31.148-.047.461.004.517.078M20.556 9c.074.083.137.137.137.156 0 .074-.26.131-.436.103-.175-.027-.264.012-.269.133q0 .035-.075.028c-.13-.023-.483-.223-.571-.32-.065-.074-.078-.042.167-.065.148-.014.285-.056.299-.083.055-.088.238-.13.432-.107a.43.43 0 0 1 .316.155" style="fill:#000;stroke:none;stroke-width:.0606061"/><path d="M18.226 7.395a1 1 0 0 1-.14.181c-.1.112-.135.164-.161.245-.046.137-.072.172-.113.149-.036-.022-.083-.112-.105-.203-.037-.149-.16-.205-.248-.11a.2.2 0 0 1-.112.063.4.4 0 0 0-.233.125.3.3 0 0 0-.043.064c0 .007.033.056.075.108.105.135.146.154.335.146a.6.6 0 0 0 .169-.02c.007-.006-.003-.033-.023-.058-.086-.105-.138-.196-.121-.213.032-.032.301.218.365.34a.2.2 0 0 1 .02.07c0 .03.01.036.05.036.076 0 .233-.066.255-.106.012-.022.025-.17.032-.35.012-.306.02-.372.05-.372.022 0 .032.086.047.407.008.164.02.308.027.32a.45.45 0 0 0 .206.118q.04 0 .152-.107c.06-.057.174-.148.253-.202.198-.134.228-.13.126.015a.4.4 0 0 0-.059.101c0 .027.16.097.22.097a.12.12 0 0 0 .091-.044c.042-.05.136-.325.153-.445.012-.084-.005-.093-.077-.04a.5.5 0 0 1-.16.059c-.063.013-.19.059-.284.101-.243.108-.278.103-.337-.052a1 1 0 0 0-.072-.15c-.046-.077-.278-.313-.304-.313-.01 0-.026.018-.034.04M16.662 7.906c-.2.038-.389.145-.596.333-.118.106-.174.187-.161.224.008.024.027.027.115.017.093-.008.106-.006.13.024.018.025.056.04.133.05s.118.026.138.051c.03.038.087.044.154.017.047-.017.077-.1.077-.214 0-.137-.03-.15-.226-.088a.5.5 0 0 1-.153.028c-.038-.005-.04-.006-.015-.042.037-.052.186-.103.362-.123.255-.029.35-.091.35-.228v-.076l-.095.001c-.054 0-.15.012-.213.026M19.586 7.899a.3.3 0 0 0-.028.064c-.005.024-.016.054-.019.07-.01.035.127.126.238.16.042.012.177.03.3.039q.318.022.318.078c0 .01-.1.018-.25.022-.162.003-.26.011-.274.023-.017.015-.02.04-.014.093q.021.157.113.19c.067.023.056.025.103-.026.03-.032.066-.045.148-.057q.106-.015.129-.046c.016-.024.045-.03.134-.03.1 0 .112-.004.117-.036.01-.076-.238-.302-.472-.43-.178-.097-.501-.165-.543-.114M16.97 8.208a.6.6 0 0 0-.231.343c-.012.048-.01.078.007.107.011.022.021.06.023.086q0 .084.173.142c.142.049.25.04.412-.035l.14-.066-.073-.066a1.05 1.05 0 0 0-.402-.205l-.138-.039.154-.008c.166-.01.237-.04.237-.102 0-.04-.166-.216-.203-.216a.3.3 0 0 0-.099.06M19.373 8.288c-.08.09-.134.179-.119.194.005.005.046-.015.09-.044.081-.056.15-.081.167-.062q.023.025-.18.17c-.217.157-.236.184-.177.26.038.051.17.12.226.12a.6.6 0 0 0 .315-.11c.062-.053.062-.053.06-.187a.45.45 0 0 0-.157-.368c-.097-.083-.13-.08-.225.027M16.141 8.825c-.092.029-.37.298-.355.345.008.029.112.076.211.095.05.008.166.017.26.017.192 0 .23.015.26.11.016.045.03.059.061.059.049 0 .439-.2.538-.276.067-.052.114-.11.1-.123a2 2 0 0 0-.18-.032c-.21-.033-.275-.051-.344-.102a.5.5 0 0 0-.137-.066c-.11-.032-.347-.047-.414-.027m.53.227c.189.023.3.059.3.098q0 .019-.071.006c-.04-.005-.23-.018-.424-.028a3 3 0 0 1-.392-.036c-.043-.015-.033-.039.024-.052.068-.017.375-.01.562.012M20.052 8.818c-.096.019-.2.061-.228.095-.044.047-.084.06-.273.09-.258.04-.27.042-.27.057 0 .056.323.27.524.35.134.054.18.049.203-.022.032-.093.044-.098.302-.108.207-.007.247-.014.32-.05a.3.3 0 0 0 .086-.058c.009-.027-.169-.235-.23-.272a1 1 0 0 0-.111-.055 1.1 1.1 0 0 0-.323-.027m.041.212c.037.012.138.028.225.039.162.018.213.047.117.067-.028.005-.216.01-.415.009l-.362-.002.092-.042c.102-.048.213-.087.251-.088a.4.4 0 0 1 .092.017" style="fill:#129612;fill-opacity:1;stroke:none;stroke-width:.0606061"/><path d="M15.026 22.736c.669.812 2.487.883 2.998 1.845.78-1.033 2.448-1.16 3.423-1.956" style="fill:none;stroke:#d2d2d2;stroke-width:.188419;stroke-miterlimit:4;stroke-dasharray:none;stroke-opacity:1"/><path d="M14.26 13.095c-.113.046-.272.076-.302.197.007.046.09.053.158.038-.007-.083.016-.114.121-.091-.015-.045.016-.09.023-.144zM22.043 13.095c.114.046.273.076.303.197-.008.046-.091.053-.159.038.008-.083-.015-.114-.121-.091.015-.045-.015-.09-.023-.144zM18.753 17.037c.098.03.25.068.272.174 0 .045-.075.045-.143.038.007-.076-.016-.106-.114-.091.015-.038-.015-.084-.015-.121z" style="fill:#b68c5b;stroke:#000;stroke-width:.0227155"/><path d="M18.942 8.964c.083 0 .159.015.242.023.514 1.485 2.988 1.485 3.502.523-.265-.243-.317-.425-.287-.75.022-.19.068-.57.567-.592.19-.007.31.121.325.667.038.887-1.066 1.797-2.11 1.736-.726-.046-2.284-.508-2.239-1.607" style="fill:#fff;stroke:none;stroke-width:.106005"/><path d="M15.803 15.46a.8.8 0 0 0-.106-.28c0 .015-.06.03-.06.015a.9.9 0 0 1 .098.25c.023.015.045.015.06.023zm.076-2.653a.8.8 0 0 0-.106-.28c0 .015-.06.03-.06.015a.9.9 0 0 1 .098.25c.022.015.045.015.06.023zm-1.974.773a.8.8 0 0 1 .106-.28c0 .015.06.03.06.015a.9.9 0 0 0-.098.25c-.023.015-.046.015-.06.023z" style="fill:#0f0;stroke:#000;stroke-width:.0227155"/><path d="M15.758 15.324c.03 0 .075.022.09.03.061.06.182.19.182.273 0-.06.068-.228.008-.28-.038-.054-.235-.061-.28-.023zm0 .03c-.038 0-.076.045-.099.083-.037.099-.105.296-.068.394-.03-.083-.181-.227-.15-.326.03-.075.241-.181.317-.151zm-.023-.068c-.03.015-.076.053-.083.09-.038.092-.121.289-.068.395-.038-.084-.182-.228-.159-.334.023-.083.25-.182.31-.151zm.098-2.615c.03 0 .076.022.091.03.06.06.182.19.182.273 0-.06.068-.228.007-.28-.038-.054-.234-.061-.28-.023zm0 .03c-.037 0-.075.045-.098.083-.038.099-.106.296-.068.394-.03-.083-.182-.227-.151-.326.03-.075.242-.181.317-.151zm-.022-.068c-.03.015-.076.053-.083.09-.038.092-.122.289-.069.395-.037-.084-.181-.228-.158-.334.022-.083.25-.182.31-.151zm-1.861.81c-.03 0-.076.023-.09.031-.061.06-.182.19-.182.273 0-.06-.068-.228-.008-.28.038-.054.235-.061.28-.023zm0 .031c.038 0 .076.045.098.083.038.099.106.296.068.395.03-.084.182-.228.152-.326-.03-.076-.242-.182-.318-.152zm.023-.068c.03.015.075.053.083.09.038.092.12.289.068.395.038-.083.182-.227.159-.334-.023-.083-.25-.182-.31-.151z" style="fill:#7eff00;stroke:#000;stroke-width:.0227155"/><path d="M15.735 15.293a.2.2 0 0 0-.098.06c-.046.061-.129.213-.076.274-.038-.06-.212-.16-.181-.228.03-.053.28-.129.355-.106zm-.008.008c.038.007.084.053.099.098.038.084.113.288.068.387.038-.076.181-.22.159-.326-.03-.076-.25-.19-.326-.16zm.084-2.66a.2.2 0 0 0-.099.06c-.045.06-.128.212-.075.273-.038-.06-.212-.16-.182-.228.03-.053.28-.128.356-.106zm-.008.007c.038.007.083.053.098.098.038.084.114.288.068.387.038-.076.182-.22.16-.326-.031-.076-.25-.19-.326-.16zm-1.83.765a.2.2 0 0 1 .098.061c.045.06.129.212.076.273.037-.06.211-.16.181-.227-.03-.054-.28-.13-.355-.107zm.007.008c-.038.008-.083.053-.098.099-.038.083-.114.288-.068.386-.038-.076-.182-.22-.159-.326.03-.076.25-.19.325-.159z" style="fill:#7eff00;stroke:#000;stroke-width:.00757182"/><path d="M20.523 15.46a.8.8 0 0 1 .106-.28c0 .015.06.03.06.015a.9.9 0 0 0-.098.25c-.023.015-.045.015-.06.023zm-.076-2.653a.8.8 0 0 1 .106-.28c0 .015.06.03.06.015a.9.9 0 0 0-.098.25c-.022.015-.045.015-.06.023zm1.974.773a.8.8 0 0 0-.105-.28c0 .015-.06.03-.06.015a.9.9 0 0 1 .097.25c.023.015.046.015.06.023z" style="fill:#0f0;stroke:#000;stroke-width:.0227155"/><path d="M20.568 15.324c-.03 0-.075.022-.09.03-.061.06-.182.19-.182.273 0-.06-.068-.228-.008-.28.038-.054.235-.061.28-.023zm0 .03c.038 0 .076.045.099.083.037.099.106.296.068.394.03-.083.181-.227.151-.326-.03-.075-.242-.181-.318-.151zm.023-.068c.03.015.076.053.083.09.038.092.121.289.068.395.038-.084.182-.228.16-.334-.024-.083-.25-.182-.311-.151zm-.098-2.615c-.03 0-.076.022-.091.03-.06.06-.182.19-.182.273 0-.06-.068-.228-.007-.28.038-.054.234-.061.28-.023zm0 .03c.038 0 .075.045.098.083.038.099.106.296.068.394.03-.083.182-.227.151-.326-.03-.075-.242-.181-.317-.151zm.022-.068c.03.015.076.053.084.09.037.092.12.289.068.395.037-.084.181-.228.158-.334-.022-.083-.25-.182-.31-.151zm1.861.81c.03 0 .076.023.09.031.061.06.182.19.182.273 0-.06.068-.228.008-.28-.038-.054-.235-.061-.28-.023zm0 .031c-.038 0-.076.045-.098.083-.038.099-.106.296-.068.395-.03-.084-.182-.228-.152-.326.03-.076.242-.182.318-.152zm-.023-.068c-.03.015-.075.053-.083.09-.038.092-.12.289-.068.395-.038-.083-.181-.227-.159-.334.023-.083.25-.182.31-.151z" style="fill:#7eff00;stroke:#000;stroke-width:.0227155"/><path d="M20.591 15.293a.2.2 0 0 1 .098.06c.046.061.129.213.076.274.038-.06.212-.16.182-.228-.03-.053-.28-.129-.356-.106zm.008.008c-.038.007-.084.053-.099.098-.038.084-.113.288-.068.387-.038-.076-.181-.22-.159-.326.03-.076.25-.19.326-.16zm-.084-2.66a.2.2 0 0 1 .099.06c.045.06.128.212.075.273.038-.06.212-.16.182-.228-.03-.053-.28-.128-.356-.106zm.008.007c-.038.007-.083.053-.098.098-.038.084-.114.288-.068.387-.038-.076-.182-.22-.16-.326.031-.076.25-.19.326-.16zm1.83.765a.2.2 0 0 0-.098.061c-.045.06-.128.212-.076.273-.037-.06-.211-.16-.181-.227.03-.054.28-.13.355-.107zm-.007.008c.038.008.083.053.098.099.038.083.114.288.068.386.038-.076.182-.22.16-.326-.031-.076-.25-.19-.326-.159z" style="fill:#7eff00;stroke:#000;stroke-width:.00757182"/><path d="M17.218 19.348a.8.8 0 0 1 .105-.28c0 .015.061.03.061.015a.9.9 0 0 0-.098.25c-.023.015-.046.015-.06.023zm-.076-2.653a.8.8 0 0 1 .106-.28c0 .015.06.03.06.015a.9.9 0 0 0-.098.25c-.023.015-.045.015-.06.023zm1.974.774a.8.8 0 0 0-.106-.28c0 .014-.06.03-.06.014a.9.9 0 0 1 .098.25c.023.016.045.016.06.023z" style="fill:#0f0;stroke:#000;stroke-width:.0227155"/><path d="M17.263 19.212c-.03 0-.076.023-.09.03-.061.061-.182.19-.182.273 0-.06-.068-.227-.008-.28.038-.053.235-.06.28-.023zm0 .03c.038 0 .076.046.098.084.038.098.106.295.068.394.03-.084.182-.228.152-.326-.03-.076-.242-.182-.318-.152zm.023-.068c.03.015.075.053.083.091.038.091.12.288.068.394.038-.083.181-.227.159-.333-.023-.084-.25-.182-.31-.152zm-.099-2.615a.3.3 0 0 0-.09.03c-.061.061-.182.19-.182.273 0-.06-.068-.227-.008-.28.038-.053.235-.06.28-.023zm0 .03c.038 0 .076.046.099.084.037.098.106.295.068.394.03-.083.181-.228.151-.326-.03-.076-.242-.182-.318-.152zm.023-.068c.03.015.076.053.083.091.038.091.121.288.068.394.038-.083.182-.227.16-.333-.024-.084-.25-.182-.311-.152zm1.86.811c.031 0 .076.023.091.03.061.061.182.19.182.273 0-.06.068-.227.008-.28-.038-.053-.235-.06-.28-.023zm0 .03c-.037 0-.075.046-.098.084-.037.098-.106.295-.068.394-.03-.083-.181-.227-.151-.326.03-.076.242-.182.318-.151zm-.022-.068c-.03.015-.076.053-.083.091-.038.091-.121.288-.068.394-.038-.083-.182-.227-.16-.333.024-.083.25-.182.311-.152z" style="fill:#7eff00;stroke:#000;stroke-width:.0227155"/><path d="M17.286 19.182a.2.2 0 0 1 .098.06c.045.061.129.213.076.273.037-.06.211-.159.181-.227-.03-.053-.28-.13-.355-.106zm.007.007c-.038.008-.083.053-.098.099-.038.083-.114.288-.068.386-.038-.075-.182-.22-.159-.326.03-.075.25-.189.325-.159zm-.083-2.66a.2.2 0 0 1 .098.06c.046.061.129.213.076.273.038-.06.212-.159.182-.227-.03-.053-.28-.129-.356-.106zm.008.007c-.038.008-.084.053-.099.099-.038.083-.113.288-.068.386-.038-.075-.181-.22-.159-.325.03-.076.25-.19.326-.16zm1.83.766a.2.2 0 0 0-.098.06c-.046.061-.129.213-.076.273-.038-.06-.212-.159-.181-.227.03-.053.28-.129.355-.106zm-.008.008c.038.007.084.053.099.098.038.083.113.288.068.387.038-.076.181-.22.159-.326-.03-.076-.25-.19-.326-.16z" style="fill:#7eff00;stroke:#000;stroke-width:.00757182"/><path d="M22.164 26.239c-.696.847-1.044.548-1.791.324s-1.542-.598-2.263-.772c-.722-.175-2.513-.3-3.608-.35-1.013-.046-1.365-.455-1.392-.772.007-.003.322-.083.978-.018.663.067.696.05.829-.15a1 1 0 0 0 .09-.165q.095-.066.093-.19c0-.25-.175-.624-1.966-.624-.608 0-1.058-.02-1.4-.054l.53-1.367c.161-.449-.585-.523-.585-.523-.697 0-1.232.012-1.58-.075-.656-.164-1.169-.224-2.164-.175s-1.79.05-3.134-.349c.124.512 1.12 1.209 1.12 1.209l-1.568.723.448.113c1.343.399 2.14.399 3.134.349.76-.038 1.237-.013 1.713.075L9.3 24.563c.629.653 1.065.996 3.046 1.186l-.381.482.082.017c.713.98 1.11 1.295 2.77 1.33 1.658.032 2.421.016 3.698.597 1.277.582 1.862.785 2.874.486 0 0 .018.053.202-.38.206-.488.257-1.418.456-1.585.2-.166.464-.632.464-.632z" style="fill:#ffd300;fill-opacity:1;stroke:none;stroke-width:.0606061"/><path d="M26.742 23.987c.215.1.447.166 1.144-.034.696-.198 2.72-.547 3.78-.465-.414-.365-1.508-.914-1.508-.914l1.111-.914s-.282.017-.68-.083c-1.177-.332-2.305.05-3.3.466q-.294.122-.495.19l-.235-.822s-.405-.295-1.365.026c-.876.295-1.073.772-1.023.888s.464.897.464.897l-.01.029c-.364.17-.839.345-1.416.52-1.642.499-2.006.73-3.466 1.795l.382.914.795.249s.2.066.365.05l.02.013c.83-.568 1.338-.793 2.6-1.177 1.643-.499 2.455-.98 2.273-1.446l-.282-.764s.365-.216.514-.15l.332.731" style="fill:#ffd300;fill-opacity:1;stroke:none;stroke-width:.0606061"/><path d="m9.764 23.16.193-.68c.028-.167.288-.27 1.017-.163.504.073.906.154 1.133-.03l.01-.005c.03-.324-.426-.293-.426-.293h-.012c-.697 0-1.232.012-1.58-.075-.656-.164-1.169-.225-2.164-.175-.912.046-1.657.05-2.809-.256.224.274.794.693.794.693l-1.12.536c1.344.399 2.14.399 3.135.349.822-.042 1.315-.007 1.831.097M13.185 24.626c.171-.034.484-.039.847.012.564.082.772.027.817-.045l-.369.85s-1.435.015-1.369-.799" style="fill:#fff;stroke:none;stroke-width:.0606061"/><path d="m22.483 26.106-.298.427c-.546.733-1.218.51-1.986.329-.746-.224-1.542-.598-2.264-.773-.721-.174-2.512-.298-3.607-.349-1.094-.05-1.418-.523-1.393-.848a.4.4 0 0 1 .021-.1l.184-.329.028-.036c.122-.152.44-.136.986-.057.348.05.585.056.734.018l.013-.043c0-.25-.15-.524-1.94-.524-1.792 0-2.202-.174-2.6-.35-.235-.102-.573-.443-.51-.665l-.403 1.314c.68.715 1.008 1.08 3.08 1.28l-.347.516c.713.98 1.11 1.296 2.769 1.329s2.421.016 3.699.597c1.276.583 1.905.776 2.916.477" style="fill:#fff;stroke:none;stroke-width:.0606061"/><path d="M9.995 22.672c.092.2.362.423.54.5.265.117.535.233 1.216.297l-.002.002.39-1.058c-.161.448-.688.33-1.33.236M26.609 23.62c.215.101.448.167 1.144-.032.697-.199 2.347-.557 3.408-.474l-1.046-.503.77-.619a3 3 0 0 1-.147-.032c-1.177-.333-2.305.05-3.3.465s-1.111.332-1.244.182l-.265-.515s.016-.232.215-.315c.2-.083.233-.1.233-.1s-.216-.3-1.045 0c-.83.298-.88.681-.863.748 0 0 .166-.017.332-.083.166-.067.564-.3.68-.016.116.282.116.34.116.34.183.465-.646.922-2.288 1.42-1.642.499-1.974.699-3.433 1.762l.232.632.761.237c1.038-.738 1.504-.97 2.92-1.4 1.642-.499 2.455-.981 2.272-1.446l-.265-.732s.299-.265.481-.2l.332.682" style="fill:#fff;stroke:none;stroke-width:.0606061"/><path d="M10.307 24.12c-.074.102-.083.243.035.319a.2.2 0 0 0 .08.022l-.017-.183.133.07.01.098c.05-.017.1-.06.131-.104.073-.1.077-.253-.031-.323-.118-.075-.263-.006-.34.1l-.12-.087c.125-.173.362-.245.543-.128s.197.348.071.522a.5.5 0 0 1-.236.176l.012.156-.131-.067-.005-.079a.34.34 0 0 1-.184-.056c-.182-.116-.2-.347-.07-.524zM11.332 24.162l.15.014-.118.397c-.026.087-.055.212.073.223.128.013.173-.11.2-.197l.118-.397.15.015-.127.424c-.051.173-.17.296-.377.277-.207-.021-.248-.16-.196-.332zM12.306 24.946l-.153-.003.153-.712.153.003zM12.906 26.36l-.12-.084.356-.512-.124-.086.073-.105.367.257-.072.105-.124-.087zM13.883 26.215l-.068.128.019.005c.079.024.145.02.188-.062s-.005-.115-.08-.138l-.02-.006zl-.144-.04.097-.181.193.057c.144.044.213.132.137.275-.045.084-.14.153-.247.138l.058.343-.173-.052-.035-.32-.002-.002-.142.268-.142-.043.256-.483zM14.766 26.47l-.088.152.18.014-.029-.272h-.002zl-.126-.036.191-.289.115.01.104.769-.158-.011-.02-.16-.264-.02-.1.15-.157-.012.29-.437zM15.58 26.18l.108.007.29.531.109-.49.149.007-.164.745-.108-.006-.289-.531h-.002l-.109.496-.149-.008zM16.987 26.463a.11.11 0 0 0-.097-.07c-.047-.005-.102.025-.115.072-.033.123.28.102.214.346a.29.29 0 0 1-.316.224c-.104-.01-.165-.076-.194-.165l.12-.08c.005.057.044.113.107.12.06.005.11-.04.126-.096.02-.075-.046-.103-.099-.132-.086-.048-.145-.103-.114-.215a.27.27 0 0 1 .28-.196c.067.007.151.048.184.102zM17.522 27.138l-.143-.027.222-.596-.148-.028.045-.122.439.086-.045.12-.148-.028zM18.209 26.545l.136.053-.155.392c-.034.085-.075.21.041.256s.171-.072.205-.159l.154-.391.136.054-.164.418c-.068.17-.191.271-.378.197s-.208-.233-.14-.403l.165-.418M19.002 27.544l.191.08-.049.118-.326-.136.287-.694.135.056zM19.626 27.924l-.138-.05.252-.707.138.048zM20.248 28.082l-.146-.028.17-.592-.15-.03.035-.12.448.088-.035.12-.151-.03zM20.848 25.687c-.043-.02-.086-.023-.128.001-.041.023-.063.076-.039.12.062.11.296-.082.419.138.073.131.043.27-.09.345-.09.05-.185.035-.273-.015l.038-.127c.045.04.116.06.17.03.053-.03.06-.092.032-.142-.038-.068-.111-.052-.174-.043-.103.012-.188.004-.245-.098a.22.22 0 0 1 .08-.304.3.3 0 0 1 .22-.027zM21.096 25.36l.13-.07.197.37c.044.082.112.193.222.135s.055-.177.011-.26l-.197-.37.129-.07.211.397c.086.163.083.322-.094.416-.178.095-.311.01-.397-.152zM22.276 24.946a.14.14 0 0 0-.128-.008c-.042.02-.068.071-.047.116.053.114.3-.06.407.169.064.135.024.272-.114.337-.094.044-.188.021-.271-.034l.046-.124c.042.043.112.068.169.04.054-.024.066-.085.041-.138-.033-.07-.107-.06-.17-.055-.104.004-.188-.011-.237-.115a.22.22 0 0 1 .102-.298.3.3 0 0 1 .222-.01zM23.079 25.244l-.136.054-.229-.58-.14.055-.047-.118.417-.165.047.118-.14.056zM23.589 25.06l-.138.048-.243-.711.139-.048zM23.627 24.236l.1-.035.546.365h.001l-.166-.478.137-.049.254.724-.1.034-.546-.363h-.002l.169.482-.138.048z" style="fill:#000;stroke:none;stroke-width:.0606061"/><path d="M17.339 9.055c.105.417.968.387 1.157.371l.794-.227-.023.013c.242.622 1.165.972 1.914.965.734-.008 1.218-.243 1.513-.667-.257-.273-.325-.357-.295-.834a.56.56 0 0 1 .522-.508c.302-.007.56.235.779.447.348.334.62.728.998 1.024.348.288.734.28 1.052.5.34.242.718.629.87 1.016.128.333-.107.69-.326.69-.25 0-.514-.22-.469-.425-.439-.326-1.286.371-1.49 1.122-.272.977.144 2.031.643 2.456-.159.416-.711.765-.998 1.03-.106.387.045.925.37 1.168.386.06 1.029.045 1.445.076.189.068.151.325.204.523.068.257.197.553.159.833-.129.872-.4 1.615-1.225 2.183a5.6 5.6 0 0 1-1.286.667c-.22-.197-.416-.485-.658-.598-.78-.016-1.732.386-1.997.955-.129.28.204.583.582.894-.794.576-1.732.864-2.602 1.258-.295.137-.56.334-.998.842-.454-.546-.688-.781-1.112-.978-.749-.341-1.649-.538-2.216-1.122.348-.205.56-.371.613-.69-.485-.614-1.052-1.266-1.8-1.455-.25.099-.568.538-.765.864-1.845-.387-3.343-2.425-2.375-4.108.212.083.522.235.78.098.484-.303 1.058-.69 1.096-1.258-.015-.546-.43-.932-.923-1.182.326-.235.681-1.07.704-1.668.023-.56-.288-1.076-.583-1.554-.136-.235-.453-.447-.642-.515-.084.129-.416.417-.666.432-.25.007-.613-.197-.613-.455 0-.197.083-.508.31-.644.62-.38 1.347-.63 1.914-1.084.34-.28.5-.781.855-1.069.136-.106.287-.22.43-.258.367 1.538.913 1.723 1.678 1.983.84.098 1.953-.255 2.68-1.111" style="fill:#fff;fill-opacity:1;stroke:none;stroke-width:.0606061"/><path d="M17.134 8.972c-.113.705-1.317 1.147-2.013 1.172-.692-.05-1.209-.361-1.625-.816.167-.038.356-.394.333-.675a.57.57 0 0 0-.439-.5.67.67 0 0 0-.408.03c-.325 1.637 1.361 2.35 2.216 2.327.855-.03 2.124-.655 2.063-1.512v-.017Z" style="fill:#fff;fill-opacity:1;stroke:none;stroke-width:.0606061"/><path d="m24.697 23.994.066.152.213-.094.051.117-.213.093.081.186.222-.096.05.116-.354.156-.302-.688.356-.156.051.116zM25.72 24.153l-.128.072-.232-.58-.132.074-.062-.11.39-.222.063.111-.131.075zM21.498 22.334c.005.006-.005.01-.01.015h-.005v-.014zM21.489 22.4l-.01-.015c.01-.01.03.01.01.014M21.548 22.383h.035z" style="fill:#000;stroke:none;stroke-width:.0606061"/><path d="M5.096 21.48c1.16.311 1.906.308 2.82.26.996-.048 1.508.012 2.165.176.348.087.883.075 1.58.075m-6.879.723c1.344.398 2.14.398 3.135.35.828-.043 1.256-.041 1.777.066m1.967-1.55s.746.074.584.523c-.161.448-.638.343-1.28.249-1.705-.249-.847.648-.448.823.397.174.808.349 2.599.349s1.965.374 1.965.623c0 .25-.249.324-.945.224s-1.02-.1-1.045.224c-.025.325.299.798 1.393.848s2.886.174 3.607.35c.722.173 1.518.547 2.264.772s1.095.523 1.79-.325m-10.513-4.25s.478.023.477.315m.966 2.35c.162-.07.452-.047.887.015.467.067.733.055.857-.034m.085-.246c-.015-.412-.302-.568-1.962-.568-1.791 0-2.202-.173-2.6-.348-.198-.087-.472-.346-.504-.556m.135-.235c.138-.067.393-.09.817-.031.556.076 1.094.129 1.306-.137l.132-.353m-2.814 1.986c.68.713 1.024 1.055 3.097 1.254m-.266.35c-1.98-.192-2.334-.534-2.962-1.187l.69-2.134m3.201 1.957-1.194 1.845c.713.98 1.16 1.313 2.82 1.346 1.658.033 2.42.016 3.698.598 1.277.581 1.84.781 2.852.482 0 0 .199-.2.299-.573.1-.374.671-1.52.845-1.944l-.198.323c-.697.848-1.369.624-2.115.399-.747-.223-1.543-.599-2.264-.772-.721-.175-2.512-.3-3.607-.35-1.049-.047-1.39-.484-1.394-.806l-.024-.15m8.657 3.54c-1.011.3-1.576.15-2.852-.431-1.278-.581-2.04-.565-3.699-.599-1.658-.032-2.106-.365-2.819-1.345m-2.556-2.502c-.473-.087-.95-.113-1.706-.075-.995.05-1.791.05-3.135-.349l-.447-.112 1.567-.723s-.995-.698-1.12-1.208c1.344.398 2.14.398 3.135.348s1.507.01 2.164.175c.348.086.883.074 1.58.074" style="fill:none;stroke:none;stroke-width:.0850079;stroke-miterlimit:4;stroke-dasharray:none"/><path d="m12.13 22.484-.332.947M14.5 25.41l.547-1.163m10.913-2.094.78 1.828c.215.1.447.166 1.144-.034s2.72-.548 3.78-.465c-.314-.365-1.525-.88-1.525-.88l1.128-.948s-.283.017-.68-.083c-1.178-.332-2.306.05-3.3.466-.996.415-1.112.332-1.244.182-.282-.182-.033-.365.298-.548.332-.183.265-.366-.05-.383-1.094-.099-1.824.483-2.04.749-.215.265-.066.564.564.3.344-.146.548-.235.664-.018.182.465-.63.947-2.272 1.445-1.642.5-2.007.732-3.466 1.796l.381.897m4.328-4.022c-.016-.432 1.327-1.13 1.907-.814m-.862.715.68 1.827c.182.466-.63.947-2.272 1.446-1.272.386-1.778.614-2.62 1.19m4.866-4.22c.132.15.291.256 1.286-.16s2.124-.798 3.3-.465c.018.004.085.024.101.029m-4.23 1.632c.216.1.448.166 1.145-.033.696-.199 2.355-.531 3.416-.449m-11.277 2.71c1.46-1.064 1.775-1.264 3.416-1.762 1.642-.5 2.476-.992 2.294-1.456m-4.73 4.084c1.036-.737 1.502-.969 2.917-1.399 1.642-.499 2.455-.98 2.272-1.445m-1.89-1.529.447.864m1.94-1.778.216.78m-.116-.382c-.299.133-.646.333-.48.466m-1.808.382c.082.1.248.083.547-.05.298-.133.58-.166.53-.033m.349.532c.149-.1.315-.2.514-.167m-.431.45c.182-.117.431-.167.563-.134" style="fill:none;stroke:none;stroke-width:.0850079;stroke-miterlimit:4;stroke-dasharray:none"/><path d="M24.363 22.677c.096.15.382.042.695-.091.202-.057.381-.11.362.023-.024.225-.768.613-.792.564-.09-.186-.095-.207-.265-.496M26.75 22.21c-.21.076-.121.037-.266.084-.164.008-.329.072-.325-.106.096-.184.487-.343.49-.336.045.145.05.19.1.358M10.47 10.289l.594-.312c.581-.366.646-.37.948-.747.395-.493.16-.353.542-.738.053.642 1.178 2.45 2.381 2.436 1.477-.001 2.388-.921 2.668-1.505.35-.022.699-.042 1.059-.015.325.94 1.543 1.539 2.534 1.531 1.074-.007 2.511-.705 2.39-2.41 1.561 2.035 1.474.942 2.715 2.168-2.266-.175-3.91 2.894-2.042 5.062-.263.328-.409.789-.186.813l.917.82c1.888 1.76-.572 3.22-1.805 3.553l-1.868 1.304h-.514c-.59.697-2.073.712-2.776 1.553-.908-1.046-2.058-.712-2.557-1.637h-.325s-.924-.447-2.354-1.212c-1.656-.762-2.391-1.227-1.792-3.312 1.48-.982 1.372-1.505 1.045-2.116 1.195-1.787 1.23-4.312-1.785-5.137z" style="fill:#fff;fill-opacity:1;stroke:none;stroke-width:.0606061"/><path d="M15.947 15.468c.053-.084.128-.099.197-.061.06.03.09.136.015.205.136.045.12.242-.023.257.106.053.106.228-.038.25.068.076.023.197-.06.228.007.045-.023.09-.076.113.03.061.015.114-.023.152-.007.046-.038.068-.068.091a.13.13 0 0 1-.128.099.13.13 0 0 1-.129-.13c-.106-.06-.083-.174 0-.227-.113-.045-.129-.166-.053-.22a.15.15 0 0 1-.03-.09c-.06-.038-.083-.107-.053-.16-.121-.03-.136-.151-.083-.212-.091-.068-.053-.197.03-.227-.015-.076.045-.137.113-.144a.12.12 0 0 1 .121.053c.038-.023.106-.008.144.038.03-.023.09-.046.144-.015zm.075-2.653c.053-.084.13-.099.197-.061.06.03.09.136.015.205.136.045.121.242-.022.257.105.053.105.228-.038.25.068.076.022.198-.06.228.007.045-.023.09-.076.114.03.06.015.113-.023.151-.008.046-.038.068-.068.091a.13.13 0 0 1-.129.099.13.13 0 0 1-.128-.13c-.106-.06-.084-.174 0-.227-.114-.045-.129-.166-.053-.22a.15.15 0 0 1-.03-.09c-.061-.038-.084-.107-.053-.16-.121-.03-.137-.151-.084-.212-.09-.068-.053-.197.03-.227-.015-.076.046-.137.114-.144a.12.12 0 0 1 .121.053c.038-.023.106-.008.144.038.03-.023.09-.046.143-.015zm-2.261.773c-.053-.084-.129-.099-.197-.06-.06.03-.09.136-.015.204-.136.045-.12.242.023.257-.106.053-.106.228.038.25-.068.076-.023.198.06.228-.007.045.023.09.076.114a.124.124 0 0 0 .022.151c.008.046.038.069.069.091.015.053.06.099.128.099a.13.13 0 0 0 .129-.13c.106-.06.083-.173 0-.226.113-.046.128-.167.053-.22q.031-.045.03-.091c.06-.038.083-.106.053-.16.12-.03.136-.151.083-.212.09-.068.053-.197-.03-.227.015-.076-.046-.137-.114-.144a.12.12 0 0 0-.12.053c-.038-.023-.107-.008-.144.038-.03-.023-.091-.046-.144-.015zM20.38 15.468c-.054-.084-.13-.099-.197-.061-.06.03-.091.136-.016.205-.136.045-.12.242.023.257-.106.053-.106.228.038.25-.068.076-.023.197.06.228-.007.045.023.09.076.113a.124.124 0 0 0 .023.152c.007.046.038.068.068.091.015.053.06.099.128.099a.13.13 0 0 0 .129-.13c.106-.06.083-.174 0-.227.113-.045.129-.166.053-.22.023-.03.03-.06.03-.09.06-.038.083-.107.053-.16.121-.03.136-.151.083-.212.091-.068.053-.197-.03-.227.015-.076-.045-.137-.113-.144a.12.12 0 0 0-.121.053c-.038-.023-.106-.008-.144.038-.03-.023-.09-.046-.144-.015zm-.076-2.653c-.053-.084-.129-.099-.197-.061-.06.03-.09.136-.015.205-.136.045-.121.242.022.257-.105.053-.105.228.038.25-.068.076-.022.198.06.228-.007.045.024.09.076.114a.124.124 0 0 0 .023.151c.008.046.038.068.068.091.015.053.06.099.129.099a.13.13 0 0 0 .128-.13c.106-.06.084-.174 0-.227.114-.045.129-.166.053-.22.023-.03.03-.06.03-.09.061-.038.084-.107.054-.16.12-.03.136-.151.083-.212.09-.068.053-.197-.03-.227.015-.076-.046-.137-.114-.144a.12.12 0 0 0-.121.053c-.038-.023-.106-.008-.144.038-.03-.023-.09-.046-.143-.015zm2.261.773c.053-.084.129-.099.197-.06.06.03.09.136.015.204.136.045.121.242-.023.257.106.053.106.228-.038.25.069.076.023.198-.06.228.008.045-.023.09-.076.114.03.06.015.113-.022.151-.008.046-.038.069-.068.091a.13.13 0 0 1-.129.099.13.13 0 0 1-.129-.13c-.106-.06-.083-.173 0-.226-.113-.046-.128-.167-.053-.22a.15.15 0 0 1-.03-.091c-.06-.038-.083-.106-.053-.16-.12-.03-.136-.151-.083-.212-.09-.068-.053-.197.03-.227-.015-.076.046-.137.114-.144a.12.12 0 0 1 .12.053c.039-.023.107-.008.144.038.03-.023.091-.046.144-.015z" style="fill:#b400b4;fill-opacity:1;stroke:#000;stroke-width:.0227155;stroke-opacity:1"/><path d="M15.697 16.529c-.03.113.053.227.144.204a.136.136 0 0 1-.235-.06c-.022-.038.016-.13.091-.144zm.091-.099c-.03.099.076.182.166.167-.06.076-.204.053-.234-.053-.023-.038-.008-.106.068-.114zm.083-.212c-.03.106.053.22.144.197a.134.134 0 0 1-.235-.053c-.022-.046.008-.136.091-.144zm-.242-.212c-.038.106.053.22.144.197-.068.09-.204.06-.242-.053-.015-.046.015-.13.098-.144zm.167-.099c-.03.114.053.228.15.197-.067.084-.21.06-.241-.045-.023-.046.015-.137.09-.152zm-.22-.136c-.038.113.053.19.144.166-.068.091-.204.061-.242-.053-.015-.045.015-.098.098-.113zm.37-.008c-.037.106.054.212.145.197-.069.084-.205.06-.242-.053-.016-.045.015-.136.098-.144zm-.203-.144c-.03.114.015.205.106.19-.061.083-.167.068-.197-.038-.015-.053.015-.137.09-.152zm-.31-.083c-.03.113.052.227.15.204-.067.084-.211.053-.241-.053-.023-.045.015-.136.09-.151zm.075-.137c-.03.114.053.22.144.205a.134.134 0 0 1-.235-.053c-.022-.046.008-.144.091-.152zm.348.06c-.03.107.053.22.144.206-.06.083-.204.053-.235-.053-.022-.046.015-.144.091-.152zm.182-.067c-.038.113.053.22.143.204a.134.134 0 0 1-.234-.053c-.023-.045.007-.136.09-.151zm-.265-1.516c-.03.113.053.227.144.204a.136.136 0 0 1-.235-.06c-.023-.038.015-.13.09-.144zm.09-.099c-.03.099.076.182.167.167-.06.076-.204.053-.234-.053-.023-.038-.008-.106.068-.114zm.084-.212c-.03.106.053.22.144.197a.134.134 0 0 1-.235-.053c-.023-.045.008-.136.09-.144zm-.242-.212c-.038.106.053.22.144.197-.069.09-.205.06-.243-.053-.015-.046.016-.13.099-.144zm.166-.099c-.03.114.053.228.151.197-.068.084-.211.06-.242-.045-.022-.046.016-.137.091-.152zm-.22-.136c-.037.113.054.19.145.167-.068.09-.205.06-.242-.054-.016-.045.015-.098.098-.113zm.371-.008c-.037.106.053.212.144.197-.068.084-.204.06-.242-.053-.015-.045.015-.136.098-.144zm-.204-.144c-.03.114.015.205.106.19-.06.083-.166.068-.197-.038-.015-.053.016-.137.091-.152zm-.31-.083c-.03.113.053.227.151.204-.068.084-.211.053-.242-.053-.022-.045.016-.136.091-.151zm.076-.137c-.03.114.053.22.143.205a.134.134 0 0 1-.234-.053c-.023-.046.008-.144.09-.152zm.348.061c-.03.106.053.22.143.205-.06.083-.204.053-.234-.053-.023-.046.015-.144.09-.152zm.181-.068c-.038.113.053.22.144.204a.134.134 0 0 1-.235-.053c-.022-.045.008-.136.091-.151zm-2.102 1.91c.03.114-.053.227-.144.205.06.075.204.06.234-.061.023-.038-.015-.129-.09-.144zm-.091-.099c.03.099-.076.182-.167.167.06.076.205.053.235-.053.023-.038.007-.106-.068-.114zm-.083-.212c.03.106-.053.22-.144.197.068.084.204.06.234-.053.023-.045-.007-.136-.09-.144zm.242-.212c.037.106-.053.22-.144.197.068.09.204.06.242-.053.015-.046-.015-.129-.098-.144zm-.167-.099c.03.114-.053.228-.151.197.068.084.212.061.242-.045.023-.046-.015-.137-.09-.152zm.22-.136c.037.114-.053.19-.144.167.068.09.204.06.242-.053.015-.046-.015-.099-.098-.114zm-.371-.008c.038.106-.053.213-.144.197.068.084.204.061.242-.053.015-.045-.015-.136-.098-.144zm.204-.144c.03.114-.015.205-.106.19.06.083.167.068.197-.038.015-.053-.015-.137-.09-.152zm.31-.083c.03.114-.053.227-.151.205.068.083.212.053.242-.054.023-.045-.015-.136-.09-.151zm-.075-.137c.03.114-.053.22-.144.205.068.083.204.06.234-.053.023-.045-.007-.144-.09-.152zm-.348.061c.03.106-.053.22-.144.205.06.083.204.053.234-.053.023-.046-.015-.144-.09-.152zm-.182-.068c.038.114-.053.22-.144.204.069.084.205.061.235-.053.023-.045-.008-.136-.09-.151z" style="fill:#642864;fill-opacity:1;stroke:#000;stroke-width:.0227155;stroke-opacity:1"/><path d="M10.63 17.461c.158.03.31.053.446-.008-.711 1.577.408 2.873 1.89 3.586-.067.113-.135.197-.204.295-1.467-.66-2.896-2.069-2.132-3.873m4.818 4.753h-.326v.401c.643.781 2.39.85 2.882 1.774.749-.993 2.353-1.114 3.29-1.88v-.212h-.514c-.59.697-2.072.713-2.776 1.554-.907-1.046-2.057-.713-2.556-1.637m9.47-4.973c.158.008.317-.007.476.023.9 2.009-.197 3.115-1.906 4.063a3 3 0 0 0-.325-.334c1.233-.333 2.95-1.743 1.755-3.752m-.34-1.804-.341.296c-1.868-2.168-.348-5.336 2.042-4.988.227.03.408.53.318.5-2.769-1.136-3.29 3.025-2.02 4.192m-5.62-6.473c.022.152.128.243.226.212.106-.038.136-.22.114-.326-.016-.136-.121-.34-.295-.34-.152 0-.34.174-.348.4-.008.175-.008.365-.015.547.325.94 1.543 1.538 2.533 1.53 1.074-.007 2.512-.704 2.39-2.41-.09-.083-.173-.174-.257-.257.205 1.41-1.15 2.266-2.14 2.243-.825-.022-2.337-.636-2.209-1.599m-1.294-.205c.007.28-.008.44-.083.713-.28.583-.696 1.38-2.42 1.455-1.861.076-2.762-1.425-2.535-2.54a1 1 0 0 1 .363-.204c-.325 1.122.787 2.327 2.209 2.327 1.006 0 2.178-.849 2.042-1.523-.393 0-.438-.607.106-.6.272 0 .325.228.318.372M10.1 10.412c3.101.614 3.154 3.486 1.921 5.162a17 17 0 0 0-.317-.38c1.217-1.417.658-4.024-1.922-4.6zm12.601-.91c.22-.265.303-.349.31-.56.008-.122-.03-.44-.15-.44-.13 0-.175.25-.19.371-.015.16.19.356.03.63m3.117 1.91c.257.068.4-.076.537.015.09.061.106.137.068.198-.038.075-.152.113-.235.09-.159-.045-.212-.197-.37-.303M13.504 9.343c-.152-.205-.257-.432-.265-.606-.008-.144.083-.372.197-.319.106.038.204.258.143.44-.053.19-.105.333-.075.485m-2.761 1.91c-.303-.151-.469-.265-.719-.235-.15.015-.31.167-.28.326.03.16.243.243.394.19.227-.061.31-.228.605-.28" style="fill:#ffd312;fill-opacity:1;stroke:none;stroke-width:.0850079;stroke-miterlimit:4;stroke-dasharray:none"/><path d="M20.629 16.529c.03.113-.053.227-.144.204.06.076.204.061.235-.06.022-.038-.016-.13-.091-.144zm-.09-.099c.03.099-.077.182-.167.167.06.076.204.053.234-.053.023-.038.008-.106-.068-.114zm-.084-.212c.03.106-.053.22-.144.197.068.083.204.06.235-.053.022-.046-.008-.136-.091-.144zm.242-.212c.038.106-.053.22-.144.197.068.09.204.06.242-.053.015-.046-.015-.13-.098-.144zm-.166-.099c.03.114-.053.228-.152.197.068.084.212.06.242-.045.023-.046-.015-.137-.09-.152zm.219-.136c.038.113-.053.19-.144.166.068.091.204.061.242-.053.015-.045-.015-.098-.098-.113zm-.37-.008c.037.106-.054.212-.144.197.068.084.204.06.242-.053.015-.045-.016-.136-.099-.144zm.203-.144c.03.114-.015.205-.105.19.06.083.166.068.196-.038.015-.053-.015-.137-.09-.152zm.31-.083c.03.113-.052.227-.15.204.067.084.211.053.241-.053.023-.045-.015-.136-.09-.151zm-.075-.137c.03.114-.053.22-.144.205.068.083.204.06.235-.053.022-.046-.008-.144-.091-.152zm-.348.06c.03.107-.053.22-.144.206.06.083.205.053.235-.053.022-.046-.015-.144-.091-.152zm-.182-.067c.038.113-.052.22-.143.204.068.084.204.061.234-.053.023-.045-.007-.136-.09-.151zm.265-1.516c.03.113-.053.227-.144.204.061.076.205.061.235-.06.023-.038-.015-.13-.09-.144zm-.09-.099c.03.099-.076.182-.167.167.06.076.204.053.235-.053.022-.038.007-.106-.069-.114zm-.084-.212c.03.106-.053.22-.143.197.068.083.204.06.234-.053.023-.045-.008-.136-.09-.144zm.242-.212c.038.106-.053.22-.143.197.068.09.204.06.242-.053.015-.046-.016-.13-.099-.144zm-.166-.099c.03.114-.053.228-.151.197.068.084.211.06.242-.045.022-.046-.015-.137-.091-.152zm.22-.136c.037.113-.054.19-.144.167.068.09.204.06.242-.054.015-.045-.016-.098-.099-.113zm-.371-.008c.037.106-.053.212-.144.197.068.084.204.06.242-.053.015-.045-.015-.136-.098-.144zm.204-.144c.03.114-.015.205-.106.19.06.083.166.068.197-.038.015-.053-.016-.137-.091-.152zm.31-.083c.03.113-.053.227-.151.204.068.084.211.053.242-.053.022-.045-.015-.136-.091-.151zm-.076-.137c.03.114-.053.22-.143.205.068.083.204.06.234-.053.023-.046-.008-.144-.09-.152zm-.348.06c.03.107-.053.22-.143.206.06.083.204.053.234-.053.023-.046-.015-.144-.09-.152zm-.181-.067c.038.113-.053.22-.144.204.068.084.204.061.235-.053.022-.045-.008-.136-.091-.151zm2.103 1.91c-.03.114.053.227.143.205a.136.136 0 0 1-.234-.061c-.023-.038.015-.129.09-.144zm.09-.099c-.03.099.076.182.167.167-.06.076-.204.053-.235-.053-.022-.038-.007-.106.068-.114zm.084-.212c-.03.106.052.22.143.197a.134.134 0 0 1-.234-.053c-.023-.045.007-.136.09-.144zm-.243-.212c-.037.106.053.22.144.197-.068.09-.204.06-.242-.053-.015-.046.015-.129.098-.144zm.167-.099c-.03.114.053.228.151.197-.068.084-.212.061-.242-.045-.023-.046.015-.137.09-.152zm-.22-.136c-.037.114.053.19.144.167-.068.09-.204.06-.242-.053-.015-.046.015-.099.099-.114zm.371-.008c-.038.106.053.213.144.197-.068.084-.204.061-.242-.053-.015-.045.015-.136.098-.144zm-.204-.144c-.03.114.015.205.106.19-.06.083-.167.068-.197-.038-.015-.053.015-.137.091-.152zm-.31-.083c-.03.114.053.227.151.205-.068.083-.212.053-.242-.054-.023-.045.015-.136.09-.151zm.075-.137c-.03.114.053.22.144.205a.134.134 0 0 1-.234-.053c-.023-.045.007-.144.09-.152zm.348.061c-.03.106.053.22.144.205-.06.083-.204.053-.234-.053-.023-.046.015-.144.09-.152zm.182-.068c-.038.114.053.22.144.204a.134.134 0 0 1-.235-.053c-.023-.045.008-.136.09-.151z" style="fill:#642864;fill-opacity:1;stroke:#000;stroke-width:.0227155;stroke-opacity:1"/><path d="M17.724 20.781c.046-.144.152-.152.152-.356v-4.32c0-.061.053-.107.113-.107s.129.046.129.106v4.32c.06.205-.038.32.136.327.446.03.93.06 1.346.182.046.038.038.075 0 .113h-2.806a.14.14 0 0 1 .053-.166c.461-.137.862-.038.877-.099zm3.223-3.54c.052-.159.166-.167.166-.386v-4.776c0-.068.053-.113.12-.113.069 0 .137.053.137.12q-.002 2.38.008 4.769c.06.22-.053.348.136.356.484.03 1.013.06 1.452.197.053.038.038.083 0 .129h-3.025a.16.16 0 0 1 .06-.19c.5-.151.923-.038.946-.106zm-5.598 0c-.053-.159-.166-.167-.166-.386v-4.776c0-.068-.053-.113-.121-.113a.12.12 0 0 0-.121.12c0 1.585 0 3.177-.008 4.769-.06.22.038.348-.136.356-.484.03-1.013.06-1.452.197-.053.038-.038.083 0 .129h3.01a.16.16 0 0 0-.06-.19c-.5-.151-.923-.038-.946-.106z" style="fill:#961e1d;fill-opacity:1;stroke:#000;stroke-width:.0850079;stroke-miterlimit:4;stroke-dasharray:none"/><path d="M17.58 16.059c.061.113.122.167.258.167.181 0 .454.128.567.235.159.136.318.401.363.613.023.122.008.243-.068.311-.174.16-.386.258-.567.387-.19.129-.386.288-.5.515-.083.16-.045.356.03.5.145.273.44.5.674.766.045.046.182-.008.204.068.114.334.038.622.106.97.038.213.325.213.454.273-.257-.015-.545-.03-.772-.136.061-.053.091-.099.091-.205 0-.242-.098-.606-.227-.727-.189-.197-.43-.432-.612-.637-.144-.152-.22-.25-.25-.425-.053-.257.038-.47.182-.69.189-.287.574-.439.854-.62.068-.046.16-.228.16-.365-.008-.212-.22-.447-.326-.47-.136-.022-.431.008-.567-.03-.046-.015-.008-.076-.076-.076-.076-.007-.129.046-.159.121.008-.06-.083-.09-.174-.068a.54.54 0 0 1 .393-.212c.016-.083-.068-.167-.143-.22.075.03.106.015.106-.045zm3.208-4.04c.068.12.128.182.272.182.197 0 .5.151.62.257.167.16.333.448.386.683.023.128.008.265-.076.34-.181.175-.408.289-.605.425-.204.144-.423.318-.544.569-.084.174-.046.394.037.553.16.303.47.553.719.841.053.06.197 0 .227.084.12.363.038.682.106 1.068.045.235.363.235.499.296-.28-.015-.59-.03-.84-.144.069-.06.106-.114.106-.227 0-.273-.113-.675-.242-.811-.211-.213-.469-.47-.665-.698-.16-.167-.235-.273-.273-.462-.053-.288.046-.523.205-.766.196-.318.612-.485.915-.682.075-.053.174-.258.166-.402 0-.235-.227-.5-.34-.515-.151-.03-.47 0-.62-.038-.046-.015-.008-.083-.084-.083-.075-.008-.128.053-.166.128.008-.06-.09-.09-.19-.068.114-.159.25-.212.424-.242.016-.084-.075-.182-.158-.235.083.03.12.015.12-.053zm-5.265 0c-.068.12-.128.182-.272.182-.197 0-.5.151-.62.257a1.53 1.53 0 0 0-.386.683c-.023.128-.008.265.076.34.181.175.408.289.605.425.204.144.423.318.544.569.084.174.046.394-.037.553-.16.303-.47.553-.719.841-.053.06-.197 0-.227.084-.121.363-.038.682-.106 1.068-.045.235-.363.235-.499.296.28-.015.59-.03.84-.144-.069-.06-.106-.114-.106-.227 0-.273.113-.675.242-.811.211-.213.469-.47.665-.698.144-.167.22-.273.257-.462.053-.288-.045-.523-.189-.766-.196-.318-.612-.485-.915-.682-.076-.053-.174-.258-.166-.402 0-.235.227-.5.34-.515.151-.03.47 0 .62-.038.046-.015.008-.083.084-.083.06-.008.113.053.15.128-.007-.06.092-.09.19-.068-.114-.159-.25-.212-.409-.242-.015-.084.076-.182.144-.235-.068.03-.106.015-.106-.053z" style="fill:#961e1d;fill-opacity:1;stroke:#000;stroke-width:.0850079;stroke-miterlimit:4;stroke-dasharray:none"/><path d="M17.074 19.356c-.053-.083-.129-.099-.197-.06-.06.03-.09.136-.015.204-.136.046-.121.243.023.258-.106.053-.106.227.038.25-.068.076-.023.197.06.227-.008.046.023.091.076.114a.124.124 0 0 0 .022.152c.008.045.038.068.068.09.016.054.061.099.13.099a.13.13 0 0 0 .128-.129c.106-.06.083-.174 0-.227.113-.046.128-.167.053-.22q.031-.045.03-.091c.06-.038.083-.106.053-.16.12-.03.136-.15.083-.211.09-.069.053-.197-.03-.228.015-.076-.046-.136-.114-.144a.12.12 0 0 0-.12.053c-.039-.022-.107-.007-.144.038-.03-.023-.091-.045-.144-.015zm-.076-2.653c-.053-.083-.128-.099-.196-.06-.061.03-.091.136-.016.204-.136.046-.12.243.023.258-.106.053-.106.227.038.25-.068.076-.023.197.06.227-.007.046.023.091.076.114a.124.124 0 0 0 .023.152c.007.045.038.068.068.09.015.054.06.1.128.1a.13.13 0 0 0 .129-.13c.106-.06.083-.174 0-.227.113-.046.129-.167.053-.22.023-.03.03-.06.03-.09.06-.039.083-.107.053-.16.121-.03.136-.152.083-.212.091-.069.053-.197-.03-.228.015-.076-.045-.136-.113-.144a.12.12 0 0 0-.121.053c-.038-.022-.106-.007-.144.038-.03-.023-.09-.045-.144-.015zm2.262.773c.053-.083.128-.098.196-.06.061.03.091.136.016.204.136.046.12.243-.023.258.106.053.106.227-.038.25.068.076.023.197-.06.227.007.046-.023.091-.076.114.03.06.015.114-.023.152-.007.045-.038.068-.068.09a.13.13 0 0 1-.128.1.13.13 0 0 1-.129-.13c-.106-.06-.083-.174 0-.227-.113-.045-.129-.167-.053-.22a.15.15 0 0 1-.03-.09c-.06-.039-.083-.107-.053-.16-.121-.03-.136-.152-.083-.212-.091-.068-.053-.197.03-.228-.015-.075.045-.136.113-.144a.12.12 0 0 1 .121.053c.038-.022.106-.007.144.038.03-.022.09-.045.144-.015z" style="fill:#b400b4;fill-opacity:1;stroke:#000;stroke-width:.0227155;stroke-opacity:1"/><path d="M17.323 20.414c.03.114-.052.227-.143.205.06.075.204.06.234-.061.023-.038-.015-.129-.09-.144zm-.09-.099c.03.099-.076.182-.167.167.06.076.205.053.235-.053.022-.038.007-.106-.068-.114zm-.084-.212c.03.106-.052.22-.143.197.068.084.204.06.234-.053.023-.045-.007-.136-.09-.144zm.243-.212c.037.106-.053.22-.144.197.068.091.204.06.242-.053.015-.046-.015-.129-.098-.144zm-.167-.099c.03.114-.053.228-.151.198.068.083.212.06.242-.046.023-.045-.015-.136-.09-.152zm.22-.136c.037.114-.053.19-.144.167.068.09.204.06.242-.053.015-.046-.015-.099-.099-.114zm-.371-.008c.038.106-.053.213-.144.197.068.084.204.061.242-.053.015-.045-.015-.136-.098-.144zm.204-.144c.03.114-.015.205-.106.19.06.083.167.068.197-.038.015-.053-.015-.136-.09-.152zm.31-.083c.03.114-.053.227-.151.205.068.083.212.053.242-.053.023-.046-.015-.137-.09-.152zm-.075-.136c.03.113-.053.22-.144.204.068.084.204.06.234-.053.023-.045-.007-.144-.09-.151zm-.348.06c.03.106-.053.22-.144.205.06.083.204.053.234-.053.023-.046-.015-.144-.09-.152zm-.182-.068c.038.114-.053.22-.144.205.068.083.205.06.235-.053.023-.046-.008-.137-.09-.152zm.265-1.516c.03.114-.053.227-.144.205.06.075.204.06.235-.061.022-.038-.016-.129-.091-.144zm-.09-.099c.03.099-.077.182-.167.167.06.076.204.053.234-.053.023-.038.008-.106-.068-.114zm-.084-.212c.03.106-.053.22-.144.197.068.084.204.061.235-.053.022-.045-.008-.136-.091-.144zm.242-.212c.038.106-.053.22-.144.197.068.091.204.06.242-.053.015-.045-.015-.129-.098-.144zm-.167-.099c.03.114-.052.228-.15.198.067.083.211.06.241-.046.023-.045-.015-.136-.09-.152zm.22-.136c.038.114-.053.19-.144.167.068.09.204.06.242-.053.015-.046-.015-.099-.098-.114zm-.37-.008c.037.107-.054.213-.144.197.068.084.204.061.242-.053.015-.045-.016-.136-.099-.144zm.203-.144c.03.114-.015.205-.105.19.06.083.166.068.196-.038.015-.053-.015-.136-.09-.152zm.31-.083c.03.114-.052.227-.15.205.067.083.211.053.241-.053.023-.046-.015-.137-.09-.152zm-.075-.136c.03.113-.053.22-.144.204.068.084.204.06.235-.053.022-.045-.008-.144-.091-.151zm-.348.06c.03.106-.053.22-.144.205.06.083.204.053.235-.053.022-.046-.015-.144-.091-.152zm-.182-.068c.038.114-.053.22-.143.205.068.083.204.06.234-.053.023-.046-.007-.137-.09-.152zm2.103 1.91c-.03.114.053.228.144.205a.136.136 0 0 1-.235-.06c-.022-.039.016-.13.091-.145zm.091-.098c-.03.098.076.182.166.166-.06.076-.204.053-.234-.053-.023-.038-.008-.106.068-.113zm.083-.213c-.03.106.053.22.144.197a.134.134 0 0 1-.235-.053c-.022-.045.008-.136.091-.144zm-.242-.212c-.038.106.053.22.144.197-.068.091-.204.06-.242-.053-.015-.045.015-.129.098-.144zm.167-.098c-.03.113.052.227.15.197-.067.083-.211.06-.241-.046-.023-.045.015-.136.09-.151zm-.22-.137c-.038.114.053.19.144.167-.068.09-.204.06-.242-.053-.015-.046.015-.099.098-.114zm.37-.007c-.037.106.054.212.145.197-.069.083-.205.06-.243-.053-.015-.046.016-.137.099-.144zm-.203-.144c-.03.113.015.204.105.189-.06.083-.166.068-.196-.038-.015-.053.015-.136.09-.151zm-.31-.084c-.03.114.052.228.15.205-.067.083-.211.053-.241-.053-.023-.046.015-.137.09-.152zm.075-.136c-.03.113.053.22.144.204a.134.134 0 0 1-.235-.053c-.022-.045.008-.144.091-.151zm.348.06c-.03.106.053.22.144.205-.06.083-.204.053-.235-.053-.022-.046.015-.144.091-.152zm.182-.068c-.038.114.053.22.143.205a.134.134 0 0 1-.234-.053c-.023-.046.007-.137.09-.152z" style="fill:#642864;fill-opacity:1;stroke:#000;stroke-width:.0227155;stroke-opacity:1"/><path d="M15.289 12.246c.09-.106.204-.174.31-.144-.121-.174-.227-.614-.159-.834.038.099.06.122.129.106.015-.09.106-.128.181-.151.038.045.06.129.015.227.03-.068.121-.106.182-.023a.27.27 0 0 1-.023.342c.136.053.34-.038.409-.273.075.075.075.106.03.197.083-.068.227-.023.325.068 0 .114-.106.265-.197.265.069.008.106.053.114.152-.19-.076-.34-.03-.484.09.166.054.196.13.227.22-.008.084-.083.114-.144.114.076 0 .113.053.121.16-.076.045-.144.015-.212-.03-.045.052-.022.09-.015.181-.22-.068-.386-.417-.454-.674-.113-.038-.22.015-.302.128-.038.046-.099-.06-.053-.12zm-.711.288c-.038-.114-.121-.212-.235-.205.167-.128.401-.485.394-.69-.06.076-.084.084-.144.054.015-.091-.045-.144-.106-.19-.053.03-.098.099-.09.197 0-.068-.076-.129-.152-.075a.26.26 0 0 0-.083.31c-.136.008-.295-.129-.28-.356-.09.038-.106.06-.083.16-.053-.084-.204-.084-.31-.039-.038.114.007.273.09.296-.06-.008-.105.015-.143.098.189-.007.302.069.4.228-.158-.008-.219.045-.264.121-.015.084.038.121.098.152-.068-.023-.12 0-.159.09.053.069.121.061.197.039.023.06-.008.09-.045.166.227.008.469-.257.605-.462.113 0 .189.076.234.205.015.045.099-.03.076-.099zm.257 3.373a.38.38 0 0 0-.356-.068c.121-.19.197-.614.091-.788-.022.09-.053.106-.128.113-.03-.075-.129-.098-.212-.106-.046.053-.06.137 0 .22-.038-.06-.144-.076-.204.008-.046.083-.076.212.053.31a.36.36 0 0 1-.477-.174c-.083.083-.083.114-.007.19-.106-.046-.265.03-.364.12.016.115.137.228.25.213-.076.023-.121.068-.121.16a.55.55 0 0 1 .552-.008c-.174.075-.212.151-.22.242.016.076.092.084.175.076-.083.015-.129.068-.121.167.083.03.159-.008.234-.076.046.045.03.083.023.182.25-.114.393-.462.439-.72.128-.053.242-.023.355.068.046.03.106-.083.038-.129zm.787-1.114c.098.053.219.09.302.03-.06.19-.053.584.068.75 0-.09.015-.105.083-.113.038.076.121.083.19.083.03-.045.03-.136-.03-.197.045.053.128.06.166-.022.022-.084.022-.213-.099-.289.099-.075.303-.053.416.13.046-.076.053-.1-.015-.167.091.037.212-.038.265-.137-.023-.106-.144-.205-.235-.182.061-.023.084-.06.069-.144-.152.099-.288.099-.447.03.129-.075.144-.151.136-.242-.022-.068-.09-.068-.158-.06.068-.016.098-.061.083-.167-.083-.016-.136.022-.174.083-.068-.038-.06-.076-.068-.16-.182.122-.235.456-.235.69-.09.061-.204.038-.302-.03-.046-.045-.068.068-.015.114zm2.178 1.47c-.083-.098-.19-.159-.287-.128.113-.16.211-.561.143-.758-.03.09-.053.106-.113.098-.023-.083-.099-.121-.167-.144-.037.046-.06.121-.015.212-.03-.06-.113-.098-.166-.022-.053.068-.083.19.015.31-.129.046-.318-.038-.378-.25-.068.068-.076.099-.023.182-.076-.06-.22-.023-.302.06 0 .1.09.243.181.243-.068.008-.098.046-.106.137.174-.068.31-.03.446.083-.15.046-.181.114-.211.197.007.076.075.099.136.106-.068-.007-.106.046-.114.137.068.045.129.023.197-.023.038.046.023.083.008.167.211-.06.363-.38.43-.614.1-.038.197.015.28.114.03.045.091-.054.046-.107zm.658.258c.038-.098.113-.19.22-.182-.152-.121-.371-.44-.371-.629.06.068.083.076.136.053-.015-.083.045-.136.106-.174.045.03.09.09.075.182.008-.068.069-.122.144-.068.06.045.136.144.076.28.128.008.272-.121.257-.326.09.038.098.053.083.144.046-.076.182-.076.28-.03.038.098 0 .242-.083.265.06-.008.106.015.136.091-.174-.008-.28.06-.37.205.15-.008.196.038.241.113.016.069-.03.106-.09.13.06-.016.113.007.15.09-.052.053-.113.053-.18.03-.023.054 0 .084.037.152-.204.008-.43-.235-.56-.417-.105 0-.174.068-.211.182-.015.046-.099-.03-.076-.09zm-.242 3.062c.098-.068.22-.106.333-.06-.114-.175-.182-.561-.083-.72.022.083.045.098.113.106.03-.068.121-.091.204-.099a.16.16 0 0 1 0 .197c.03-.053.129-.068.182.008s.075.197-.046.288c.137.06.356.03.44-.16.082.077.082.1.014.168.099-.038.242.03.333.113-.015.106-.129.205-.234.19.075.022.113.06.113.144a.56.56 0 0 0-.514-.008c.166.068.196.137.211.22-.015.068-.09.076-.166.076.076.007.121.06.114.144-.076.03-.144 0-.212-.06-.053.037-.038.067-.03.158-.227-.106-.356-.417-.401-.651-.121-.046-.227-.023-.333.06-.038.03-.091-.076-.038-.114zm-.726-1.015c-.09.053-.204.09-.28.03.053.174.053.53-.06.682-.008-.083-.016-.098-.076-.106-.038.068-.114.076-.182.076-.022-.038-.022-.121.03-.174-.037.045-.12.053-.15-.023-.023-.076-.023-.19.09-.265-.098-.069-.28-.046-.386.12-.045-.067-.045-.09.015-.15-.083.037-.196-.039-.25-.13.024-.09.137-.182.22-.159-.053-.023-.083-.06-.06-.136.136.09.264.09.408.03-.12-.068-.136-.136-.128-.212.03-.068.083-.068.15-.06-.067-.016-.09-.061-.082-.152.083-.016.128.022.166.075.06-.03.06-.068.06-.144.167.106.22.41.22.622.083.06.189.038.287-.023.038-.038.053.06.008.099zm3.532-6.322c-.09-.106-.204-.174-.31-.144.121-.174.227-.614.159-.834-.038.099-.06.122-.129.106-.015-.09-.106-.128-.181-.151-.038.045-.06.129-.015.227-.03-.068-.121-.106-.182-.023a.27.27 0 0 0 .023.342c-.136.053-.34-.038-.409-.273-.075.075-.075.106-.03.197-.083-.068-.227-.023-.325.068 0 .114.106.265.197.265-.069.008-.106.053-.114.152.19-.076.34-.03.484.09-.166.054-.197.13-.227.22.008.084.083.114.144.114q-.112 0-.121.16c.076.045.144.015.212-.03.045.052.022.09.015.181.22-.068.386-.417.454-.674.113-.038.219.015.302.128.038.046.099-.06.053-.12zm.711.288c.038-.114.121-.212.235-.205-.167-.128-.401-.485-.394-.69.06.076.084.084.144.054-.015-.091.045-.144.106-.19.053.03.098.099.09.197 0-.068.076-.129.152-.075a.26.26 0 0 1 .083.31c.136.008.295-.129.28-.356.09.038.106.06.083.16.053-.084.204-.084.31-.039.038.114-.007.273-.09.296.06-.008.105.015.143.098-.189-.007-.302.069-.4.228.158-.008.219.045.264.121.015.084-.038.121-.098.152.068-.023.12 0 .159.09-.053.069-.121.061-.197.039-.023.06.008.09.045.166-.227.008-.469-.257-.605-.462-.113 0-.189.076-.234.205-.015.045-.099-.03-.076-.099zm-.257 3.373a.38.38 0 0 1 .355-.068c-.12-.19-.196-.614-.09-.788.022.09.053.106.128.113.03-.075.129-.098.212-.106.045.053.06.137 0 .22.038-.06.144-.076.204.008.046.083.076.212-.053.31a.36.36 0 0 0 .477-.174c.083.083.083.114.007.19.106-.046.265.03.364.12-.016.115-.137.228-.25.213.076.023.121.068.121.16a.55.55 0 0 0-.552-.008c.174.075.212.151.22.242-.016.076-.092.084-.175.076.083.015.129.068.121.167-.083.03-.159-.008-.234-.076-.046.045-.03.083-.023.182-.25-.114-.393-.462-.439-.72-.128-.053-.242-.023-.355.068-.046.03-.106-.083-.038-.129zm-.787-1.114c-.098.053-.219.09-.302.03.06.19.053.584-.068.75 0-.09-.015-.105-.083-.113-.038.076-.121.083-.19.083-.03-.045-.03-.136.03-.197-.045.053-.128.06-.166-.022-.022-.084-.022-.213.099-.289-.099-.075-.303-.053-.416.13-.046-.076-.053-.1.015-.167-.091.037-.212-.038-.265-.137.023-.106.144-.205.234-.182-.06-.023-.083-.06-.068-.144.152.099.288.099.447.03-.129-.075-.144-.151-.136-.242.022-.068.09-.068.158-.06-.068-.016-.098-.061-.083-.167.083-.016.136.022.174.083.068-.038.06-.076.068-.16.182.122.235.456.235.69.09.061.204.038.302-.03.046-.045.068.068.015.114z" style="fill:#129612;fill-opacity:1;stroke:#000;stroke-width:.0850079;stroke-miterlimit:4;stroke-dasharray:none"/><path d="M13.544 20.903c-.01.004-.064.012-.117.02-.122.017-.156.018-.197.157a.7.7 0 0 1-.098.193c-.06.078-.115.232-.1.302.012.07.091.094.231.063.179-.037.223-.056.231-.014.008.041-.1.13-.23.226-.12.089-.155.176-.174.377-.006.085-.02.213-.038.296a1.3 1.3 0 0 0-.031.203c.016.041.274.065.439.038.259-.041.395-.17.422-.377a.74.74 0 0 1 .165-.38c.074-.077.083-.065.14-.007.054.054.03.046-.034.361-.061.307-.04.434.069.525.088.074.193.064.226-.031.014-.042.07-.151.116-.215.12-.158.145-.272.069-.444-.054-.122-.084-.143-.036-.143.012 0 .029.024.084.082a.6.6 0 0 0 .19.122c.135 0 .145-.605.015-.688-.066-.042-.088.014-.088.222 0 .149.02.19-.003.19-.031 0-.039-.036-.067-.131-.025-.088-.139-.127-.22-.06l-.08.065.011.324c.013.245.022.225-.005.225-.043 0-.032-.03-.05-.291a1.2 1.2 0 0 0-.04-.273.3.3 0 0 0-.114-.1.27.27 0 0 0-.204-.014c-.181.05-.367.241-.476.461-.06.12-.058.15-.104.13-.028-.01-.028 0 0-.07.05-.118.173-.264.342-.447.193-.212.19-.253.16-.359-.037-.126-.065-.177-.244-.202-.103-.014-.211-.009-.211-.027 0-.048.049-.06.242-.06.179 0 .195-.005.232-.05a.3.3 0 0 0 .054-.102c.02-.085-.035-.108-.26-.106-.108 0-.205.004-.217.009" style="fill:#129612;fill-opacity:1;stroke:none;stroke-width:.0606061"/><path d="M13.18 20.88c-.137.21-.284.557-.284.67 0 .148.198.245.346.16.09-.046.113-.046.08.005a.45.45 0 0 1-.177.114c-.113.046-.136.091-.136.279 0 .125-.031.16-.05.255a2 2 0 0 0-.017.234c0 .238.194.326.587.23.226-.056.132-.025.292-.13.057-.103.102-.208.141-.34.04-.13.102-.255.136-.278s.046-.005.029.04c-.16.387-.17.512-.08.705.08.17.125.199.29.199.175 0 .055-.05.248-.273.056-.143.126-.187.138-.212.04-.08.035-.075.031-.12-.008-.099.093-.077.122-.077.22 0 .306-.484.147-.796-.108-.21-.147-.21-.3 0-.233.312-.693.182-.693-.2a.44.44 0 0 1 .091-.26c.062-.075.074-.126.034-.2-.045-.08-.147-.102-.476-.113-.38-.017-.426-.006-.5.108m.862.102c-.04.16-.13.216-.318.182-.113-.017-.204-.006-.227.034-.028.04.017.063.12.063.198 0 .271.05.323.21.028.097-.006.165-.17.313-.177.164-.364.432-.364.528 0 .103.13 0 .176-.136.085-.233.414-.478.579-.427.176.052.21.126.21.433 0 .159.028.272.062.272.04 0 .051-.096.023-.29-.029-.221-.023-.307.034-.34.13-.086.221-.057.221.062 0 .062.028.114.062.114.04 0 .051-.063.034-.154-.056-.301.097-.426.16-.13.05.221-.018.511-.114.511-.046 0-.12-.057-.165-.125-.107-.148-.198-.085-.102.068.102.165.085.33-.045.466-.063.069-.114.16-.114.2 0 .124-.192.079-.26-.063-.046-.097-.04-.21.016-.427.08-.312.063-.403-.068-.403-.09 0-.255.278-.255.437-.006.268-.25.398-.686.37-.148-.011-.153-.023-.102-.227.028-.114.05-.29.05-.381 0-.131.046-.205.2-.307.226-.154.271-.324.073-.256-.267.085-.357.062-.34-.091a.4.4 0 0 1 .096-.199c.045-.028.085-.12.096-.199.012-.114.057-.148.216-.17.369-.052.596-.029.579.062" style="fill:#000;stroke:none;stroke-width:.0606061"/><path d="M11.072 15.204c-.012.037-.049.062-.127.089-.166.058-.396.172-.402.208-.002.018.08.09.176.153.259.17.264.14-.024.166-.216.018-.26.066-.427.219a3 3 0 0 1-.23.196.5.5 0 0 0-.136.162c-.012.05.065.097.188.215.144.139.277.198.374.2.086 0 .179-.05.368-.19.094-.068.199-.165.252-.183.089-.031.088-.02.135.01.07.048.066.12-.003.19a.3.3 0 0 1-.104.07c-.046 0-.288.292-.33.39-.054.118-.056.228.002.267.061.046.124.045.188-.015a.4.4 0 0 1 .14-.059c.077 0 .12-.078.201-.153.107-.1.188-.12.208-.24.008-.05-.008-.104.002-.11.033-.02.063.022.063.09 0 .246.21.3.319.084.023-.046.085-.09.106-.114.045-.051.102-.218.087-.255-.016-.042-.109-.013-.156.037a.8.8 0 0 0-.115.158c-.051.103-.082.149-.111.12-.006-.006.039-.053.057-.12.041-.139-.012-.183-.123-.183-.088 0-.164.046-.294.218-.253.338-.236.263 0-.102.064-.1.072-.207.078-.24.015-.07-.055-.214-.125-.262-.082-.054-.264-.071-.492.014-.101.037-.256.098-.291.104-.06.01-.049.036-.018-.013.07-.108.393-.216.605-.22.17-.002.212-.061.251-.142.068-.135.092-.186-.056-.341-.074-.077-.148-.138-.148-.146 0-.042.04-.005.143.072.154.118.21.143.304.143.1 0 .267-.076.245-.134a.5.5 0 0 0-.145-.126 2 2 0 0 1-.222-.146c-.207-.157-.375-.175-.412-.081" style="fill:#129612;fill-opacity:1;stroke:none;stroke-width:.0606061"/><path d="M10.972 15.13a.5.5 0 0 1-.255.114c-.267.05-.369.335-.148.403.165.051.137.131-.034.097-.119-.023-.187.011-.3.142a1 1 0 0 1-.244.205c-.057.017-.102.074-.102.113 0 .046-.04.114-.085.154-.074.062-.051.108.181.318.153.137.318.245.375.25.136 0 .385-.13.516-.278.062-.068.147-.12.187-.12.045 0-.017.097-.142.21-.278.268-.369.603-.181.7.159.085.482-.017.697-.216.086-.08.154-.12.154-.085s.04.08.09.096c.102.04.307-.056.307-.147 0-.035.034-.091.08-.125.044-.035.096-.16.113-.279l.04-.216-.256.034c-.227.034-.272.023-.403-.108-.119-.12-.147-.188-.119-.307.045-.182.233-.352.386-.352.147 0 .119-.279-.04-.364a2 2 0 0 1-.272-.194c-.182-.142-.448-.164-.545-.045m.482.176c.091.08.21.16.267.176.142.046.12.177-.045.205-.097.023-.193-.011-.301-.102-.147-.131-.238-.17-.238-.108 0 .017.068.09.153.165.12.102.142.159.108.278-.034.137-.063.154-.278.154-.244 0-.613.153-.653.273-.011.04.085.017.227-.046a1.3 1.3 0 0 1 .448-.114c.165 0 .216.029.273.154.056.13.05.17-.04.295-.164.222-.25.404-.193.404.029 0 .125-.102.21-.227.114-.17.193-.228.278-.216.12.022.13.05.062.227-.022.057-.017.102.017.102s.086-.08.12-.17c.068-.205.26-.245.198-.046-.017.074-.062.137-.085.148a.09.09 0 0 0-.051.08c0 .034-.045.096-.096.136-.13.091-.244.006-.244-.182 0-.074-.023-.136-.057-.136-.028 0-.057.062-.057.136 0 .154-.238.376-.403.376-.05 0-.107.028-.119.068-.011.034-.068.05-.119.028-.074-.028-.09-.074-.062-.193.034-.16.312-.472.408-.472.068 0 .136-.165.09-.233-.056-.097-.243-.051-.43.108-.307.267-.46.273-.72.04-.222-.205-.228-.205-.114-.319.057-.056.125-.108.147-.108.023 0 .102-.068.176-.159.108-.12.182-.153.363-.153.301 0 .33-.086.074-.222-.108-.063-.199-.125-.199-.148 0-.045.199-.148.386-.199.068-.023.125-.062.125-.09 0-.103.21-.052.374.09" style="fill:#000;stroke:none;stroke-width:.0606061"/><path d="M25.049 15.35c-.043.022-.116.043-.176.089-.058.043-.22.134-.278.167-.121.066-.085.136 0 .192.094.062.258.053.422-.07.232-.174.233-.173.033.022-.14.135-.133.205-.094.33.035.11.095.16.261.16.201 0 .511.122.604.225.082.092.07.024-.237-.09-.2-.072-.465-.093-.545-.039-.068.044-.184.259-.168.327.009.027.094.13.16.23.113.175.144.24.12.266-.02.016-.036-.042-.178-.226-.133-.172-.225-.21-.333-.198-.056.006-.045.042-.043.119 0 .045.008.114.018.153.027.114-.05.075-.123-.064-.076-.143-.135-.255-.186-.255-.058 0-.042.174.021.261.03.04.064.1.08.133.046.097.134.176.198.176.078 0 .121-.058.144-.197.03-.187.086-.21.113-.046.02.117.051.175.148.268.08.079.2.141.271.141.023 0 .066.023.097.052.06.056.092.062.154.031.05-.027.098-.131.052-.237-.057-.14-.28-.39-.395-.437-.061-.027-.112-.099-.102-.171.004-.03.01-.057.041-.071.078-.037.175.012.378.161.093.067.2.133.236.152.097.05.237.049.348-.017.122-.07.355-.286.355-.332 0-.052-.06-.123-.16-.19a2 2 0 0 1-.22-.187c-.153-.144-.187-.183-.402-.202-.18-.017-.252-.016-.232-.07.006-.019.074-.067.173-.131.168-.11.175-.118.144-.154-.035-.039-.18-.108-.368-.178q-.099-.035-.117-.085c-.025-.062-.101-.064-.214-.008" style="fill:#129612;fill-opacity:1;stroke:none;stroke-width:.0606061"/><path d="M25.374 15.272a.5.5 0 0 0 .256.113c.266.051.368.336.147.404-.164.051-.136.13.034.096.12-.022.187.012.3.143.08.09.194.182.245.204.057.017.102.074.102.114 0 .045.04.114.085.153.074.063.051.108-.182.319-.153.136-.317.244-.374.25-.136 0-.386-.13-.516-.279-.063-.068-.148-.119-.187-.119-.046 0 .017.097.141.21.278.268.37.603.182.7-.159.085-.482-.017-.698-.216-.085-.08-.153-.12-.153-.086s-.04.08-.09.097c-.103.04-.307-.057-.307-.148 0-.034-.034-.09-.08-.125-.045-.034-.096-.16-.113-.279l-.04-.216.256.035c.227.034.272.022.402-.108.12-.12.148-.188.12-.307-.046-.182-.233-.353-.386-.353-.148 0-.12-.278.04-.364.062-.034.187-.12.272-.193.181-.142.448-.165.544-.045m-.482.176c-.09.08-.21.159-.266.176-.142.045-.12.176.045.205.096.022.193-.012.3-.103.148-.13.239-.17.239-.108 0 .017-.068.091-.153.165-.12.102-.142.16-.108.279.034.136.062.153.278.153.244 0 .613.154.652.273.012.04-.085.017-.227-.045a1.3 1.3 0 0 0-.448-.114c-.164 0-.215.028-.272.153-.057.131-.051.17.04.296.164.222.25.404.192.404-.028 0-.124-.103-.21-.228-.113-.17-.192-.227-.277-.216-.12.023-.13.051-.063.228.023.056.017.102-.017.102s-.085-.08-.119-.17c-.068-.205-.26-.245-.198-.046.017.074.062.136.085.148a.09.09 0 0 1 .05.08c0 .033.046.096.097.136.13.09.244.005.244-.182 0-.074.023-.137.057-.137.028 0 .057.063.057.137 0 .153.238.375.402.375.051 0 .108.028.12.068.01.034.067.051.119.029.073-.029.09-.074.062-.194-.034-.159-.312-.471-.409-.471-.068 0-.136-.165-.09-.234.056-.096.244-.05.43.108.307.268.46.273.721.04.222-.204.227-.204.114-.318-.057-.057-.125-.108-.148-.108s-.102-.068-.176-.16c-.107-.119-.181-.153-.363-.153-.3 0-.329-.085-.073-.222.107-.062.198-.125.198-.147 0-.046-.198-.148-.386-.2-.068-.022-.124-.062-.124-.09 0-.103-.21-.051-.375.09" style="fill:#000;stroke:none;stroke-width:.0606061"/><path d="M22.316 20.947c-.064.025-.07.043-.04.118.046.106.092.157.244.145.158-.014.22-.007.234.032.017.044.037.019-.125.035-.13.015-.182.047-.232.103-.125.141-.108.248.11.48.242.26.324.214.362.498-.025.041-.058.004-.128-.13-.124-.23-.327-.436-.5-.467-.092-.016-.277.064-.31.139-.014.029-.009.17-.017.297-.014.238-.01.303-.053.238-.025-.039-.018-.026.007-.24.029-.216.014-.34-.062-.379-.096-.05-.195-.008-.207.058-.017.079-.058.158-.083.16-.012.002-.022-.079-.026-.193a.7.7 0 0 0-.03-.224c-.077-.096-.147.08-.135.342.015.313.093.37.265.191.056-.058.095-.045.107-.045.045 0 .017.013-.034.127-.08.179-.05.286.061.45.05.075.105.168.121.21.04.093.172.086.264.001.058-.052.073-.087.082-.206.004-.087-.027-.19-.054-.311-.07-.297-.088-.37.029-.37.103 0 .222.223.255.45.026.186.15.29.38.34.12.025.302.022.401.003.076-.016.08-.054.033-.305-.017-.089-.031-.22-.033-.267-.002-.156-.024-.235-.189-.372-.24-.199-.293-.261-.065-.203.234.062.342.002.319-.139a.7.7 0 0 0-.095-.18 1 1 0 0 1-.088-.245c-.014-.058-.082-.114-.107-.128-.082-.056-.56-.055-.661-.013" style="fill:#129612;fill-opacity:1;stroke:none;stroke-width:.0606061"/><path d="M23.116 20.917c.136.21.284.557.284.67 0 .149-.199.245-.346.16q-.133-.069-.08.006a.45.45 0 0 0 .176.113c.114.046.136.091.136.279 0 .125.023.239.052.256s.05.125.05.233c0 .239-.236.272-.473.274-.208-.036-.333-.103-.44-.157a2 2 0 0 1-.142-.356c-.04-.13-.102-.256-.136-.278s-.019.213-.002.259c.159.386.065.222.045.538-.097.1-.146.146-.281.137-.142-.008-.16-.057-.248-.185-.057-.142-.21-.418-.2-.317.003.035-.063-.171-.09-.171-.222 0-.307-.483-.148-.796.107-.21.147-.21.3 0 .233.313.692.182.692-.199a.44.44 0 0 0-.09-.261c-.063-.074-.074-.125-.034-.2.045-.079.147-.102.476-.113.38-.017.426-.006.5.108m-.862.102c.04.16.13.216.318.182.113-.017.204-.005.227.034.028.04-.017.063-.12.063-.198 0-.272.051-.323.21-.028.097.006.165.17.313.176.165.363.432.363.529 0 .102-.13 0-.175-.137-.086-.233-.415-.477-.58-.426-.175.051-.209.125-.209.432 0 .159-.028.273-.062.273-.04 0-.051-.097-.023-.29.028-.222.023-.307-.034-.341-.13-.086-.221-.057-.221.062 0 .063-.029.114-.063.114-.04 0-.05-.063-.034-.154.057-.3-.096-.426-.159-.13-.05.221.017.511.114.511.045 0 .119-.057.164-.125.108-.148.199-.085.102.068-.102.165-.085.33.046.467.062.068.113.159.113.199 0 .125.193.08.261-.063.046-.097.04-.21-.017-.426-.08-.313-.062-.404.068-.404.091 0 .256.279.256.438.005.267.25.398.686.37.147-.012.153-.023.102-.228a2 2 0 0 1-.051-.38c0-.132-.045-.206-.199-.308-.226-.153-.272-.324-.073-.256.266.086.357.063.34-.09a.4.4 0 0 0-.096-.2c-.046-.028-.085-.12-.097-.199-.011-.113-.057-.147-.215-.17-.37-.051-.596-.029-.579.062" style="fill:#000;stroke:none;stroke-width:.0606061"/><path d="M18.208 8.562c.234 0 .424.19.424.432a.43.43 0 0 1-.424.432.431.431 0 0 1 0-.864zm-6.452 9.293a.495.495 0 0 1-.507-.492.507.507 0 1 1 1.014 0 .49.49 0 0 1-.507.492zm.008-2.19c.272 0 .484.22.484.485a.485.485 0 0 1-.484.492.49.49 0 0 1 0-.977zm-.916-1.16c.258 0 .477.22.477.485s-.22.485-.477.485a.49.49 0 0 1-.484-.485c0-.265.22-.485.484-.485zm14.606.258c-.31 0-.567.25-.567.56s.257.569.567.569a.566.566 0 0 0 0-1.13zm-.998 3.054a.52.52 0 0 0 0-1.038.52.52 0 0 0-.522.515c0 .288.234.523.522.523zm.068-2.145a.524.524 0 0 1 0 1.046.517.517 0 0 1-.515-.523c0-.288.227-.523.515-.523zm-2.027 4.73a.39.39 0 0 0-.386.387.39.39 0 1 0 .386-.387zm-.62.5c.226 0 .415.182.415.417a.42.42 0 0 1-.416.417.42.42 0 0 1-.416-.417c0-.235.19-.417.416-.417zm-.734.463a.512.512 0 0 1 0 1.023.512.512 0 0 1 0-1.023zm-7.56-1.008a.428.428 0 0 1 0 .856.43.43 0 0 1-.432-.432c0-.235.337-.424.572-.424zm.82.432a.49.49 0 0 0 0 .977.49.49 0 1 0 0-.977zm.802 1.41a.44.44 0 0 1-.439-.433.44.44 0 0 1 .44-.44c.241 0 .445.198.445.44a.445.445 0 0 1-.446.432z" style="fill:#ffd300;fill-opacity:1;stroke:#000;stroke-width:.0850079;stroke-miterlimit:4;stroke-dasharray:none"/></svg>