<svg xmlns="http://www.w3.org/2000/svg" xmlns:xlink="http://www.w3.org/1999/xlink" xml:space="preserve" viewBox="0 0 36 36"><defs><path id="a" fill="#ee3e34" d="M0 12A16.14 16.14 0 0 1-14-4a7 8 0 0 1 7-8 6 8 0 0 1 6 7 1 1 0 1 0 2 0 6 8 0 0 1 6-7 7 8 0 0 1 7 8A16.14 16.14 0 0 1 0 12" transform="rotate(34.695)scale(4.625)"/></defs><path d="M4 5a4 4 0 0 0-4 4v18a4 4 0 0 0 4 4h28a4 4 0 0 0 4-4V9a4 4 0 0 0-4-4z" style="fill:#0155a5;fill-opacity:1;stroke-width:.067852"/><path d="M0 16.143v7.428L10.286 31H20.57zM4 5A4 4 0 0 0 .014 8.725L30.857 31H32a4 4 0 0 0 3.986-3.725L5.143 5zM15.429 5h10.285L36 12.429v7.428z" style="fill:#eee;stroke-width:4.37059;fill-opacity:1"/><use xlink:href="#a" x="455" y="315" transform="matrix(.03956 0 0 .04127 0 5)"/><use xlink:href="#a" x="91" y="423" transform="matrix(.03956 0 0 .04127 0 5)"/><use xlink:href="#a" x="819" y="207" transform="matrix(.03956 0 0 .04127 0 5)"/><use xlink:href="#a" x="212.333" y="147" transform="matrix(.03956 0 0 .04127 0 5)"/><use xlink:href="#a" x="697.667" y="483" transform="matrix(.03956 0 0 .04127 0 5)"/><use xlink:href="#a" x="661.315" y="97.834" transform="matrix(.03956 0 0 .04127 0 5)"/><use xlink:href="#a" x="248.685" y="532.166" transform="matrix(.03956 0 0 .04127 0 5)"/></svg>