<svg xmlns="http://www.w3.org/2000/svg" xml:space="preserve" viewBox="0 0 36 36"><path d="M4 5a4 4 0 0 0-4 4v18a4 4 0 0 0 4 4h28a4 4 0 0 0 4-4V9a4 4 0 0 0-4-4z" style="fill:#eee;fill-opacity:1;stroke-width:.067852"/><path stroke="#078930" stroke-width="3.12" d="M0 18h36M18 5v26"/><path d="M4 5a4 4 0 0 0-4 4v4.74h13.62V5zm18.38 17.26V31H32a4 4 0 0 0 4-4v-4.74z" style="color:#000;fill:#da121a;-inkscape-stroke:none"/><path d="M22.38 5v8.74H36V9a4 4 0 0 0-4-4zM0 22.26V27a4 4 0 0 0 4 4h9.62v-8.74z" style="color:#000;fill:#0f47af;-inkscape-stroke:none"/></svg>