<svg xmlns="http://www.w3.org/2000/svg" xml:space="preserve" viewBox="0 0 36 36"><path d="M4 5a4 4 0 0 0-4 4v18a4 4 0 0 0 4 4h28a4 4 0 0 0 4-4V9a4 4 0 0 0-4-4z" style="fill:#eee;fill-opacity:1"/><path d="M0 21.84h36v2.88H0Zm0-10.56h36v2.88H0Z" style="fill:#da121a;fill-opacity:1;fill-rule:nonzero;stroke:none;stroke-width:.048"/><path d="M15.221 15.27v1.26h.6v3.36h-.6v.84h5.558v-.84h-.6v-3.36h.6v-1.26H19.32v1.32h-.6v-1.32h-1.44v1.32h-.6v-1.32zm2.239 3.3h1.08v1.32h-1.08z" style="fill:#000;fill-opacity:1;fill-rule:nonzero;stroke:none;stroke-width:.048"/><path d="m3.856 16.5.373 1.146h1.204l-.974.708.372 1.146-.975-.708-.975.708.373-1.146-.975-.708h1.205zM7.61 16.5l.373 1.146h1.205l-.975.708.372 1.146-.974-.708-.975.708.372-1.146-.975-.708h1.205zM11.365 16.5l.372 1.146h1.205l-.975.708.373 1.146-.975-.708-.975.708.373-1.146-.975-.708h1.205z" style="fill:#da121a;fill-opacity:1;fill-rule:nonzero;stroke:none;stroke-width:.0279456"/><path d="m963.078 293.678 13.324 41.003 43.114.002-34.879 25.343 13.321 41.004-34.88-25.34-34.88 25.34 13.32-41.004-34.878-25.343 43.113-.002z" style="fill:#da121a;fill-opacity:1;fill-rule:nonzero;stroke:none" transform="matrix(.028 0 0 .028 -2.279 8.293)"/><path d="m963.078 293.678 13.324 41.003 43.114.002-34.879 25.343 13.321 41.004-34.88-25.34-34.88 25.34 13.32-41.004-34.878-25.343 43.113-.002z" style="fill:#da121a;fill-opacity:1;fill-rule:nonzero;stroke:none" transform="matrix(.028 0 0 .028 1.476 8.293)"/><path d="m963.078 293.678 13.324 41.003 43.114.002-34.879 25.343 13.321 41.004-34.88-25.34-34.88 25.34 13.32-41.004-34.878-25.343 43.113-.002z" style="fill:#da121a;fill-opacity:1;fill-rule:nonzero;stroke:none" transform="matrix(.028 0 0 .028 5.23 8.293)"/></svg>