<svg xmlns="http://www.w3.org/2000/svg" xml:space="preserve" viewBox="0 0 36 36"><path d="M4 5a4 4 0 0 0-4 4v9h36V9a4 4 0 0 0-4-4z" style="fill:#0f47af;fill-opacity:1;stroke-width:.067852"/><path d="M0 18v9a4 4 0 0 0 4 4h28a4 4 0 0 0 4-4v-9z" style="fill:#078930;stroke-width:.0768421"/><path d="M0 15.866v3.168c1.236-.598 2.471-.584 3.707.055q1.914.99 3.829 0 1.914-.99 3.829 0 1.914.99 3.829 0 1.914-.99 3.829 0c.638.33 1.396.495 2.034.495H36v-3.168H20.937q-.957 0-1.914-.495-1.915-.99-3.83 0-1.914.99-3.828 0t-3.83 0q-1.913.99-3.828 0-.957-.495-1.914-.495c-.598 0-1.195.15-1.793.44" style="fill:#fcdd09;fill-opacity:1;stroke-width:.389396"/><g style="fill:#eee;fill-opacity:1"><path d="M83.691 100.469h20c3.047 0 5.5 2.453 5.5 5.5s-2.453 5.5-5.5 5.5h-20a5.49 5.49 0 0 1-5.5-5.5c0-3.047 2.453-5.5 5.5-5.5" style="opacity:1;vector-effect:none;fill:#eee;fill-opacity:1;stroke:none;stroke-width:1.37701;stroke-linecap:butt;stroke-linejoin:miter;stroke-miterlimit:4;stroke-dasharray:none;stroke-dashoffset:0;stroke-opacity:1;paint-order:normal" transform="matrix(.06 0 0 .06 0 6)"/><g style="fill:#eee;fill-opacity:1"><path d="M90.425 112.963s-.042.943-.05 1.367c-.14 3.18-1.033 6.818-2.23 9.827-2.043 4.924-2.414 7.957-.43 11.972 1.984 4.016 5.976 9.494 5.976 9.494s3.993-5.478 5.977-9.494c1.984-4.015 1.613-7.048-.43-11.972-1.198-3.009-2.09-6.648-2.23-9.827-.008-.425-.05-1.368-.05-1.368zM98.44 112.962c.902 7 4.046 15.606 9.116 19.954 7.52 5.61 14.038-3.227 12.392-9.81-2.094 1.34-5.639 1.127-7.974.315-1.635-.6-3.098-1.838-4.758-3.82-2.249-2.898-3.25-6.627-6.133-6.64zM88.942 112.964c-.902 7-4.046 15.606-9.115 19.954-7.52 5.61-14.038-3.227-12.393-9.81 2.095 1.34 5.64 1.127 7.975.315 1.634-.6 3.097-1.838 4.757-3.82 2.25-2.897 3.251-6.627 6.133-6.64z" style="opacity:1;vector-effect:none;fill:#eee;fill-opacity:1;stroke:none;stroke-width:.65553;stroke-linecap:butt;stroke-linejoin:miter;stroke-miterlimit:4;stroke-dasharray:none;stroke-dashoffset:0;stroke-opacity:1;paint-order:normal" transform="matrix(.06 0 0 .06 0 6)"/></g><g style="fill:#eee;fill-opacity:1"><path d="M93.692 27.975S75.085 45.49 75.043 58.635c-.018 6.012 2.532 12.633 8.117 22.162 6.307 10.761 6.899 12.31 6.899 15.084v3.094h7.265V95.88c0-2.774.592-4.323 6.899-15.084 5.585-9.53 8.135-16.15 8.117-22.162-.042-13.145-18.648-30.66-18.648-30.66" style="opacity:1;vector-effect:none;fill:#eee;fill-opacity:1;stroke:none;stroke-width:.647015;stroke-linecap:butt;stroke-linejoin:miter;stroke-miterlimit:4;stroke-dasharray:none;stroke-dashoffset:0;stroke-opacity:1;paint-order:normal" transform="matrix(.06 0 0 .06 0 6)"/><path d="M68.521 72.116c8.348.605 12.41 8.758 15.004 12.914 4.23 6.827 5.003 8.991 5.003 11.26v2.685h-2.683c-2.567 0-2.23.161-4.063-2.843s-5.092-5.61-8.858-5.786c-9.13-.425-14.66 9.847-14.66 9.847s-1.488-1.164-2.895-2.622c-6.26-6.49-6.752-13.213-1.339-19.085 3.737-4.055 9.396-6.451 14.491-6.37M118.861 72.116c-8.348.605-12.41 8.758-15.003 12.914-4.23 6.827-5.003 8.991-5.003 11.26v2.685h2.683c2.567 0 2.23.161 4.063-2.843s5.091-5.61 8.857-5.786c9.131-.425 14.66 9.847 14.66 9.847s1.49-1.164 2.896-2.622c6.26-6.49 6.752-13.213 1.339-19.085-3.738-4.055-9.396-6.451-14.492-6.37" style="opacity:1;vector-effect:none;fill:#eee;fill-opacity:1;stroke:none;stroke-width:.623802;stroke-linecap:butt;stroke-linejoin:miter;stroke-miterlimit:4;stroke-dasharray:none;stroke-dashoffset:0;stroke-opacity:1;paint-order:normal" transform="matrix(.06 0 0 .06 0 6)"/></g></g></svg>