<svg xmlns="http://www.w3.org/2000/svg" xml:space="preserve" viewBox="0 0 36 36"><path d="M1.361 6A3.99 3.99 0 0 0 0 9v18a4 4 0 0 0 4 4h28a4 4 0 0 0 4-4V9a3.99 3.99 0 0 0-1.361-3z" style="stroke-width:.824467;fill:#da121a;fill-opacity:1"/><path d="M4 5a4 4 0 0 0-4 4v9h36V9a4 4 0 0 0-4-4z" style="stroke-width:.838525;fill:#eee;fill-opacity:1"/><path d="M0 0h450v300H0z" style="fill:#fccc00" transform="translate(-177.834)scale(.08)"/><path d="M0 150h450v150H0z" style="fill:#007c5a" transform="translate(-177.834)scale(.08)"/><path d="M4 5a4 4 0 0 0-4 4v5h9V5z" style="stroke-width:.75;fill:#da121a;fill-opacity:1"/><path d="M3.375 5v3.375H0v2.25h3.375v4.125h2.25v-4.125H9.75v-2.25H5.625V5Z" style="color:#000;fill:#eee;fill-opacity:1;-inkscape-stroke:none"/></svg>