<svg xmlns="http://www.w3.org/2000/svg" xml:space="preserve" viewBox="0 0 36 36"><path fill="#ffcc4d" d="M36 27a4 4 0 0 1-4 4H4a4 4 0 0 1-4-4V9a4 4 0 0 1 4-4h28a4 4 0 0 1 4 4z" style="fill:#fdfd00;fill-opacity:1"/><path d="M15.496 8.5q.055-.003.09.066c.09.166-.007.57-.202.842-.112.157-.12.181-.072.234.103.115.204.437.204.652 0 .205.003.21.125.269a.62.62 0 0 1 .328.445c.024.149-.025.216-.07.098-.031-.08-.155-.066-.219.026-.108.154-.057.668.086.86.09.122.091.14.017.14-.105 0-.258.14-.319.293-.072.18-.05.312.077.448.072.079.084.113.053.157-.039.054-.06.098-.246.496-.103.22-.254.358-.427.39-.112.021-.125.036-.125.142 0 .16-.079.337-.23.519-.07.083-.164.215-.208.293q-.135.24-.14.061c0-.045-.057-.146-.126-.225l-.126-.144-.09.108a.96.96 0 0 0-.232.633c0 .272.078.398.285.46.141.042.203.029.444-.095.047-.024.03.276-.023.402-.062.149-.21.257-.43.312-.092.024-.168.056-.168.071 0 .016.072.146.16.29.187.3.304.6.416 1.059.098.4.23.624.634 1.078.236.264.326.34.376.325.096-.03.323.097.745.418.407.31.57.375.86.346a.75.75 0 0 0 .685-.864c-.053-.442-.373-.821-1.064-1.256-.532-.335-.907-.7-1.103-1.073-.142-.269-.143-.272-.143-.684 0-.331.013-.438.065-.534.061-.112.062-.13.01-.285q-.182-.53.277-1.143c.346-.462.367-.508.365-.81q-.004-.269-.063-.385c-.076-.144-.074-.155.006-.155.068 0 .4.204.403.246 0 .013.04.072.088.13.072.087.096.098.14.06a.33.33 0 0 0 .078-.154c.02-.093.037-.105.112-.086.126.032.457-.076.555-.18.066-.07.087-.14.098-.314.013-.204.005-.238-.097-.377a1 1 0 0 1-.11-.171c0-.05.254-.007.42.07.17.08.284.195.427.436.028.048.086.066.22.068q.322.004.43-.202c.058-.112.068-.447.014-.48-.079-.049-.035-.126.072-.126.175 0 .444.287.52.557.058.198.058.232.005.444-.065.267-.24.525-.453.673-.144.1-.145.103-.123.273.036.269-.006.412-.167.566l-.143.138.092.085c.173.163.25.436.162.575-.028.045-.054.041-.175-.027-.32-.18-.67-.074-1.123.34-.385.353-.49.424-.755.515a1 1 0 0 1-.5.058l-.266-.021.022.239c.03.322.2.608.464.778.15.097.172.08.172-.137 0-.252.108-.482.228-.484.017 0 .022.04.01.09-.032.125.076.44.208.609.06.077.272.261.47.408.2.147.433.335.518.417.156.15.294.37.294.468 0 .054.116.088.396.119.142.015.179.003.297-.096.113-.094.135-.134.135-.249 0-.077-.024-.157-.054-.182s-.046-.057-.036-.073c.03-.05.238.05.329.156.156.186.099.55-.123.778-.042.042-.032.06.062.12.114.072.145.13.065.122-.057-.007-.068.039-.043.175.011.06 0 .157-.024.216l-.044.108-.016-.09a.296.296 0 0 0-.3-.252c-.162 0-.248.075-.248.218 0 .094.012.106.11.106.217 0 .345.138.304.326-.028.127-.06.134-.108.025-.06-.137-.144-.115-.28.074a.56.56 0 0 1-.312.243c-.142.051-.178.08-.158.123.035.076.028.235-.023.468q-.063.294.016.478c.05.116-.049.066-.281-.144-.281-.254-.413-.297-.904-.297-.207 0-.46-.018-.561-.04a.7.7 0 0 0-.198-.025c-.008.008.008.057.035.109a1 1 0 0 1 .073.201c.032.147.204.33.31.332.086.001.086.002.015.058-.054.042-.13.051-.315.039l-.243-.016v.138c0 .135.005.14.122.14.297 0 .592.187.695.441.058.143.093.157.247.098.054-.02.235-.04.403-.045l.306-.008.134-.156.135-.158.04.115c.033.093.027.147-.03.297-.038.1-.113.229-.166.284l-.097.102.131.145c.073.08.132.176.132.215 0 .038.016.08.036.092s.036.068.036.124.032.14.07.19c.04.05.063.1.052.11-.011.011-.108.011-.215 0q-.326-.032-.124.15c.14.127.285.668.18.668a.3.3 0 0 1-.122-.055c-.076-.05-.09-.049-.168.014-.074.06-.085.099-.08.28.006.216.082.449.183.563q.116.129-.18.168c-.127.017-.156.034-.166.105a.59.59 0 0 0 .144.456l.11.125h-.159a.46.46 0 0 1-.312-.114.53.53 0 0 0-.286-.117c-.124-.003-.133.004-.133.105 0 .06-.013.128-.03.153-.056.088-.26.169-.474.188l-.216.019.012.137c.034.388-.326.617-.75.478-.18-.059-.324-.036-.324.052 0 .056-.063.04-.087-.022a.5.5 0 0 1-.02-.141c0-.097-.168-.246-.244-.217-.058.022-.227-.059-.295-.14-.06-.074-.212-.073-.296.003-.062.056-.066.053-.066-.064a.4.4 0 0 1 .048-.195.54.54 0 0 0 .049-.243.43.43 0 0 1 .075-.275c.09-.12.074-.147-.088-.147-.066 0-.12-.016-.12-.036 0-.062.14-.18.215-.18.039 0 .126-.055.192-.121.182-.182.336-.222.532-.137a1 1 0 0 1 .276.198c.14.156.26.193.457.141.08-.021.19-.03.243-.02.083.016.113-.005.216-.15.18-.256.277-.537.279-.821.002-.334-.087-.509-.31-.604-.15-.064-.177-.066-.33-.02a4 4 0 0 0-.42.166c-.21.095-.285.112-.451.1l-.2-.013-.094.15c-.073.118-.148.178-.34.268-.301.142-.373.202-.373.31 0 .063-.015.077-.063.06-.179-.063-.33-.326-.332-.573l-.001-.149-.178-.017a.7.7 0 0 1-.266-.075c-.115-.075-.22-.349-.187-.483l.025-.1.048.114c.057.135.149.192.315.192.251 0 .346-.257.228-.62-.155-.477-.2-.651-.244-.928-.052-.337-.062-.871-.02-1.102.024-.133.018-.156-.06-.206a1.1 1.1 0 0 0-.327-.096c-.9-.144-1.609.608-1.51 1.6.029.303.064.38.17.381.096.002.18.06.236.168.117.22.008.383-.522.782-.254.19-.306.307-.201.447.108.144.172.172.296.125.176-.066.128.021-.056.103-.2.088-.36.068-.518-.065-.13-.11-.203-.1-.304.035-.06.08-.073.148-.068.32.006.222-.022.237-.11.06-.023-.044-.06-.087-.081-.094-.058-.019-.16.153-.25.422l-.079.234-.059-.14a.8.8 0 0 1-.058-.229c0-.076-.009-.083-.054-.045-.03.025-.103.131-.163.236-.197.345-.573.627-.836.628-.053 0-.06.022-.042.14.03.179-.027.279-.194.352a.54.54 0 0 0-.205.17c-.101.155-.198.169-.198.027 0-.092-.027-.125-.16-.203a.8.8 0 0 1-.23-.215c-.07-.118-.075-.12-.228-.087-.085.02-.233.06-.327.09a.57.57 0 0 1-.52-.064c-.114-.069-.116-.07-.185 0-.07.07-.072.07-.09 0-.01-.04 0-.16.022-.268.041-.195.04-.197-.065-.284-.117-.096-.231-.114-.298-.047-.066.065-.054-.187.012-.275a.3.3 0 0 0 .053-.146c0-.042.014-.091.032-.11a.4.4 0 0 0 .057-.115c.02-.066.01-.081-.05-.081-.1 0-.094-.057.016-.154l.19-.172c.198-.188.3-.23.544-.219.094.005.363.262.363.348 0 .074.15.101.4.073.162-.018.289-.005.514.05.268.068.31.07.421.023a.6.6 0 0 0 .184-.117c.093-.103.198-.375.226-.59.03-.23.11-.516.183-.652.11-.205.014-.232-.245-.068-.17.107-.383.183-.513.18-.066 0-.065-.007.018-.072l.145-.115c.06-.048.193-.244.173-.256a3 3 0 0 0-.192-.053c-.2-.051-.341-.15-.213-.15.117 0 .288-.215.375-.468a.8.8 0 0 1 .227-.367l.148-.134-.09-.033c-.157-.06-.231-.178-.231-.367 0-.216.115-.36.286-.358l.11.001-.099.074c-.183.137-.08.464.145.464.076 0 .332-.222.332-.287 0-.018.087-.22.195-.446.448-.95.821-1.357 1.497-1.634.212-.087.698-.158.987-.144.174.008.177.007.21-.117a.6.6 0 0 1 .092-.191c.055-.062.053-.07-.03-.136a3 3 0 0 0-.384-.212c-.32-.153-.481-.318-.76-.783-.073-.123-.155-.225-.18-.225a.5.5 0 0 0-.152.053c-.111.057-.539.117-.539.075 0-.013.033-.06.073-.102a.6.6 0 0 0 .11-.218c.112-.416-.233.012-.41.508a4 4 0 0 1-.235.518c-.13.235-.142.245-.163.158-.031-.122-.102-.119-.158.007a2 2 0 0 1-.242.333c-.109.128-.199.253-.199.278s-.016.045-.036.045-.036-.08-.036-.178-.017-.188-.038-.201-.236.169-.477.404c-.332.322-.477.439-.597.478-.117.038-.17.08-.204.162a.73.73 0 0 1-.446.382c-.156.035-.41-.008-.453-.076-.036-.058-.145-.04-.214.036-.09.1-.127.06-.127-.14 0-.095-.018-.223-.04-.285-.031-.092-.06-.114-.142-.114-.071 0-.143-.04-.23-.132-.122-.125-.133-.129-.227-.082l-.126.063c-.046.023-.03-.114.027-.223a.6.6 0 0 0 .054-.24c0-.18.05-.305.165-.412.11-.102.088-.162-.06-.162-.157 0-.127-.057.066-.128a.7.7 0 0 0 .207-.106c.068-.08.193-.126.342-.126.182 0 .264.04.453.223.122.117.174.142.297.144.287.004.534-.247.867-.881.247-.472.321-.587.538-.825.102-.11.185-.21.185-.22 0-.009-.032-.025-.072-.035-.08-.02-.099-.098-.025-.098.026 0 .104-.06.175-.135.104-.11.138-.187.188-.42.033-.158.077-.306.097-.33q.038-.045-.004-.07c-.023-.015-.106.036-.191.117-.289.275-.574.384-.781.298-.104-.043-.146-.108-.07-.108.02 0 .116-.072.21-.16.19-.178.35-.452.317-.54-.012-.03-.123-.105-.248-.165a2.6 2.6 0 0 1-.485-.278c-.158-.114-.191-.103-.191.063 0 .149-.012.178-.202.475l-.113.175-.06-.147a2 2 0 0 0-.211-.35l-.152-.203v-.815l-.173-.149-.173-.147-.109.103c-.095.092-.135.104-.33.105a.9.9 0 0 0-.302.045c-.097.055-.286.058-.318.006-.013-.022.011-.078.055-.124l.079-.084-.094-.138a.5.5 0 0 1-.093-.272q.001-.138-.052-.136c-.096 0-.3-.232-.342-.388-.038-.14-.05-.152-.162-.152-.105 0-.118-.01-.101-.075.011-.044.078-.101.156-.135.15-.065.329-.285.372-.456a.5.5 0 0 1 .086-.174c.057-.063.055-.072-.04-.148-.08-.063-.091-.088-.054-.117.094-.073.18-.082.3-.031.108.045.137.044.235-.005a.4.4 0 0 1 .253-.032c.152.024.194-.035.087-.123-.03-.025-.054-.06-.054-.076 0-.058.205-.033.293.034a.6.6 0 0 0 .24.087c.18.024.305.098.393.233.05.077.062.16.054.424-.01.318-.006.334.105.486.062.086.163.203.225.26.137.126.493.3.688.336.08.015.257.073.396.13.233.095.265.1.42.06.143-.035.193-.033.318.016l.15.059.054-.134a.7.7 0 0 1 .354-.377c.247-.13.775-.095 1.224.082.3.118.85.288.933.288.127 0 .345-.102.345-.162 0-.025-.113-.114-.252-.198-.215-.13-.286-.154-.477-.162l-.225-.01.008-.157c.015-.313.187-.535.416-.535.047 0 .12-.04.163-.09.104-.12.154-.114.129.013-.031.155.037.165.146.023.052-.07.11-.126.128-.126s.037.06.043.134c.02.244.293.3.47.097.087-.1.18-.368.146-.422-.026-.043-.64-.01-.767.04-.269.108-.67.192-.917.193-.327 0-.55-.093-.719-.305-.093-.117-.108-.168-.108-.342.001-.314.161-.525.43-.566a.46.46 0 0 1 .433.15c.11.118.115.22.011.236-.042.006-.11.054-.15.108-.067.091-.067.102-.01.189.105.161.221.157 1.066-.036.149-.034.375-.073.504-.085s.232-.03.228-.039l-.031-.118c-.05-.2-.331-.308-.528-.203-.057.031-.068.063-.051.144.012.061.005.105-.016.105-.059 0-.214-.171-.214-.235 0-.036-.024-.054-.063-.046-.043.008-.069.056-.081.155l-.018.144-.099-.098c-.055-.054-.099-.136-.099-.186s-.046-.135-.107-.195l-.107-.107.023-.36c.02-.328.015-.373-.055-.486-.103-.167-.1-.298.012-.402.12-.112.24-.13.65-.103l.343.022.115-.111c.165-.159.27-.174.575-.081.143.043.326.097.405.118s.18.06.225.088c.063.038.1.04.159.008a.5.5 0 0 1 .245-.018c.253.033.391-.01.542-.165.084-.086.146-.13.195-.134" style="fill:#f90000;fill-opacity:1;stroke:none;stroke-width:.036"/><path d="M15.214 26.871a.5.5 0 0 1-.022-.141c0-.097-.167-.247-.243-.218-.058.023-.227-.058-.295-.14-.061-.073-.213-.072-.296.004-.063.056-.066.053-.066-.064a.4.4 0 0 1 .049-.195.54.54 0 0 0 .048-.243c0-.12.022-.204.075-.275.09-.121.074-.147-.088-.147-.066 0-.12-.016-.12-.036 0-.062.14-.18.215-.18.039 0 .125-.055.192-.121.182-.182.336-.222.533-.137a1 1 0 0 1 .275.199c.14.155.26.192.457.14.08-.022.19-.03.243-.02.084.016.114-.005.216-.15a1.44 1.44 0 0 0 .28-.821c.002-.335-.088-.509-.31-.604-.15-.065-.179-.066-.332-.02a4 4 0 0 0-.419.166c-.21.095-.286.112-.451.1l-.2-.013-.094.15c-.073.119-.148.178-.34.268-.301.142-.373.202-.373.31 0 .063-.015.078-.063.06-.179-.063-.33-.326-.332-.573l-.001-.149-.178-.017a.7.7 0 0 1-.266-.075c-.115-.075-.221-.348-.187-.482l.025-.101.048.114c.057.136.15.192.315.192.252 0 .347-.257.229-.62-.155-.477-.201-.651-.244-.928-.053-.337-.063-.871-.021-1.103.024-.133.017-.155-.06-.206a1.1 1.1 0 0 0-.327-.095c-.9-.144-1.609.608-1.51 1.6.029.302.064.38.17.381.096.002.18.06.236.168.117.22.008.383-.522.782-.254.19-.306.307-.201.448.107.144.172.171.296.124.176-.066.128.02-.057.102-.2.089-.36.07-.516-.063-.13-.11-.203-.102-.304.034-.06.08-.075.148-.07.32.007.222-.02.237-.11.06-.022-.044-.058-.086-.08-.093-.058-.02-.16.152-.25.421l-.08.234-.058-.14a.8.8 0 0 1-.058-.229c0-.076-.009-.083-.054-.045-.03.024-.103.13-.163.236-.197.344-.574.627-.836.628-.054 0-.06.022-.042.14.03.179-.026.279-.194.352a.55.55 0 0 0-.205.17c-.102.156-.198.169-.198.026 0-.09-.026-.124-.16-.203a.8.8 0 0 1-.23-.214c-.07-.118-.075-.12-.228-.087-.086.019-.233.06-.327.09a.57.57 0 0 1-.52-.064c-.114-.069-.116-.069-.186 0-.07.07-.07.07-.09 0-.01-.04 0-.16.023-.269.041-.194.04-.197-.065-.283-.117-.096-.23-.114-.298-.047-.065.066-.054-.187.012-.275a.3.3 0 0 0 .053-.146c0-.041.014-.091.032-.11a.4.4 0 0 0 .056-.115c.02-.066.01-.081-.05-.081-.1 0-.093-.058.017-.154.05-.044.135-.122.189-.173.199-.187.302-.228.545-.217.094.004.363.26.363.347 0 .074.15.102.4.073.162-.018.288-.006.513.05.269.068.31.07.422.024a.6.6 0 0 0 .184-.118c.094-.104.198-.375.226-.59a2.3 2.3 0 0 1 .184-.652c.11-.205.013-.233-.245-.068-.17.107-.384.182-.514.18-.066 0-.065-.006.018-.072l.145-.115c.06-.049.192-.245.173-.257a3 3 0 0 0-.192-.052c-.2-.051-.341-.15-.213-.15.116 0 .289-.215.375-.468a.8.8 0 0 1 .228-.367l.146-.133-.088-.034c-.158-.06-.232-.178-.232-.367 0-.216.114-.36.285-.358l.111.001-.099.074c-.183.137-.08.464.145.464.076 0 .332-.222.332-.287 0-.018.088-.219.195-.446.448-.95.821-1.357 1.497-1.634.212-.087.698-.158.987-.144.174.009.177.007.21-.117a.6.6 0 0 1 .092-.192c.055-.061.053-.07-.03-.136a3 3 0 0 0-.384-.21c-.32-.154-.481-.32-.759-.784-.074-.124-.155-.225-.18-.225a.5.5 0 0 0-.153.053c-.111.058-.539.118-.539.076 0-.014.033-.06.073-.103a.6.6 0 0 0 .11-.218c.112-.415-.233.012-.41.509a4 4 0 0 1-.235.517c-.13.234-.142.246-.164.159-.03-.123-.101-.12-.157.006a2 2 0 0 1-.242.333c-.109.128-.198.253-.199.278 0 .025-.016.045-.036.045s-.036-.08-.036-.178-.017-.188-.038-.201-.235.169-.477.403c-.331.323-.478.44-.597.479-.118.039-.17.08-.204.161a.74.74 0 0 1-.446.384c-.156.035-.41-.008-.453-.077-.036-.058-.146-.04-.214.036-.09.1-.127.06-.127-.14 0-.095-.018-.223-.04-.286-.031-.091-.059-.113-.142-.113-.07 0-.142-.04-.23-.132-.122-.125-.133-.129-.227-.082l-.126.063c-.046.022-.03-.114.027-.222a.6.6 0 0 0 .054-.24c0-.181.05-.306.165-.413.11-.102.088-.162-.06-.162-.157 0-.127-.058.066-.129a.7.7 0 0 0 .207-.105c.068-.08.193-.126.342-.126.182 0 .264.04.454.222.122.118.173.143.296.144.287.004.534-.247.866-.88.248-.473.322-.587.54-.824.101-.111.184-.21.184-.22s-.032-.026-.072-.036c-.08-.021-.1-.098-.025-.098.025 0 .104-.06.174-.135.105-.11.14-.187.189-.42.033-.158.077-.306.097-.33q.037-.045-.005-.07c-.023-.014-.105.036-.19.117-.289.275-.573.384-.78.298-.105-.043-.147-.108-.07-.108.02 0 .115-.073.21-.161.189-.177.35-.451.316-.539-.012-.03-.123-.105-.248-.165a2.6 2.6 0 0 1-.484-.278c-.158-.114-.192-.102-.192.063 0 .15-.012.178-.203.475l-.112.176-.06-.148a2 2 0 0 0-.21-.35l-.153-.202v-.816l-.173-.148-.173-.148-.109.103c-.095.091-.135.104-.33.105a.9.9 0 0 0-.302.045c-.097.054-.286.058-.319.005-.013-.021.012-.076.056-.123l.079-.084-.094-.137a.5.5 0 0 1-.093-.273c0-.094-.016-.136-.051-.136-.096 0-.3-.231-.343-.388-.038-.14-.05-.152-.162-.152-.105 0-.119-.01-.101-.076.01-.043.078-.1.156-.135.15-.064.33-.285.372-.455a.5.5 0 0 1 .087-.175c.056-.062.054-.07-.041-.147-.08-.063-.09-.088-.054-.116.094-.073.18-.082.3-.032.108.045.137.045.235-.004a.4.4 0 0 1 .253-.034c.152.025.194-.034.087-.122-.03-.025-.054-.06-.054-.076 0-.058.205-.033.292.035a.6.6 0 0 0 .24.086c.18.024.306.098.394.232.05.078.061.161.054.425-.01.319-.006.334.104.486.063.086.164.204.226.26.137.127.493.3.688.337.08.014.257.072.396.129.233.095.265.1.42.06.143-.036.194-.033.319.016l.148.058.055-.133a.7.7 0 0 1 .354-.377c.247-.13.775-.094 1.224.082.3.118.85.288.933.288.128 0 .345-.102.345-.162 0-.025-.114-.114-.253-.198-.215-.13-.285-.154-.477-.162l-.224-.01.008-.157c.015-.314.187-.535.416-.535.047 0 .12-.04.163-.09.104-.12.154-.114.128.014-.03.154.038.164.147.022.053-.07.11-.126.128-.126.017 0 .037.06.043.134.02.244.294.3.47.097.087-.1.18-.368.146-.422-.026-.043-.64-.01-.767.04-.269.108-.67.192-.917.193-.328.001-.55-.093-.719-.306-.093-.117-.109-.168-.108-.342.001-.314.161-.524.43-.565a.46.46 0 0 1 .433.15c.11.119.115.22.012.235-.043.007-.11.056-.15.109-.068.092-.069.102-.012.188.106.162.222.158 1.067-.035.148-.034.375-.072.504-.084s.231-.03.228-.04l-.031-.118c-.05-.2-.33-.308-.527-.203-.057.031-.07.063-.053.144.012.061.006.105-.016.105-.058 0-.213-.17-.213-.235 0-.036-.024-.054-.063-.046-.044.008-.069.056-.081.155l-.018.144-.099-.097c-.055-.054-.099-.137-.099-.187s-.046-.135-.107-.195l-.106-.107.021-.36c.02-.328.015-.372-.055-.486q-.154-.248.014-.401c.12-.112.24-.131.648-.105l.344.023.116-.111c.164-.159.27-.173.574-.08.144.043.326.096.405.117s.18.06.225.088c.063.038.1.04.158.008a.5.5 0 0 1 .246-.019c.252.034.391-.008.542-.164.15-.153.23-.173.286-.068.089.166-.008.57-.203.842-.112.157-.12.181-.071.234.103.115.203.436.203.651 0 .205.003.212.125.27a.62.62 0 0 1 .328.445c.024.149-.025.216-.07.098-.03-.08-.155-.065-.219.026-.108.154-.057.668.086.86.09.121.091.14.017.14-.105 0-.258.14-.319.293-.072.18-.05.313.077.449.072.078.084.112.053.156-.039.054-.06.098-.246.495-.103.221-.254.36-.427.392-.112.02-.125.035-.125.14 0 .16-.079.337-.23.52a2.4 2.4 0 0 0-.207.293q-.136.24-.14.061c-.001-.045-.058-.146-.127-.225l-.126-.144-.089.108a.96.96 0 0 0-.233.633c0 .272.078.398.285.46.141.042.203.029.444-.095.047-.024.03.277-.023.402-.062.149-.211.257-.43.312-.092.023-.168.055-.168.07s.072.147.161.29c.186.302.303.602.415 1.06.098.4.23.624.634 1.077.236.265.325.342.376.326.095-.03.323.098.745.419.407.31.57.375.86.345.445-.046.737-.415.684-.865-.052-.442-.372-.82-1.063-1.255-.532-.335-.907-.7-1.104-1.073-.141-.269-.142-.272-.142-.684 0-.331.013-.438.066-.534.06-.111.06-.131.008-.285q-.18-.53.279-1.143c.346-.462.367-.508.364-.81-.002-.178-.023-.31-.063-.385-.075-.145-.075-.155.006-.155.067 0 .401.204.403.246.001.013.04.071.088.13.071.087.095.097.14.06a.3.3 0 0 0 .078-.154c.02-.093.036-.105.111-.086.127.032.458-.076.556-.18.066-.07.088-.14.099-.314.012-.204.004-.237-.098-.377a1 1 0 0 1-.111-.17c0-.05.255-.008.42.069.171.079.285.195.428.436.028.048.086.065.22.067.213.004.359-.065.43-.2.057-.114.068-.448.014-.481-.079-.049-.035-.126.072-.126.175 0 .444.287.521.557.057.198.057.232.005.444-.066.267-.24.524-.453.673-.144.1-.146.103-.123.273.035.269-.007.412-.168.567l-.143.137.092.086c.173.162.25.435.162.574-.028.045-.053.041-.175-.027-.32-.18-.67-.074-1.123.34-.385.352-.49.425-.755.515a1 1 0 0 1-.5.059l-.266-.022.022.238c.03.323.2.61.464.779.15.097.172.08.172-.137 0-.251.109-.481.229-.483.017 0 .02.04.008.09-.031.124.077.439.209.608.06.077.272.261.47.408.2.147.432.335.518.417.155.15.294.37.294.468 0 .054.116.088.396.119.142.015.179.003.297-.096.113-.094.135-.135.135-.25 0-.077-.023-.156-.054-.18-.03-.025-.045-.058-.035-.074.03-.049.237.05.327.157.157.185.1.55-.122.776-.042.043-.033.061.061.12.114.073.146.132.066.123-.057-.006-.068.039-.043.175.012.06 0 .157-.024.216l-.045.108-.015-.09a.3.3 0 0 0-.3-.252c-.162 0-.248.076-.248.219 0 .093.012.105.11.105.217 0 .345.138.304.326-.028.127-.06.134-.108.025-.06-.137-.144-.115-.28.074a.56.56 0 0 1-.311.244c-.143.05-.179.079-.16.121q.054.117-.022.469-.064.294.015.478c.05.116-.047.066-.28-.144-.28-.254-.413-.297-.904-.297-.207 0-.46-.018-.56-.04a.7.7 0 0 0-.2-.025c-.007.008.009.057.036.11.027.051.06.142.073.2.032.147.204.33.31.332.086.001.086.002.015.057-.055.043-.13.052-.315.04l-.243-.016v.139c0 .134.004.139.121.139.298 0 .594.187.696.441.058.143.093.157.247.098.054-.02.235-.04.403-.045l.305-.008.135-.157.135-.156.04.114c.033.093.027.147-.03.297-.038.1-.113.229-.166.284l-.097.101.132.146c.072.08.131.177.131.215s.016.08.036.092.036.068.036.123c0 .056.032.142.07.191.04.05.063.1.052.11-.011.011-.108.011-.215 0q-.326-.032-.124.151c.14.127.285.667.18.667a.3.3 0 0 1-.121-.055c-.077-.05-.091-.049-.17.015-.073.06-.084.097-.08.28.006.214.082.448.184.562q.116.128-.18.167c-.128.017-.156.036-.166.107a.58.58 0 0 0 .143.455l.11.125h-.158a.46.46 0 0 1-.313-.113.53.53 0 0 0-.286-.117c-.124-.004-.132.003-.132.104 0 .06-.013.128-.03.153-.056.088-.26.169-.474.188l-.216.019.012.137c.034.388-.326.617-.75.479-.18-.06-.324-.037-.324.051 0 .056-.062.04-.086-.022m.866-.287c.093-.094.095-.126.027-.367-.02-.069 0-.091.134-.152a.9.9 0 0 1 .307-.072c.216-.001.259-.028.301-.185a.38.38 0 0 1 .127-.198c.088-.059.314-.074.449-.032.063.02.071.006.071-.133 0-.154.108-.389.178-.389.022 0 .027-.134.013-.355-.018-.308-.012-.37.047-.47a.28.28 0 0 1 .168-.136c.131-.027.147-.06.085-.18a.65.65 0 0 0-.307-.29l-.085-.032.112-.128a.5.5 0 0 1 .22-.15c.096-.019.109-.036.109-.145 0-.155-.141-.332-.335-.419l-.14-.062.166-.119c.09-.065.165-.132.165-.148 0-.017-.138-.03-.308-.03-.338 0-.439.035-.608.213a.6.6 0 0 1-.126.111c-.01 0-.02-.101-.02-.225-.002-.39-.197-.592-.56-.577-.09.004-.204.022-.254.04l-.089.034v-.383c0-.21-.012-.445-.027-.52l-.028-.139.136.093a.7.7 0 0 0 .164.093c.204 0-.598-1.25-1.304-2.034-.54-.598-.724-.916-.779-1.336a.8.8 0 0 0-.05-.212.6.6 0 0 1-.053-.16c-.067-.312-.494-.964-.724-1.104a1.6 1.6 0 0 1-.21-.156l-.086-.08-.054.084a.7.7 0 0 0-.08.183.8.8 0 0 1-.155.244l-.131.146-.216-.113a2 2 0 0 1-.277-.167c-.076-.068-.122-.041-.15.087-.019.093-.166.36-.292.533-.05.068-.038.097.158.396.261.398.344.476.695.658.409.213.59.356.77.61.41.572.534 1.207.453 2.311-.045.619-.001 1.158.122 1.518.209.607.233.936.085 1.125-.092.116-.041.147.094.057a.45.45 0 0 1 .203-.07c.053 0 .108-.018.121-.04.048-.076.092.026.054.125-.025.066-.071.104-.146.119-.155.03-.252.168-.252.357s.042.221.171.13c.055-.039.172-.103.261-.144q.354-.16.386-.45l.018-.161.127.086c.21.143.424.104.957-.172.103-.053.462-.04.584.02.141.072.242.182.34.374.07.135.079.196.065.486-.015.302-.03.358-.165.624-.081.161-.196.34-.255.4-.1.099-.133.109-.44.129-.38.024-.571-.034-.723-.222-.106-.132-.229-.195-.32-.167-.083.027-.15.137-.123.204.018.048.478.282.553.282.052 0 .051.047-.003.1-.066.067-.225.053-.406-.035-.19-.092-.333-.065-.384.072-.024.066-.012.1.059.166a.7.7 0 0 1 .144.214c.066.157.179.177.24.041.053-.115.364-.27.544-.27.121 0 .138.01.127.077-.008.057-.065.096-.224.153-.331.119-.362.273-.065.324a.6.6 0 0 1 .242.113c.14.115.284.114.402-.003m-7.424-.69c.012-.03-.02-.144-.07-.253-.112-.245-.12-.405-.02-.405.041 0 .09.041.117.099.039.081.075.101.198.11.262.02.492-.171.766-.634.197-.333.469-.554.469-.382 0 .092.082.039.191-.123.056-.082.124-.15.151-.15.028 0 .071-.03.097-.066a.38.38 0 0 1 .306-.15c.08 0 .112-.024.151-.117.067-.157.19-.285.482-.502.28-.208.332-.28.267-.368-.035-.048-.065-.054-.135-.027-.084.032-.095.023-.161-.133-.06-.14-.071-.25-.07-.689 0-.497.004-.532.1-.734.187-.395.6-.745 1.036-.882.154-.048.554-.053.638-.008a.6.6 0 0 0 .187.045c.115.012.127.004.138-.09.011-.1.01-.102-.132-.078-.162.027-.296-.026-.433-.174-.08-.085-.084-.109-.06-.36.02-.225.013-.296-.044-.425-.11-.248-.146-.264-.6-.264-.437 0-.689.066-1.047.27-.485.278-.707.594-1.294 1.844-.088.188-.207.323-.319.362-.03.011-.025.047.022.129l.065.113h-.15c-.127 0-.171.02-.273.129-.066.07-.121.152-.121.181 0 .03-.032.116-.072.194-.102.2-.095.223.059.195l.13-.025-.024.13-.024.131.208-.02c.224-.023.407.024.407.104 0 .027-.042.088-.094.136-.172.16-.247.358-.34.897-.066.376-.238.655-.48.776-.137.068-.395.065-.598-.006-.126-.045-.236-.052-.494-.034-.385.028-.44.008-.556-.2-.11-.194-.248-.268-.382-.204-.128.06-.156.227-.044.262.042.013.13.071.195.128a.9.9 0 0 0 .259.15c.104.034.143.068.152.132.012.083.005.085-.17.068-.151-.014-.21-.043-.344-.167a1 1 0 0 0-.19-.148.4.4 0 0 0-.11.064c-.072.055-.08.085-.06.21.037.234.062.255.213.183.158-.076.21-.077.342-.008.057.029.188.06.292.068.193.015.276.08.235.186-.03.079-.297.064-.52-.028-.185-.077-.195-.077-.24-.015-.04.054-.036.092.026.24.094.227.211.26.52.143.116-.043.279-.08.363-.08.118-.003.165-.022.207-.086a.3.3 0 0 0 .054-.137c0-.054.104-.129.178-.129.064 0 .042.228-.034.342-.077.116-.093.235-.038.29.019.019.14.036.268.039.178.004.238-.008.254-.05m9.37-5.42c.014-.167.004-.265-.035-.342l-.053-.108.167-.022c.176-.024.451-.182.416-.24-.012-.019-.061-.034-.11-.034h-.088l.072-.143a.8.8 0 0 0 .073-.283c0-.173.1-.31.268-.365.092-.03.129-.067.146-.145.013-.058.054-.115.092-.126.073-.024.226-.198.198-.226-.009-.009-.078.022-.153.069-.141.087-.12.086-.737.058-.121-.005-.135-.016-.156-.13-.033-.178-.235-.471-.419-.609-.506-.38-.706-.54-.781-.629-.084-.098-.173-.102-.136-.005.034.087-.167.058-.401-.06-.26-.129-.45-.328-.58-.606-.077-.165-.095-.255-.096-.495-.001-.33-.056-.457-.155-.358-.083.083-.077.564.01.82.15.443.428.726 1.203 1.23.72.467 1.04.883 1.077 1.4.022.308-.054.527-.258.741-.228.24-.383.305-.727.305a1.17 1.17 0 0 1-.83-.306c-.26-.23-.444-.358-.479-.336-.045.028.428.699.562.795.203.147.403.19.948.205.447.012.544.026.673.092a.7.7 0 0 1 .175.118c.048.078.096-.033.114-.266m-4.579-.41c.095-.095.02-.481-.173-.877-.163-.339-.33-.53-.405-.466-.081.067-.065.161.073.42.07.131.126.263.126.293s.02.11.044.176c.034.095.034.136 0 .191-.063.101-.054.242.019.284.096.056.249.046.316-.021m-5.744-.404c.1-.072.21-.244.214-.332q.003-.06.142-.081c.165-.026.418-.22.665-.507.226-.262.592-.567.666-.553.031.006.066.052.078.101s.037.09.056.09c.052-.002.265-.376.307-.54.066-.26.067-.261.154-.153.044.054.096.099.116.099.044 0 .142-.219.178-.396.037-.183.134-.358.34-.613l.18-.226-.077-.13a2 2 0 0 0-.101-.157c-.014-.015-.077.05-.142.144-.16.235-.371.382-.554.385-.137.003-.146-.004-.194-.145a.7.7 0 0 0-.137-.23l-.088-.082-.126.096c-.282.215-.466.458-.724.958-.35.679-.612.95-.981 1.02q-.237.045-.536-.23c-.14-.13-.175-.145-.31-.135-.13.01-.152.023-.162.101-.008.072.028.12.18.234.26.199.32.231.43.233.093.001.16.083.119.148-.011.018-.096.033-.19.033-.143 0-.2-.025-.383-.162-.24-.18-.31-.195-.415-.09-.093.093-.09.13.018.259.05.058.09.137.09.173 0 .037.025.092.057.123.061.062.25.077.284.023.011-.019.097-.044.19-.056.094-.012.25-.047.345-.076q.275-.084.276.079c0 .07-.31.195-.486.195-.267 0-.313.167-.073.267.07.03.138.08.15.112.052.133.275.144.444.021m3.643-2.695c.164-.135.203-.184.278-.351.143-.316.113-.6-.09-.87q-.164-.221.146-.105c.191.073.244.13.38.41.116.242.226.335.401.344.108.005.12-.007.201-.211.086-.216.099-.511.03-.675-.042-.098.044-.077.148.036.05.054.142.18.204.277a.73.73 0 0 0 .654.357c.155.002.244-.015.315-.063.136-.091.124-.13-.04-.13-.165 0-.346-.112-.463-.285-.158-.234-.094-.74.138-1.091.078-.118.359-.352.423-.352.02 0 .058.069.086.153s.075.158.104.163c.03.006.108-.066.176-.16.106-.148.122-.2.124-.388a1 1 0 0 0-.032-.285c-.028-.06-.022-.064.055-.037.278.099.463-.024.664-.442l.125-.26-.072-.12c-.088-.143-.098-.451-.02-.603a.7.7 0 0 1 .149-.178l.096-.075-.06-.21c-.106-.381-.07-.708.096-.874.127-.128.102-.173-.11-.201l-.146-.02.019-.256a.9.9 0 0 0-.059-.46c-.108-.288-.148-.313-.345-.215-.22.11-.356.117-.37.017-.009-.062.03-.096.216-.183.274-.129.517-.364.575-.554.023-.077.034-.148.024-.158s-.087.016-.172.057a.67.67 0 0 1-.358.065c-.244-.012-.353.02-.383.114-.03.096-.06.088-.132-.038-.068-.12-.098-.135-.526-.267-.367-.114-.37-.114-.474-.004-.092.098-.085.105.146.143.138.023.245.12.407.374a.8.8 0 0 0 .204.216c.058.033.106.08.106.105 0 .068-.15.052-.252-.027-.114-.089-.15-.089-.296 0-.143.087-.199.09-.347.015-.114-.057-.221-.212-.221-.32 0-.031-.041-.072-.091-.091-.087-.033-.088-.04-.035-.12l.055-.085L12.672 9c-.245-.035-.348-.037-.415-.006-.111.05-.111.08.001.258.098.155.112.311.051.575-.046.2-.004.24.286.27.529.054 1.015.158 1.236.266.25.121.332.298.334.725.001.317-.007.356-.11.539a.7.7 0 0 1-.27.288c-.143.082-.198.09-.537.09a1.9 1.9 0 0 1-.695-.102c-.297-.094-.323-.097-.405-.043-.145.095-.113.177.088.225.097.023.31.12.474.215.262.152.323.173.505.173.18 0 .226-.016.354-.118l.147-.118v.121c0 .197-.13.29-.43.308-.222.012-.254.024-.323.117-.201.273-.525.292-1.173.069-.846-.291-1.116-.336-1.373-.23-.261.108-.37.266-.406.59l-.022.198-.07-.116a.5.5 0 0 0-.382-.226c-.084 0-.324.106-.437.193-.059.045-.057.06.027.233.049.102.089.2.089.217s.04.074.09.127l.088.096.19-.105a2.6 2.6 0 0 1 .406-.17c.26-.08.477-.197.593-.32.087-.092.289-.128.289-.052 0 .162-.338.403-.776.554a5 5 0 0 0-.358.135c-.195.1-.338.326-.394.623a1.8 1.8 0 0 1-.132.355c-.058.117-.097.221-.086.232.01.01.08-.04.155-.113.12-.118.157-.133.319-.133.13 0 .21.021.278.075l.096.076-.146.131c-.126.114-.15.16-.178.348l-.045.288c-.006.043.007.068.034.063q.045-.009.045.134c0 .105.027.174.102.26a.9.9 0 0 1 .125.182c.09.249.546-.308.618-.756.014-.084.044-.153.067-.152.102 0 .146.077.173.3.027.228.054.297.217.557q.076.12.094.369c.02.29.066.315.266.15m5.358-1.38c.123-.053.331-.204.551-.402.47-.42.576-.473.952-.475.163-.001.297-.013.297-.027s-.06-.07-.132-.126c-.118-.09-.162-.101-.406-.101-.29 0-.44.048-.762.242-.185.111-.256.123-.315.052-.09-.108.459-.44.797-.481.196-.024.35-.166.35-.323 0-.103-.187-.3-.284-.3-.076 0-.567.32-.685.446-.066.071-.098.084-.135.053a.15.15 0 0 1-.048-.103c0-.075.266-.329.437-.416.21-.107.383-.264.485-.44.081-.14.1-.215.101-.425.003-.225-.008-.27-.098-.387a.5.5 0 0 0-.126-.132c-.014 0-.026.103-.028.229-.004.402-.238.666-.651.733-.083.013-.157.065-.245.174-.112.136-.127.18-.13.364-.003.217-.065.449-.127.47-.02.006-.063-.01-.098-.035-.053-.039-.056-.063-.021-.164.06-.17.028-.603-.05-.68-.058-.059-.061-.058-.061.02 0 .178-.118.466-.289.707-.397.56-.464.746-.394 1.083.042.205.21.4.431.497.169.075.438.055.684-.052m-8.795-1.268a2 2 0 0 0-.044-.249c-.02-.082-.01-.105.064-.138.078-.036.11-.026.256.086.261.2.75.463.869.469.09.004.11-.01.12-.085a.3.3 0 0 1 .045-.124c.06-.062.035-.157-.069-.26a1 1 0 0 1-.168-.282 2 2 0 0 0-.168-.335 1.3 1.3 0 0 1-.102-.17c0-.008.049-.04.108-.071.19-.098.134-.147-.306-.259a1.77 1.77 0 0 1-1.033-.687c-.114-.163-.12-.184-.12-.52-.002-.287-.015-.362-.07-.422-.07-.079-.232-.099-.294-.037-.043.044.02.434.092.569.056.105.027.186-.067.186-.103 0-.183-.143-.216-.382-.022-.167-.048-.223-.132-.29q-.2-.162-.344.005a.5.5 0 0 1-.195.128c-.122.04-.19.136-.113.16l.177.054c.084.026.216.127.36.275.258.265.269.284.207.358-.039.047-.055.047-.138-.005a2 2 0 0 1-.276-.253c-.164-.174-.198-.194-.332-.194-.114 0-.159.017-.19.075-.022.041-.03.098-.02.126.011.029-.008.11-.042.182l-.061.13.124.103c.143.12.186.126.308.046.082-.054.096-.054.181.002l.092.06-.152.135c-.13.116-.148.149-.127.233.035.14.323.318.49.304.108-.009.144-.038.262-.217.133-.201.204-.242.31-.175.04.025.04.043 0 .11-.046.075-.035.093.167.275l.216.195-.01.416-.01.416.13.18c.13.176.134.178.186.104q.053-.076.035-.227m10.585-.273c.107-.127.11-.368.005-.515-.064-.09-.068-.114-.027-.14a.2.2 0 0 1 .092-.032c.074-.001.445-.366.518-.51.127-.248.075-.787-.076-.787-.019 0-.034.062-.034.139 0 .289-.304.54-.657.544a.7.7 0 0 0-.171.012c0 .128-.1.465-.166.562l-.088.129.144.126c.167.147.232.294.2.46-.012.064-.012.133 0 .153.03.048.16-.022.26-.14m-4.655-2.456c.071-.122.073-.226.003-.284-.072-.06-.162-.02-.162.073a.7.7 0 0 1-.071.222c-.04.08-.063.16-.053.176.028.046.22-.081.283-.187m-2.247-.404c0-.027-.03-.077-.068-.11-.134-.122-.11-.394.047-.524.077-.064.038-.11-.093-.11-.14 0-.318.18-.318.322 0 .156.102.321.246.397.159.084.186.088.186.025m2.32-.439a.6.6 0 0 0-.151-.182c-.076-.05-.081-.048-.081.036 0 .142.065.273.152.306.127.049.157-.014.08-.16m-.29-1.334c.063-.163-.16-.26-.283-.124-.053.059-.057.082-.02.126.061.074.275.072.303-.002" style="fill:#000;stroke-width:.036"/></svg>