<svg xmlns="http://www.w3.org/2000/svg" xml:space="preserve" viewBox="0 0 36 36"><path d="M4 5a4 4 0 0 0-4 4v18a4 4 0 0 0 4 4h28a4 4 0 0 0 4-4V9a4 4 0 0 0-4-4z" style="fill:#fcdd09;fill-opacity:1;stroke-width:.067852"/><path d="M1.361 6A3.99 3.99 0 0 0 0 9v11.4h36V9a3.99 3.99 0 0 0-1.361-3z" style="fill:#0f47af;fill-opacity:1;stroke-width:.06"/><path d="M4 5a4 4 0 0 0-4 4v6.6h36V9a4 4 0 0 0-4-4z" style="stroke-width:.0772198;fill:#eee;fill-opacity:1"/><path d="M5.046 28.653a.46.46 0 0 1-.292-.152.8.8 0 0 1-.174-.381c-.01-.049-.009-.059.016-.102.071-.122.27-.161.405-.08a.3.3 0 0 1 .077.082.2.2 0 0 1-.009.053.7.7 0 0 0 .017.45.5.5 0 0 0 .083.133.4.4 0 0 1-.123-.003m7.341-.193a.54.54 0 0 1-.313-.425c-.016-.098-.006-.302.017-.342.015-.027.065-.061.108-.073a.4.4 0 0 1 .147.004.4.4 0 0 1 .118.057.28.28 0 0 1 .107.165c.003.02.001.024-.02.049a.7.7 0 0 0-.134.304.6.6 0 0 0 .017.26q.009.025.003.023zm-5.922-.187c.036-.162-.03-.369-.168-.52L6.25 27.7l.004-.032c.017-.117.127-.226.259-.255a.21.21 0 0 1 .18.035c.024.018.029.031.05.12a.8.8 0 0 1 .01.365.55.55 0 0 1-.291.366c-.002 0 0-.012.003-.027m7.262 0 .014-.035a.4.4 0 0 0 .034-.192.5.5 0 0 0-.01-.127.7.7 0 0 0-.095-.238l-.026-.04.008-.025c.025-.08.097-.146.195-.18a.3.3 0 0 1 .098-.012c.053 0 .067.002.094.012a.23.23 0 0 1 .1.078l.012.021v.11c0 .121-.006.169-.03.253a.5.5 0 0 1-.108.202.56.56 0 0 1-.28.173zm-10.135-.149a.6.6 0 0 1-.102-.219c-.044-.188.008-.379.159-.583.024-.033.035-.039.08-.045.06-.009.138.026.197.087a.4.4 0 0 1 .107.2.3.3 0 0 1-.006.122c-.006.016-.01.02-.032.027a.7.7 0 0 0-.166.097.53.53 0 0 0-.201.327l-.006.032zm.9-.052a.5.5 0 0 1-.092-.117.6.6 0 0 1-.042-.12l.038-.023a.4.4 0 0 0 .118-.116.7.7 0 0 0 .08-.215c0-.002-.009-.006-.019-.009l-.025-.008q-.005-.003-.02.045c-.043.131-.109.224-.192.267a.24.24 0 0 1-.13.031.3.3 0 0 1-.131-.028q-.036-.015-.023-.019a.1.1 0 0 0 .018-.03.38.38 0 0 0-.037-.321 1 1 0 0 0-.064-.082.3.3 0 0 0-.091-.074c-.07-.038-.122-.047-.185-.032a.1.1 0 0 1-.034.004.3.3 0 0 1-.017-.051.42.42 0 0 1 .054-.382c.03-.042.1-.112.129-.127a.4.4 0 0 1 .223-.018.7.7 0 0 1 .285.138c.035.03.048.035.063.025q.028-.022-.014-.06a.8.8 0 0 0-.31-.159.5.5 0 0 0-.186-.006l-.041.008-.024-.017a.24.24 0 0 1-.072-.082.25.25 0 0 1-.017-.111c.002-.015.005-.028.007-.028.001 0 .009.01.016.021l.014.02.042-.002a.25.25 0 0 0 .177-.087c.13-.132.169-.359.083-.49l-.017-.03a.267.267 0 0 1 .234-.06.26.26 0 0 1 .169.152.4.4 0 0 1 .036.159.6.6 0 0 1-.029.212 1 1 0 0 0-.015.064c0 .002.387-.017.86-.043l.878-.047h.022l.008-.04c.057-.296.158-.557.32-.826a4 4 0 0 1 .467-.63l.078-.088-.046-.1a9 9 0 0 1-.16-.37 1.8 1.8 0 0 1-.094-.358 1.7 1.7 0 0 1 0-.338c.014-.107.051-.255.094-.371l.01-.026-.023-.014c-.013-.008-.025-.012-.027-.01l-.044.07c-.06.098-.088.137-.135.19a.53.53 0 0 1-.29.18c-.022.006-.077.01-.15.014-.205.008-.283.03-.378.108q-.014.013-.017.012a1 1 0 0 1 .024-.156c.049-.224.113-.38.3-.736.043-.08.077-.145.076-.146l-.056.014a.4.4 0 0 1-.088.015.25.25 0 0 1-.209-.116.4.4 0 0 1-.056-.221 1 1 0 0 1 .007-.153c.005-.042.01-.088.01-.103a.4.4 0 0 0-.035-.154c-.01-.028-.017-.048-.015-.046l.047.037q.183.146.35.186a.6.6 0 0 0 .233-.002c.175-.048.323-.182.471-.427.154-.253.36-.49.595-.682.45-.368.989-.557 1.506-.528.346.02.67.119.998.304l.069.04-.002.017a2.6 2.6 0 0 0-.008.437.964.964 0 0 0 .208.545l.017.018-.015.065c-.018.08-.034.16-.034.178 0 .015.004.016-.074-.019-.336-.15-.699-.168-1-.048a.9.9 0 0 0-.49.442.3.3 0 0 0-.02.05l.021.017.02.016.029-.027a1.4 1.4 0 0 1 .316-.23c.095-.05.271-.123.275-.114a.3.3 0 0 1-.022.054c-.044.097-.09.222-.12.33a2.4 2.4 0 0 0-.084.57c0 .205-.039.387-.11.519a.7.7 0 0 1-.34.306l-.066.034a1 1 0 0 0 .116.076c.293.178.404.276.465.409.061.136.047.27-.051.464a1 1 0 0 0-.107.445c0 .077.007.136.03.25.035.178.046.275.046.412 0 .173-.024.306-.08.438q-.023.056-.024.034a1 1 0 0 0-.068-.142 2 2 0 0 0-.319-.363 1.7 1.7 0 0 1-.226-.237.55.55 0 0 1-.104-.206l-.008-.037h-.053l-.006.022a.7.7 0 0 0-.006.331c.04.172.129.328.343.602.094.12.114.147.156.216.09.147.147.294.166.433.005.037.007.183.003.187-.001.002-.008-.01-.015-.024a1.2 1.2 0 0 0-.347-.42 2.6 2.6 0 0 0-.433-.26c-.1-.05-.27-.145-.328-.186a.5.5 0 0 1-.119-.102.6.6 0 0 1-.122-.208.2.2 0 0 0-.017-.037c-.005 0-.05.09-.06.122a.4.4 0 0 0-.002.167.6.6 0 0 0 .075.167c.04.064.067.097.162.204.043.049.093.11.11.135a.7.7 0 0 1 .085.177.5.5 0 0 1 .008.135.2.2 0 0 1-.025-.037c-.056-.096-.141-.153-.34-.225a2 2 0 0 1-.134-.052.5.5 0 0 1-.132-.1l-.037-.038-.022.015-.02.016.014.026c.056.104.11.253.129.354.013.071.014.07-.016.049a1 1 0 0 0-.36-.145 4 4 0 0 0-.234-.04l.053.055c.078.076.103.114.119.18a.35.35 0 0 1-.048.245l-.006.011-.022-.019c-.081-.073-.193-.086-.31-.036a.39.39 0 0 0-.233.283c-.006.03-.003.087.004.087q.005.001.017.013l.014.013-.063-.002a.3.3 0 0 1-.156-.039c-.107-.055-.174-.151-.215-.308l-.015-.057-.033-.002-.07-.005c-.044-.002-.04-.007-.047.055a.83.83 0 0 1-.291.528c-.062.053-.162.12-.208.139-.012.005-.012.005-.008-.007l.012-.028c.006-.014.006-.017-.008-.047a.31.31 0 0 0-.294-.163.3.3 0 0 0-.11.014.3.3 0 0 0-.142.09.25.25 0 0 0-.067.124l-.005.027zm8.134-.157-.013-.003.01-.01c.01-.01.01-.014.008-.042a.34.34 0 0 0-.194-.266c-.103-.053-.223-.057-.307-.011q-.09.049-.102.117c-.007.034-.008.034-.055.008a.33.33 0 0 1-.135-.137.47.47 0 0 1-.012-.37.7.7 0 0 1 .231-.314.3.3 0 0 0 .056-.054c-.02 0-.112.01-.136.016a.3.3 0 0 0-.157.102 1 1 0 0 0-.104.186.7.7 0 0 1-.09.166c-.072.083-.156.06-.229-.064a1 1 0 0 1-.055-.121c-.003-.012-.003-.012.011-.009s.017.002.046-.031a.3.3 0 0 0 .068-.126.6.6 0 0 0-.002-.223c-.037-.144-.12-.243-.227-.271l-.033-.009v-.028c0-.053.022-.105.053-.123a.24.24 0 0 1 .105-.008c.019.002.085.018.148.035.154.041.178.044.253.033.082-.012.076-.008.076-.043v-.029l-.04-.009a1 1 0 0 1-.103-.031.47.47 0 0 1-.212-.13q-.095-.115.018-.247a.6.6 0 0 1 .105-.093c.002 0 .005.015.007.032.005.03.006.032.027.048.012.009.036.021.053.028a.36.36 0 0 0 .187 0 .42.42 0 0 0 .24-.204.3.3 0 0 0 .033-.132l.003-.053.023-.007a.5.5 0 0 1 .176-.001c.05.015.089.04.13.083a.7.7 0 0 1 .157.333c.034.147.046.274.045.476v.148l.015.002.105.024c.34.078.505.046.651-.126l.023-.027-.008-.125c-.021-.335 0-.529.088-.789.099-.294.127-.414.127-.542 0-.124-.032-.192-.108-.234a.3.3 0 0 0-.154-.034.7.7 0 0 0-.162.01c-.218.032-.338.022-.45-.037-.144-.076-.245-.237-.315-.5a3.7 3.7 0 0 1-.098-.71c-.003-.048 0-.045-.04-.051-.016-.003-.016-.003-.022.018a.36.36 0 0 1-.197.22c-.07.035-.237.089-.275.089a.3.3 0 0 0-.103.03.3.3 0 0 0-.116.13.4.4 0 0 0-.036.16.5.5 0 0 0 .046.236q.053.116.15.187l.029.021a1 1 0 0 1-.09.052c-.165.078-.29.034-.411-.146l-.036-.052c-.002-.003-.016.02-.033.048a.75.75 0 0 1-.257.29.7.7 0 0 1-.143.064c-.018 0-.044-.153-.048-.284-.003-.112.005-.2.031-.355l.016-.106a.3.3 0 0 0-.037.028c-.124.102-.208.14-.324.147a.39.39 0 0 1-.313-.124.4.4 0 0 1-.095-.149l-.016-.043.055-.006a.6.6 0 0 0 .37-.176.38.38 0 0 0 .112-.295.55.55 0 0 0-.109-.284c-.32-.493-.342-.967-.074-1.663l.075-.183c.076-.182.102-.259.124-.368.023-.11.028-.17.028-.297 0-.19-.023-.338-.08-.53-.163-.53-.563-1.051-1.004-1.303a1.4 1.4 0 0 0-.267-.118c-.429-.152-.661-.282-.83-.466a.7.7 0 0 1-.101-.133c0-.001.028-.009.063-.016q.625-.136.936-.405c.088-.076.16-.157.224-.255l.03-.045.007.012a1.69 1.69 0 0 0 .304.36 1 1 0 0 0 .526.229c.072.008.217.003.297-.01.066-.012.184-.042.25-.065.053-.018.184-.073.23-.096a.6.6 0 0 1 .146-.046l.026-.003.185.202c.348.38.567.643.795.959a5.3 5.3 0 0 1 .574.983c.033.075.035.08.074.121.066.07.145.12.251.16.117.042.21.056.359.052a.9.9 0 0 0 .402-.092.6.6 0 0 0 .356-.5q.023-.288-.204-.643a3 3 0 0 0-.168-.233 2 2 0 0 1-.297-.436.6.6 0 0 1-.063-.292V17.9l-.147.201c-.08.111-.148.2-.149.197l.01-.09c.032-.228.042-.358.042-.543 0-.165-.006-.24-.027-.364a1.3 1.3 0 0 0-.55-.866.1.1 0 0 1-.026-.02c.003-.002.198.025.28.04.328.057.529.19.675.447.073.13.137.31.178.508l.018.085h.024c.013 0 .025-.003.027-.006.008-.015.02-.419.025-.951.007-.6.015-.876.035-1.183a6.6 6.6 0 0 1 .202-1.28c0-.002.012.008.028.021q.034.03.112.127c.008.01.008.013-.008.088-.116.551-.17 1.093-.22 2.168a72 72 0 0 1-.055 1.11c0 .003.055-.046.124-.115l.123-.12.006-.068c.033-.398.144-.661.345-.812.12-.09.28-.144.504-.17l.03-.004-.01.012a1.3 1.3 0 0 0-.18.291c-.135.289-.234.719-.303 1.32-.01.09-.014.143-.014.2 0 .11-.013.177-.046.233a.17.17 0 0 1-.075.073c-.021.01-.031.013-.067.012-.063 0-.107-.017-.183-.072q-.162-.116-.206-.056c-.022.029-.02.07.007.142a.4.4 0 0 0 .097.154c.14.159.227.286.294.437a1.08 1.08 0 0 1-.09 1.077 1.7 1.7 0 0 1-.225.247 1.1 1.1 0 0 1-.445.228.6.6 0 0 1-.15.011.4.4 0 0 1-.142-.01.6.6 0 0 1-.159-.073l-.053-.034q-.003 0 .002.015l.04.102c.185.476.24.87.176 1.237l-.011.061q-.003.008.022.015c.057.015.156.068.256.136.116.08.221.163.455.36.092.078.138.104.203.117a.2.2 0 0 0 .119-.01c.088-.029.233-.143.48-.377.14-.132.272-.249.343-.302.13-.097.215-.138.292-.139.039 0 .045.001.073.016.041.022.078.066.078.093 0 .056-.018.605-.02.607a.2.2 0 0 1-.037-.024.3.3 0 0 0-.19-.064c-.225.014-.375.358-.495 1.14l-.012.082.024.01c.014.007.026.011.027.01l.063-.098c.134-.206.218-.298.322-.354l.04-.02c.002 0-.009.04-.024.088-.06.195-.095.371-.11.55-.01.112-.006.312.009.42.023.176.061.33.097.398.126.238.2.484.23.756.008.082.013.323.008.376l-.004.036-.25-.248a12 12 0 0 0-.3-.29 2 2 0 0 1-.281-.284 1.4 1.4 0 0 1-.222-.45.1.1 0 0 0-.047.008c-.005.004-.004.022.006.093a1 1 0 0 0 .048.22c.052.142.148.281.323.473.056.061.129.137.16.167.044.042.068.071.098.115.16.236.242.44.252.631a.3.3 0 0 1 .001.054l-.02-.028a.6.6 0 0 0-.122-.126.6.6 0 0 0-.195-.092.6.6 0 0 1-.228-.138 1 1 0 0 1-.184-.256 5 5 0 0 0-.189-.293c-.008-.01-.042.057-.05.096-.029.157.135.487.517 1.04l.076.11.05.029c.09.052.154.103.222.18.07.08.122.164.166.272.021.051.06.168.06.18 0 .003-.02-.008-.043-.025a.45.45 0 0 0-.288-.101c-.09 0-.137.015-.276.089-.2.104-.291.14-.367.14-.11 0-.129-.129-.06-.396l.013-.052-.015-.065a.7.7 0 0 0-.052-.16.25.25 0 0 0-.084-.108 1 1 0 0 1-.064-.056c-.017-.018-.033-.03-.034-.026l.004.13c.012.25.005.448-.019.577-.027.15-.082.265-.154.327-.047.04-.046.04-.065.011a.25.25 0 0 0-.092-.083.26.26 0 0 0-.161-.032.3.3 0 0 0-.146.033.34.34 0 0 0-.197.246c-.003.021-.002.025.008.035s.01.012.003.015a.5.5 0 0 1-.128-.001.16.16 0 0 1-.107-.084.46.46 0 0 1-.01-.23c.012-.08.056-.228.094-.327l.01-.023-.024-.01c-.012-.007-.024-.01-.026-.009a.4.4 0 0 0-.026.058c-.185.454-.355.716-.529.812a.3.3 0 0 1-.153.04c-.033 0-.066 0-.073-.002zm-1.824-.683a.8.8 0 0 1-.006-.262q.051-.267.344-.431c.044-.026.05-.027.071-.025.072.01.148.085.184.181.021.056.026.085.025.155a.3.3 0 0 1-.01.096c-.019.055-.053.104-.069.098a.7.7 0 0 0-.176.004.6.6 0 0 0-.18.065.5.5 0 0 0-.17.171.3.3 0 0 1-.013-.052m-7.029-.929a.6.6 0 0 0-.215-.155.4.4 0 0 0-.282-.025q-.017.005-.02.002a.5.5 0 0 1 .064-.124.5.5 0 0 1 .25-.204.66.66 0 0 1 .384.006c.042.011.053.019.075.053a.25.25 0 0 1 .033.133c0 .153-.095.304-.215.339-.04.011-.045.01-.074-.025m7.956-.473c-.047-.014-.06-.025-.06-.048a.7.7 0 0 0-.051-.171.56.56 0 0 0-.216-.264.4.4 0 0 0-.063-.03l-.03-.011.026-.016q.262-.168.51-.032c.068.038.164.121.222.193l.03.038.002.04a.25.25 0 0 1-.073.188.33.33 0 0 1-.242.12.2.2 0 0 1-.055-.007m-1.464-4.15a.9.9 0 0 1-.154-.367c-.043-.237-.028-.499.054-.915l.025-.13-.015-.05a2.2 2.2 0 0 0-.212-.49 1.8 1.8 0 0 0-.23-.314l-.057-.063.041-.064.046-.068c.005-.005.03.008.106.06.152.101.283.213.463.396l.076.077.032.071c.085.19.137.376.163.581.01.075.008.288-.003.358-.023.158-.049.243-.134.447-.075.176-.111.274-.156.413l-.026.083zm-6.728-.877a.5.5 0 0 1-.213-.098.4.4 0 0 1-.098-.104.8.8 0 0 1-.12-.365c-.01-.102-.006-.125.033-.165a.26.26 0 0 1 .23-.072c.105.012.19.068.229.15l.015.03-.01.015a1 1 0 0 0-.052.13.6.6 0 0 0-.027.187.47.47 0 0 0 .064.281c.017.028.018.028-.051.01m1.395-.356a.4.4 0 0 1-.122-.049.8.8 0 0 1-.246-.242c-.034-.05-.035-.053-.035-.081 0-.118.102-.235.239-.273a.25.25 0 0 1 .197.026c.016.011.017.014.02.05.011.12.048.235.106.33a.5.5 0 0 0 .194.176.53.53 0 0 1-.352.063m-1.26-.305c-.01-.002-.017-.01-.028-.033-.103-.194-.408-.237-.549-.077l-.024.027h-.054c-.093 0-.126-.013-.143-.056a.37.37 0 0 1 .024-.304c.044-.09.094-.163.234-.339.147-.183.206-.274.228-.35a1 1 0 0 0 .022-.143 1.8 1.8 0 0 0-.278.298 2 2 0 0 1-.223.25c-.088.073-.157.088-.227.05a.4.4 0 0 1-.115-.116l-.017-.028.014-.022a.3.3 0 0 0 .026-.059.24.24 0 0 0 .012-.095.4.4 0 0 0-.034-.17c-.055-.129-.153-.219-.258-.237l-.037-.006-.015-.043a.8.8 0 0 1-.046-.225c-.003-.091.008-.138.043-.17.03-.03.061-.029.158 0a.9.9 0 0 0 .342.05c.027-.004.085-.015.13-.027a1 1 0 0 1 .118-.024c.04-.002.04-.002.045-.038.003-.022.003-.023-.01-.03a.5.5 0 0 0-.151-.04c-.03-.002-.1-.003-.155-.001-.156.005-.188-.005-.248-.074a.4.4 0 0 1-.076-.14.5.5 0 0 1 .002-.202.6.6 0 0 1 .084-.183c.002-.002.016-.002.032 0 .136.025.293-.09.356-.261a.35.35 0 0 0 .023-.162l-.002-.062.028-.025a.4.4 0 0 1 .086-.062.27.27 0 0 1 .272-.006c.128.07.209.224.223.424a1 1 0 0 1-.014.193.3.3 0 0 0 0 .09c.026.235.108.364.26.408a.5.5 0 0 0 .21-.002c.238-.055.557-.247 1.009-.607.173-.138.165-.13.21-.2.223-.354.471-.634.728-.822.093-.067.232-.153.232-.143l-.009.044a1.8 1.8 0 0 0-.032.509c.029.342.152.697.367 1.055.025.043.047.077.048.076l.032-.136c.08-.352.136-.534.22-.716.17-.368.432-.635.833-.85l.082-.044a.3.3 0 0 1-.026.047.93.93 0 0 0-.142.455c-.007.104.005.258.027.364.016.07.025.37.014.45-.005.034-.007.04-.015.043a2 2 0 0 0-.384.121.55.55 0 0 0-.298.346c-.03.104-.037.16-.038.363 0 .152-.002.177-.011.233-.03.182-.102.371-.201.525l-.02.03-.003-.068a.85.85 0 0 0-.14-.418c-.09-.146-.1-.172-.103-.265-.004-.098.015-.171.082-.308a1 1 0 0 0 .036-.078 1 1 0 0 0-.122.055c-.131.083-.207.26-.188.439.01.095.032.162.089.277a.8.8 0 0 1 .078.206c.032.154-.02.277-.165.396l-.032.025s.002-.016.007-.034a.37.37 0 0 0-.09-.352c-.07-.077-.16-.116-.231-.1q-.048.011-.083.066a.46.46 0 0 1-.181.162c-.215.098-.473-.059-.567-.344a1 1 0 0 1-.037-.185l-.009-.068a.6.6 0 0 0-.077.101c-.021.046-.025.069-.024.15 0 .06.003.094.015.164l.039.242.028-.003a.3.3 0 0 1 .143.01q.154.058.176.195c.014.09-.037.203-.124.276-.034.028-.04.03-.04.02s-.041-.047-.069-.062a.24.24 0 0 0-.132-.03.3.3 0 0 0-.176.048.35.35 0 0 0-.19.251c-.005.045-.008.049-.051.06a.25.25 0 0 1-.123 0c-.082-.026-.173-.128-.234-.264a2 2 0 0 1-.06-.175 1.6 1.6 0 0 0-.11-.294 1 1 0 0 0-.11-.168.5.5 0 0 0-.024.137c0 .082.021.149.092.285a.595.595 0 0 1 .08.383q-.024.12-.148.143a.4.4 0 0 1-.117.004zm-1.662-.526a.6.6 0 0 1-.074-.298c0-.142.05-.266.16-.406q.084-.105.123-.113c.056-.011.13.018.186.075.1.101.142.256.097.363l-.01.026-.062.017a.6.6 0 0 0-.32.217.6.6 0 0 0-.075.158c-.002.002-.014-.016-.025-.04m5.519-1-.012-.063c-.055-.28-.05-.502.016-.709.042-.13.055-.203.059-.339a2.4 2.4 0 0 0-.022-.378 1.3 1.3 0 0 1-.025-.27c0-.119.01-.186.04-.282a.9.9 0 0 1 .154-.294l.042-.053c.004-.007-.02-.048-.028-.048-.01 0-.133.06-.215.105-.23.125-.4.256-.553.426-.235.261-.377.574-.49 1.073-.01.046-.02.089-.023.094-.003.008-.01-.001-.037-.05-.267-.475-.365-.97-.277-1.4.037-.176.11-.346.211-.496a2 2 0 0 1 .297-.323 1 1 0 0 0-.204-.091 1.1 1.1 0 0 0-.348-.068.8.8 0 0 0-.521.15 1 1 0 0 0-.245.294 1.6 1.6 0 0 0-.147.466 2.185 2.185 0 0 1-.193-.668 2.4 2.4 0 0 1-.007-.35c.035-.43.206-.795.488-1.044a1.26 1.26 0 0 1 .805-.317c.02 0 .047-.002.06-.004l.024-.003-.035-.046c-.17-.222-.25-.413-.265-.628-.024-.35.162-.625.46-.682a.8.8 0 0 1 .219-.003c.076.013.17.04.24.07l.012.006-.03.05a.643.643 0 0 0-.107.45.48.48 0 0 0 .162.28c.171.146.432.206.759.175.068-.007.192-.027.257-.043.028-.007.465-.088.971-.18s.926-.17.933-.17c.013-.004.013-.005.013-.034 0-.025-.001-.03-.008-.03l-.453-.053-.445-.053-.046.025a.35.35 0 0 1-.178.046q-.158-.001-.21-.116c-.016-.033-.016-.036-.016-.098 0-.058.002-.066.016-.109l.031-.08.016-.034-.016-.032a.41.41 0 0 1 .024-.374l.01-.018.007.02c.037.102.075.17.123.221a.3.3 0 0 0 .123.084.2.2 0 0 0 .09.012.3.3 0 0 0 .125-.028 1.3 1.3 0 0 1 .503-.086c.122.002.157.007.313.036l.153.029c.113.02.17 0 .202-.07.024-.05.021-.102-.027-.556-.022-.21-.044-.396-.048-.41a.53.53 0 0 0-.236-.322.26.26 0 0 0-.151-.033c-.069.003-.096.014-.202.079-.1.062-.14.084-.228.125-.132.063-.25.101-.37.12-.06.01-.08.01-.168.008l-.119-.006-.019-.003-.006.05a1.2 1.2 0 0 1-.08.322.3.3 0 0 1-.027.055c-.005 0-.078-.09-.11-.137a1.3 1.3 0 0 1-.207-.586 4 4 0 0 1-.016-.207.1.1 0 0 0-.03-.017.55.55 0 0 1-.286-.325 2 2 0 0 1-.051-.185c-.002-.01.046-.046.545-.4l.546-.387.015-.05a.64.64 0 0 1 .184-.303.52.52 0 0 1 .3-.135c.053-.006.127 0 .29.021.533.07 1.218.266 1.81.518.136.057.344.154.41.19l.024.014-.07.037c-.112.059-.17.108-.194.166-.02.046-.012.08.017.08.014 0 .027-.016.027-.034q0-.012.007-.026a.3.3 0 0 1 .068-.073 1 1 0 0 1 .243-.12.768.768 0 0 0 .344-.242l.084-.093.007.013.025.062c.092.24.098.463.022.76a.4.4 0 0 1-.05.13 1 1 0 0 1-.273.321c-.065.047-.073.055-.074.07 0 .012.016.03.027.03s.074-.044.126-.086a1.1 1.1 0 0 0 .228-.281c.006-.018.026.021.04.072a.8.8 0 0 1 0 .23.75.75 0 0 1-.118.29 1 1 0 0 0-.106.229.6.6 0 0 0-.01.215c.024.1.081.168.165.195.032.01.104.01.143 0a.5.5 0 0 0 .14-.063.2.2 0 0 1 .041-.023.3.3 0 0 1-.008.055c-.05.254-.181.466-.346.556a.51.51 0 0 1-.387.027.61.61 0 0 1-.342-.323 1 1 0 0 1-.064-.238q-.004-.046-.017-.055c-.01-.007-.025-.004-.033.007s-.008.013-.003.06c.036.312.225.551.488.619a.4.4 0 0 0 .134.013c.08 0 .09-.001.183-.026.009-.002.01.001.015.027.03.169.007.368-.068.614a2 2 0 0 0-.03.11c-.019.091 0 .185.048.25.02.025.065.057.101.07a.3.3 0 0 0 .154.002.51.51 0 0 0 .283-.25q.014-.024.017-.025a1 1 0 0 1-.006.19c-.026.232-.105.41-.23.515a.5.5 0 0 1-.16.085 1 1 0 0 1-.105.019 1.4 1.4 0 0 1-.504-.055c-.246-.072-.452-.215-.558-.388a.6.6 0 0 1-.09-.256c-.002-.03-.005-.04-.013-.05q-.017-.018-.038 0c-.012.01-.001.096.02.172.104.36.526.62 1.033.638.066.002.091.004.091.009 0 .009-.053.12-.082.172-.081.143-.199.29-.321.396s-.163.155-.199.23c-.094.2-.039.39.127.435.04.012.118.01.174-.002a1 1 0 0 0 .18-.066l.039-.02-.003.014a1 1 0 0 1-.064.154.8.8 0 0 1-.13.186.63.63 0 0 1-.52.198c-.094.001-.17 0-.207-.004-.188-.019-.312-.075-.404-.182-.076-.088-.126-.212-.162-.398a1 1 0 0 0-.018-.079c-.002.001-.043.042-.09.092-.048.05-.107.109-.13.13-.201.185-.391.293-.588.336-.089.018-.126.02-.337.02-.44 0-.665.028-.803.105l-.021.011.052-.117.086-.2a2.34 2.34 0 0 0 .186-1.195c-.002 0-.029.032-.06.07-.11.132-.216.25-.27.3a1.05 1.05 0 0 1-.533.277c-.08.016-.126.021-.23.028a1.31 1.31 0 0 0-.543.13.2.2 0 0 1 .022-.035c.11-.165.215-.458.264-.73.04-.222.112-.358.307-.577.057-.063.069-.08.069-.091q0-.015-.006-.021c-.006-.008-.024-.008-.035-.002a3 3 0 0 0-.202.236c-.095.13-.157.275-.184.427a3 3 0 0 1-.109.414c-.043.12-.106.247-.169.338a1 1 0 0 1-.171.185c0 .005.027.046.03.046l.051-.036a1.186 1.186 0 0 1 .667-.223c.272-.018.454-.07.626-.177a1.4 1.4 0 0 0 .346-.318 1 1 0 0 1 .084-.09c.007.004 0 .259-.008.337a2.3 2.3 0 0 1-.089.425 4 4 0 0 1-.208.52l-.076.165.022.018.022.018.02-.02a.57.57 0 0 1 .297-.126c.124-.022.203-.027.517-.031.166-.002.307-.005.313-.007l.058-.011a1 1 0 0 0 .311-.114c.145-.078.295-.197.437-.347q.042-.045.045-.038l.016.067c.062.259.183.412.381.484.089.033.17.046.307.05l.096.004-.003.038a.714.714 0 0 1-.43.62c-.038.016-.058.035-.097.087a.6.6 0 0 0-.083.172.3.3 0 0 0 .03.205c.027.048.048.07.1.104.125.082.25.18.35.274.048.045.188.197.188.204 0 .002-.013.001-.03-.003a.9.9 0 0 0-.222-.02.6.6 0 0 0-.279.068 1.6 1.6 0 0 1-.48.15c-.075.011-.213.011-.282 0q-.445-.066-.753-.56l-.045-.07-.008-.012-.032.052a1.2 1.2 0 0 1-.326.364c-.215.158-.518.273-.927.354-.1.02-.238.076-.376.152-.216.121-.349.261-.424.45-.016.04-.02.05-.02.044m2.235-8.48c.117-.04.184-.19.142-.322l-.008-.026.023.01c.23.099.439.237.454.3q.01.035.04.035c.036 0 .051-.046.03-.089-.029-.063-.148-.154-.323-.247-.217-.116-.427-.185-.556-.184-.127.002-.225.082-.264.216a.5.5 0 0 0-.018.141c.004.022.022.038.042.037.027 0 .034-.013.04-.068q.016-.165.116-.216a.2.2 0 0 1 .071-.02l-.017.023a.27.27 0 0 0-.03.3c.026.052.09.104.146.117a.3.3 0 0 0 .112-.008m-7.273 7.376a.62.62 0 0 0-.315-.29.4.4 0 0 0-.154-.025c-.022.002-.024.002-.02-.007.01-.018.1-.117.13-.141a.46.46 0 0 1 .293-.107c.051 0 .137.017.2.04.075.028.156.071.17.089a.24.24 0 0 1 .028.116c0 .049-.01.087-.036.145a.3.3 0 0 1-.066.097.3.3 0 0 1-.085.07.15.15 0 0 1-.089.025l-.048.003zm11.984-.976-.129-.205c-.065-.107-.067-.11-.065-.132l.012-.204c.005-.101.01-.184.012-.185.002-.003-.008-.022.137.25.124.235.217.413.217.418l-.033.039a1 1 0 0 0-.09.115zm-.47-.801a6.8 6.8 0 0 1-.519-1.254 2.8 2.8 0 0 1-.122-.779c0-.213.03-.376.099-.53a.92.92 0 0 1 .58-.504c.043-.014.045-.015.052-.032q.007-.02.007-.007.001.01.005.014a.2.2 0 0 0 .055-.01c.17-.044.364-.043.55.003.335.084.608.317.717.612.05.135.067.252.063.41a1.4 1.4 0 0 1-.05.341 3 3 0 0 1-.169.452c-.205.483-.27.698-.28.926l-.002.068-.008-.017a1 1 0 0 1-.055-.19c-.04-.215-.018-.392.078-.647.048-.125.084-.262.103-.385.014-.089.016-.291.003-.356A.46.46 0 0 0 15 13.61q-.085-.073-.199-.021l-.017.008.011.024c.038.082.069.182.085.275.01.06.012.274.002.338a3 3 0 0 1-.04.218 4 4 0 0 1-.076.272 1 1 0 0 1-.025-.07 1.4 1.4 0 0 0-.215-.413 1.4 1.4 0 0 0-.175-.203 3 3 0 0 1-.23-.25c-.166-.233-.206-.43-.123-.622a1 1 0 0 1 .087-.149q.068-.105.015-.15c-.014-.012-.02-.013-.043-.01-.023.001-.034.006-.082.038a.97.97 0 0 0-.366.412c-.028.062-.06.166-.073.242a1.8 1.8 0 0 0-.002.383c.048.357.196.762.488 1.336l.025.05-.01.174-.013.261c-.002.011-.004.01-.018-.017zm-9.082-1.146.007-.024q.064-.2-.049-.485a2 2 0 0 1-.118-.37c-.03-.166-.024-.292.025-.513.01-.045.018-.082.017-.083l-.035.033c-.21.202-.403.263-.603.19A.7.7 0 0 1 4 13.244a1.3 1.3 0 0 1-.162-.143l-.02-.023.036.007c.05.009.155.008.198 0q.264-.057.336-.387a.6.6 0 0 0 .012-.16.8.8 0 0 0-.037-.273.7.7 0 0 0-.098-.21c-.14-.212-.214-.372-.25-.537a.9.9 0 0 1-.007-.283 2 2 0 0 0-.055.124c-.11.264-.158.356-.22.425q-.114.127-.256.037-.023-.013-.023-.018a.5.5 0 0 0 .036-.102.4.4 0 0 0-.014-.173c-.054-.175-.202-.302-.34-.288-.04.005-.043.006-.057.033l-.03.048-.018.024-.007-.012a.5.5 0 0 1-.036-.097.4.4 0 0 1 .005-.17c.03-.105.084-.187.248-.37.13-.147.184-.21.22-.263a.6.6 0 0 0 .06-.11 2 2 0 0 0-.11.064c-.256.155-.382.208-.48.2-.09-.007-.153-.06-.197-.164a1 1 0 0 1-.03-.09c-.004-.009.024-.007.075.005l.034.008.023-.02c.09-.075.128-.228.093-.38a1 1 0 0 0-.034-.093.3.3 0 0 0-.059-.092.25.25 0 0 0-.12-.08c-.015-.003-.016-.003-.013-.024a1 1 0 0 1 .05-.156c.072-.156.176-.207.337-.166.091.023.214.087.429.225.113.072.126.079.146.079.048 0 .093-.026.106-.06.009-.023.003-.046-.02-.078-.014-.021-.018-.024-.054-.034-.244-.07-.424-.184-.505-.318a.4.4 0 0 1-.06-.216c0-.094.027-.18.085-.28q.033-.058.031-.022-.001.013.022.026c.122.079.286.044.408-.087a.34.34 0 0 0 .102-.22c.003-.046-.007-.098-.023-.116q-.008-.01-.007-.014a.446.446 0 0 1 .33-.049c.094.029.165.091.204.178a.4.4 0 0 1 .039.17q.01.24-.176.51c-.035.05-.036.054-.031.067.01.03.057.032.098.006a.6.6 0 0 0 .127-.154.95.95 0 0 0 .124-.373.56.56 0 0 1 .084-.286c.047-.058.127-.068.217-.028a1 1 0 0 1 .112.064q.005.004-.02.029c-.023.022-.024.024-.024.049 0 .111.072.224.184.287.13.075.265.074.355-.002a.1.1 0 0 1 .028-.019c.009 0 .046.03.077.063.088.092.104.215.044.345-.071.155-.223.323-.517.573a.3.3 0 0 0-.09.12c-.092.201-.062.443.1.8.068.148.11.23.135.26.191.235.312.468.368.709a3 3 0 0 1 .047.302c.001.013.081.123.322.445l.323.434c0 .003-.012.022-.028.042a.7.7 0 0 0-.15.33 1.3 1.3 0 0 0 0 .299 1.2 1.2 0 0 0 .225.516q.005.003.005.01.002.008-.025.007l-.077.008a1.31 1.31 0 0 0-.882.505l-.04.05c-.006.002-.027-.027-.032-.044-.013-.041-.001-.124.031-.224l.02-.058.004-.163c.003-.09.004-.171.003-.182l-.001-.02-.023.021a.3.3 0 0 0-.067.104.7.7 0 0 0-.028.24 1 1 0 0 1-.01.152.55.55 0 0 1-.155.225c-.05.047-.058.054-.058.05m10.095-1.893-.074-.041a.5.5 0 0 1 .022-.093c.208-.728.229-1.377.061-1.884a1.4 1.4 0 0 0-.168-.355q-.235-.332-.475-.41a.38.38 0 0 0-.425.11c-.144.17-.18.443-.097.723.021.07.069.18.106.244.05.089.092.145.18.247.169.192.238.337.245.505a.54.54 0 0 1-.065.281.94.94 0 0 1-.324.339.558.558 0 0 0 .004-.206 1.5 1.5 0 0 0-.186-.428 10 10 0 0 0-.269-.415 8 8 0 0 1-.234-.355 1.1 1.1 0 0 1-.133-.374c-.01-.06-.012-.26-.002-.32.06-.369.274-.682.578-.842a.9.9 0 0 1 .37-.105c.181-.01.402.057.544.164.107.081.243.204.31.282.27.312.419.68.454 1.126.01.116.007.373-.004.488-.032.31-.093.603-.21.992-.07.23-.121.37-.136.368zm-7.573-.34c-.208-.01-.396-.049-.505-.107a.9.9 0 0 1-.46-.617 1 1 0 0 1-.012-.235.8.8 0 0 1 .123-.366.69.69 0 0 1 .576-.249c.26.029.43.213.494.537l.011.062c0 .003-.017-.004-.038-.015a.45.45 0 0 0-.217-.057.27.27 0 0 0-.218.092c-.102.112-.116.285-.037.46.075.164.238.25.545.285.096.012.392.013.524.003.3-.023.595-.06 1.068-.13.214-.033.224-.034.344-.037.14-.003.241.003.359.022.124.02.254.058.259.077l.005.049.004.04-.02-.012a1 1 0 0 0-.146-.057 1.3 1.3 0 0 0-.408-.043c-.195.005-.303.02-.765.11l-.194.04q-.012.002-.013-.005l-.005-.02-.006-.015-.018.025c-.02.029.002.023-.195.06-.447.082-.772.114-1.055.102m-4.467-.48a.52.52 0 0 1-.336-.235l-.029-.042.04.004c.122.01.262-.05.374-.164a.6.6 0 0 0 .093-.12c.007-.017.025-.02.067-.014.062.011.13.058.176.121.03.04.061.113.07.159.014.071 0 .156-.032.19a.7.7 0 0 1-.222.092c-.033.008-.17.014-.2.009m-.737-1.454a.7.7 0 0 1 .009-.25q.067-.275.387-.42c.04-.02.056-.019.102.005.075.04.132.143.145.264a.36.36 0 0 1-.025.179c-.02.044-.052.082-.066.078a.6.6 0 0 0-.148-.011.53.53 0 0 0-.284.097.4.4 0 0 0-.108.114.3.3 0 0 1-.012-.056m9.847-.544a8.3 8.3 0 0 0-1.81-.63c-.18-.039-.36-.07-.61-.105a2 2 0 0 1-.108-.018 1 1 0 0 1 .01-.106l.012-.108c0-.01.329.039.526.077.777.15 1.537.411 2.232.77l.054.027-.04.031a.7.7 0 0 1-.157.093l-.026.01zm.232-.187a8 8 0 0 0-.505-.238 8.7 8.7 0 0 0-2.067-.587l-.108-.02-.005-.097a2 2 0 0 1 .043-.476l.015-.077-.041-.018a1 1 0 0 1-.167-.09.47.47 0 0 1-.16-.186.4.4 0 0 1-.03-.14l.002-.021.037.026c.139.098.36.222.626.353l.092.046a.1.1 0 0 1-.015.041.7.7 0 0 0-.077.316c0 .085.01.135.042.204a.41.41 0 0 0 .565.177c.159-.086.24-.27.222-.499l-.009-.078c-.002-.01 0-.012.03-.017q.238-.044.496-.183l.09-.049.014.028c.08.156.198.34.323.503l.055.074-.038.028a.5.5 0 0 0-.146.167.33.33 0 0 0-.021.201c.036.155.19.304.372.356a.5.5 0 0 0 .21.005q.16-.05.206-.247a.6.6 0 0 0 .01-.144v-.106l.039.004c.07.007.255.01.35.007a2.5 2.5 0 0 0 .436-.054.2.2 0 0 1-.025.037.35.35 0 0 1-.184.13.4.4 0 0 1-.123.011c-.047 0-.103 0-.123-.003l-.037-.004-.032.08a4 4 0 0 1-.163.337c-.06.11-.136.228-.145.228a.4.4 0 0 1-.054-.025m-1.152-.669a.8.8 0 0 0 .17-.19c.058-.083.168-.264.173-.285a.3.3 0 0 0 0-.095c-.023-.107-.123-.18-.248-.18-.061 0-.1.014-.14.047-.031.025-.038.054-.06.267-.012.11-.012.317 0 .366.018.079.05.1.105.07zm-6.022-.344c-.127-.029-.23-.126-.25-.238l-.006-.03.034-.039a.65.65 0 0 0 .161-.462 1 1 0 0 0-.017-.105.5.5 0 0 1 .115.065c.041.03.116.112.14.152.054.09.077.174.08.296q.005.117-.021.244c-.01.042-.011.047-.03.067-.05.05-.124.068-.206.05m-1.78-.044a.2.2 0 0 1-.042-.016c-.02-.01-.021-.013-.026-.042a.7.7 0 0 0-.17-.336.44.44 0 0 0-.18-.113l-.02-.006.025-.017a.7.7 0 0 1 .21-.094.6.6 0 0 1 .168 0 .63.63 0 0 1 .31.183c.065.066.08.086.084.116a.2.2 0 0 1-.01.095c-.042.144-.216.259-.35.23" style="fill:#d90c15;fill-opacity:1;stroke-width:.06"/><path d="M5.036 28.719q-.31-.045-.45-.365a1 1 0 0 1-.056-.167c0-.005-.01-.014-.022-.022a.6.6 0 0 1-.099-.082.6.6 0 0 1-.1-.187l-.01-.03-.02.002a.6.6 0 0 1-.17-.007.6.6 0 0 1-.126-.06l-.013-.01-.036.022a.52.52 0 0 0-.22.235.4.4 0 0 0-.035.197l-.003.09-.055-.067a1 1 0 0 1-.12-.167.63.63 0 0 1-.089-.324c0-.154.05-.298.155-.45l.038-.058a.1.1 0 0 0-.009-.036.8.8 0 0 1-.037-.176.49.49 0 0 1 .182-.408l.03-.026-.027-.029c-.067-.07-.084-.142-.064-.272l.003-.02-.037-.027a.44.44 0 0 0-.309-.098.4.4 0 0 0-.139.048.4.4 0 0 1-.061.027 2 2 0 0 1 .083-.207.57.57 0 0 1 .388-.328c.03-.007.06-.01.13-.01a.7.7 0 0 1 .21.027l.05.013.014-.01c.135-.111.31-.109.424.005.105.105.141.275.1.468l-.009.038.05-.003.815-.044.767-.042.013-.06c.096-.455.338-.896.755-1.378l.078-.092c0-.002-.031-.077-.07-.166a3 3 0 0 1-.158-.395 1.3 1.3 0 0 1-.065-.422c0-.127.01-.22.037-.335.003-.013 0-.01-.026.02a.7.7 0 0 1-.201.173c-.095.05-.155.063-.311.069-.223.008-.275.029-.401.159-.056.058-.063.063-.064.052a3 3 0 0 1 .027-.257c.043-.241.12-.446.291-.77l.038-.07-.039-.004a.3.3 0 0 1-.135-.04c-.085-.045-.143-.135-.167-.255a1 1 0 0 1-.004-.242.5.5 0 0 0 .004-.181c-.013-.064-.046-.129-.14-.274l-.033-.05.024-.024.024-.023.067.068c.218.222.39.322.566.33a.4.4 0 0 0 .183-.03c.129-.05.26-.182.375-.375.042-.07.11-.17.17-.249.062-.082.23-.266.31-.339.435-.4.943-.627 1.468-.655.1-.005.278.002.373.014.287.039.588.142.845.29.03.017.056.03.057.029l.009-.045c.01-.07.024-.148.046-.257l.02-.103-.02-.065a1.95 1.95 0 0 0-.456-.789l-.056-.059.075-.114c.042-.063.077-.115.079-.115a2.627 2.627 0 0 1 .46.34l.069.062-.024-.038a2.8 2.8 0 0 0-.344-.418 2 2 0 0 0-.361-.276 1.5 1.5 0 0 0-.311-.132c-.331-.12-.53-.225-.702-.367a1.1 1.1 0 0 1-.205-.235c-.016-.029-.013-.029-.113.01-.313.125-.503.278-.598.483a1 1 0 0 0-.053.16c-.004.025-.014.03-.045.029l-.024-.002-.009-.035c-.05-.212-.07-.35-.07-.515 0-.146.014-.233.058-.376.015-.049.027-.093.027-.097 0-.017-.247.056-.338.099-.18.086-.27.215-.302.437a2 2 0 0 0-.007.208c0 .211-.01.29-.056.438-.057.19-.139.34-.287.53-.04.05-.049.06-.047.048a1.1 1.1 0 0 0 .023-.394 1 1 0 0 0-.15-.328.6.6 0 0 1-.071-.157.6.6 0 0 1 .018-.284.2.2 0 0 0 .012-.048.4.4 0 0 0-.06.078.46.46 0 0 0-.052.27c.01.085.026.131.102.29.113.234.096.418-.053.576a1 1 0 0 1-.156.128l-.05.033-.02-.025-.022-.026.014-.023a.4.4 0 0 0 .056-.177.312.312 0 0 0-.194-.287c-.06-.02-.088-.011-.117.036a.6.6 0 0 1-.125.134c-.254.187-.592.037-.72-.32a1 1 0 0 1-.025-.08c-.007-.03-.008-.034-.011-.023-.012.044.004.194.04.388.001.01.005.01.041.009a.34.34 0 0 1 .287.167c.03.057.041.141.027.207a.44.44 0 0 1-.177.255c-.03.021-.036.028-.035.037a.65.65 0 0 0 .112.28.38.38 0 0 0 .221.148 1 1 0 0 1 .064.022l-.085.049a.66.66 0 0 1-.338.103c-.155 0-.287-.065-.416-.208a1.3 1.3 0 0 1-.125-.167c-.003-.005-.01-.004-.03.005a.3.3 0 0 1-.152.007q-.164-.043-.284-.297c-.015-.032-.026-.053-.024-.046a1 1 0 0 1 0 .194.23.23 0 0 1-.18.19 1 1 0 0 1-.09.01H3.66l-.02.04a.6.6 0 0 0-.03.456c.017.043.04.079.089.138l.04.053a2 2 0 0 1-.202-.025.57.57 0 0 1-.443-.384 1.1 1.1 0 0 1-.057-.328v-.033l-.055-.003c-.105-.005-.144-.03-.171-.108a.35.35 0 0 1-.023-.15.6.6 0 0 1 .097-.277c.046-.076.08-.122.184-.253.112-.14.158-.203.187-.253q.016-.031-.009-.002c-.062.081-.219.27-.257.312-.149.158-.263.196-.38.125a.5.5 0 0 1-.132-.142c-.02-.033-.024-.037-.034-.034a.6.6 0 0 0-.277.18.43.43 0 0 0-.09.233l-.012.084-.053-.086c-.103-.171-.141-.287-.14-.432 0-.095.015-.168.054-.258a1 1 0 0 1 .243-.319q.011-.004.008-.013a1 1 0 0 1-.057-.265c-.004-.1.013-.166.054-.212.045-.05.095-.058.184-.032a1 1 0 0 0 .308.058.4.4 0 0 0 .171-.029.6.6 0 0 0-.121-.001c-.188.005-.229-.007-.302-.087-.12-.132-.143-.328-.058-.512a1 1 0 0 1 .066-.117c.006-.01-.033-.065-.08-.115-.126-.136-.252-.179-.41-.14-.063.016-.064.016-.064.006s.077-.128.117-.18a.6.6 0 0 1 .266-.2q.227-.08.51.07a.2.2 0 0 1 .072.048l.012.017.016-.015a.43.43 0 0 1 .226-.113c.182-.026.349.108.42.337.034.107.042.26.019.378a.2.2 0 0 0 0 .09c.023.192.086.3.199.339a.45.45 0 0 0 .205 0c.221-.053.528-.238.953-.574.188-.149.184-.146.217-.2.282-.451.622-.796.978-.99l.058-.031.016-.044c.07-.196.194-.39.344-.538l.055-.053-.018-.01a1.09 1.09 0 0 0-.59-.093c-.353.055-.586.325-.673.783l-.024.154-.015.103c-.003.01-.08-.145-.123-.248a2.07 2.07 0 0 1-.131-1.244c.039-.18.123-.386.214-.523l.02-.03-.016-.018q-.063-.07.006-.284a.34.34 0 0 0 .022-.135c0-.042.003-.103.004-.136a.2.2 0 0 0-.001-.06.3.3 0 0 0-.036.087 1 1 0 0 0-.016.21.5.5 0 0 1-.01.13.5.5 0 0 1-.116.204c-.027.03-.144.141-.19.181-.006.005 0-.017.017-.076a.6.6 0 0 0 .04-.212.7.7 0 0 0-.028-.2 2 2 0 0 0-.076-.207 1.3 1.3 0 0 1-.1-.551 2 2 0 0 1 .034-.236l-.038.03a.6.6 0 0 1-.356.157c-.152.009-.3-.055-.459-.197a3 3 0 0 1-.172-.176 1 1 0 0 1 .092.014c.08.014.096.016.159.014a.3.3 0 0 0 .167-.04q.111-.056.171-.19a.7.7 0 0 0 .057-.322.8.8 0 0 0-.132-.43c-.16-.244-.236-.419-.263-.604l-.01-.052-.006.015-.054.124c-.108.243-.196.337-.313.337a.22.22 0 0 1-.12-.036l-.036-.02-.05.023a.7.7 0 0 1-.31.082.46.46 0 0 1-.265-.058.7.7 0 0 1-.214-.2 2 2 0 0 1-.11-.19l.07.019a.368.368 0 0 0 .352-.058.6.6 0 0 0 .094-.085.2.2 0 0 0-.015-.04.4.4 0 0 1-.037-.176c0-.052.002-.067.013-.104.035-.116.083-.188.26-.386.117-.131.193-.22.202-.24.005-.01.004-.01-.015.003a1.6 1.6 0 0 1-.366.182.36.36 0 0 1-.176.003c-.089-.033-.15-.11-.188-.24l-.013-.044-.03.004a.5.5 0 0 0-.21.064.3.3 0 0 0-.083.07.4.4 0 0 0-.079.118.3.3 0 0 1-.037.066 2 2 0 0 1-.048-.22 1 1 0 0 1 0-.217q.051-.356.447-.53l.04-.018.017-.064c.066-.241.185-.341.369-.31.111.018.222.072.473.232.109.069.13.08.146.08.038 0 .077-.03.07-.054a.07.07 0 0 0-.05-.048l-.087-.027q-.411-.142-.492-.424a.3.3 0 0 1-.01-.114c0-.063.001-.084.01-.118a.8.8 0 0 1 .1-.223c.019-.027.02-.033.01-.067a.6.6 0 0 0-.192-.287.35.35 0 0 0-.185-.067.4.4 0 0 1-.067-.013c-.005-.004.117-.1.166-.13a.52.52 0 0 1 .591-.005c.05.032.117.087.16.132l.031.032.05-.022a.43.43 0 0 1 .204-.044c.054 0 .074.002.104.011.264.079.348.393.195.727a1.2 1.2 0 0 1-.128.22c0 .007.034-.002.05-.013a.8.8 0 0 0 .153-.22 1 1 0 0 0 .077-.274c.013-.183.068-.315.148-.356a.22.22 0 0 1 .168-.004 1 1 0 0 1 .135.07l.02.014.024-.037a.8.8 0 0 0 .086-.2.4.4 0 0 0 .011-.109.44.44 0 0 0-.048-.206l-.03-.071c0-.003.152.066.186.085.28.154.386.433.307.814-.007.03-.012.058-.012.061s.01.014.022.023c.012.01.034.029.047.043.1.103.12.235.058.383q-.095.225-.512.578a.3.3 0 0 0-.098.126.5.5 0 0 0-.047.228c0 .147.043.304.143.525.08.178.108.232.146.28.241.3.356.564.399.921.005.045.011.087.013.093s.146.202.32.435l.317.424.033-.027a.6.6 0 0 1 .256-.115c.043-.01.215-.01.262 0a1 1 0 0 1 .312.114l-.03.044a.8.8 0 0 0-.138.313.6.6 0 0 0 .002.168.43.43 0 0 0 .12.209c.193.184.556.235.982.137.036-.008.424-.08.861-.16.437-.079.801-.146.809-.149q.019-.005.002-.005l-.324-.038-.312-.037-.02.011a.4.4 0 0 1-.197.057.3.3 0 0 1-.17-.033c-.136-.072-.173-.23-.097-.423l.017-.043-.013-.036a.47.47 0 0 1 .01-.342l.016-.044-.064.012c-.098.019-.322.056-.424.07a3.7 3.7 0 0 1-.617.042 1.6 1.6 0 0 1-.502-.072.85.85 0 0 1-.354-.241.94.94 0 0 1-.236-.475.7.7 0 0 1-.011-.165c0-.125.007-.174.04-.278a.59.59 0 0 1 .257-.35.7.7 0 0 1 .385-.122.5.5 0 0 1 .212.027c.211.073.359.269.415.553.01.055.03.193.027.203q.002.009-.045-.021c-.138-.09-.246-.122-.339-.101-.164.036-.233.211-.162.413.032.09.084.15.172.199a.9.9 0 0 0 .329.09 4.5 4.5 0 0 0 .94-.037l.016-.003-.055-.062a1.2 1.2 0 0 1-.186-.266 1.5 1.5 0 0 1-.152-.61l-.003-.052-.038-.02a.6.6 0 0 1-.274-.333 1.5 1.5 0 0 1-.067-.258l.55-.389c.3-.213.55-.39.554-.395a.2.2 0 0 0 .02-.05.66.66 0 0 1 .383-.427.6.6 0 0 1 .302-.032c.65.067 1.448.296 2.148.616.088.04.226.109.274.135a.1.1 0 0 0 .043.016.3.3 0 0 0 .09-.035.5.5 0 0 0-.082-.046 8.3 8.3 0 0 0-2.505-.77 1 1 0 0 1-.088-.014.1.1 0 0 1 0-.036c.004-.032.004-.033.016-.03l.107.015a8.2 8.2 0 0 1 2.544.793l.085.043.026-.02a.1.1 0 0 0 .025-.022c0-.004-.046-.028-.192-.1a8.5 8.5 0 0 0-2.5-.771c-.092-.014-.095-.015-.1-.027a4 4 0 0 1 0-.394 2 2 0 0 1 .043-.263l-.022-.011a1 1 0 0 1-.161-.093.5.5 0 0 1-.124-.124.45.45 0 0 1-.08-.306l.003-.054h.02c.016 0 .028.007.087.049.161.115.366.23.673.38.062.03.113.056.115.058a.2.2 0 0 1-.023.054.75.75 0 0 0-.094.336c0 .06.01.109.036.164.03.069.073.115.14.152a.3.3 0 0 0 .16.045c.183.009.318-.1.365-.292.01-.039.01-.055.01-.133a1 1 0 0 0-.01-.144.3.3 0 0 1-.006-.056l.054-.01c.19-.032.348-.091.561-.211.065-.037.09-.049.094-.045l.035.067c.085.17.194.338.349.54.039.05.071.094.071.096a.3.3 0 0 1-.047.035q-.157.098-.187.213a.3.3 0 0 0 0 .126c.019.068.073.145.14.202.04.033.122.077.175.093a.33.33 0 0 0 .223-.004c.068-.031.115-.102.134-.199.01-.048.01-.16 0-.24l-.005-.052h.016l.06.005c.105.012.274.016.382.01.178-.008.3-.025.473-.065a1 1 0 0 1 .085-.016.8.8 0 0 1-.141.22.4.4 0 0 1-.121.084.44.44 0 0 1-.212.033h-.102l-.03.07a3.5 3.5 0 0 1-.225.436l-.04.064.027-.028c.014-.016.048-.056.075-.09a1 1 0 0 1 .054-.063c.007 0 .086.185.104.246.072.236.068.457-.013.752l-.018.072c0 .003.005.013.011.021.066.085.069.31.008.484a.9.9 0 0 1-.108.21.55.55 0 0 0-.097.34c.019.152.13.218.275.165a.7.7 0 0 0 .174-.11c.035-.028.063-.051.064-.05.002.002-.016.152-.024.193a1 1 0 0 1-.264.538c-.03.029-.099.08-.115.086-.002 0-.001.018.004.043.01.055.015.178.01.245a2 2 0 0 1-.085.411.4.4 0 0 0-.028.132c-.004.077.012.124.056.167.041.039.102.054.165.04.117-.028.221-.133.298-.302l.026-.056.03.006.028.005.004.026a2 2 0 0 1-.004.294q-.036.346-.211.529a.5.5 0 0 1-.18.121.6.6 0 0 1-.135.033h-.018l-.034.078c-.098.222-.231.4-.429.574a.5.5 0 0 0-.159.194c-.063.137-.042.265.052.317a.3.3 0 0 0 .127.023.8.8 0 0 0 .323-.125.4.4 0 0 1 .063-.033c.003.003-.039.154-.056.202a.83.83 0 0 1-.353.45.7.7 0 0 1-.31.09.2.2 0 0 0-.055.01.1.1 0 0 0-.004.033.775.775 0 0 1-.455.67.15.15 0 0 0-.068.054.33.33 0 0 0-.09.215c0 .04 0 .047.016.082.023.053.042.074.103.114a2.4 2.4 0 0 1 .66.64l-.1-.026a1 1 0 0 0-.242-.047l-.053-.003.124.134c.678.73 1.133 1.373 1.396 1.971.036.081.041.09.069.119.146.15.414.221.681.182.29-.043.503-.2.566-.421.056-.197-.006-.444-.18-.713a3 3 0 0 0-.164-.224c-.17-.204-.268-.356-.322-.493a.7.7 0 0 1-.044-.155 5 5 0 0 0-.166.22l-.169.232c-.006.008-.004-.012.01-.103.06-.38.076-.542.076-.773a1.6 1.6 0 0 0-.023-.332c-.065-.39-.273-.69-.631-.909a.2.2 0 0 1-.048-.034l.008-.033c.009-.03.01-.03.053-.022.013.003.098.015.187.028.239.034.314.05.42.086.257.09.431.26.556.544.03.068.074.19.08.224.006.028.013.024.013-.007l.004-.288.01-.649.005-.39-.042-.077c-.27-.508-.474-1.012-.577-1.432a2.7 2.7 0 0 1-.091-.667c0-.162.014-.28.049-.407q.157-.571.805-.73a1 1 0 0 1 .265-.03c.155 0 .289.023.421.072l.04.016.021-.072c.084-.292.134-.55.161-.834.014-.138.015-.417.003-.536a2 2 0 0 0-.183-.69 1.2 1.2 0 0 0-.196-.281.9.9 0 0 0-.248-.204.35.35 0 0 0-.197-.05.24.24 0 0 0-.1.011.38.38 0 0 0-.218.22c-.101.235-.051.553.13.832.038.058.07.1.142.18.136.156.207.282.238.425.065.29-.081.578-.402.79-.048.033-.097.058-.1.054l-.02-.027-.017-.022.018-.026c.03-.044.039-.078.038-.145a.6.6 0 0 0-.065-.26c-.056-.133-.183-.343-.386-.639a8 8 0 0 1-.244-.373 1.17 1.17 0 0 1-.134-.731 1.23 1.23 0 0 1 .492-.813.95.95 0 0 1 .615-.18c.182.015.35.077.488.182q.646.486.763 1.298c.022.15.029.4.016.567a4.6 4.6 0 0 1-.174.937 5 5 0 0 1-.169.516l-.012.017.032.026c.162.132.276.307.334.511a1.3 1.3 0 0 1 .014.594c-.032.167-.067.266-.202.587a4.4 4.4 0 0 0-.22.586c-.02.08-.039.175-.046.239a1.3 1.3 0 0 0 .008.285.3.3 0 0 1-.056.022 1.136 1.136 0 0 1-.07-1.02c.09-.242.123-.401.123-.584 0-.17-.028-.275-.09-.343-.03-.033-.05-.043-.086-.043-.021 0-.021 0-.012.02a1 1 0 0 1 .075.378c.005.162-.02.34-.078.549a5 5 0 0 1-.106.34 2 2 0 0 1-.067-.2 1.2 1.2 0 0 0-.146-.33c-.05-.08-.055-.086-.058-.077l-.02.102c-.068.342-.115.715-.151 1.191l-.007.093.077.144a39 39 0 0 1 .3.57l.012.022.03-.023c.143-.102.315-.153.596-.177.135-.012.13-.015.07.045-.09.091-.148.167-.203.266-.155.28-.262.713-.34 1.38a2 2 0 0 0-.014.198c0 .158-.028.253-.095.321-.093.095-.227.086-.38-.026a.4.4 0 0 0-.104-.057c-.018-.004-.018.001-.005.045.02.068.04.099.109.176.2.228.32.446.372.68a1 1 0 0 1 .026.252 1 1 0 0 1-.032.27c-.031.123-.092.26-.167.37-.204.304-.538.511-.841.524a.7.7 0 0 1-.259-.037c-.009-.003-.008.002.016.066.053.147.104.339.129.485.024.142.028.19.028.36a1.4 1.4 0 0 1-.022.312q.001.004.03.018c.142.065.34.206.612.438.111.095.144.12.186.137a.2.2 0 0 0 .112.015c.085-.017.217-.119.491-.378.233-.22.365-.328.479-.39.122-.068.21-.08.288-.039.034.018.077.06.098.096l.014.024-.011.384c-.006.212-.012.386-.014.387a.4.4 0 0 1-.053-.043.5.5 0 0 0-.142-.098.2.2 0 0 0-.075-.012c-.04 0-.05.002-.071.013q-.206.107-.338.84l-.025.142c-.003.018-.01.026.057-.068.099-.142.202-.238.296-.276a1 1 0 0 1 .13-.039.4.4 0 0 1-.022.08 4 4 0 0 0-.084.288c-.084.335-.09.657-.016.974a.7.7 0 0 0 .058.18c.062.116.128.284.165.415.05.178.08.399.08.597 0 .078-.01.32-.014.32-.002 0-.14-.136-.307-.301a16 16 0 0 0-.342-.334 1.8 1.8 0 0 1-.297-.305q-.075-.105-.015-.01c.078.125.223.295.397.462.051.05.092.105.164.224.128.212.196.42.196.604 0 .04-.017.21-.023.225-.002.007-.012-.01-.04-.074a.487.487 0 0 0-.352-.325c-.177-.052-.33-.197-.445-.42a2 2 0 0 0-.076-.124c-.059-.088-.062-.09-.052-.025.017.107.099.283.233.504.068.11.18.283.268.409l.07.1.041.025a.94.94 0 0 1 .403.462c.036.082.06.158.093.3l.028.116-.024-.022-.072-.066c-.125-.116-.223-.163-.34-.162-.079 0-.121.014-.242.078-.26.136-.371.171-.457.142-.11-.038-.133-.181-.07-.442.014-.055.015-.06.01-.09a1 1 0 0 0-.048-.162.3.3 0 0 0-.054-.078l-.012-.01v.212c0 .176-.002.222-.009.275-.033.253-.102.404-.227.49l-.035.026-.002.096a.9.9 0 0 1-.043.277.59.59 0 0 1-.379.377c-.06.02-.198.053-.195.047l.037-.06a.4.4 0 0 0 .083-.266.55.55 0 0 0-.043-.22c-.024-.06-.032-.073-.042-.07a1 1 0 0 1-.07.007c-.1.004-.162-.016-.212-.07-.043-.046-.063-.11-.064-.202 0-.031-.002-.054-.004-.05-.144.27-.25.405-.379.485a.4.4 0 0 1-.29.054l-.037-.007-.01.014a1 1 0 0 0-.078.181.4.4 0 0 0-.013.13c0 .077 0 .086.012.123.007.022.028.07.047.108l.035.07a2 2 0 0 1-.228-.087.6.6 0 0 1-.32-.435 1 1 0 0 1-.014-.22c.004-.056.004-.059-.005-.061a.6.6 0 0 1-.128-.078.419.419 0 0 1-.136-.334c0-.087.007-.133.035-.205l.013-.039-.038.079a.4.4 0 0 1-.09.145c-.043.041-.073.056-.119.056-.089 0-.169-.077-.23-.222l-.025-.066-.007-.02h-.048a.418.418 0 0 0-.392.282l-.03.068a1.4 1.4 0 0 1-.064-.216 1 1 0 0 1-.014-.224.7.7 0 0 1 .024-.126.72.72 0 0 1 .344-.403l.05-.03v-.035c0-.086.029-.15.084-.182.027-.016.033-.017.08-.019a.6.6 0 0 1 .216.037l.085.023-.047-.028a.4.4 0 0 1-.121-.096c-.087-.102-.08-.224.02-.339a1 1 0 0 1 .084-.078c.05-.039.048-.03.018-.102a.47.47 0 0 0-.238-.26 1 1 0 0 0-.1-.024l-.07-.014c-.002 0 .03-.026.07-.056.152-.112.262-.156.394-.156.164 0 .302.072.457.238l.059.063.048-.01c.35-.078.564.275.565.93v.12l.017.005c.034.01.14.031.2.04a.8.8 0 0 0 .228.003.38.38 0 0 0 .203-.116l.025-.028-.008-.113a1.9 1.9 0 0 1 .106-.842c.09-.265.119-.403.109-.517-.008-.082-.038-.127-.102-.15a.6.6 0 0 0-.223-.007 1.3 1.3 0 0 1-.234.02.6.6 0 0 1-.2-.025c-.148-.047-.26-.157-.343-.339a2 2 0 0 1-.147-.57 6 6 0 0 1-.03-.291c0-.004-.014.01-.03.029a.5.5 0 0 1-.148.11c-.084.044-.224.09-.305.1a.2.2 0 0 0-.166.13.33.33 0 0 0-.027.162c.002.074.02.136.052.194.045.08.09.123.18.174.03.017.053.033.051.035a2 2 0 0 1-.15.097q-.244.136-.427-.038a1 1 0 0 1-.053-.058l-.024-.03-.03.048a.73.73 0 0 1-.451.32 1.362 1.362 0 0 1-.044-.638c.007-.043.008-.043-.034-.019a.5.5 0 0 1-.235.073.47.47 0 0 1-.417-.217.6.6 0 0 1-.08-.22l-.004-.013h.056c.165 0 .309-.06.408-.168a.3.3 0 0 0 .087-.236.5.5 0 0 0-.098-.254 1.6 1.6 0 0 1-.239-.558 1.2 1.2 0 0 1-.026-.315v-.162l-.049-.022a1.36 1.36 0 0 0-.713-.126 1 1 0 0 0-.518.21 1 1 0 0 0-.123.125l-.01.015.02-.016c.095-.07.232-.146.364-.2.072-.028.244-.087.247-.084a1 1 0 0 1-.037.083 2.3 2.3 0 0 0-.249.972c0 .195-.032.369-.092.507a.75.75 0 0 1-.317.346c-.02.012-.035.023-.033.025l.076.049c.145.089.24.16.311.235a.54.54 0 0 1 .142.238c.01.04.012.052.012.118a.4.4 0 0 1-.012.122 1 1 0 0 1-.076.199.85.85 0 0 0-.102.391.9.9 0 0 0 .022.247c.03.15.043.24.05.361.013.207-.02.415-.093.576a1 1 0 0 1-.083.151l-.02-.071a.8.8 0 0 0-.193-.35 3 3 0 0 0-.239-.241 1.3 1.3 0 0 1-.256-.305l-.022-.041-.001.05c-.005.161.063.333.215.546.025.035.083.111.129.17.134.172.196.27.253.4a.98.98 0 0 1 .07.604 1 1 0 0 1-.02.09s-.02-.042-.04-.093a1.1 1.1 0 0 0-.16-.291c-.135-.176-.348-.333-.65-.479a4 4 0 0 1-.327-.184.7.7 0 0 1-.232-.253q-.003.002-.006.02-.015.109.077.254c.04.061.064.092.154.193.081.091.123.147.155.207a.5.5 0 0 1 .061.291 1 1 0 0 1-.042.157c-.001 0-.023-.04-.049-.09-.083-.16-.13-.197-.355-.277a2 2 0 0 1-.142-.06c-.027-.013-.047-.022-.046-.018a1.3 1.3 0 0 1 .09.434l-.07-.05a1 1 0 0 0-.442-.185q-.002.003.004.012c.004.004.013.02.02.034q.085.177-.038.385l-.02.035.012.054a1 1 0 0 1 .02.323.7.7 0 0 1-.087.25.7.7 0 0 1-.193.194c-.04.027-.19.107-.19.102-.002-.002.008-.032.021-.066a.45.45 0 0 0 .037-.227.6.6 0 0 0-.096-.258l-.027-.04h-.072a.42.42 0 0 1-.287-.081.55.55 0 0 1-.179-.282l-.013-.046h-.043l-.008.044a.9.9 0 0 1-.146.346c-.1.138-.237.254-.386.326-.043.02-.045.022-.047.04a.6.6 0 0 0 .042.33.4.4 0 0 0 .116.144.4.4 0 0 1 .055.053c-.004.004-.15.016-.195.015a1 1 0 0 1-.086-.006zm.102-.088c-.105-.137-.135-.36-.076-.564l.012-.041-.012-.017a.26.26 0 0 0-.142-.098.36.36 0 0 0-.182.005.24.24 0 0 0-.15.12c-.015.032-.015.045 0 .11a.8.8 0 0 0 .16.344c.095.108.214.159.387.165h.022zm7.286-.176a.6.6 0 0 1-.015-.26.75.75 0 0 1 .143-.315c.012-.014.014-.019.011-.035a.25.25 0 0 0-.065-.122.3.3 0 0 0-.082-.062.3.3 0 0 0-.17-.04.2.2 0 0 0-.077.013.2.2 0 0 0-.08.067 1.2 1.2 0 0 0-.016.32.6.6 0 0 0 .083.238c.025.04.076.095.118.128a1 1 0 0 0 .15.085c.005 0 .005-.003 0-.017m-5.925-.186a.6.6 0 0 0 .13-.112.51.51 0 0 0 .13-.35.9.9 0 0 0-.027-.249c-.017-.073-.025-.09-.048-.107a.18.18 0 0 0-.118-.037.33.33 0 0 0-.244.118.26.26 0 0 0-.065.139l-.003.032.042.045c.094.101.155.226.175.358a.557.557 0 0 1-.005.174c-.005.013-.002.012.033-.011m7.283-.02c.207-.08.32-.229.355-.47.003-.023.006-.082.006-.14 0-.112-.002-.116-.036-.15-.045-.046-.102-.065-.18-.06a.3.3 0 0 0-.147.042c-.06.032-.124.11-.131.162 0 .005.005.02.014.032a.8.8 0 0 1 .088.191.6.6 0 0 1 .026.192c0 .088-.008.131-.032.19-.006.014-.01.026-.008.026zm-10.152-.16a.55.55 0 0 1 .114-.21.7.7 0 0 1 .23-.164c.04-.016.042-.018.048-.037a.4.4 0 0 0-.006-.152.4.4 0 0 0-.11-.174.3.3 0 0 0-.132-.068c-.036-.006-.082 0-.1.013a.85.85 0 0 0-.18.34.7.7 0 0 0-.012.219q.021.134.114.27l.019.028.004-.017zm.88-.03a.3.3 0 0 1 .065-.122c.137-.151.41-.144.53.013a.3.3 0 0 1 .031.052c.011.024.011.025.004.045-.004.011-.006.022-.005.023a.8.8 0 0 0 .137-.082.9.9 0 0 0 .297-.365.7.7 0 0 0 .054-.202l.009-.064c.001-.005.018-.006.075-.004.04.002.074.005.076.007a.3.3 0 0 1 .016.052.7.7 0 0 0 .06.159.5.5 0 0 0 .124.14.4.4 0 0 0 .2.056h.033l-.014-.012c-.012-.01-.014-.016-.015-.042-.01-.164.142-.337.325-.369.084-.014.187.015.23.064q.01.012.015.013a.2.2 0 0 0 .024-.047.3.3 0 0 0 .021-.22c-.018-.056-.037-.083-.117-.16l-.058-.06c-.002-.005.195.027.267.043.123.028.246.078.333.134l.025.016v-.013c0-.021-.031-.146-.05-.196a2 2 0 0 0-.099-.22l.026-.02.026-.02.036.038c.066.072.112.098.267.154q.157.057.237.112a.5.5 0 0 1 .121.14.5.5 0 0 0-.01-.113.6.6 0 0 0-.104-.207l-.093-.11c-.137-.153-.197-.244-.23-.351a.3.3 0 0 1-.013-.1.3.3 0 0 1 .01-.094 1 1 0 0 1 .066-.132c.002 0 .01.018.018.041a.6.6 0 0 0 .267.333c.056.037.23.132.317.175q.441.214.653.489c.034.044.091.135.112.178l.01.02v-.061a1 1 0 0 0-.15-.505 2 2 0 0 0-.19-.27c-.22-.278-.31-.445-.34-.636a.8.8 0 0 1 .015-.279l.007-.029h.022c.032 0 .042.005.045.02a.6.6 0 0 0 .042.121c.045.09.123.181.284.333.211.2.31.32.374.46l.022.048.011-.024a1.06 1.06 0 0 0 .079-.475 1.6 1.6 0 0 0-.031-.308 2 2 0 0 1-.04-.254 1 1 0 0 1 .119-.543.6.6 0 0 0 .07-.266.33.33 0 0 0-.031-.16.4.4 0 0 0-.079-.119c-.078-.09-.177-.163-.42-.31a1 1 0 0 1-.093-.062l.064-.032c.18-.086.29-.185.36-.329.066-.131.1-.31.1-.522a2.3 2.3 0 0 1 .223-.92 1.446 1.446 0 0 0-.574.336l-.033.031-.025-.019a.1.1 0 0 1-.026-.023c0-.01.037-.086.065-.132a.95.95 0 0 1 .56-.4c.108-.03.194-.04.316-.04q.293 0 .58.126l.06.026q.005-.001.005-.013c0-.017.025-.146.037-.192l.01-.034-.033-.042a1 1 0 0 1-.189-.491 2.3 2.3 0 0 1 .005-.477c.004-.015-.183-.115-.331-.178a2.1 2.1 0 0 0-.672-.168 3 3 0 0 0-.394.008c-.53.068-1.023.33-1.42.754-.14.15-.244.285-.347.455q-.161.266-.349.368a.43.43 0 0 1-.219.06.5.5 0 0 1-.211-.035 1 1 0 0 1-.278-.165.1.1 0 0 0-.028-.02l.014.038c.03.074.034.14.017.274a.7.7 0 0 0 .006.231q.046.187.202.22c.046.009.08.005.15-.014q.054-.015.05-.008l-.09.173c-.1.192-.137.265-.179.366-.057.137-.1.283-.123.417-.013.074-.012.078.011.057a.4.4 0 0 1 .06-.038c.076-.04.135-.052.293-.058a.7.7 0 0 0 .228-.034c.137-.05.238-.152.372-.373l.03-.05a.4.4 0 0 1 .057.033l-.019.058a1.43 1.43 0 0 0-.035.897c.035.118.078.225.193.476.053.117.058.128.052.138a3 3 0 0 1-.095.113c-.258.294-.445.57-.573.841-.09.192-.145.355-.182.545l-.018.08c-.003.003-1.77.099-1.773.096a.4.4 0 0 1 .014-.06.6.6 0 0 0 .032-.204c0-.11-.024-.184-.082-.25a.23.23 0 0 0-.23-.075.3.3 0 0 0-.1.044l-.015.01.018.029c.033.055.05.127.045.195-.017.214-.162.39-.322.39-.032 0-.033 0-.047-.02l-.015-.018.002.05c.001.044.003.055.014.078.015.03.042.062.072.08.019.013.02.014.054.008a.6.6 0 0 1 .177.002c.11.021.279.108.34.176.016.016.018.022.016.034-.004.017-.018.031-.032.031a.1.1 0 0 1-.038-.022c-.144-.116-.308-.172-.442-.15a.2.2 0 0 0-.114.052.44.44 0 0 0-.158.275.5.5 0 0 0 .015.183c.016.063.017.064.036.057a.3.3 0 0 1 .066-.006.2.2 0 0 1 .088.014c.05.02.1.054.142.1q.112.122.118.27a.3.3 0 0 1-.021.14l-.014.031.026.011c.11.045.218.03.303-.044a.5.5 0 0 0 .137-.24q.008-.029.015-.03l.032.007.025.008-.003.021a.6.6 0 0 1-.077.197.4.4 0 0 1-.138.134c-.014.008-.015.01-.013.024.005.026.032.09.052.123.017.03.078.1.086.1q.004-.002.006-.018m8.273-.16c.191-.06.365-.301.572-.795.022-.053.042-.098.044-.1a.2.2 0 0 1 .059.023l-.015.047c-.044.12-.078.243-.09.327a.6.6 0 0 0 .006.182q.032.098.154.106c.023.002.05.001.06 0 .016-.004.016-.004.01-.015s-.006-.016 0-.046c.03-.156.183-.273.359-.273a.276.276 0 0 1 .243.119q.011.017.016.018c.002 0 .016-.01.032-.022.072-.058.13-.174.158-.313a2.7 2.7 0 0 0 .022-.599l-.005-.146a.3.3 0 0 1 .042.038 1 1 0 0 0 .072.064c.063.049.1.126.136.282l.012.052-.016.065a1 1 0 0 0-.036.231c0 .029.001.059.003.067.026.118.14.104.446-.058.152-.08.193-.094.29-.094.104 0 .184.028.28.096l.039.026-.018-.06a.9.9 0 0 0-.427-.558l-.048-.028-.084-.122c-.286-.412-.445-.696-.497-.883a.3.3 0 0 1-.013-.105c0-.058 0-.059.017-.096l.026-.05.008-.011.087.13c.047.07.096.148.108.17.03.06.079.138.113.183.078.1.204.19.301.216a.6.6 0 0 1 .194.09.7.7 0 0 1 .12.123l.015.02-.002-.04a1.2 1.2 0 0 0-.194-.533.9.9 0 0 0-.17-.22 5 5 0 0 1-.14-.145c-.21-.229-.316-.398-.356-.565a2 2 0 0 1-.032-.224q.001-.008.027-.015c.036-.01.035-.01.042.015.012.044.051.147.078.206.085.181.212.336.413.503.022.018.153.145.292.283l.253.251.003-.037c.007-.096.002-.27-.013-.393a2 2 0 0 0-.226-.725.5.5 0 0 1-.037-.099c-.113-.42-.099-.823.046-1.282l.02-.064-.017.008a.65.65 0 0 0-.228.205 4 4 0 0 0-.171.251c-.002.002-.017-.003-.033-.01-.026-.013-.028-.015-.026-.027l.015-.092c.077-.508.18-.852.301-1.007a.3.3 0 0 1 .153-.11.3.3 0 0 1 .12.002c.033.01.096.041.126.064.02.015.02.015.02.004l.016-.549.003-.054-.024-.028a.2.2 0 0 0-.047-.043c-.022-.012-.028-.013-.077-.013a.2.2 0 0 0-.092.016c-.125.052-.252.152-.546.428-.192.18-.273.25-.374.319-.115.08-.209.087-.32.023a1 1 0 0 1-.118-.09 6 6 0 0 0-.386-.31 1.2 1.2 0 0 0-.339-.186l.01-.052c.021-.115.025-.163.025-.313 0-.16-.005-.224-.03-.363a3 3 0 0 0-.177-.599 1 1 0 0 1-.039-.108.4.4 0 0 1 .06.034.47.47 0 0 0 .307.088.5.5 0 0 0 .147-.014c.293-.067.563-.279.723-.564.17-.303.181-.645.034-.975a1.6 1.6 0 0 0-.286-.427.5.5 0 0 1-.11-.178q-.037-.102.002-.144c.01-.011.016-.013.048-.013s.039.002.08.024a1 1 0 0 1 .08.05c.068.05.12.07.18.071.048 0 .078-.011.108-.042.053-.053.076-.137.076-.278 0-.083.01-.185.037-.388.092-.685.232-1.13.432-1.38l.028-.034h-.014c-.022 0-.12.014-.17.025a.75.75 0 0 0-.422.226c-.145.159-.222.38-.254.732l-.005.063-.13.127c-.071.07-.13.126-.13.125 0 0 .003-.085.01-.187l.046-.929c.041-.909.084-1.405.164-1.886.018-.103.068-.36.072-.369a1 1 0 0 0-.11-.132c-.022-.02-.027-.023-.029-.016-.114.432-.177.86-.206 1.413-.014.26-.018.41-.024.839-.008.65-.02 1.139-.027 1.147a.1.1 0 0 1-.033.007l-.03.003-.011-.052a1.9 1.9 0 0 0-.194-.56.9.9 0 0 0-.252-.276 1.1 1.1 0 0 0-.382-.146 9 9 0 0 0-.283-.043.3.3 0 0 0 .04.033q.435.326.523.876c.018.115.021.162.021.33 0 .193-.01.328-.04.536l-.008.076c0 .005.065-.08.144-.19l.145-.198.003.09a.6.6 0 0 0 .038.22c.046.13.147.285.314.487.309.374.436.723.363 1a.56.56 0 0 1-.134.242q-.176.19-.503.241a1.6 1.6 0 0 1-.276 0c-.208-.035-.357-.106-.457-.217a.3.3 0 0 1-.064-.113q-.291-.672-.936-1.45c-.151-.182-.377-.437-.532-.6l-.09-.094-.039.008a.6.6 0 0 0-.135.047 2 2 0 0 1-.24.098q-.55.18-.957-.087a1.5 1.5 0 0 1-.39-.414l-.017-.026-.037.054c-.047.068-.139.173-.199.226-.212.187-.508.319-.924.413a1 1 0 0 0-.084.022c0 .008.064.09.107.135.086.09.19.167.335.246.134.073.218.11.427.185.243.089.32.127.462.23.123.087.213.168.336.303s.205.244.295.393c.182.3.29.622.314.928.007.085.003.247-.007.32-.022.156-.05.248-.145.477-.144.344-.206.55-.243.8-.01.063-.01.091-.01.21 0 .15.004.197.03.311.038.171.115.347.225.515.07.107.1.181.108.273.015.168-.074.32-.245.414a.6.6 0 0 1-.266.079c-.027 0-.027-.001.005.07a.42.42 0 0 0 .203.203.4.4 0 0 0 .181.035.5.5 0 0 0 .313-.138c.032-.027.06-.048.06-.048.002 0-.005.046-.015.103-.047.277-.047.453-.002.625l.008.027.017-.005a.7.7 0 0 0 .117-.053.75.75 0 0 0 .262-.291l.034-.058a.3.3 0 0 1 .038.049c.087.132.17.19.27.188a.3.3 0 0 0 .075-.009.6.6 0 0 0 .136-.063l.011-.01-.03-.021a.504.504 0 0 1-.151-.586c.043-.09.135-.16.214-.16.042 0 .211-.055.284-.092a.35.35 0 0 0 .192-.215l.005-.02.031.004.033.006.008.1c.033.514.122.855.27 1.039a.47.47 0 0 0 .224.147.9.9 0 0 0 .348.002 1 1 0 0 1 .255-.004c.176.038.225.188.158.482-.016.07-.037.142-.085.285a1.8 1.8 0 0 0-.104.456c-.011.123-.008.289.009.472l.003.03-.036.04a.4.4 0 0 1-.109.094c-.123.076-.278.083-.535.025l-.103-.024-.024-.006v-.147a2 2 0 0 0-.045-.478q-.081-.342-.27-.41a.35.35 0 0 0-.168-.006l-.039.01-.003.053a.3.3 0 0 1-.013.083.42.42 0 0 1-.253.25c-.034.013-.043.014-.107.014-.065 0-.07 0-.099-.013a.4.4 0 0 1-.052-.03c-.02-.014-.022-.017-.025-.043a.1.1 0 0 0-.005-.028.5.5 0 0 0-.093.082q-.117.134-.022.243c.03.035.057.056.107.083a1 1 0 0 0 .19.073.3.3 0 0 1 .054.017.1.1 0 0 1 0 .036l-.002.033-.064.01c-.09.014-.104.012-.25-.028a.7.7 0 0 0-.214-.04c-.031.002-.043.005-.057.014-.023.016-.04.054-.043.1l-.003.035.029.007c.105.026.191.126.23.268.017.061.02.155.009.213a.33.33 0 0 1-.076.153c-.024.026-.032.032-.04.03-.014-.002-.013.003.009.055.059.138.14.202.21.165.04-.021.07-.066.127-.189.063-.136.086-.174.13-.22a.3.3 0 0 1 .108-.076c.02-.007.187-.03.191-.026 0 0-.027.027-.062.057a1 1 0 0 0-.147.148.7.7 0 0 0-.115.24.5.5 0 0 0 0 .216.34.34 0 0 0 .204.236c.003 0 .006-.012.008-.026.003-.025.005-.03.037-.064a.3.3 0 0 1 .059-.05c.142-.08.35-.023.459.125.03.04.053.101.058.15.002.027.001.034-.005.042-.008.01-.008.01.005.013a.5.5 0 0 0 .15-.012m-1.903-.712a.5.5 0 0 1 .236-.134.6.6 0 0 1 .19-.018l.042.005.013-.016a.3.3 0 0 0 .05-.121.4.4 0 0 0-.036-.232q-.056-.124-.161-.15l-.026-.006-.045.026a.8.8 0 0 0-.206.159.5.5 0 0 0-.132.236.4.4 0 0 0-.013.143c0 .091.003.126.019.186q0 .012.022-.02a1 1 0 0 1 .047-.058m.948-.136.002-.01-.007.01q-.004.009-.003.01.003-.001.008-.01m.02-.034q.012-.017.008-.015c-.005.004-.026.033-.022.033zm-8.012-.693c.073-.017.15-.093.187-.186.024-.057.031-.1.03-.161-.003-.053-.004-.059-.02-.095a.2.2 0 0 0-.029-.05c-.022-.023-.144-.05-.245-.054-.218-.009-.374.09-.482.302q-.023.044-.013.04l.054-.012a.45.45 0 0 1 .276.052c.061.032.126.08.17.128.02.022.039.04.042.041zm8.033-.507c.124-.045.215-.155.222-.267.001-.032 0-.045-.006-.06a1 1 0 0 0-.148-.159.5.5 0 0 0-.299-.127.4.4 0 0 0-.163.022.7.7 0 0 0-.139.067c-.014.01-.015.011-.007.014a.5.5 0 0 1 .244.21c.054.09.08.16.1.273.006.038.123.053.196.027m-1.576-4.171c.032-.11.082-.242.164-.44.091-.22.115-.301.136-.46.01-.073.01-.258.002-.332a2 2 0 0 0-.163-.586l-.031-.071-.055-.057a2.9 2.9 0 0 0-.555-.463l-.026-.016-.042.064-.042.064.057.064a2 2 0 0 1 .453.857l-.02.111a7 7 0 0 0-.063.383c-.039.334-.012.588.084.788.026.055.082.14.087.134zm-6.727-.878a.5.5 0 0 1-.052-.237c0-.11.023-.22.069-.314l.02-.042-.012-.027c-.065-.133-.266-.188-.406-.111a.24.24 0 0 0-.078.084c-.005.013-.005.029 0 .087q.024.333.206.484a.6.6 0 0 0 .22.106c.055.012.054.013.033-.03m1.542-.325a.6.6 0 0 0 .131-.043l.035-.015-.024-.013a.5.5 0 0 1-.206-.234.9.9 0 0 1-.068-.28c0-.014-.004-.018-.023-.03a.2.2 0 0 0-.112-.029.33.33 0 0 0-.247.117.24.24 0 0 0-.063.16c0 .025.002.03.038.082a.7.7 0 0 0 .288.26c.077.03.171.04.25.025m-1.315-.313a.16.16 0 0 0 .129-.116.6.6 0 0 0-.005-.227.6.6 0 0 0-.074-.181c-.069-.132-.097-.226-.089-.3a1 1 0 0 1 .027-.134 1.277 1.277 0 0 1 .229.475c.04.134.063.19.1.255q.135.229.305.185c.04-.011.05-.019.05-.04 0-.025.017-.082.035-.115a.396.396 0 0 1 .36-.207c.067.006.13.034.17.076l.02.02.025-.02a.36.36 0 0 0 .114-.168.27.27 0 0 0-.005-.158.26.26 0 0 0-.164-.138l-.046-.016-.06.006a1 1 0 0 1-.062.004l-.01-.06-.021-.126c-.035-.198-.035-.302-.001-.375a.7.7 0 0 1 .09-.116l.008.07a.8.8 0 0 0 .07.275.52.52 0 0 0 .23.248.3.3 0 0 0 .148.039c.07.003.11-.006.173-.04a.43.43 0 0 0 .163-.158c.06-.095.205-.074.314.045a.38.38 0 0 1 .094.35l-.006.027.02-.016a.7.7 0 0 0 .128-.145.33.33 0 0 0 .04-.2.7.7 0 0 0-.09-.262.8.8 0 0 1-.071-.188.4.4 0 0 1-.012-.128c0-.057.002-.088.007-.114a.43.43 0 0 1 .192-.286c.03-.017.132-.062.132-.059l-.037.077a.7.7 0 0 0-.092.28.4.4 0 0 0 .06.232c.124.192.176.328.184.479l.003.064.033-.055c.068-.113.127-.257.157-.386.028-.118.032-.162.03-.318 0-.156.004-.22.022-.304a.55.55 0 0 1 .244-.379c.084-.056.199-.098.423-.155l.043-.01.004-.035a2.245 2.245 0 0 0-.023-.511 1.2 1.2 0 0 1 .02-.531 1.2 1.2 0 0 1 .117-.252c.009-.015-.152.074-.244.135a1.8 1.8 0 0 0-.358.303c-.13.14-.22.28-.303.47-.08.182-.128.342-.207.691l-.034.141c-.005 0-.115-.189-.154-.264-.243-.464-.329-.947-.243-1.368l.01-.057a.4.4 0 0 0-.052.028q-.485.287-.884.915l-.05.079-.068.055c-.506.412-.84.62-1.099.686a.4.4 0 0 1-.126.015.4.4 0 0 1-.098-.007c-.157-.043-.243-.18-.269-.429a.2.2 0 0 1 .004-.087.7.7 0 0 0 .008-.145.5.5 0 0 0-.012-.152q-.056-.223-.201-.303a.2.2 0 0 0-.094-.032q-.136-.018-.274.11l-.016.015.006.037a.45.45 0 0 1-.158.374.3.3 0 0 1-.201.076l-.042-.006c-.008-.002-.014.003-.03.03-.082.133-.1.286-.047.402.033.074.087.131.14.149.021.007.05.008.185.009.13 0 .166.002.193.008.042.011.1.035.102.042.001.003 0 .02-.004.036l-.007.03-.034.004a1 1 0 0 0-.078.014 1 1 0 0 1-.197.039 1 1 0 0 1-.336-.054 1 1 0 0 0-.085-.02q-.06.002-.085.077a.648.648 0 0 0 .036.33l.014.043.026.004c.111.014.226.121.277.258a.37.37 0 0 1-.021.334c0 .008.053.078.077.1.012.013.036.03.053.039.04.02.089.022.132.002.069-.03.149-.107.265-.253a2.5 2.5 0 0 1 .33-.36c.002 0 0 .03-.005.067-.017.138-.053.205-.25.451-.199.25-.253.343-.273.469-.012.074.012.179.045.197.02.012.085.02.128.018l.038-.003.03-.031a.3.3 0 0 1 .13-.078.44.44 0 0 1 .201 0 .35.35 0 0 1 .213.16c.017.032.019.034.037.035.028.002.085 0 .114-.006m-1.744-.536a1 1 0 0 1 .036-.074.6.6 0 0 1 .37-.254l.03-.006.01-.026c.034-.091.016-.197-.05-.3-.053-.083-.127-.13-.204-.13-.036 0-.038.001-.06.02a1 1 0 0 0-.126.147.59.59 0 0 0-.102.486c.012.049.034.11.058.158.014.028.018.033.021.025zm1.885.03a2 2 0 0 0-.056-.16c-.024-.056-.057-.116-.057-.104 0 .018.015.072.03.11.015.033.082.167.085.167zm3.617-1.08c.102-.233.305-.4.658-.54a1 1 0 0 1 .13-.04c.313-.063.553-.14.743-.239.225-.117.367-.248.504-.464a.3.3 0 0 1 .049-.067l.046.072c.306.487.676.66 1.17.545.102-.023.268-.084.374-.137a.6.6 0 0 1 .271-.058c.068 0 .154.009.2.02q.017.005.02.003a3 3 0 0 0-.187-.2c-.1-.093-.211-.18-.346-.268a.28.28 0 0 1-.121-.163.36.36 0 0 1-.002-.165.5.5 0 0 1 .108-.192.17.17 0 0 1 .07-.055.7.7 0 0 0 .427-.62v-.03h-.073a.9.9 0 0 1-.398-.084q-.23-.118-.31-.46l-.014-.054a1 1 0 0 0-.057.053c-.277.278-.505.41-.782.451a2 2 0 0 1-.255.008c-.473-.001-.689.03-.825.118a.4.4 0 0 0-.051.04l-.02.02-.025-.021a.1.1 0 0 1-.025-.024l.078-.174c.196-.433.26-.641.293-.947.009-.08.014-.285.009-.3-.004-.012-.01-.007-.08.076-.212.249-.373.363-.615.436-.099.03-.202.046-.34.055a1.3 1.3 0 0 0-.446.09 1.4 1.4 0 0 0-.288.169.2.2 0 0 1-.036-.058l.032-.026c.11-.09.214-.251.29-.445a3 3 0 0 0 .135-.502c.033-.145.084-.26.172-.383.043-.06.205-.244.22-.25.02-.007.045.021.038.046a1 1 0 0 1-.081.098c-.182.204-.256.344-.294.554a2.2 2.2 0 0 1-.275.755l.048-.019c.135-.058.273-.088.454-.1a2 2 0 0 0 .234-.026c.205-.04.362-.114.515-.246.046-.04.211-.221.304-.334.035-.043.066-.08.068-.08.012 0 .014.398.002.503-.033.298-.096.51-.269.9l-.049.11.026-.012c.076-.037.182-.063.327-.08.08-.009.139-.01.4-.014l.318-.007.055-.011c.172-.032.35-.123.521-.264.074-.062.128-.113.227-.217a.5.5 0 0 1 .089-.084l.018.093c.02.102.043.18.07.245q.104.246.37.305c.09.02.127.023.293.023.15 0 .166 0 .214-.011a.65.65 0 0 0 .459-.358 1 1 0 0 0 .065-.159.1.1 0 0 0-.032.013 1 1 0 0 1-.175.064.4.4 0 0 1-.186-.002.2.2 0 0 1-.096-.06c-.128-.13-.075-.397.11-.555.206-.176.329-.33.432-.544.04-.082.048-.073-.062-.08a1.5 1.5 0 0 1-.472-.098 1.3 1.3 0 0 1-.266-.148 1 1 0 0 1-.195-.2.7.7 0 0 1-.118-.34q0-.047.031-.048.03 0 .035.058c.027.287.266.53.632.642.12.038.239.056.38.06.154.005.232-.008.316-.051a.4.4 0 0 0 .119-.089.74.74 0 0 0 .176-.387c.014-.077.023-.172.02-.222v-.038l-.019.03c-.143.238-.38.317-.52.175a.26.26 0 0 1-.07-.21.4.4 0 0 1 .03-.155c.042-.142.058-.21.076-.32.014-.09.004-.336-.013-.328a.6.6 0 0 1-.295.018.66.66 0 0 1-.472-.441 1 1 0 0 1-.044-.202c-.004-.05.002-.063.028-.063s.032.011.04.071c.032.264.184.473.398.546.053.018.08.023.142.026a.47.47 0 0 0 .248-.054c.135-.074.25-.237.31-.441a.7.7 0 0 0 .032-.146.1.1 0 0 0-.034.018.38.38 0 0 1-.253.066c-.138-.025-.222-.161-.205-.332a.7.7 0 0 1 .105-.295l.05-.08a.7.7 0 0 0 .062-.143c.04-.13.043-.291.006-.37-.01-.02-.01-.02-.016-.01-.113.172-.165.23-.287.317a.2.2 0 0 1-.068.04c-.028 0-.042-.039-.021-.06l.064-.048a.9.9 0 0 0 .271-.319.4.4 0 0 0 .048-.127c.08-.304.072-.522-.024-.767l-.023-.06-.057.065c-.125.143-.236.224-.36.263a.8.8 0 0 0-.28.149c-.025.021-.044.054-.044.073 0 .02-.02.04-.037.036q-.03-.006-.027-.042 0-.109.203-.216l.062-.032-.018-.01-.102-.051c-.7-.34-1.6-.608-2.257-.672a.6.6 0 0 0-.255.021.6.6 0 0 0-.367.414l-.013.046-.546.388c-.3.212-.546.39-.546.393 0 .012.032.127.048.174.054.155.132.25.264.32.062.033.056.023.061.115.004.073.018.19.03.257.025.132.086.292.151.398.048.078.133.189.141.183a1 1 0 0 0 .054-.13 1.3 1.3 0 0 0 .046-.228l.008-.064.057.007c.073.01.2.006.278-.008q.267-.05.582-.248a.4.4 0 0 1 .162-.073c.148-.027.306.082.393.272.034.075.036.085.076.467l.044.416q.03.243-.131.255a1 1 0 0 1-.229-.032c-.343-.066-.543-.055-.828.046-.095.034-.13.039-.187.026-.116-.025-.21-.126-.272-.288l-.013-.035-.012.022a.5.5 0 0 0-.05.198q0 .073.032.145l.02.042-.022.05a.4.4 0 0 0-.043.178c0 .048.002.057.014.086.014.034.046.07.077.087.042.023.065.028.132.028a.3.3 0 0 0 .174-.044l.05-.026.45.054.453.055.004.036c.003.032.002.034-.008.036-.006.002-.424.079-.93.17-.507.093-.95.175-.986.183-.442.102-.826.046-1.032-.15-.192-.182-.205-.452-.037-.73.017-.028.02-.035.014-.039l-.055-.022a.7.7 0 0 0-.255-.052.54.54 0 0 0-.3.064c-.263.142-.365.48-.253.842a1.4 1.4 0 0 0 .098.222c.034.06.056.09.118.172a.4.4 0 0 1 .043.062 1 1 0 0 1-.08.008 1.258 1.258 0 0 0-.904.404c-.435.472-.522 1.212-.224 1.908.022.052.018.058.04-.046.08-.387.271-.65.549-.756a.8.8 0 0 1 .306-.055c.145 0 .268.023.415.077.056.021.192.083.19.087 0 .002-.029.029-.063.059a1.38 1.38 0 0 0-.478.953c-.007.08-.003.261.007.338.03.23.091.441.194.666.044.098.126.252.13.245l.026-.108c.084-.363.183-.621.317-.83a1.944 1.944 0 0 1 .71-.642c.084-.047.122-.066.219-.11.014-.007.014-.007.031.02.01.014.017.029.017.031a.1.1 0 0 1-.017.023l-.048.06c-.161.222-.207.471-.148.805.013.074.023.228.024.346 0 .15-.011.226-.06.38-.064.212-.07.404-.022.68.007.038.014.07.015.07zm-4.94-1.039a.36.36 0 0 0 .16-.157.3.3 0 0 0 .042-.16c0-.052-.001-.059-.014-.09l-.015-.032-.045-.025a.8.8 0 0 0-.27-.09c-.162-.02-.312.05-.43.196l-.033.04.049.004a.5.5 0 0 1 .33.171.7.7 0 0 1 .106.145l.006.014.044-.002a.2.2 0 0 0 .07-.014m11.685-.135.048-.045.008-.074c.02-.205.058-.37.12-.51l.025-.055-.073-.112-.11-.173a.2.2 0 0 0-.037-.053c0 .004-.008.145-.015.314a49 49 0 0 1-.037.754v.025l.012-.013zm.258-.778a1 1 0 0 1 .055-.068l.039-.045-.008-.019a19 19 0 0 0-.334-.63c-.001.001-.007.09-.012.196l-.011.195.065.105c.085.138.183.29.187.29q.004-.002.019-.024m-.53-1.037.013-.21c.003-.021 0-.027-.02-.068a12 12 0 0 1-.184-.38c-.325-.713-.4-1.21-.239-1.58a.9.9 0 0 1 .167-.255 1.2 1.2 0 0 1 .255-.203c.042-.024.09-.011.105.028.015.04.002.079-.05.155a.5.5 0 0 0-.11.34c.003.068.012.11.037.178.055.146.185.32.363.48.047.044.094.099.163.192.1.136.167.261.214.404.014.04.024.065.026.062.007-.013.055-.19.073-.268.071-.32.06-.553-.04-.784a.2.2 0 0 1-.02-.054.1.1 0 0 1 .042-.02c.16-.057.28.086.305.364.016.18-.027.42-.119.667a1.13 1.13 0 0 0-.069.658 1 1 0 0 0 .044.148.2.2 0 0 0 .006-.055c.01-.21.08-.437.27-.885.124-.293.157-.383.19-.523.061-.268.05-.501-.034-.716a.96.96 0 0 0-.325-.412 1.104 1.104 0 0 0-.661-.21c-.112 0-.203.012-.298.04l-.024.007-.004-.016-.004-.016-.004.018c-.005.017-.006.018-.07.04-.234.086-.39.205-.501.387-.162.261-.197.637-.103 1.116.084.432.28.946.582 1.532l.014.025s.006-.084.01-.186m.029-.392a5.873 5.873 0 0 1 .175-1.05l.021-.083-.035-.037a1.3 1.3 0 0 1-.259-.365.6.6 0 0 1-.06-.266.6.6 0 0 1 .118-.355q.06-.087.043-.087a.898.898 0 0 0-.4.418.9.9 0 0 0-.076.34c-.014.304.073.646.289 1.137.056.127.175.37.18.367q.004-.004.004-.02m-8.999-.766.028-.05c.024-.05.025-.058.028-.193.002-.071.006-.143.01-.16.017-.104.048-.163.11-.214.047-.04.066-.054.068-.052 0 .001-.001.101-.005.223-.006.22-.006.22-.019.256a.6.6 0 0 0-.04.184c-.001.04 0 .048.008.057l.01.01.034-.043a1.34 1.34 0 0 1 .962-.5.4.4 0 0 0-.029-.047 1.14 1.14 0 0 1-.205-.565.77.77 0 0 1 .146-.528l.025-.03-.316-.422-.326-.436c-.008-.013-.012-.029-.018-.08a2 2 0 0 0-.052-.298 1.7 1.7 0 0 0-.335-.635c-.046-.059-.078-.118-.16-.3-.178-.395-.197-.66-.062-.878a.4.4 0 0 1 .094-.098c.303-.257.46-.444.503-.602a.24.24 0 0 0-.009-.162.4.4 0 0 0-.104-.123l-.023-.017-.014.009a.27.27 0 0 1-.162.048.4.4 0 0 1-.291-.141.32.32 0 0 1-.083-.206c0-.026.002-.03.012-.04.015-.013.012-.016-.037-.044-.193-.106-.278-.034-.306.256a.93.93 0 0 1-.157.434.4.4 0 0 1-.118.128c-.07.038-.137.016-.144-.048-.002-.02 0-.024.019-.05.131-.177.2-.366.192-.524-.01-.184-.118-.305-.285-.32a.5.5 0 0 0-.21.042l-.022.01.007.027a.35.35 0 0 1-.008.151.42.42 0 0 1-.225.247.3.3 0 0 1-.274-.006l-.02-.012-.016.03a.7.7 0 0 0-.06.145.4.4 0 0 0-.01.11c0 .063.002.07.015.11.039.11.12.198.254.273.077.044.17.081.269.109.037.01.044.014.062.034a.17.17 0 0 1 .042.093c0 .04-.03.082-.073.102a.2.2 0 0 1-.059.014l-.037.005-.132-.085c-.22-.14-.336-.2-.427-.224a.26.26 0 0 0-.132-.009c-.095.022-.152.093-.197.242-.022.074-.022.08-.006.084.054.015.132.102.164.184a.52.52 0 0 1 .026.293.33.33 0 0 1-.104.173l-.02.014-.035-.008-.038-.006.01.034c.046.133.115.19.22.18.097-.01.188-.053.468-.222l.161-.096a1 1 0 0 1-.036.085c-.06.13-.093.174-.29.395-.155.172-.202.237-.236.327a.32.32 0 0 0 .004.246l.01.024.008-.012.019-.033c.013-.027.02-.03.083-.029a.2.2 0 0 1 .083.014.434.434 0 0 1 .245.486c-.015.041-.015.042.01.056a.17.17 0 0 0 .102.03c.041-.004.072-.022.11-.064.058-.065.101-.148.203-.39l.069-.164.027.01.032.011c.002.002.002.013 0 .025a.8.8 0 0 0-.003.208c.026.175.099.34.259.584.06.092.1.191.122.31.016.084.02.219.01.3-.04.296-.212.474-.461.477l-.052.001c0 .003.068.059.1.082.216.159.416.156.632-.008.04-.03.069-.056.147-.134l.068-.065c.001 0-.012.063-.03.139a1.5 1.5 0 0 0-.055.367c0 .168.031.305.12.522.066.162.094.29.087.41l-.003.048.028-.033a1 1 0 0 0 .046-.061zm10.081-1.776c.17-.508.262-.91.296-1.295a4 4 0 0 0 0-.457 2 2 0 0 0-.08-.427 1.8 1.8 0 0 0-.675-.95.9.9 0 0 0-.34-.152 1 1 0 0 0-.292-.008 1 1 0 0 0-.625.387 1.2 1.2 0 0 0-.231.54c-.01.062-.012.242-.003.302.021.137.066.27.13.384.023.04.134.21.223.34.082.119.207.309.254.386.176.288.248.496.223.642l-.003.031a.969.969 0 0 0 .273-.265.56.56 0 0 0 .097-.369c-.017-.158-.082-.286-.236-.462a1.3 1.3 0 0 1-.24-.362 1 1 0 0 1-.097-.467c.013-.264.133-.458.323-.521a.5.5 0 0 1 .184-.01.7.7 0 0 1 .335.186c.1.092.222.25.277.355.103.199.174.46.204.744.011.11.01.412 0 .536-.027.292-.083.58-.172.887l-.016.054.05.026.07.041.02.014.013-.015a.5.5 0 0 0 .039-.095m-6.006-.08c.192-.067.33-.093.5-.093.106 0 .188.01.386.046.174.032.205.035.236.017.034-.019.041-.075.026-.202l-.007-.062a1 1 0 0 0-.105-.056c-.127-.052-.257-.071-.467-.067-.197.004-.287.017-.73.103l-.221.043a.1.1 0 0 0 .01.033c.038.114.104.203.175.241.06.031.103.03.197-.003m-1.351-.197c.227-.017.49-.054.779-.11l.107-.02c.003 0 .015-.012.026-.028a.2.2 0 0 1 .023-.028l.008.02q.005.02.013.02l.186-.034c.523-.103.674-.122.896-.112.17.007.293.033.403.086l.042.02-.002-.02c-.01-.066-.006-.06-.035-.071a1.6 1.6 0 0 0-.485-.08c-.14-.004-.2.002-.466.042-.368.055-.635.09-.837.109a4 4 0 0 1-.477.022c-.223 0-.294-.005-.417-.032-.18-.04-.31-.12-.372-.233a.48.48 0 0 1-.031-.424.3.3 0 0 1 .122-.132.27.27 0 0 1 .158-.036c.072 0 .121.013.195.048a.2.2 0 0 0 .045.018.3.3 0 0 0-.008-.054c-.06-.297-.216-.48-.441-.52a.64.64 0 0 0-.305.026.62.62 0 0 0-.338.251.85.85 0 0 0-.08.578.9.9 0 0 0 .52.624c.1.036.267.066.41.074.083.004.272.002.361-.004m1.092-.33.392-.056c.28-.042.318-.045.47-.042a1.6 1.6 0 0 1 .509.078 8 8 0 0 0-.043-.423.5.5 0 0 0-.058-.14c-.078-.127-.185-.192-.288-.176a.3.3 0 0 0-.12.047 2.1 2.1 0 0 1-.503.242 1 1 0 0 1-.332.045l-.085-.002-.008.053c-.02.136-.057.245-.122.37l-.017.032.015-.003zm-5.73-.148a.8.8 0 0 0 .192-.06l.06-.026.014-.027a.24.24 0 0 0 .019-.166.4.4 0 0 0-.103-.196c-.052-.054-.102-.08-.16-.082-.026-.001-.033 0-.036.007a.7.7 0 0 1-.15.173.46.46 0 0 1-.298.118h-.056l.028.04c.062.088.148.161.228.194a.6.6 0 0 0 .104.03.7.7 0 0 0 .158-.005m-.759-1.525a.6.6 0 0 1 .165-.067.5.5 0 0 1 .13-.012q.081 0 .102.007l.02.007.02-.025a.3.3 0 0 0 .053-.111.5.5 0 0 0-.004-.176.34.34 0 0 0-.11-.187.2.2 0 0 0-.05-.026c-.037-.013-.036-.014-.123.031a.63.63 0 0 0-.294.283.5.5 0 0 0-.047.156.7.7 0 0 0 .004.23l.003.015.047-.051a.4.4 0 0 1 .084-.074m10.054-.728a3.4 3.4 0 0 0 .271-.546c.001-.001.038 0 .082.004.184.013.274-.015.363-.113a.3.3 0 0 0 .039-.047 1 1 0 0 0-.072.01 2.7 2.7 0 0 1-.724.03l-.013-.003.005.048a.8.8 0 0 1-.015.21.31.31 0 0 1-.203.239.5.5 0 0 1-.214-.002.6.6 0 0 1-.262-.158.4.4 0 0 1-.125-.272c0-.087.027-.156.089-.228a.7.7 0 0 1 .115-.099c.005-.003-.008-.024-.055-.085a3.5 3.5 0 0 1-.326-.513l-.06.032a1.7 1.7 0 0 1-.48.188l-.066.013.002.019c.007.045.009.173.003.214-.025.195-.13.333-.295.389-.038.012-.047.013-.125.013a.33.33 0 0 1-.203-.047.42.42 0 0 1-.216-.386.7.7 0 0 1 .068-.294l.024-.06-.09-.044a5 5 0 0 1-.641-.365l-.016-.01.003.034q.021.21.252.337c.04.022.098.05.138.066l.01.005-.015.068c-.018.08-.033.173-.039.245a5 5 0 0 0-.003.338l.096.015a8.7 8.7 0 0 1 2.077.589c.167.071.372.168.496.232.032.017.06.03.062.03s.031-.044.063-.096m-1.347-.55c-.052-.024-.073-.103-.073-.264 0-.134.024-.385.041-.444q.021-.07.11-.105a.2.2 0 0 1 .094-.014.27.27 0 0 1 .28.208c.003.016.005.05.004.075l-.002.047-.043.074c-.201.34-.324.466-.41.424m.064-.074a.4.4 0 0 0 .066-.062 2 2 0 0 0 .227-.33l.036-.062-.003-.042a.17.17 0 0 0-.049-.119.23.23 0 0 0-.172-.066c-.06 0-.112.022-.132.056a2.088 2.088 0 0 0-.035.57c.007.041.02.066.033.066a.1.1 0 0 0 .029-.01m-5.897-.316a.2.2 0 0 0 .091-.048c.013-.011.017-.021.026-.064a1 1 0 0 0 .02-.3.54.54 0 0 0-.283-.43l-.04-.022.006.022a1 1 0 0 1 .012.07.66.66 0 0 1-.162.474l-.033.037.007.034a.31.31 0 0 0 .187.207.28.28 0 0 0 .169.02M3.48 8.622a.4.4 0 0 0 .177-.124.26.26 0 0 0 .058-.184c-.004-.036-.004-.036-.034-.069-.2-.224-.418-.291-.627-.194a1 1 0 0 0-.111.065q0 .004.012.008c.023.005.09.041.122.066a.6.6 0 0 1 .17.225c.024.05.049.13.054.169.003.021.004.023.026.032a.22.22 0 0 0 .153.006" style="fill:#fff;stroke-width:.06"/></svg>