<svg xmlns="http://www.w3.org/2000/svg" xml:space="preserve" viewBox="0 0 36 36"><path d="M4 5a4 4 0 0 0-4 4v18a4 4 0 0 0 4 4h28a4 4 0 0 0 4-4V9a4 4 0 0 0-4-4z" style="fill:#ee1818;fill-opacity:1;stroke-width:.067852"/><path d="M0 0h450v300H0z" style="fill:#fccc00" transform="translate(-177.834)scale(.08)"/><path d="M0 150h450v150H0z" style="fill:#007c5a" transform="translate(-177.834)scale(.08)"/><path fill="#ffd600" d="M0 10.8h36v14.4H0z" style="stroke-width:.599992"/><path d="M6 14.849q-1.5.001-2.999.752-1.5.75-3 .75v4.798q1.5 0 3-.75 3-1.5 6 0t6 0 5.999 0 6 0 6 0q1.5.75 3 .75v-4.798q-1.5 0-3-.75-3-1.5-6 0t-6 0-6 0-6 0q-1.5-.751-3-.752" style="fill:#00409d;fill-opacity:1;stroke-width:.599992"/></svg>