<svg xmlns="http://www.w3.org/2000/svg" xml:space="preserve" viewBox="0 0 36 36"><path d="M4 5a3.98 3.98 0 0 0-2.936 1.291 4 4 0 0 0-.472.625q-.022.034-.043.068-.088.15-.162.307-.014.029-.026.057-.067.149-.123.302l-.035.098a4 4 0 0 0-.078.273q-.019.07-.035.14-.02.097-.033.196-.021.116-.036.235A4 4 0 0 0 0 9v18a4 4 0 0 0 4 4h28a4 4 0 0 0 4-4V9a4 4 0 0 0-.021-.408q-.015-.119-.036-.235-.013-.098-.033-.197-.016-.07-.035-.139a4 4 0 0 0-.078-.273l-.035-.098a4 4 0 0 0-.123-.302l-.026-.057a4 4 0 0 0-.162-.307l-.043-.068a4 4 0 0 0-.222-.328A4 4 0 0 0 34.639 6 3.98 3.98 0 0 0 32 5z" style="stroke-width:.824467;fill:#193783;fill-opacity:1"/><path d="M0 0h450v300H0z" style="fill:#fccc00" transform="translate(-177.834)scale(.08)"/><path d="M0 150h450v150H0z" style="fill:#007c5a" transform="translate(-177.834)scale(.08)"/><path d="M32.025 7.586c-4.473 0-8.1 1.389-14.146 1.389-6.045 0-9.008-1.329-14.328-1.329-1.405 0-2.535.106-3.383.223q-.023.075-.043.152-.019.07-.035.14-.02.097-.033.196-.021.116-.036.235A4 4 0 0 0 0 9v2.998a24.4 24.4 0 0 1 3.55-.246c5.32 0 8.284 1.328 14.329 1.328s9.673-1.389 14.146-1.389c1.886 0 3.133.098 3.975.21V9a4 4 0 0 0-.021-.408q-.015-.119-.036-.235-.013-.098-.033-.197-.016-.07-.035-.139a4 4 0 0 0-.072-.253c-.84-.1-2.045-.182-3.778-.182m0 7.668c-4.473 0-8.1 1.389-14.146 1.389-6.045 0-9.008-1.329-14.328-1.329-1.498 0-2.69.12-3.551.247v4.103a24.4 24.4 0 0 1 3.55-.246c5.32 0 8.284 1.328 14.329 1.328s9.673-1.389 14.146-1.389c1.886 0 3.133.098 3.975.21v-4.104c-.842-.112-2.09-.21-3.975-.21m0 7.666c-4.473 0-8.1 1.389-14.146 1.389-6.045 0-9.008-1.329-14.328-1.329-1.498 0-2.69.12-3.551.247V27c0 .111.009.22.018.328a24.5 24.5 0 0 1 3.533-.242c5.32 0 8.283 1.328 14.328 1.328s9.673-1.389 14.146-1.389c1.876 0 3.12.096 3.963.207.005-.077.012-.153.012-.232v-3.871c-.842-.112-2.09-.21-3.975-.21" style="fill:#eee;fill-rule:evenodd;stroke-width:.341347;fill-opacity:1"/><path d="M17.732 26.353a4.76 4.76 0 0 1-3.678-2.082 4.7 4.7 0 0 1-.803-2.36c-.006-.094-.01-1.498-.01-3.764v-3.615h9.607v3.615c0 2.266-.004 3.67-.01 3.764a4.73 4.73 0 0 1-2.187 3.705c-.845.542-1.861.798-2.919.737z" style="fill:#eee;fill-opacity:1;stroke-width:.0650679"/><path d="M13.24 14.532h9.626v6.622H13.24z" style="fill:#fff500;fill-opacity:1;fill-rule:evenodd;stroke:none;stroke-width:.0650679"/><path d="m18.932 20.891-.033-.038a.5.5 0 0 0-.117-.114c-.103-.07-.283-.13-.572-.191a9 9 0 0 0-.437-.08l-.01-.001v-.127h.007c.013-.003.103-.003.153-.002a13 13 0 0 1 .444.024l-.023-.009a8 8 0 0 1-.276-.103 3.7 3.7 0 0 1-.794-.416 2 2 0 0 1-.261-.225 1 1 0 0 0-.07.014.4.4 0 0 0-.094.031.5.5 0 0 0-.143.082.3.3 0 0 0-.093.153l-.02.085a.35.35 0 0 1-.043-.193.5.5 0 0 1 .012-.104l-.006.011a1 1 0 0 1-.045.077.4.4 0 0 1-.073.078.4.4 0 0 1-.09.055.3.3 0 0 0-.08.054.5.5 0 0 0-.065.078l-.047.062-.015-.07a.4.4 0 0 1-.001-.087.5.5 0 0 1 .063-.176l-.014.015a.57.57 0 0 1-.273.193.5.5 0 0 1-.098.018 1 1 0 0 1-.141-.002 1 1 0 0 1-.084-.001c-.096-.006-.127 0-.14.03-.002.008-.003.013-.003.067 0 .053-.001.06-.004.076q-.018.082-.077.089c-.038.005-.087-.012-.181-.066l-.036-.021.024-.024.046-.042.021-.02v-.01c0-.02-.008-.05-.02-.07a.14.14 0 0 0-.093-.07.2.2 0 0 0-.051 0l-.012.002-.024.025a1 1 0 0 0-.064.073l-.01.014-.003-.004q-.09-.096.035-.17l.04-.024-.145.049a.1.1 0 0 0-.032.014.12.12 0 0 1-.152-.005.2.2 0 0 1-.051-.056l-.007-.01.01-.001.03-.006.023-.004.007-.014a.15.15 0 0 0 .02-.078c0-.057-.029-.1-.081-.121l-.009-.004-.024.006-.024.005a.2.2 0 0 1 .011-.042.14.14 0 0 1 .083-.084.2.2 0 0 1 .072-.014.3.3 0 0 1 .05.002l-.006-.006a.26.26 0 0 1-.085-.102.2.2 0 0 1-.012-.038l.02.004c.02.004.02.004.024.002a.16.16 0 0 0 .074-.127q0-.045-.03-.079l-.007-.009c0-.002.026-.016.043-.023l.035-.012c.016-.003.02-.003.049-.004.028 0 .033 0 .05.004q.049.01.096.038c.021.012.03.018.056.038q.016.012.016.01l-.006-.02q-.022-.076.02-.126c.007-.009.02-.02.02-.018l.01.033c.004.018.008.033.01.034a.2.2 0 0 0 .047.018c.065.015.129-.01.158-.06a.1.1 0 0 0 .014-.033c0-.004 0-.003.01.002a.15.15 0 0 1 .078.096c.002.01.002.018.002.033a.2.2 0 0 1-.025.084.2.2 0 0 0-.033.09c-.002.019.001.029.01.038.005.007.02.014.034.017a.4.4 0 0 0 .076 0 .8.8 0 0 0 .207-.061 2.4 2.4 0 0 0 .626-.478q.002-.004-.003-.026a1 1 0 0 1-.019-.21v-.069l-.01.018-.017.024a.37.37 0 0 1-.22.147 1 1 0 0 1-.336.005l-.187-.025.031-.019a.693.693 0 0 0 .331-.375l-.021.008a.66.66 0 0 1-.323.052.5.5 0 0 1-.333-.173.8.8 0 0 1-.151-.27l-.025-.078.027.014c.035.018.05.026.08.038a.48.48 0 0 0 .467-.026 1 1 0 0 0 .103-.073l.01-.009-.091-.09c-.11-.108-.16-.157-.203-.202-.268-.274-.418-.482-.524-.728l-.004-.009-.012.01a.34.34 0 0 1-.157.073.4.4 0 0 1-.1 0 .4.4 0 0 1-.115-.04l-.013-.007.006-.002c.008-.001.01-.005.02-.024a.16.16 0 0 0 .01-.11.2.2 0 0 0-.028-.05.1.1 0 0 0-.042-.027c-.016-.007-.01-.007-.052.002l-.022.005.002-.005c.01-.02.035-.04.063-.052a.3.3 0 0 1 .112-.018l.038-.001-.008-.004-.027-.014a.33.33 0 0 1-.18-.244.1.1 0 0 1 0-.037l.028.02.03.018.038-.012a.16.16 0 0 0 .081-.075.1.1 0 0 0 .01-.05.1.1 0 0 0-.009-.049c-.004-.008-.001-.006-.051-.037l-.019-.011.014-.006a.2.2 0 0 1 .07-.012q.022.001.037.005a.3.3 0 0 1 .088.04l.017.013.006.004-.005-.012a.25.25 0 0 1 .002-.216c.012-.021.04-.056.043-.053l.007.024.008.023a.168.168 0 0 0 .145.011.13.13 0 0 0 .071-.075l.003-.009-.006-.02-.006-.022s.008 0 .015.002c.102.023.164.109.164.228v.018l.011-.018a.26.26 0 0 1 .12-.11.1.1 0 0 1 .045-.012l-.007.016-.007.017a.166.166 0 0 0 .078.087q.068.032.13-.004.01-.006.01-.003c.003.003.012.03.015.04a.22.22 0 0 1-.01.128.3.3 0 0 1-.05.08l-.012.013v.034a.7.7 0 0 0 .106.371c.1.17.267.338.538.544.058.044.13.096.132.097l.022-.007a.5.5 0 0 1 .192-.026c.05 0 .062 0 .088.003.052.006.115.017.163.03l.018.004v-.004c-.002-.002-.006-.015-.011-.028l-.02-.06a.36.36 0 0 1 .03-.263 1 1 0 0 1 .04-.063l.018.027q.202.319.493.37c.064.01.139.01.208-.002a.8.8 0 0 0 .443-.247l.004-.005-.004.002a1 1 0 0 1-.107.044.4.4 0 0 1-.284-.002.37.37 0 0 1-.197-.21c-.007-.018-.007-.02-.006-.031.005-.056.05-.092.121-.096a.22.22 0 0 1 .125.033c.012.008.03.024.035.03a.02.02 0 0 0 .01.007.4.4 0 0 0 .195.003.207.207 0 0 0 .16-.23.25.25 0 0 0-.048-.115c-.062-.079-.163-.121-.29-.121a1 1 0 0 0-.096.006l-.026.004-.012-.005a.4.4 0 0 1-.085-.056c-.093-.08-.15-.194-.144-.287a.15.15 0 0 1 .021-.07c.027-.045.083-.076.153-.082.02-.001.02 0 .006-.015q-.05-.056-.052-.097a.07.07 0 0 1 .01-.044c.04-.063.194-.086.393-.058.074.01.132.025.2.048l.01.003-.004-.008c-.029-.07.052-.12.22-.137.075-.008.184-.007.268.001.219.02.379.08.415.154l.003.006.01-.018a.44.44 0 0 1 .238-.19.8.8 0 0 1 .289-.035l.05.002.004.131c0 .148-.026.253-.081.33a.3.3 0 0 1-.086.084l.018.003q.204.026.204.171a.3.3 0 0 1-.02.1.2.2 0 0 0-.013.07c0 .025.005.043.015.064.01.02.034.042.057.055a.3.3 0 0 0 .06.023c.016.004.02.004.051.004s.036 0 .048-.004a.13.13 0 0 0 .076-.044q.017-.018.018-.017l.001.034q.011.209-.126.301a.33.33 0 0 1-.198.051c-.04 0-.049 0-.069-.003a1 1 0 0 1-.12-.027q.003.002.017.023a.5.5 0 0 1 .096.207c.004.021.005.07.001.088a.27.27 0 0 1-.098.16l-.05.039c-.088.06-.129.11-.134.161s.038.098.107.117a.2.2 0 0 0 .063.009.18.18 0 0 0 .136-.056c.003 0 .021.009.021.01l-.01.027a.5.5 0 0 1-.092.152.27.27 0 0 1-.134.08.3.3 0 0 1-.09.003.33.33 0 0 1-.161-.08.47.47 0 0 1-.164-.356c0-.03.004-.053.011-.079.005-.015.005-.016.002-.014a.182.182 0 0 0-.048.12c-.002.041.008.085.021.09.003.001.006.006.014.027a1 1 0 0 1 .064.263c.002.028.002.1 0 .13a.8.8 0 0 1-.168.411c-.034.047-.08.102-.11.135a.402.402 0 0 0-.123.21.2.2 0 0 0 .008.114q.015.039.048.069a.2.2 0 0 0 .066.04l.03.014-.03.002a1 1 0 0 1-.15-.004c-.01-.002-.013-.006.024.034a2.7 2.7 0 0 1 .51.783c.136.315.293.555.49.753a2 2 0 0 0 .252.213l-.008.009q-.009.01-.011.006a8 8 0 0 0-.428.127c-.425.13-.425.13-.424.133 0 .004 0 .004-.01.007-.013.003-.015.003-.015 0q0-.003-.002-.003a.2.2 0 0 0-.037.015l-.016-.017zm1.915-.282-.155-.012a1 1 0 0 0-.15-.007c-.004.002-.004.002-.013-.004l-.01-.007.013-.014a.7.7 0 0 0 .12-.187q.092-.199.117-.527l.003-.034-.023-.02a.5.5 0 0 1-.17-.24.3.3 0 0 1 .004-.139.5.5 0 0 1 .056-.115l.077-.115a.15.15 0 0 0 .026-.125.2.2 0 0 0-.04-.074.2.2 0 0 0-.046-.037l-.009-.005v.013a1.3 1.3 0 0 1-.03.277.53.53 0 0 1-.13.258 1 1 0 0 1-.07.056l.008-.034a.7.7 0 0 0 .01-.395c-.007-.029-.006-.028-.012-.006-.05.169-.124.278-.235.345a.4.4 0 0 1-.065.032l-.009-.009-.007-.008.01-.01a.47.47 0 0 0 .123-.25.9.9 0 0 0 .002-.223 1 1 0 0 1-.009-.071.3.3 0 0 1 .016-.109l.004-.01-.007-.01a.5.5 0 0 1-.083-.148.2.2 0 0 1-.01-.072.15.15 0 0 1 .055-.115.33.33 0 0 1 .185-.068.7.7 0 0 1 .15.006h.008l-.003-.004-.157-.29a6 6 0 0 1-.17-.322 1.3 1.3 0 0 1-.116-.622.68.68 0 0 1 .276-.5.66.66 0 0 1 .312-.106c.039-.005.131-.005.173-.001.138.013.259.052.347.11a.4.4 0 0 1 .072.062l.023.033a.2.2 0 0 1 .025.078l.001.016.016-.009a.33.33 0 0 1 .206-.034.31.31 0 0 1 .23.202.4.4 0 0 1 .03.145c0 .025 0 .026.005.032l.017.023c.119.171.16.402.125.717l-.003.028.014.015c.1.109.154.179.194.247.088.151.078.276-.03.385a1 1 0 0 1-.077.065l.002-.023a.4.4 0 0 0 0-.09c-.02-.116-.097-.24-.257-.423l-.024-.026.014.034a.8.8 0 0 1 .077.292.5.5 0 0 1-.018.144.6.6 0 0 0-.02.14c0 .05.01.09.032.129l.044.06a1 1 0 0 1 .065.097l-.027-.007a.5.5 0 0 1-.166-.067.5.5 0 0 1-.082-.071c-.08-.09-.125-.216-.14-.392a3 3 0 0 1-.005-.152.5.5 0 0 0-.015-.139.63.63 0 0 0-.164-.281 1 1 0 0 0-.14-.123.6.6 0 0 1-.144-.124q-.19-.229.007-.582l.015-.026-.01-.017a.4.4 0 0 0-.145-.153q-.117-.067-.304-.027a.434.434 0 0 0-.27.245c-.049.127-.039.289.032.511.028.088.023.077.214.5l.18.397.013.009.018.012.005.003v-.033c0-.148.065-.274.175-.336a.3.3 0 0 1 .086-.033.2.2 0 0 1 .053-.005.2.2 0 0 1 .051.004c.089.02.151.082.18.175.018.065.02.146.002.231-.003.02-.018.086-.02.086l-.017-.037a.45.45 0 0 0-.11-.174q-.043-.033-.075-.007c-.043.036-.068.135-.062.247.009.152.06.297.148.417a1 1 0 0 1 .057.094c.092.175.115.331.067.454a.4.4 0 0 1-.218.213 1 1 0 0 1-.13.048l-.018.005.001.024a1.6 1.6 0 0 1-.163.722z" style="fill:red;fill-opacity:1;stroke-width:.0650679"/><path d="M15.028 20.338a.3.3 0 0 1-.084-.09.16.16 0 0 1-.024-.095c.002-.063.036-.121.123-.211l.021-.023.012-.002c.063-.012.125.024.15.089.006.015.01.037.01.05v.008l-.015.014-.033.032c-.083.075-.107.108-.122.163a.2.2 0 0 0-.003.047v.035h-.007c-.007 0-.008-.001-.028-.017zm-.637-.377a.5.5 0 0 1-.027-.099.3.3 0 0 1-.001-.072q.015-.1.136-.15a1 1 0 0 1 .135-.038l.017-.004.012.006a.12.12 0 0 1 .057.05c.012.021.016.035.017.062.001.024-.001.04-.01.062l-.016.032-.07.013a.6.6 0 0 0-.126.03.2.2 0 0 0-.059.034.2.2 0 0 0-.047.06l-.014.024zm.008-.612.008-.07a.3.3 0 0 1 .03-.093.18.18 0 0 1 .097-.082.3.3 0 0 1 .104-.014c.037.001.067.005.119.015.035.006.031.005.046.02.008.01.018.027.022.041a.1.1 0 0 1 .004.035c0 .021-.001.026-.005.038a.2.2 0 0 1-.026.05.2.2 0 0 1-.044.039l-.075-.018a.4.4 0 0 0-.137-.02.2.2 0 0 0-.121.044l-.018.013zm.857-.263a.2.2 0 0 1-.06-.02l-.01-.034a.6.6 0 0 0-.055-.167.2.2 0 0 0-.102-.086l-.016-.007.015-.006a.3.3 0 0 1 .194-.032.2.2 0 0 1 .07.034c.045.035.076.09.108.19l.011.035-.003.009a.13.13 0 0 1-.087.08.1.1 0 0 1-.038.004zm-.985-2.182a1 1 0 0 1-.021-.073.3.3 0 0 1 0-.094c.019-.077.078-.125.196-.158l.089-.021c.005 0 .025.01.036.017q.021.014.034.038c.012.02.016.034.017.06a.14.14 0 0 1-.019.083c-.008.015 0 .012-.068.024a.6.6 0 0 0-.135.03.2.2 0 0 0-.08.056l-.025.038-.015.026zm2.594-.216a1 1 0 0 1-.103-.016.385.385 0 0 1-.302-.447.39.39 0 0 1 .339-.319 1 1 0 0 1 .124 0 1 1 0 0 1 .107.02l.029.008-.001.007-.002.008-.032.001c-.026 0-.033.001-.044.004-.093.022-.163.107-.182.22a.4.4 0 0 0 0 .097.23.23 0 0 0 .196.193.6.6 0 0 0 .257-.022c.052-.015.095-.03.164-.06a.45.45 0 0 1 .28-.04q.175.037.361.25l.02.024-.006.005-.008.006-.031-.018q-.274-.172-.467-.115a.5.5 0 0 0-.086.035 2 2 0 0 1-.232.098 1.1 1.1 0 0 1-.28.06 1 1 0 0 1-.101 0zm-2.353-.472-.041-.029a.6.6 0 0 0-.107-.064.207.207 0 0 0-.142-.007l-.018.005v-.007a.2.2 0 0 1 .027-.055q.069-.111.171-.116c.059-.003.12.02.214.077l.032.02.005.013a.1.1 0 0 1 .008.05c-.004.057-.053.108-.12.125l-.009.002zm1.035-.283a.15.15 0 0 1-.102-.058.2.2 0 0 1-.024-.04l.03-.065a.6.6 0 0 0 .048-.112.19.19 0 0 0-.017-.144l-.01-.021.066.02q.121.044.15.134a.26.26 0 0 1-.01.15 1 1 0 0 1-.044.113l-.007.005a.13.13 0 0 1-.08.019zm-.62-.108c-.023-.004-.056-.017-.057-.022l-.015-.058a1 1 0 0 0-.03-.11.2.2 0 0 0-.059-.084.2.2 0 0 0-.054-.033l-.019-.01.022-.009a.34.34 0 0 1 .157-.03c.086.007.144.062.185.173.006.017.025.076.028.089.003.008-.007.031-.02.048a.13.13 0 0 1-.069.044.2.2 0 0 1-.07.002z" style="fill:#193783;fill-opacity:1;stroke-width:.0650679"/><path d="m18.933 20.896-.036-.043a1 1 0 0 0-.054-.06.6.6 0 0 0-.235-.133q-.256-.093-.826-.185l-.021-.003v-.147h.013c.05-.004.143-.003.247.002l.274.014-.056-.021c-.545-.2-.937-.421-1.193-.674l-.026-.025-.004-.004-.018.003a.6.6 0 0 0-.126.037.6.6 0 0 0-.15.086.3.3 0 0 0-.08.127c-.007.019-.036.131-.036.137 0 .008-.005-.003-.024-.047a.35.35 0 0 1-.036-.2l.002-.016-.013.018a.4.4 0 0 1-.163.138.376.376 0 0 0-.138.119l-.046.06-.029.04-.009-.04a.36.36 0 0 1 .014-.256l-.014.015a1 1 0 0 1-.088.072.5.5 0 0 1-.233.082 1 1 0 0 1-.142-.002 1 1 0 0 1-.088-.001.4.4 0 0 0-.099.002q-.015.004-.022.015c-.005.009-.006.013-.005.059 0 .06-.003.089-.013.117-.013.036-.04.061-.07.067a.13.13 0 0 1-.07-.005.6.6 0 0 1-.12-.056l-.038-.02-.003.003a.23.23 0 0 0-.063.103.3.3 0 0 0-.002.09l.003.035-.042-.03a.36.36 0 0 1-.117-.122q-.05-.094.016-.202l.008-.014-.005-.005a.14.14 0 0 1-.029-.051.1.1 0 0 1 0-.046.1.1 0 0 1 .026-.044l.009-.01-.084.03a.14.14 0 0 1-.065.026c-.056.006-.111-.026-.156-.091-.002-.003-.004-.002-.032.003-.08.014-.116.028-.15.058a.2.2 0 0 0-.045.062l-.02.037-.006.009-.035-.101a.3.3 0 0 1-.01-.083c0-.026 0-.036.003-.047.02-.085.088-.138.222-.173l.018-.005.001-.008a.2.2 0 0 1 .034-.073.2.2 0 0 1 .05-.04.2.2 0 0 1 .085-.021l.021-.002-.012-.013a.25.25 0 0 1-.064-.104l-.003-.008-.024-.006c-.101-.025-.148-.028-.195-.01a.3.3 0 0 0-.068.043l-.034.025.01-.098q.023-.146.131-.19a.3.3 0 0 1 .104-.016c.045 0 .065.002.134.014l.036.007.01-.006a.25.25 0 0 1 .165-.025.4.4 0 0 1 .145.065v-.008a.3.3 0 0 1 0-.056.14.14 0 0 1 .035-.064q.009-.009.009-.012l-.018-.065a.2.2 0 0 0-.063-.102.2.2 0 0 0-.066-.038l-.034-.015a1 1 0 0 1 .1-.04.27.27 0 0 1 .165-.006.2.2 0 0 1 .103.08.5.5 0 0 1 .069.152l.007.022.014.009c.016.009.04.029.05.042a.13.13 0 0 1 .03.079c.001.037-.006.062-.037.12-.02.037-.027.07-.02.09.01.032.086.032.201 0a.6.6 0 0 0 .178-.078 2.4 2.4 0 0 0 .545-.432q.003-.001 0-.014a1 1 0 0 1-.021-.194l-.001-.047-.004.006a.4.4 0 0 1-.063.067q-.124.106-.363.097a3 3 0 0 1-.361-.043l.043-.024a.8.8 0 0 0 .137-.09.7.7 0 0 0 .196-.263q-.001 0-.01.003l-.034.012a.64.64 0 0 1-.297.033.53.53 0 0 1-.347-.201.8.8 0 0 1-.13-.246l-.034-.107.036.019c.045.023.068.035.096.047q.083.035.161.044c.021.003.083.003.102 0a.55.55 0 0 0 .293-.142l-.09-.09-.196-.195a3 3 0 0 1-.375-.452 3 3 0 0 1-.091-.154l-.056-.117-.017.012a.4.4 0 0 1-.145.06.346.346 0 0 1-.221-.04q-.012-.006-.017-.005l-.089.016c-.082.014-.127.037-.159.078a1 1 0 0 0-.051.085l-.032-.093a.3.3 0 0 1-.013-.09c0-.037.001-.048.011-.074q.033-.085.157-.13l.038-.012.027-.007.007-.01q.04-.058.15-.066l.021-.002-.02-.013a.35.35 0 0 1-.146-.177.3.3 0 0 1-.016-.085c0-.01 0-.01-.033-.032-.059-.04-.1-.055-.143-.055a.2.2 0 0 0-.067.012l-.028.007-.001-.017v-.018l.01-.018q.076-.149.199-.156a.34.34 0 0 1 .172.048l.014.007.01-.004a.2.2 0 0 1 .093-.01q.045.005.087.03l.014.006a.27.27 0 0 1 0-.17.3.3 0 0 1 .041-.067c.015-.017.014-.011.003-.06-.02-.08-.04-.12-.077-.15a.3.3 0 0 0-.069-.039l-.028-.013.017-.007a1 1 0 0 1 .09-.033.3.3 0 0 1 .109-.012c.098.009.161.072.205.202l.009.024.009.002a.218.218 0 0 1 .17.185l.002.023v.005l.012-.013a.239.239 0 0 1 .137-.092l.007-.002.012-.022a.5.5 0 0 0 .052-.132.2.2 0 0 0-.001-.066.4.4 0 0 0-.043-.098c0-.002.059.015.087.024a.4.4 0 0 1 .068.03.2.2 0 0 1 .108.132.3.3 0 0 1-.001.095.6.6 0 0 1-.04.124l-.015.034.006.016q.015.043.012.089a.26.26 0 0 1-.06.145l-.017.02v.032c0 .18.074.352.23.533.108.127.266.265.49.429l.046.034.006-.002a.6.6 0 0 1 .148-.03 1 1 0 0 1 .307.031l-.005-.017a.39.39 0 0 1 .02-.339l.044-.068s.01.013.02.03q.034.054.061.09c.125.168.28.269.448.292a.6.6 0 0 0 .185-.004.77.77 0 0 0 .393-.2c.003-.003.003-.003-.015.003a.6.6 0 0 1-.147.035.36.36 0 0 1-.307-.116.4.4 0 0 1-.079-.132c-.005-.013-.006-.015-.005-.027a.1.1 0 0 1 .038-.074.1.1 0 0 1 .054-.028.2.2 0 0 1 .071-.006.2.2 0 0 1 .134.059l.011.012.017.003c.038.007.051.008.09.008.032 0 .04 0 .055-.003a.22.22 0 0 0 .147-.089q-.002-.002-.024-.016-.222-.14-.384-.127a.4.4 0 0 0-.16.05 1.5 1.5 0 0 1-.472.153.8.8 0 0 1-.203-.003.47.47 0 0 1-.235-.104.39.39 0 0 1-.13-.34.4.4 0 0 1 .36-.358 1 1 0 0 1 .12 0 1 1 0 0 1 .143.03l-.005.021-.005.02h-.029c-.024 0-.03 0-.041.004a.21.21 0 0 0-.135.108c-.057.102-.05.23.015.304q.066.075.192.077a.84.84 0 0 0 .356-.087.445.445 0 0 1 .466.04 1 1 0 0 1 .194.178.1.1 0 0 0 .008-.048.23.23 0 0 0-.092-.192.384.384 0 0 0-.237-.071.5.5 0 0 0-.105.008l-.017.003-.017-.009a.416.416 0 0 1-.234-.317.2.2 0 0 1 .004-.065c.015-.059.059-.102.124-.12l.05-.011q.005.002-.003-.007a.2.2 0 0 1-.043-.071.1.1 0 0 1 0-.06q.015-.038.07-.06c.077-.034.22-.038.373-.012q.081.013.155.037.002 0 .002-.014 0-.023.012-.04c.035-.05.143-.082.304-.087.04-.002.117 0 .153.002.125.01.236.03.32.062.057.02.105.05.128.079l.007.008.01-.014a1 1 0 0 1 .05-.062 1 1 0 0 1 .07-.06.5.5 0 0 1 .176-.075 1 1 0 0 1 .24-.017l.052.001.001.01c.002.017.005.091.005.13 0 .157-.029.267-.089.347a.4.4 0 0 1-.061.062l.017.003a.4.4 0 0 1 .074.021q.114.047.114.157a.3.3 0 0 1-.023.112.2.2 0 0 0-.01.064l.004.03c.016.048.058.081.118.095.02.004.059.006.078.004a.14.14 0 0 0 .063-.023l.033-.034.026-.028.003.048c.006.112-.007.175-.046.24a.294.294 0 0 1-.173.127.543.543 0 0 1-.257-.003l-.017-.004q0 .002.009.015c.014.02.031.05.045.078q.082.165.01.29a.4.4 0 0 1-.124.122c-.082.057-.122.105-.127.155s.045.096.119.11a.2.2 0 0 0 .08-.002.15.15 0 0 0 .073-.04l.01-.008.024.01c.02.009.021.01.02.013a.6.6 0 0 1-.137.21.25.25 0 0 1-.202.057.37.37 0 0 1-.21-.123.5.5 0 0 1-.073-.103q0 .001.003.016a.8.8 0 0 1 .025.356.85.85 0 0 1-.165.366 2 2 0 0 1-.108.13c-.098.103-.14.208-.12.294a.17.17 0 0 0 .085.108 2 2 0 0 0 .098.047l-.056.004a1 1 0 0 1-.145 0l.018.02c.207.224.378.488.503.777.146.336.322.598.539.8a2 2 0 0 0 .197.16l.005.004-.016.017-.017.016-.005-.003-.086-.064a2 2 0 0 1-.168-.15 2.4 2.4 0 0 1-.496-.76 2.7 2.7 0 0 0-.556-.83l-.022-.007a.5.5 0 0 1-.174-.094l-.023-.017-.01.03c-.035.11-.072.198-.117.273a.73.73 0 0 1-.278.276l-.02.011-.003.022a.5.5 0 0 1-.262.392l-.107.057.023-.05a.6.6 0 0 0 .057-.15.2.2 0 0 0 .004-.05.2.2 0 0 0-.009-.063.114.114 0 0 0-.136-.075.2.2 0 0 0-.043.02.12.12 0 0 0-.048.095.2.2 0 0 0 .011.075l.007.03-.093-.001a2 2 0 0 0-.138-.001 1 1 0 0 0-.098.007q-.003.001.01.014c.047.045.12.107.172.147.272.207.637.387 1.14.561l.095.037c.17.075.308.172.403.282.054.063.1.138.127.212l.01.024-.023.007-.025.007q-.003 0-.005-.005l-.002-.005-.015.01-.017.011q-.003 0-.016-.014zm.037-.036-.011-.025q-.105-.232-.398-.385l-.09-.044-.022-.01-.099-.006-.322-.018a4 4 0 0 0-.201-.005l-.014.001v.067l.073.012c.415.07.685.138.843.213a.54.54 0 0 1 .223.183zm-3.93-.574c0-.007.007-.033.012-.046a.3.3 0 0 1 .033-.058.7.7 0 0 1 .088-.09c.041-.039.04-.037.039-.043a.1.1 0 0 0-.017-.05.1.1 0 0 0-.05-.045.1.1 0 0 0-.028-.005l-.018.001-.047.05c-.084.093-.103.166-.061.236q.016.025.037.048.014.015.013.002m.345-.083q.014-.007.023-.03c.01-.026.012-.04.012-.102 0-.05 0-.058.003-.067q.014-.049.082-.06a1 1 0 0 1 .102.001c.042.003.06.003.075 0a.2.2 0 0 1 .041.002 1 1 0 0 0 .125-.002.42.42 0 0 0 .227-.104c.035-.03.057-.051.116-.117l.053-.06c.017-.018.018-.019.021-.017l.023.012c.015.009.018.01.017.013-.006.01-.054.094-.064.114a.4.4 0 0 0-.054.202l.001.007.013-.016a.4.4 0 0 1 .142-.116.347.347 0 0 0 .155-.136c.027-.043.041-.073.089-.19l.023-.056s.048.01.05.012l-.014.054a.9.9 0 0 0-.047.286l.007-.014a.3.3 0 0 1 .119-.138 1 1 0 0 1 .173-.083 1.058 1.058 0 0 1 .347-.042h.097v-.003a.2.2 0 0 1 0-.096.17.17 0 0 1 .072-.096.18.18 0 0 1 .157-.014.17.17 0 0 1 .086.075q.042.08.006.199l-.01.029-.002.007.012-.007a.4.4 0 0 0 .153-.184.6.6 0 0 0 .05-.192s.009-.006.019-.01a.7.7 0 0 0 .21-.17 1 1 0 0 0 .12-.197c.025-.057.057-.147.078-.218l.005-.016-.013-.018a.6.6 0 0 1-.062-.11c-.004-.01-.006-.012-.018-.022l-.038-.029-.005.01a.34.34 0 0 1-.18.183c-.118.05-.275.049-.488-.003a3 3 0 0 1-.149-.042l-.108-.032a.8.8 0 0 0-.47.027c-.148.057-.269.163-.287.25a.1.1 0 0 0 .002.037c0 .003 0 .003-.022.008l-.026.005c-.003 0-.003 0-.014-.035l-.006-.022c0-.002-.013.009-.028.023a2.4 2.4 0 0 1-.576.428.836.836 0 0 1-.226.067.4.4 0 0 1-.091 0q-.058-.013-.072-.057a.1.1 0 0 1 .001-.057.3.3 0 0 1 .03-.07c.02-.038.025-.055.025-.083a.1.1 0 0 0-.011-.048.1.1 0 0 0-.03-.034l-.01-.007-.007.011a.1.1 0 0 1-.024.025.1.1 0 0 1-.035.022.182.182 0 0 1-.151-.006l-.014-.007-.003-.01q-.002-.013-.005-.006c-.007.01-.01.043-.004.066a.4.4 0 0 0 .067.127q.005.006.004.008l-.043.023-.008-.01a.5.5 0 0 0-.16-.138.3.3 0 0 0-.063-.022.2.2 0 0 0-.043-.004.2.2 0 0 0-.04.003c-.025.006-.057.02-.054.025a.13.13 0 0 1 .016.064.15.15 0 0 1-.035.096.3.3 0 0 1-.045.041l-.005.004.006.014a.28.28 0 0 0 .164.13l.02.009a.2.2 0 0 1-.02.039l-.025-.008a.4.4 0 0 0-.14-.025q-.07.002-.103.05c-.008.011-.018.036-.014.034a.137.137 0 0 1 .105.136q0 .044-.023.086l-.01.016-.01.002-.011.003c0 .003.013.018.025.029q.021.019.044.026.034.008.067-.015c.01-.008.014-.01.202-.073l.193-.065.013.02.012.02-.024.012-.097.044a1 1 0 0 0-.101.048.2.2 0 0 0-.063.052.05.05 0 0 0-.004.04c.003.009.011.023.013.023l.014-.016.038-.04.024-.025.013-.003a.2.2 0 0 1 .063 0c.067.015.116.076.12.152l.002.012-.03.027-.038.036c0 .004.077.045.106.057q.057.024.08.013zm.506-.768q-.023-.012-.009-.032c.008-.01.008-.009.098-.009s.088 0 .097.009.007.024-.005.03l-.005.005h-.086c-.08.001-.085 0-.09-.002zm.185-.084c-.017-.008-.019-.026-.004-.037.007-.005.02-.006.099-.005.074 0 .078 0 .083.003q.013.006.014.018 0 .012-.012.02c-.005.003-.007.003-.09.004h-.083zm.175-.085q-.012-.008-.012-.02 0-.01.01-.018l.006-.003h.084c.074-.002.084 0 .09 0q.014.006.015.02 0 .007-.003.012c-.009.011-.007.01-.1.01-.08 0-.084 0-.09-.002zm.159-.092q-.015-.006-.016-.018t.011-.02l.007-.004h.082c.07-.002.083 0 .089 0q.015.006.016.02t-.012.02c-.006.004-.007.004-.088.004l-.082.001zm.162-.089c-.019-.008-.02-.029-.003-.038l.007-.003.08-.001.087.001q.015.004.019.015c.001.006.001.008-.001.014a.03.03 0 0 1-.01.01l-.006.005h-.083l-.082.001-.008-.003zm.151-.086a.03.03 0 0 1-.01-.01q-.01-.016.01-.028c.004-.003.006-.003.086-.004.089 0 .092 0 .1.007.01.01.008.025-.004.033-.005.003-.008.003-.09.004-.079 0-.086 0-.092-.002zm.171-.08q-.014-.007-.013-.018 0-.008.005-.013c.009-.01.008-.01.1-.01h.082l.006.004q.014.008.013.019 0 .014-.014.02c-.007.002-.011.002-.09.002H16.9zm-2.467.962a.2.2 0 0 1 .082-.054.6.6 0 0 1 .14-.033l.047-.009q.004 0 .01-.016a.1.1 0 0 0 .008-.053.1.1 0 0 0-.032-.068c-.018-.015-.018-.015-.045-.01l-.085.024c-.102.036-.144.088-.14.173a.2.2 0 0 0 .008.053zm.342-.595a.12.12 0 0 0 .038-.083.1.1 0 0 0-.019-.054l-.006-.008-.022-.004-.07-.011a.4.4 0 0 0-.105.002.2.2 0 0 0-.057.024.17.17 0 0 0-.056.079.2.2 0 0 0-.013.05q.001.001.007-.002a.26.26 0 0 1 .128-.018 1 1 0 0 1 .13.026l.033.008zm.55-.231a.1.1 0 0 0 .063-.05l.004-.01-.008-.025a.6.6 0 0 0-.044-.11.2.2 0 0 0-.062-.073q-.055-.039-.142-.016c-.026.006-.026.003-.002.023.05.042.07.084.097.192.016.063.016.06.023.064.02.008.048.01.072.005m1.16-.287a.6.6 0 0 1 .162-.132.83.83 0 0 1 .705-.052c.135.044.252.07.362.081.03.003.113.003.14 0 .112-.015.189-.06.24-.14a.5.5 0 0 0 .058-.177l.012-.048a.6.6 0 0 1 .084-.194.2.2 0 0 1 .122-.086.2.2 0 0 1 .043-.004.2.2 0 0 1 .065.009l-.01.042-.017-.001c-.095-.011-.169.049-.198.159a.3.3 0 0 0-.01.103.478.478 0 0 0 .158.363.44.44 0 0 0 .276.107l-.008-.008a.21.21 0 0 1-.06-.196.48.48 0 0 1 .137-.237c.025-.026.073-.084.104-.127a.8.8 0 0 0 .162-.399 1 1 0 0 0 0-.12 1 1 0 0 0-.073-.277.1.1 0 0 1-.023-.05.4.4 0 0 1 0-.098.2.2 0 0 1 .048-.095.785.785 0 0 1 .124-.08l-.021.045a.3.3 0 0 0-.04.143.43.43 0 0 0 .206.37c.017.01.054.026.075.03.015.004.02.004.044.004.022 0 .03 0 .041-.003a.25.25 0 0 0 .14-.105.4.4 0 0 0 .035-.057h-.005l-.038.01a.4.4 0 0 1-.088 0c-.081-.013-.142-.057-.16-.114a.14.14 0 0 1 0-.07c.017-.054.059-.101.141-.158l.048-.036a.24.24 0 0 0 .087-.134.3.3 0 0 0 0-.091.4.4 0 0 0-.058-.14 1 1 0 0 0-.082-.116l-.04-.053.04.015c.065.025.082.031.104.038q.12.035.222.017a.3.3 0 0 0 .06-.017.2.2 0 0 0 .069-.042.23.23 0 0 0 .067-.1.4.4 0 0 0 .019-.1v-.01l-.015.006a.28.28 0 0 1-.228-.022.17.17 0 0 1-.077-.198l.01-.03a.3.3 0 0 0 .016-.075q.005-.092-.082-.126a.4.4 0 0 0-.165-.028l-.057-.003.04-.023a.4.4 0 0 0 .107-.074c.074-.078.105-.196.101-.382l-.002-.055v-.007l-.03-.001a1 1 0 0 0-.12.004.44.44 0 0 0-.383.261l-.02.051-.017.048q-.002.01-.006.008c-.039-.009-.047-.01-.047-.013 0-.007.02-.063.032-.091a.1.1 0 0 0 .007-.03c0-.012 0-.013-.006-.024-.014-.024-.052-.05-.102-.07a1.1 1.1 0 0 0-.347-.065 2 2 0 0 0-.174.002.6.6 0 0 0-.147.028c-.06.022-.074.047-.045.084l.01.013c.003.003.002.004-.013.02l-.016.016-.027-.01a1 1 0 0 0-.428-.064.26.26 0 0 0-.123.033q-.036.024-.014.069a.3.3 0 0 0 .07.086l.031.03-.014.002-.038.001a.3.3 0 0 0-.11.018.11.11 0 0 0-.066.066.14.14 0 0 0-.009.06.3.3 0 0 0 .048.142.5.5 0 0 0 .055.07c.033.036.097.08.11.077l.027-.004a.5.5 0 0 1 .307.048c.085.047.139.121.153.208a.238.238 0 0 1-.171.267.492.492 0 0 1-.227.003l-.027-.005-.008-.012a.14.14 0 0 0-.075-.047.2.2 0 0 0-.074-.004q-.051.01-.062.053c-.003.013-.002.016.009.04a.34.34 0 0 0 .138.162q.137.078.33 0a1 1 0 0 0 .09-.043l.028-.016.018.015.018.016-.013.017a.85.85 0 0 1-.5.298.5.5 0 0 1-.117.009c-.046 0-.056 0-.078-.004q-.303-.04-.512-.337c-.021-.03-.018-.03-.03-.004-.043.092-.042.186.005.298.01.024.018.038.037.06.094.11.269.178.492.194a1 1 0 0 0 .218-.007l.012.043-.035.011c-.125.04-.23.06-.336.067a.832.832 0 0 1-.533-.145c-.013-.008-.017-.012-.02-.017q-.005-.009 0-.016.007-.015.025-.014c.01 0 .01.002.032.016q.24.16.54.128c.03-.004.085-.012.104-.016l.012-.003-.009-.001-.023-.002a1 1 0 0 1-.165-.023.8.8 0 0 1-.253-.099.5.5 0 0 1-.118-.106c-.002-.003-.008-.005-.036-.012q-.343-.088-.532.044a.4.4 0 0 0-.126.146.7.7 0 0 0-.071.235c-.007.053-.01.144-.008.195.002.028 0 .083-.005.13a.9.9 0 0 1-.193.503.8.8 0 0 1-.165.146l-.007.004.035.005c.094.012.142.016.208.017.056.001.08 0 .117-.005a.36.36 0 0 0 .19-.08.45.45 0 0 0 .136-.254.3.3 0 0 1 .042-.101.35.35 0 0 1 .174-.15.5.5 0 0 1 .226-.039c.028.001.074.005.076.006a.2.2 0 0 1-.005.042q.002.003-.037 0a.7.7 0 0 0-.187.015.4.4 0 0 0-.083.035.4.4 0 0 0-.07.059.48.48 0 0 0-.108.252.98.98 0 0 0 .01.32c.006.026.005.025.013.013zm1.851-1.706a.3.3 0 0 1-.053-.033.16.16 0 0 1-.065-.134q0-.027.024-.03.016-.002.025.01c.004.004.004.007.006.029a.1.1 0 0 0 .005.036c.011.032.03.052.07.075.022.013.026.017.026.028q0 .012-.012.018a.03.03 0 0 1-.026 0zm.083-.152a.4.4 0 0 1-.057-.024.2.2 0 0 1-.062-.062c-.012-.023-.021-.057-.018-.067.005-.018.035-.023.047-.007l.006.02a.12.12 0 0 0 .041.068c.016.013.032.02.063.03.017.005.021.007.025.013.008.01.003.026-.01.031-.009.004-.016.003-.035-.002m.257-.063c-.012-.006-.016-.018-.01-.028.005-.008.009-.01.035-.019a.3.3 0 0 0 .147-.11.4.4 0 0 0 .075-.196 1 1 0 0 0 .004-.107l-.005.023a.34.34 0 0 1-.074.158.4.4 0 0 1-.07.059.3.3 0 0 1-.086.036c-.016 0-.028-.012-.026-.026.003-.01.006-.013.04-.027a.25.25 0 0 0 .134-.12.4.4 0 0 0 .04-.204 1 1 0 0 0-.014-.164l.05-.01.008.02c.03.077.047.149.055.228a1 1 0 0 1-.003.138.5.5 0 0 1-.062.186.37.37 0 0 1-.136.133.3.3 0 0 1-.09.033zm-.208-.09c-.077-.012-.123-.041-.15-.097-.012-.023-.014-.03-.01-.038.007-.016.034-.019.046-.005l.009.019a.11.11 0 0 0 .061.063.2.2 0 0 0 .058.014q.033.004.032.024 0 .011-.013.018c-.007.004-.013.004-.033.002zm.008-.14a.2.2 0 0 1-.113-.041c-.022-.02-.047-.055-.047-.068q.001-.02.023-.022c.015-.001.02.002.033.023.028.045.057.06.117.063.019 0 .026.002.031.004q.021.01.013.028c-.007.013-.02.016-.057.013zm-.046-.16a.16.16 0 0 1-.087-.042l-.021-.022c-.007-.01-.008-.012-.008-.019q0-.017.02-.021c.012-.003.02.002.033.016q.034.04.077.044c.013.002.045 0 .061-.004.027-.005.043.004.04.023q0 .014-.017.019a.3.3 0 0 1-.098.006zm-.035-.157a.18.18 0 0 1-.104-.063c-.007-.01-.009-.012-.009-.018 0-.014.012-.024.029-.022.01 0 .015.004.027.018l.02.02c.03.022.06.028.113.019.02-.003.025-.003.033.001q.01.006.011.018 0 .014-.014.02a.3.3 0 0 1-.106.007zm-.066-.331a.08.08 0 0 1-.051-.047.1.1 0 0 1-.008-.041q0-.045.032-.071l.013-.011-.008-.006a.1.1 0 0 0-.042-.02.1.1 0 0 0-.04-.004l-.034-.002a.03.03 0 0 1-.015-.014c-.003-.01.004-.022.016-.026a.2.2 0 0 1 .083.001.2.2 0 0 1 .05.02c.016.01.04.029.055.047.032.036.06.053.104.064.033.008.079.01.124.007.023-.002.03-.002.038.004q.016.011.007.026c-.006.01-.01.012-.045.015a.4.4 0 0 1-.167-.017c-.02-.008-.021-.008-.022-.002a.1.1 0 0 1-.03.061.07.07 0 0 1-.06.015zm-.129 2.47-.003-.015q-.002-.02-.006.002c-.002.007-.002.008.002.012q.009.007.007 0m-2.426-.127a.7.7 0 0 0 .2-.059c.018-.009.017-.006.027-.042a1.2 1.2 0 0 0 .046-.372 1 1 0 0 1 .023-.25l-.055.052c-.121.117-.17.16-.232.204a.55.55 0 0 1-.324.113.6.6 0 0 1-.26-.061l.037.09a.725.725 0 0 0 .119.179.477.477 0 0 0 .42.146zm.114-.617.173-.165.037-.035.01-.023a.5.5 0 0 1 .112-.163.4.4 0 0 1 .106-.077l-.031-.023a6 6 0 0 1-.188-.144c-.255-.206-.41-.386-.49-.57a.7.7 0 0 1-.057-.285v-.045l.014-.015a.3.3 0 0 0 .048-.074.2.2 0 0 0 .008-.122c-.004-.012-.003-.012-.02-.008a.2.2 0 0 1-.063 0 .2.2 0 0 1-.05-.02.2.2 0 0 1-.064-.07l-.006-.012-.01.004a.2.2 0 0 0-.044.03.4.4 0 0 0-.101.18l-.008.023-.025-.004q-.027-.006-.025-.008l.004-.014c.032-.113.023-.21-.025-.27a.2.2 0 0 0-.05-.041c-.012-.007-.022-.01-.02-.008a.1.1 0 0 1-.014.036.1.1 0 0 1-.031.035.1.1 0 0 1-.03.02.19.19 0 0 1-.168-.01c-.004-.001-.004-.001-.01.01a.2.2 0 0 0-.01.174.4.4 0 0 0 .069.124c0 .001-.04.024-.043.024l-.016-.018c-.06-.072-.123-.112-.18-.116-.014 0-.033 0-.033.002q0 .002.012.009l.013.008.006.015c.008.022.01.033.008.053 0 .021-.004.034-.013.051a.15.15 0 0 1-.043.054.2.2 0 0 1-.076.036l-.015.003-.006-.003-.006-.004a.2.2 0 0 0 .013.05c.041.107.15.184.304.215l.028.006a.2.2 0 0 1-.013.043l-.034-.006a.5.5 0 0 0-.256-.004l-.012.005.008.004a.14.14 0 0 1 .069.063.15.15 0 0 1 .014.083.2.2 0 0 1-.014.052l-.003.006.007.004a.3.3 0 0 0 .056.023c.03.008.044.01.076.01.04 0 .068-.006.106-.022a.3.3 0 0 0 .101-.068l.029-.025.016.035c.038.09.068.15.112.226.1.169.226.324.432.533l.249.248.017.016.006-.005zm3.096-.291-.003-.014a.4.4 0 0 1-.007-.087q.001-.044-.005-.01a.3.3 0 0 0 0 .084c.004.017.01.03.012.03q.003 0 .003-.003zm-4.648-.58a.3.3 0 0 1 .155-.063l.096-.017c.005-.002.014-.023.017-.041a.2.2 0 0 0-.003-.054.1.1 0 0 0-.042-.053l-.008-.004-.023.005c-.149.033-.212.079-.224.162-.002.016-.001.05.002.07.004.02.004.02.01.013zm2.678-.169c.142-.016.29-.064.465-.15a.43.43 0 0 1 .334-.038 1 1 0 0 1 .139.052l.006.003-.006-.006a1 1 0 0 0-.073-.06.4.4 0 0 0-.282-.088.5.5 0 0 0-.152.046c-.07.03-.11.045-.163.06a.7.7 0 0 1-.194.03.4.4 0 0 1-.147-.026.26.26 0 0 1-.164-.267.31.31 0 0 1 .157-.265c.014-.007.014-.007-.022-.01a.36.36 0 0 0-.351.173.37.37 0 0 0-.017.338q.03.065.083.112c.033.029.061.046.101.063.044.02.088.03.15.036.022.002.107 0 .136-.002zm-2.434-.466c.043-.022.07-.066.062-.106-.003-.02-.003-.02-.026-.034-.081-.05-.137-.073-.186-.073a.13.13 0 0 0-.07.018.24.24 0 0 0-.072.072l-.007.01h.022c.035 0 .065.007.099.021a.7.7 0 0 1 .134.084c.026.018.024.017.044.008m1.02-.288c.02-.005.022-.007.03-.024a.7.7 0 0 0 .043-.129.2.2 0 0 0 0-.082.16.16 0 0 0-.081-.1l-.037-.017.003.014a.26.26 0 0 1-.024.162l-.042.086c-.014.028-.014.024-.001.044.01.014.031.033.045.04q.034.015.064.006zm-.604-.105a.1.1 0 0 0 .07-.056.6.6 0 0 0-.04-.124.4.4 0 0 0-.038-.06.14.14 0 0 0-.074-.05.23.23 0 0 0-.121.008l.019.017c.03.027.05.054.066.094a1 1 0 0 1 .03.1l.011.05.003.009q0 .003.01.007.033.011.065.006zm5.864 4.808-.024-.008.018-.043q.112-.264.138-.51a2 2 0 0 0 .002-.205l.03-.009q.224-.06.309-.188c.08-.122.066-.293-.04-.493a1 1 0 0 0-.05-.082.8.8 0 0 1-.147-.359c-.021-.139-.002-.268.048-.33q.04-.046.091-.037a.13.13 0 0 1 .064.033.3.3 0 0 1 .065.084l.014.023v-.006a.6.6 0 0 0 0-.145.24.24 0 0 0-.077-.147.18.18 0 0 0-.116-.043.24.24 0 0 0-.16.057.34.34 0 0 0-.117.22.65.65 0 0 0 .075.384c.017.037.03.069.03.07l-.003.003q-.005-.001.002.008a.878.878 0 0 1 .124.323c.005.026.005.03-.003.038q-.006.008-.02.007-.016 0-.023-.012l-.006-.024a.8.8 0 0 0-.126-.322.65.65 0 0 0-.215-.204.3.3 0 0 0-.215-.035.3.3 0 0 0-.205.127c-.034.056-.042.115-.027.196.006.033.008.07.008.122 0 .11-.019.194-.06.276l-.012.022.01-.009a.5.5 0 0 0 .09-.115.8.8 0 0 0 .078-.203.25.25 0 0 1 .077-.134.17.17 0 0 1 .177-.028c.024.01.041.02.063.039.021.018.032.03.045.051a.18.18 0 0 1-.009.209l-.074.112c-.059.095-.074.161-.055.235a.3.3 0 0 0 .031.072c.03.052.07.096.135.152l.028.025-.003.042a1.9 1.9 0 0 1-.085.458c-.04.118-.1.22-.17.291l-.006.005-.019-.014-.02-.014.014-.016q.192-.205.233-.704l.002-.03-.024-.022a.7.7 0 0 1-.102-.108.3.3 0 0 1-.073-.206.3.3 0 0 1 .021-.1l-.005.01a.4.4 0 0 1-.097.124l-.084.062.015-.054a.69.69 0 0 0 .023-.37l-.004-.014-.007.022a.56.56 0 0 1-.172.266.4.4 0 0 1-.12.07l-.031-.033.008-.01a.45.45 0 0 0 .105-.18.5.5 0 0 0 .024-.164.7.7 0 0 0-.007-.131.3.3 0 0 1 .006-.167l.005-.014-.01-.012a.4.4 0 0 1-.088-.184.2.2 0 0 1 .01-.092c.024-.06.086-.105.173-.125a.6.6 0 0 1 .187-.01l.016.002-.15-.278a6 6 0 0 1-.169-.319 1.3 1.3 0 0 1-.113-.661.67.67 0 0 1 .246-.451.6.6 0 0 1 .213-.107.9.9 0 0 1 .532.02c.14.05.234.129.255.215l.004.022.001.006.02-.008a.31.31 0 0 1 .25-.009c.083.034.154.11.187.207.016.045.026.1.026.145v.011l.012.017q.112.153.138.377a1.664 1.664 0 0 1-.003.36c-.003.022-.004.02.014.04.142.155.21.257.238.354.03.104.005.194-.075.28a1 1 0 0 1-.094.08c-.014.011-.016.012-.016.008l.005-.036a.4.4 0 0 0 .003-.097c-.016-.092-.067-.189-.167-.315l-.058-.07.006.019c.036.093.05.16.054.235a.5.5 0 0 1-.02.155c-.024.1-.024.168-.002.226.01.023.025.048.056.087l.035.046c.01.013.045.074.044.075a1 1 0 0 1-.102-.026c-.214-.067-.325-.236-.35-.528a3 3 0 0 1-.004-.154.5.5 0 0 0-.026-.17.66.66 0 0 0-.173-.264 1 1 0 0 0-.118-.1.6.6 0 0 1-.184-.18.4.4 0 0 1-.051-.267.8.8 0 0 1 .097-.27l.012-.022-.006-.01a.6.6 0 0 0-.072-.096.32.32 0 0 0-.262-.094 1 1 0 0 0-.102.014.407.407 0 0 0-.276.287c-.029.119-.013.266.05.462.027.083.025.08.212.492.149.33.178.394.182.397q.01.007.008 0l.004-.068a.4.4 0 0 1 .095-.216.4.4 0 0 1 .074-.062.4.4 0 0 1 .106-.04.4.4 0 0 1 .084-.002.24.24 0 0 1 .18.123.35.35 0 0 1 .043.162.7.7 0 0 1-.011.131c-.006.032-.03.13-.03.129l-.027-.057a1 1 0 0 0-.057-.115q-.043-.07-.078-.083-.03-.013-.057.032c-.037.062-.047.184-.026.305a.8.8 0 0 0 .136.318 1 1 0 0 1 .08.141.581.581 0 0 1 .067.329.36.36 0 0 1-.092.198.6.6 0 0 1-.15.108 1 1 0 0 1-.13.048l-.016.005.002.015.001.063a1.6 1.6 0 0 1-.165.663zm-.35-1.176a.5.5 0 0 0 .07-.146 1 1 0 0 0 .039-.342l-.024-.001c-.016 0-.022 0-.03.003q-.055.018-.087.09l-.007.014.006.019a.73.73 0 0 1 .025.373zm.111-.096c.014-.026.074-.12.099-.152a.14.14 0 0 0 .014-.148.2.2 0 0 0-.052-.063l-.006-.004-.002.033a1.1 1.1 0 0 1-.053.334zm1.265-.425a.3.3 0 0 1-.067-.127.3.3 0 0 1-.006-.084.6.6 0 0 1 .023-.145.5.5 0 0 0 .006-.196 1 1 0 0 0-.102-.285l-.015-.033q0-.003.02-.013c.021-.01.023-.01.026-.009.01.009.09.1.129.145q.202.24.22.394c.002.024.002.024.011.014.092-.098.096-.207.014-.346a1.6 1.6 0 0 0-.214-.266 1 1 0 0 1-.096-.125 1 1 0 0 1-.075-.124.4.4 0 0 1-.048-.204.3.3 0 0 1 .027-.103 1 1 0 0 0 .03-.079.46.46 0 0 0-.007-.312c-.046-.11-.139-.177-.242-.177a.3.3 0 0 0-.1.02.5.5 0 0 0-.083.044c-.031.019-.037.022-.037.02l.003-.03c.008-.044.008-.06 0-.086-.033-.109-.21-.2-.427-.22a.73.73 0 0 0-.427.083.6.6 0 0 0-.14.12c-.12.14-.17.334-.147.565q.018.178.088.361c.028.074.029.074.265.51l.225.413.016.009a.6.6 0 0 1 .114.078c.017.014.03.024.03.022-.002-.001-.107-.236-.236-.52-.198-.44-.235-.522-.246-.552-.094-.269-.11-.457-.053-.603a.4.4 0 0 1 .107-.154.5.5 0 0 1 .172-.105.55.55 0 0 1 .287-.002c.095.03.166.094.235.21l.01.016-.015.025c-.105.185-.131.334-.082.46a.47.47 0 0 0 .198.221c.027.018.09.072.13.111a.64.64 0 0 1 .206.498c.002.1.003.124.012.185q.025.175.106.28a.4.4 0 0 0 .178.127zm-1.58-.19a.4.4 0 0 1 .064-.053.41.41 0 0 1 .298-.056l-.097-.179a.635.635 0 0 0-.182-.006c-.096.014-.157.053-.175.113a.1.1 0 0 0-.005.039c0 .026.002.038.01.064.01.028.032.071.053.1l.008.012.008-.011zm1.641-.89a1.6 1.6 0 0 0-.003-.249.8.8 0 0 0-.106-.323.6.6 0 0 1-.046.153.26.26 0 0 0-.027.126.4.4 0 0 0 .063.19c.022.04.053.086.099.15l.015.02.001-.013zm-3.23 2.575c-.012-.002-.023-.016-.019-.027.003-.007.007-.01.036-.03a.3.3 0 0 0 .09-.08l.025-.027c.013-.007.03-.002.037.009s.006.014-.019.043a.4.4 0 0 1-.098.09l-.03.018a.04.04 0 0 1-.022.004zm-.152-.078c-.007-.003-.014-.012-.014-.018q0-.01.008-.016l.029-.02a.3.3 0 0 0 .087-.077l.029-.03a.04.04 0 0 1 .028-.001c.01.006.014.019.008.03a.362.362 0 0 1-.081.087 1 1 0 0 1-.07.045.03.03 0 0 1-.024 0zm-.201-.09q-.014-.008-.013-.02.001-.008.004-.012l.03-.02a.3.3 0 0 0 .089-.078.2.2 0 0 1 .03-.032c.016-.009.038.002.038.019 0 .007-.003.012-.03.043a.4.4 0 0 1-.126.101.03.03 0 0 1-.023-.002zm-.188-.07q-.005-.001-.012-.007-.014-.013-.003-.028l.032-.023a.6.6 0 0 0 .149-.125c.01-.012.013-.015.02-.017.014-.004.028.001.034.012.004.01.003.015-.015.036a.7.7 0 0 1-.198.152zm-.163-.12a.02.02 0 0 1-.015-.011q-.005-.01 0-.02c.003-.006.009-.01.041-.026a.5.5 0 0 0 .083-.055.6.6 0 0 0 .101-.112c.016-.02.021-.026.027-.029.022-.01.046.008.036.028a1 1 0 0 1-.054.07.5.5 0 0 1-.151.129c-.044.024-.056.029-.067.026zm-.229-.102q-.014-.007-.013-.018c0-.011.005-.016.022-.023a.7.7 0 0 0 .14-.07.5.5 0 0 0 .138-.143c.016-.025.02-.029.034-.029q.024.001.026.022.001.006-.01.022a.5.5 0 0 1-.11.13.6.6 0 0 1-.18.102c-.03.012-.037.013-.047.007m-.156-.105q-.01-.007-.014-.015c-.001-.006.002-.016.008-.02l.033-.015a.5.5 0 0 0 .26-.205c.015-.025.02-.03.033-.03q.024.002.026.023.002.006-.009.02a.55.55 0 0 1-.295.236c-.026.01-.033.01-.042.006" style="fill:#000;stroke-width:.0650679"/><path d="M19.366 20.425c-.01-.027.005-.127.021-.143.013-.013.018-.013.032-.002.013.01.015.024.01.07a.3.3 0 0 1-.017.073c-.011.022-.038.023-.046.001m-.104-.144c-.02-.013-.006-.139.018-.151q.05-.029.037.071c-.009.08-.023.1-.055.08m-.097-.158c-.009-.008-.007-.077.002-.119.005-.023.012-.03.032-.03.024 0 .025.002.022.06a.3.3 0 0 1-.013.078c-.01.018-.03.023-.043.011m-.093-.13c-.008-.008-.007-.077.002-.119.006-.023.012-.03.033-.03.024 0 .025.003.023.055-.003.078-.01.1-.032.1-.01 0-.022-.003-.026-.006m-.099-.134c-.01-.006-.011-.024-.006-.071q.012-.11.053-.079c.013.01.015.024.01.064l-.012.068c-.006.02-.027.029-.045.018m-.116-.155a.4.4 0 0 1 .02-.136c.008-.013.032-.012.041.003s.006.092-.006.123c-.01.028-.046.034-.055.01m-.096-.198c.008-.083.015-.1.042-.096.02.003.022.009.02.058-.004.086-.01.1-.04.1-.028 0-.028 0-.022-.062m-.109-.074c-.008-.008-.006-.077.003-.119.005-.024.012-.03.032-.03.025 0 .025.002.022.065a.2.2 0 0 1-.014.078c-.012.013-.032.016-.043.006m-.138-.143c-.01-.006-.011-.024-.006-.07q.012-.099.052-.084c.014.005.016.017.01.067-.008.093-.02.11-.056.087m-.123-.11c-.021-.013-.005-.139.02-.152q.046-.022.035.078c-.01.074-.024.093-.055.074m-2.406-1.68c-.027-.011-.011-.044.037-.079.096-.069.135-.028.042.044-.054.042-.057.043-.079.034m-.067-.111q-.026-.027.044-.079c.091-.065.13-.024.04.045-.05.04-.07.047-.084.034m-.124-.11c-.006-.017.027-.051.084-.085.03-.019.037-.02.05-.007.02.02.01.038-.043.076q-.075.053-.09.017m-.091-.09q-.026-.027.045-.079.082-.06.09-.009c.001.016-.012.03-.052.058-.055.036-.07.042-.083.03m-.096-.12c-.007-.019.008-.037.066-.074.055-.036.06-.036.074-.01.01.016.003.025-.042.06q-.082.063-.098.025m-.102-.1c-.008-.019.008-.037.066-.074.055-.036.06-.037.073-.01.01.016.004.024-.041.06q-.083.063-.098.025" style="fill:#000;stroke-width:.0650679"/><path d="M17.954 26.438c.04-.002.105-.002.143 0 .038.001.004.004-.075.004s-.11-.002-.068-.004m-.226-.01a.4.4 0 0 1 .066 0c.019.002.004.004-.033.004s-.052-.002-.033-.004m-.139-.01a.3.3 0 0 1 .057 0c.015.002.002.004-.028.004-.031 0-.044-.002-.029-.004m-.092-.01a.1.1 0 0 1 .041 0q.018.004-.018.004c-.022 0-.033-.001-.023-.004zm-.087-.01a.1.1 0 0 1 .03-.001q.014.004-.012.005-.027 0-.018-.005zm-.082-.01a.1.1 0 0 1 .03-.001q.014.004-.012.005-.027 0-.018-.005zm.49-.856c-.494-.038-.77-.088-1.395-.252a7.2 7.2 0 0 0-1.615-.246l-.161-.007-.095-.103a4.6 4.6 0 0 1-.478-.608l-.104-.157.034-.007c.15-.03.639-.046.905-.03.458.028.801.086 1.336.225.758.196 1.179.26 1.787.272a6.5 6.5 0 0 0 1.86-.228c.575-.147.868-.207 1.187-.242.186-.02.447-.036.61-.036.131 0 .467.018.474.025s-.123.205-.224.344c-.113.156-.27.344-.385.466l-.083.087-.204.013a7 7 0 0 0-1.43.246c-.546.142-.822.194-1.236.23-.15.013-.653.018-.784.008m.004-1.813-.163-.014a6.7 6.7 0 0 1-1.119-.208 8 8 0 0 0-1.012-.213 6.4 6.4 0 0 0-1.869.009.3.3 0 0 1-.098.007 5 5 0 0 1-.13-.404c-.056-.203-.112-.48-.101-.491.007-.007.062-.019.253-.053a5.55 5.55 0 0 1 2.196.036c.115.024.201.045.65.16a6.655 6.655 0 0 0 3.43-.016c.71-.18.97-.227 1.456-.264.195-.014.65-.006.86.016.206.022.454.06.61.093l.022.004-.018.105a5 5 0 0 1-.16.643l-.048.151-.062-.007a6.3 6.3 0 0 0-1.083-.048c-.597.028-.933.084-1.74.29a6 6 0 0 1-1.167.2c-.125.01-.619.012-.707.005zm-.015-1.853a6.6 6.6 0 0 1-1.3-.223 10 10 0 0 0-.692-.161 6.5 6.5 0 0 0-2.398-.012l-.146.026c-.004 0-.006-.222-.006-.493v-.493l.075-.017a5.6 5.6 0 0 1 1.169-.145 5.6 5.6 0 0 1 1.634.203c.94.24 1.335.298 2.028.297a6.4 6.4 0 0 0 1.71-.225c.429-.11.61-.152.794-.185a5.5 5.5 0 0 1 2.187.034c.006.004.01.193.01.505 0 .4-.003.498-.013.498-.008 0-.083-.011-.167-.025a6.4 6.4 0 0 0-1.72-.05 8 8 0 0 0-1.147.218c-.603.156-.92.212-1.363.244-.13.01-.553.012-.655.004z" style="fill:#193783;fill-opacity:1;stroke-width:.0650679"/><path d="M17.739 26.373a4.76 4.76 0 0 1-3.677-2.083 4.7 4.7 0 0 1-.804-2.36c-.006-.094-.01-1.498-.01-3.764v-3.614h9.607v3.614c0 2.266-.004 3.67-.01 3.765a4.73 4.73 0 0 1-2.187 3.704c-.845.542-1.86.799-2.919.738z" style="fill:none;stroke:#000;stroke-width:.0820526;stroke-miterlimit:4;stroke-dasharray:none;stroke-opacity:1"/><path d="M13.458 13.76a.15.15 0 0 1-.062-.038c-.064-.06-.038-.142.053-.17l.047-.013.008-.059a1 1 0 0 0 .002-.154.6.6 0 0 0-.108-.338c-.03-.047-.048-.063-.065-.063a.11.11 0 0 1-.097-.066c-.025-.06.003-.11.068-.12l.038-.007-.078-.081a1 1 0 0 1-.256-.44c-.03-.094-.023-.088-.12-.103a2 2 0 0 1-.258-.062 1.07 1.07 0 0 1-.58-.407c-.165-.215-.26-.269-.477-.271a1 1 0 0 1-.102-.004.737.737 0 0 1 .428-.338c.078-.023.28-.026.373-.006.102.022.254.071.357.117l.099.044.015-.022a.55.55 0 0 1 .177-.16.24.24 0 0 1 .135-.03c.12 0 .212.043.39.185a.7.7 0 0 0 .323.161l.098.022-.06.034a.6.6 0 0 0-.117.09c-.073.076-.09.125-.09.28 0 .092-.003.125-.018.157-.035.077-.084.105-.186.105-.035 0-.064.005-.064.01s.02.021.044.035c.035.021.058.027.107.027h.063l.001.084c0 .076.005.092.037.16a.4.4 0 0 0 .196.19.24.24 0 0 0 .139.03c.126-.002.204-.056.251-.177.018-.046.021-.076.022-.236.001-.1.004-.185.006-.187.011-.01.145.119.17.164.147.272.398.432.614.392.103-.02.166-.061.204-.138.053-.106-.03-.268-.199-.39a1 1 0 0 1-.063-.05c0-.002.014-.01.03-.02.085-.043.106-.121.048-.175a.15.15 0 0 0-.158-.035l-.084.032a.344.344 0 0 1-.357-.121c-.132-.155-.218-.22-.342-.26-.05-.017-.052-.02-.052-.05 0-.16.091-.324.21-.378a.52.52 0 0 1 .33.004l.079.026-.057-.05c-.082-.075-.115-.137-.115-.22 0-.086.032-.151.138-.277.103-.123.133-.185.139-.288l.004-.079.018.047c.01.025.033.067.052.094.062.085.127.121.283.158.3.071.387.186.316.416q-.01.027.028-.02a.44.44 0 0 1 .406-.163c.124.024.217.09.327.231.032.043.08.094.108.115.05.038.143.077.19.078q.03 0-.024.018a.41.41 0 0 0-.271.242l-.077.163a.46.46 0 0 1-.22.228.4.4 0 0 1-.178.024c-.066 0-.139-.003-.162-.007l-.043-.008.016.032c.033.064.1.124.19.169l.092.046a.3.3 0 0 1-.027.062c-.084.159-.055.3.087.436.149.141.371.195.526.127a.37.37 0 0 0 .17-.185.7.7 0 0 0 .037-.265.4.4 0 0 1 .025-.17c.017-.059.032-.108.034-.11a1 1 0 0 1 .08.093.7.7 0 0 1 .104.165c.079.197.233.35.412.41a.6.6 0 0 0 .262.023c.32-.05.414-.338.208-.64a.2.2 0 0 1-.026-.046l.046-.015a.27.27 0 0 0 .144-.114c.023-.045.037-.158.019-.158a.3.3 0 0 0-.059.024c-.248.124-.479.146-.647.06-.115-.058-.18-.135-.273-.317a2 2 0 0 0-.093-.162.44.44 0 0 0-.17-.121l-.053-.022.063-.017a.8.8 0 0 0 .284-.148.6.6 0 0 0 .078-.104.4.4 0 0 1 .154-.17c.05-.028.06-.03.158-.029a.4.4 0 0 1 .179.028c.12.045.112.045.102 0a1 1 0 0 1-.007-.12c.001-.15.068-.25.238-.355a.5.5 0 0 0 .18-.224.3.3 0 0 1 .034-.066.3.3 0 0 1 .034.066.5.5 0 0 0 .18.224c.17.105.237.205.238.356a1 1 0 0 1-.008.119c-.01.045-.018.045.103 0a.4.4 0 0 1 .179-.028c.098-.001.108.001.158.029.058.033.1.079.153.17.02.034.055.08.078.104.049.05.187.12.285.148l.063.017-.054.022a.44.44 0 0 0-.169.12c-.015.02-.057.093-.093.163-.093.182-.159.259-.274.317-.168.086-.399.064-.647-.06a.3.3 0 0 0-.058-.024c-.018 0-.005.113.018.158.024.047.09.098.145.114l.045.015a.2.2 0 0 1-.026.046c-.204.3-.113.588.204.64.279.045.559-.134.678-.433a.7.7 0 0 1 .105-.165 1 1 0 0 1 .08-.092l.033.108c.026.09.03.117.025.17a.7.7 0 0 0 .037.265.37.37 0 0 0 .171.186c.154.068.377.014.525-.127.143-.135.171-.277.088-.436a.2.2 0 0 1-.027-.062l.09-.046a.42.42 0 0 0 .191-.17l.017-.03-.043.007a1 1 0 0 1-.162.007.4.4 0 0 1-.179-.024.46.46 0 0 1-.219-.228l-.077-.163a.41.41 0 0 0-.27-.242c-.04-.014-.045-.018-.024-.018a.45.45 0 0 0 .189-.079.7.7 0 0 0 .104-.11c.113-.145.206-.212.33-.235a.44.44 0 0 1 .407.162q.037.049.027.02c-.07-.229.017-.344.317-.415.155-.037.22-.073.282-.158a.5.5 0 0 0 .053-.094l.017-.047.005.08c.006.102.036.164.138.287.106.126.138.19.138.276 0 .084-.033.147-.116.22l-.058.051.08-.026a.5.5 0 0 1 .179-.027c.088 0 .106.002.154.026.03.014.067.038.083.053.066.064.112.17.122.286l.007.067-.054.018c-.126.04-.21.105-.343.261a.4.4 0 0 1-.115.095c-.058.032-.07.035-.152.035-.079 0-.096-.004-.142-.028-.058-.03-.07-.032-.126-.016-.12.033-.13.155-.017.213a.1.1 0 0 1 .031.02 1 1 0 0 1-.064.05c-.173.124-.252.284-.196.395.038.074.099.114.201.133.217.04.468-.12.615-.392.025-.045.158-.175.17-.164.001.002.004.086.005.187.001.16.004.19.023.236.047.121.124.176.25.177a.24.24 0 0 0 .14-.031.4.4 0 0 0 .195-.19.27.27 0 0 0 .038-.159v-.084h.063c.05 0 .072-.006.107-.027.024-.014.044-.03.044-.035s-.028-.01-.064-.01c-.1 0-.15-.028-.185-.105-.015-.032-.019-.065-.019-.157 0-.156-.016-.206-.09-.28a.7.7 0 0 0-.117-.09l-.062-.036.064-.012a.8.8 0 0 0 .248-.087c.023-.015.08-.057.126-.094.162-.129.258-.173.376-.173.061 0 .082.005.135.03a.55.55 0 0 1 .176.16l.016.022.099-.044c.103-.046.254-.095.357-.117.092-.02.295-.017.373.006.166.048.288.14.41.306l.025.035-.106.001c-.219.002-.314.055-.48.27a1 1 0 0 1-.39.333 1.7 1.7 0 0 1-.449.137c-.097.015-.09.01-.12.104a1 1 0 0 1-.255.439l-.078.081.038.006c.064.01.093.061.068.12a.11.11 0 0 1-.098.067c-.04 0-.12.135-.153.256a1 1 0 0 0-.017.3l.008.058.047.014c.056.017.088.053.088.101 0 .046-.052.097-.107.106-.04.007-9.141.007-9.186 0z" style="fill:#fff500;fill-opacity:1;stroke:#000;stroke-width:.0608972;stroke-miterlimit:4;stroke-dasharray:none;stroke-opacity:1"/><path d="M13.487 13.54h9.127" style="fill:none;stroke:#000;stroke-width:.0589006;stroke-linecap:butt;stroke-linejoin:miter;stroke-miterlimit:4;stroke-dasharray:none;stroke-opacity:1"/><path d="M13.346 12.924h9.446M13.335 12.733h9.44" style="fill:none;stroke:#000;stroke-width:.0608972;stroke-linecap:butt;stroke-linejoin:miter;stroke-miterlimit:4;stroke-dasharray:none;stroke-opacity:1"/><ellipse cx="15.071" cy="11.183" rx=".224" ry=".225" style="fill:red;fill-opacity:1;fill-rule:evenodd;stroke:#000;stroke-width:.0608972;stroke-linecap:round;stroke-miterlimit:4;stroke-dasharray:none;stroke-dashoffset:0;stroke-opacity:1"/><ellipse cx="18.035" cy="10.997" rx=".224" ry=".225" style="fill:red;fill-opacity:1;fill-rule:evenodd;stroke:#000;stroke-width:.0608972;stroke-linecap:round;stroke-miterlimit:4;stroke-dasharray:none;stroke-dashoffset:0;stroke-opacity:1"/><ellipse cx="20.971" cy="11.268" rx=".224" ry=".225" style="fill:red;fill-opacity:1;fill-rule:evenodd;stroke:#000;stroke-width:.0608972;stroke-linecap:round;stroke-miterlimit:4;stroke-dasharray:none;stroke-dashoffset:0;stroke-opacity:1"/><path d="M12.353 11.924a.9.9 0 0 0 .42.158c.068-.316-.333-.382-.42-.158zM23.798 11.9a.9.9 0 0 1-.42.158c-.069-.316.332-.382.42-.158z" style="fill:red;stroke:#000;stroke-width:.0608972;stroke-linecap:butt;stroke-linejoin:miter;stroke-miterlimit:4;stroke-dasharray:none;stroke-opacity:1"/><ellipse cx="14.041" cy="13.229" rx=".209" ry=".193" style="fill:#193783;fill-opacity:1;fill-rule:evenodd;stroke:#000;stroke-width:.0608972;stroke-linecap:round;stroke-miterlimit:4;stroke-dasharray:none;stroke-dashoffset:0;stroke-opacity:1"/><ellipse cx="16.727" cy="13.217" rx=".209" ry=".193" style="fill:#193783;fill-opacity:1;fill-rule:evenodd;stroke:#000;stroke-width:.0608972;stroke-linecap:round;stroke-miterlimit:4;stroke-dasharray:none;stroke-dashoffset:0;stroke-opacity:1"/><ellipse cx="19.371" cy="13.224" rx=".209" ry=".193" style="fill:#193783;fill-opacity:1;fill-rule:evenodd;stroke:#000;stroke-width:.0608972;stroke-linecap:round;stroke-miterlimit:4;stroke-dasharray:none;stroke-dashoffset:0;stroke-opacity:1"/><ellipse cx="22.086" cy="13.224" rx=".209" ry=".193" style="fill:#193783;fill-opacity:1;fill-rule:evenodd;stroke:#000;stroke-width:.0608972;stroke-linecap:round;stroke-miterlimit:4;stroke-dasharray:none;stroke-dashoffset:0;stroke-opacity:1"/><path d="m15.429 13.477-.595-.22h.016l.579-.26.51.26zM18.112 13.485l-.594-.22h.016l.578-.26.51.26zM20.648 13.481l-.595-.22h.016l.579-.26.51.26z" style="fill:red;stroke:#000;stroke-width:.0608972;stroke-linecap:butt;stroke-linejoin:miter;stroke-miterlimit:4;stroke-dasharray:none;stroke-opacity:1"/><ellipse cx="14.184" cy="11.927" rx=".257" ry=".248" style="fill:#fff;fill-opacity:1;fill-rule:evenodd;stroke:#000;stroke-width:.0608972;stroke-linecap:round;stroke-miterlimit:4;stroke-dasharray:none;stroke-dashoffset:0;stroke-opacity:1"/><ellipse cx="16.642" cy="11.835" rx=".257" ry=".248" style="fill:#fff;fill-opacity:1;fill-rule:evenodd;stroke:#000;stroke-width:.0608972;stroke-linecap:round;stroke-miterlimit:4;stroke-dasharray:none;stroke-dashoffset:0;stroke-opacity:1"/><ellipse cx="19.507" cy="11.754" rx=".257" ry=".248" style="fill:#fff;fill-opacity:1;fill-rule:evenodd;stroke:#000;stroke-width:.0608972;stroke-linecap:round;stroke-miterlimit:4;stroke-dasharray:none;stroke-dashoffset:0;stroke-opacity:1"/><ellipse cx="21.939" cy="11.904" rx=".257" ry=".248" style="fill:#fff;fill-opacity:1;fill-rule:evenodd;stroke:#000;stroke-width:.0608972;stroke-linecap:round;stroke-miterlimit:4;stroke-dasharray:none;stroke-dashoffset:0;stroke-opacity:1"/></svg>