<svg xmlns="http://www.w3.org/2000/svg" xml:space="preserve" viewBox="0 0 36 36"><path d="M0 0h450v300H0z" style="fill:#fccc00" transform="translate(-177.834)scale(.08)"/><path d="M0 150h450v150H0z" style="fill:#007c5a" transform="translate(-177.834)scale(.08)"/><path d="M4 5a4 4 0 0 0-4 4v4.979h36V9a4 4 0 0 0-4-4z" style="stroke-width:.0303586;fill:#003893;fill-opacity:1"/><path d="M0 22.021V27a4 4 0 0 0 4 4h28a4 4 0 0 0 4-4v-4.979z" style="fill:#de0000;stroke-width:.055364"/><path fill="#fff" d="M0 14h36v8H0Z" style="stroke-width:.0293939"/><path fill-rule="evenodd" stroke="#fcd115" stroke-width=".462" d="m18 10.92 1.775 5.463h5.744l-4.647 3.376 1.775 5.463L18 21.846l-4.647 3.376 1.775-5.463-4.647-3.376h5.744z" style="fill:#de0000"/></svg>