<svg xmlns="http://www.w3.org/2000/svg" xml:space="preserve" viewBox="0 0 36 36"><path fill="#ffcc4d" d="M36 27a4 4 0 0 1-4 4H4a4 4 0 0 1-4-4V9a4 4 0 0 1 4-4h28a4 4 0 0 1 4 4z" style="fill:#0043ff;fill-opacity:1"/><path fill="#fff" d="M20.557 17.727q-.002.889-.088 1.705H15.53a16.66 16.66 0 0 1 0-3.41h4.938q.088.817.088 1.705m.767-1.704h3.278q.215.82.216 1.704-.002.885-.216 1.705h-3.278q.084-.825.085-1.705-.001-.88-.085-1.704m2.999-.853h-3.108c-.267-1.701-.794-3.126-1.473-4.037a6.83 6.83 0 0 1 4.578 4.037zm-3.971 0h-4.704c.163-.969.413-1.827.72-2.522.279-.628.59-1.084.892-1.371.298-.283.546-.368.74-.368s.442.085.74.368c.301.287.613.743.893 1.371.309.693.556 1.55.719 2.522m-5.567 0h-3.108a6.84 6.84 0 0 1 4.581-4.037c-.679.91-1.206 2.336-1.473 4.037m-3.387.853h3.278a17 17 0 0 0-.085 1.704q.001.88.085 1.705h-3.278a6.8 6.8 0 0 1-.216-1.705q.002-.884.216-1.704m4.97 6.78c-.31-.692-.557-1.55-.72-2.519h4.704c-.163.97-.413 1.827-.72 2.52-.279.628-.59 1.084-.892 1.371-.298.285-.546.37-.74.37s-.442-.085-.74-.367c-.301-.288-.613-.743-.893-1.372zm-1.583-2.519c.267 1.702.794 3.127 1.473 4.038a6.84 6.84 0 0 1-4.58-4.038zm9.538 0a6.84 6.84 0 0 1-4.579 4.038c.68-.911 1.204-2.336 1.473-4.038z" style="stroke-width:.545453"/></svg>